<svg xmlns="http://www.w3.org/2000/svg" xmlns:xlink="http://www.w3.org/1999/xlink" width="98" height="97.999" viewBox="0 0 98 97.999">
  <defs>
    <clipPath id="clip-path">
      <rect id="Rectangle_412572" data-name="Rectangle 412572" width="57" height="55" transform="translate(1139.586 3878.606)" fill="#fff" stroke="#707070" stroke-width="1"/>
    </clipPath>
  </defs>
  <g id="Group_1207320" data-name="Group 1207320" transform="translate(-1119.086 -3857.106)">
    <g id="Group_1204751" data-name="Group 1204751" transform="translate(1119.086 3857.106)">
      <g id="Group_1204438" data-name="Group 1204438">
        <g id="Group_1204285" data-name="Group 1204285">
          <g id="Group_1204180" data-name="Group 1204180">
            <g id="Group_1204143" data-name="Group 1204143">
              <g id="Group_1188789" data-name="Group 1188789" transform="translate(0)">
                <path id="Path_1243039" data-name="Path 1243039" d="M41.05,0h0a41.05,41.05,0,0,1,0,82.1h0a41.05,41.05,0,0,1,0-82.1Z" transform="translate(7.951 7.949)" fill="#ffc63f"/>
                <rect id="Rectangle_400907" data-name="Rectangle 400907" width="88.438" height="88.437" rx="44.218" transform="translate(4.782 4.781)" fill="none"/>
                <g id="Group_1098742" data-name="Group 1098742" transform="translate(0)">
                  <g id="Rectangle_400898" data-name="Rectangle 400898" transform="translate(0)" fill="none" stroke="#fff" stroke-width="2" opacity="0.859">
                    <rect width="98" height="97.999" rx="48.999" stroke="none"/>
                    <rect x="1" y="1" width="96" height="95.999" rx="47.999" fill="none"/>
                  </g>
                  <g id="Rectangle_400907-2" data-name="Rectangle 400907" transform="translate(0)" fill="none" stroke="#0f1f33" stroke-linecap="round" stroke-width="2">
                    <rect width="98" height="97.999" rx="48.999" stroke="none"/>
                    <rect x="1" y="1" width="96" height="95.999" rx="47.999" fill="none"/>
                  </g>
                </g>
              </g>
            </g>
          </g>
        </g>
      </g>
    </g>
    <g id="Mask_Group_1099540" data-name="Mask Group 1099540" clip-path="url(#clip-path)">
      <g id="Layer_7" data-name="Layer 7" transform="translate(1139.715 3877.735)">
        <circle id="Ellipse_12962" data-name="Ellipse 12962" cx="10.639" cy="10.639" r="10.639" transform="translate(17.731 17.731)" fill="#bce4f8"/>
        <path id="Path_1329612" data-name="Path 1329612" d="M28.37,17.731a10.639,10.639,0,0,0-7.917,17.731H31.03a4.433,4.433,0,0,0,4.433-4.433V20.453A10.639,10.639,0,0,0,28.37,17.731Z" fill="#e4f5fd"/>
        <g id="Group_1207673" data-name="Group 1207673">
          <circle id="Ellipse_12963" data-name="Ellipse 12963" cx="1.773" cy="1.773" r="1.773" transform="translate(22.164 26.597)" fill="#73a4ea"/>
          <circle id="Ellipse_12964" data-name="Ellipse 12964" cx="1.773" cy="1.773" r="1.773" transform="translate(29.257 22.164)" fill="#73a4ea"/>
          <circle id="Ellipse_12965" data-name="Ellipse 12965" cx="1.773" cy="1.773" r="1.773" transform="translate(29.257 31.03)" fill="#73a4ea"/>
        </g>
        <circle id="Ellipse_12966" data-name="Ellipse 12966" cx="7.979" cy="7.979" r="7.979" transform="translate(1.773 1.773)" fill="#2763bb"/>
        <circle id="Ellipse_12967" data-name="Ellipse 12967" cx="2.66" cy="2.66" r="2.66" transform="translate(7.093 5.319)" fill="#fddfb1"/>
        <path id="Path_1329613" data-name="Path 1329613" d="M9.752,10.639a4.433,4.433,0,0,0-4.433,4.433v1.312a7.979,7.979,0,0,0,8.866,0V15.072A4.433,4.433,0,0,0,9.752,10.639Z" fill="#f3a845"/>
        <path id="Path_1329614" data-name="Path 1329614" d="M12.412,13.3V11.525a4.433,4.433,0,0,0-7.093,3.546h5.319A1.773,1.773,0,0,0,12.412,13.3Z" fill="#eecc61"/>
        <circle id="Ellipse_12968" data-name="Ellipse 12968" cx="7.979" cy="7.979" r="7.979" transform="translate(39.009 1.773)" fill="#2763bb"/>
        <circle id="Ellipse_12969" data-name="Ellipse 12969" cx="2.66" cy="2.66" r="2.66" transform="translate(44.329 5.319)" fill="#fddfb1"/>
        <path id="Path_1329615" data-name="Path 1329615" d="M46.988,10.639a4.433,4.433,0,0,0-4.433,4.433v1.312a7.979,7.979,0,0,0,8.866,0V15.072A4.433,4.433,0,0,0,46.988,10.639Z" fill="#aa2b24"/>
        <path id="Path_1329616" data-name="Path 1329616" d="M49.648,13.3V11.525a4.433,4.433,0,0,0-7.093,3.546h5.319A1.773,1.773,0,0,0,49.648,13.3Z" fill="#d24034"/>
        <circle id="Ellipse_12970" data-name="Ellipse 12970" cx="7.979" cy="7.979" r="7.979" transform="translate(39.009 39.009)" fill="#2763bb"/>
        <circle id="Ellipse_12971" data-name="Ellipse 12971" cx="2.66" cy="2.66" r="2.66" transform="translate(44.329 42.555)" fill="#fddfb1"/>
        <path id="Path_1329617" data-name="Path 1329617" d="M46.988,47.875a4.433,4.433,0,0,0-4.433,4.433V53.62a7.979,7.979,0,0,0,8.866,0V52.308A4.433,4.433,0,0,0,46.988,47.875Z" fill="#559b38"/>
        <path id="Path_1329618" data-name="Path 1329618" d="M49.648,50.535V48.762a4.433,4.433,0,0,0-7.093,3.546h5.319A1.773,1.773,0,0,0,49.648,50.535Z" fill="#6bc148"/>
        <circle id="Ellipse_12972" data-name="Ellipse 12972" cx="7.979" cy="7.979" r="7.979" transform="translate(1.773 39.009)" fill="#2763bb"/>
        <circle id="Ellipse_12973" data-name="Ellipse 12973" cx="2.66" cy="2.66" r="2.66" transform="translate(7.093 42.555)" fill="#fddfb1"/>
        <path id="Path_1329619" data-name="Path 1329619" d="M9.752,47.875a4.433,4.433,0,0,0-4.433,4.433V53.62a7.979,7.979,0,0,0,8.866,0V52.308A4.433,4.433,0,0,0,9.752,47.875Z" fill="#686868"/>
        <path id="Path_1329620" data-name="Path 1329620" d="M12.412,50.535V48.762a4.433,4.433,0,0,0-7.093,3.546h5.319A1.773,1.773,0,0,0,12.412,50.535Z" fill="#939393"/>
        <path id="Path_1329621" data-name="Path 1329621" d="M49.985,38.655a23.937,23.937,0,0,0,0-20.568,8.866,8.866,0,1,0-11.33-11.33,23.937,23.937,0,0,0-20.568,0,8.866,8.866,0,1,0-11.33,11.33,23.937,23.937,0,0,0,0,20.568,8.866,8.866,0,1,0,11.33,11.33,23.937,23.937,0,0,0,20.568,0,8.866,8.866,0,1,0,11.33-11.33ZM45.215,7.979a1.773,1.773,0,1,1,1.773,1.773A1.773,1.773,0,0,1,45.215,7.979Zm1.773,3.546a3.546,3.546,0,0,1,3.546,3.546v.816a7.048,7.048,0,0,1-7.093,0v-.816A3.546,3.546,0,0,1,46.988,11.525Zm0-8.866a7.093,7.093,0,0,1,5.319,11.809,5.319,5.319,0,0,0-2.722-4.052,3.564,3.564,0,1,0-5.16,0,5.319,5.319,0,0,0-2.757,4.052A7.093,7.093,0,0,1,46.988,2.66ZM2.66,9.752a7.093,7.093,0,1,1,12.412,4.717,5.319,5.319,0,0,0-2.722-4.052,3.564,3.564,0,1,0-5.16,0,5.319,5.319,0,0,0-2.757,4.052A7.093,7.093,0,0,1,2.66,9.752ZM7.979,7.979A1.773,1.773,0,1,1,9.752,9.752,1.773,1.773,0,0,1,7.979,7.979Zm1.773,3.546A3.546,3.546,0,0,1,13.3,15.072v.816a7.048,7.048,0,0,1-7.093,0v-.816a3.546,3.546,0,0,1,3.546-3.546Zm-3.546,41.6v-.816a3.546,3.546,0,0,1,7.093,0v.816a7.048,7.048,0,0,1-7.093,0Zm1.773-7.908a1.773,1.773,0,1,1,1.773,1.773A1.773,1.773,0,0,1,7.979,45.215Zm7.093,6.49a5.319,5.319,0,0,0-2.722-4.052,3.564,3.564,0,1,0-5.16,0A5.319,5.319,0,0,0,4.433,51.7,7.093,7.093,0,1,1,15,51.7Zm13.3-1.17a22.244,22.244,0,0,1-9.85-2.314,8.156,8.156,0,0,0,.1-1.232,8.866,8.866,0,0,0-8.866-8.866,8.157,8.157,0,0,0-1.232.1,22.164,22.164,0,0,1,0-19.7,8.156,8.156,0,0,0,1.232.1,8.866,8.866,0,0,0,8.866-8.866,8.156,8.156,0,0,0-.1-1.232,22.164,22.164,0,0,1,19.7,0,8.157,8.157,0,0,0-.1,1.232,8.866,8.866,0,0,0,8.866,8.866,8.156,8.156,0,0,0,1.232-.1,22.164,22.164,0,0,1,0,19.7,8.157,8.157,0,0,0-1.232-.1,8.866,8.866,0,0,0-8.866,8.866,8.157,8.157,0,0,0,.1,1.232A22.244,22.244,0,0,1,28.37,50.535Zm15.072,2.589v-.816a3.546,3.546,0,0,1,7.093,0v.816a7.048,7.048,0,0,1-7.093,0Zm1.773-7.908a1.773,1.773,0,1,1,1.773,1.773A1.773,1.773,0,0,1,45.215,45.215Zm7.093,6.49a5.319,5.319,0,0,0-2.722-4.052,3.564,3.564,0,1,0-5.16,0A5.319,5.319,0,0,0,41.669,51.7a7.093,7.093,0,1,1,10.568,0Z"/>
        <path id="Path_1329622" data-name="Path 1329622" d="M31.03,26.6a2.66,2.66,0,1,0-2.66-2.66,2.526,2.526,0,0,0,0,.363l-3.014,1.826a2.66,2.66,0,1,0,0,4.486L28.37,32.44a2.526,2.526,0,0,0,0,.363,2.66,2.66,0,1,0,.887-1.942L26.491,29.2a2.518,2.518,0,0,0,0-1.667l2.766-1.658a2.66,2.66,0,0,0,1.773.718Zm0-3.546a.887.887,0,1,1-.887.887A.887.887,0,0,1,31.03,23.051ZM23.051,28.37a.887.887,0,1,1,.887.887A.887.887,0,0,1,23.051,28.37Zm7.979,3.546a.887.887,0,1,1-.887.887A.887.887,0,0,1,31.03,31.917Z"/>
        <path id="Path_1329623" data-name="Path 1329623" d="M28.37,16.845A11.525,11.525,0,1,0,39.9,28.37,11.525,11.525,0,0,0,28.37,16.845Zm0,21.278a9.752,9.752,0,1,1,9.752-9.752A9.752,9.752,0,0,1,28.37,38.123Z"/>
      </g>
    </g>
  </g>
</svg>
