<svg xmlns="http://www.w3.org/2000/svg" xmlns:xlink="http://www.w3.org/1999/xlink" width="98" height="97.999" viewBox="0 0 98 97.999">
  <defs>
    <clipPath id="clip-path">
      <rect id="Rectangle_412572" data-name="Rectangle 412572" width="57" height="55" transform="translate(1139.586 3878.606)" fill="#fff" stroke="#707070" stroke-width="1"/>
    </clipPath>
  </defs>
  <g id="Group_1207319" data-name="Group 1207319" transform="translate(-1119.086 -3857.106)">
    <g id="Group_1204751" data-name="Group 1204751" transform="translate(1119.086 3857.106)">
      <g id="Group_1204438" data-name="Group 1204438">
        <g id="Group_1204285" data-name="Group 1204285">
          <g id="Group_1204180" data-name="Group 1204180">
            <g id="Group_1204143" data-name="Group 1204143">
              <g id="Group_1188789" data-name="Group 1188789" transform="translate(0)">
                <path id="Path_1243039" data-name="Path 1243039" d="M41.05,0h0a41.05,41.05,0,0,1,0,82.1h0a41.05,41.05,0,0,1,0-82.1Z" transform="translate(7.951 7.949)" fill="#ffc63f"/>
                <rect id="Rectangle_400907" data-name="Rectangle 400907" width="88.438" height="88.437" rx="44.218" transform="translate(4.782 4.781)" fill="none"/>
                <g id="Group_1098742" data-name="Group 1098742" transform="translate(0)">
                  <g id="Rectangle_400898" data-name="Rectangle 400898" transform="translate(0)" fill="none" stroke="#fff" stroke-width="2" opacity="0.859">
                    <rect width="98" height="97.999" rx="48.999" stroke="none"/>
                    <rect x="1" y="1" width="96" height="95.999" rx="47.999" fill="none"/>
                  </g>
                  <g id="Rectangle_400907-2" data-name="Rectangle 400907" transform="translate(0)" fill="none" stroke="#0f1f33" stroke-linecap="round" stroke-width="2">
                    <rect width="98" height="97.999" rx="48.999" stroke="none"/>
                    <rect x="1" y="1" width="96" height="95.999" rx="47.999" fill="none"/>
                  </g>
                </g>
              </g>
            </g>
          </g>
        </g>
      </g>
    </g>
    <g id="Mask_Group_1099541" data-name="Mask Group 1099541" clip-path="url(#clip-path)">
      <g id="mobile-email_12478744" transform="translate(1139.834 3878.256)">
        <g id="Group_1207674" data-name="Group 1207674">
          <path id="Path_1329624" data-name="Path 1329624" d="M34.062,52.365A2.436,2.436,0,0,1,31.918,55H10.272a2.436,2.436,0,0,1-2.144-2.635V15.9a2.436,2.436,0,0,1,2.144-2.635H31.918A2.436,2.436,0,0,1,34.062,15.9v36.46Z" fill="#d4d2d3" fill-rule="evenodd"/>
          <path id="Path_1329625" data-name="Path 1329625" d="M30.185,55H10.272a2.436,2.436,0,0,1-2.144-2.635V15.9a2.437,2.437,0,0,1,2.138-2.635H30.179A2.436,2.436,0,0,1,32.324,15.9v36.46A2.437,2.437,0,0,1,30.186,55Z" fill="#efedee" fill-rule="evenodd"/>
          <path id="Path_1329626" data-name="Path 1329626" d="M8.127,19.254V15.9a2.436,2.436,0,0,1,2.144-2.635H31.918A2.436,2.436,0,0,1,34.062,15.9v3.349Z" fill="#35718b" fill-rule="evenodd"/>
          <path id="Path_1329627" data-name="Path 1329627" d="M8.127,19.254V15.9a2.437,2.437,0,0,1,2.138-2.635H30.179A2.436,2.436,0,0,1,32.324,15.9v3.349Z" fill="#4084a9" fill-rule="evenodd"/>
          <path id="Path_1329628" data-name="Path 1329628" d="M8.127,49.015v3.349A2.436,2.436,0,0,0,10.272,55H31.918a2.436,2.436,0,0,0,2.145-2.635V49.015Z" fill="#35718b" fill-rule="evenodd"/>
          <path id="Path_1329629" data-name="Path 1329629" d="M8.127,49.015v3.349A2.436,2.436,0,0,0,10.272,55H30.185a2.437,2.437,0,0,0,2.138-2.635V49.015Z" fill="#4084a9" fill-rule="evenodd"/>
          <path id="Path_1329630" data-name="Path 1329630" d="M38.045,24.022,47.7,16.145c.267-.214.155-.371-.224-.681L38.045,7.769a1.908,1.908,0,0,0-2.319,0L26.3,15.464c-.379.309-.491.467-.224.681l9.656,7.878a1.908,1.908,0,0,0,2.319,0Z" fill="#f0a800" fill-rule="evenodd"/>
          <path id="Path_1329631" data-name="Path 1329631" d="M38.045,24.022l8.463-6.9V16.4a.26.26,0,0,0-.044-.174,1.569,1.569,0,0,0-.326-.322L36.706,8.21a1.816,1.816,0,0,0-1.052-.383L26.3,15.463c-.379.309-.491.467-.224.681l9.656,7.878a1.908,1.908,0,0,0,2.319,0Z" fill="#ffb300" fill-rule="evenodd"/>
          <path id="Path_1329632" data-name="Path 1329632" d="M30,7.438V24.353a.908.908,0,0,0,.905.905h8.471c.419,0,.559.014.87-.315L43.5,21.5a.892.892,0,0,0,.275-.674V7.438a.908.908,0,0,0-.905-.905H30.9A.908.908,0,0,0,30,7.438Z" fill="#e0c0c0" fill-rule="evenodd"/>
          <path id="Path_1329633" data-name="Path 1329633" d="M30,7.438V24.353a.908.908,0,0,0,.905.905h7.34a.8.8,0,0,0,.733-.315L42.231,21.5a.892.892,0,0,0,.275-.674V7.438a.908.908,0,0,0-.905-.905H30.9A.908.908,0,0,0,30,7.438Z" fill="#ffe0e0" fill-rule="evenodd"/>
          <path id="Path_1329634" data-name="Path 1329634" d="M37.007,30.091H47.076a.936.936,0,0,0,.933-.933v-12.8a.925.925,0,0,0-.1-.411.939.939,0,0,0-.129-.195c.1.141.085.253-.082.388l-9.656,7.878a1.815,1.815,0,0,1-1.039.382v5.687Z" fill="#ed9600" fill-rule="evenodd"/>
          <path id="Path_1329635" data-name="Path 1329635" d="M25.989,15.757a.928.928,0,0,0-.225.606v12.8a.936.936,0,0,0,.933.933h10.31V24.4a1.87,1.87,0,0,1-1.28-.382l-9.656-7.878c-.167-.134-.186-.246-.082-.388Z" fill="#ffa000" fill-rule="evenodd"/>
          <path id="Path_1329636" data-name="Path 1329636" d="M37.007,30.091h8.568a.936.936,0,0,0,.933-.933V17.118l-8.463,6.9a2.254,2.254,0,0,1-1.039.323v5.746Z" fill="#ffa000" fill-rule="evenodd"/>
          <path id="Path_1329637" data-name="Path 1329637" d="M38.045,21.965l9.661,7.877a.929.929,0,0,1-.633.25H26.694a.929.929,0,0,1-.633-.25L35.7,21.985a1.943,1.943,0,0,1,2.348-.02Z" fill="#fb8c00" fill-rule="evenodd"/>
          <path id="Path_1329638" data-name="Path 1329638" d="M28.527,35.372a1.361,1.361,0,0,0,0-2.711H23.044l.343-2.478c.388-3.267-2.678-4.625-2.678-3.273v1.613c0,1.956-.907,4.74-2.884,4.74v8.961c1.095.655,1.7,1.28,2.933,1.28h7.078a1.361,1.361,0,0,0,0-2.711c1.408,0,1.933-.443,1.933-1.355a1.228,1.228,0,0,0-1.243-1.355,1.361,1.361,0,0,0,0-2.711Z" fill="#ffbcab" fill-rule="evenodd"/>
          <path id="Path_1329639" data-name="Path 1329639" d="M12.414,32.661h4.763a.662.662,0,0,1,.648.671v9.5a.662.662,0,0,1-.648.671H12.414a.662.662,0,0,1-.648-.671v-9.5A.662.662,0,0,1,12.414,32.661Z" fill="#993800" fill-rule="evenodd"/>
          <path id="Path_1329640" data-name="Path 1329640" d="M12.14,32.661h2.749c.206,0,.374.3.374.671V41.98c0,.369-.168.671-.374.671H12.14c-.206,0-.374-.3-.374-.671V33.333C11.765,32.963,11.934,32.661,12.14,32.661Z" fill="#c2591d" fill-rule="evenodd"/>
        </g>
        <ellipse id="Ellipse_12974" data-name="Ellipse 12974" cx="4.759" cy="4.38" rx="4.759" ry="4.38" transform="translate(39.13 1.774)" fill="#1bbd87"/>
        <path id="Path_1329641" data-name="Path 1329641" d="M43.086,10.717A4.4,4.4,0,0,1,39.13,6.252a4.4,4.4,0,0,1,3.956-4.465,4.4,4.4,0,0,1,3.956,4.465A4.4,4.4,0,0,1,43.086,10.717Z" fill="#32d69f" fill-rule="evenodd"/>
        <path id="Path_1329642" data-name="Path 1329642" d="M24.463,51.47a.887.887,0,0,1-.887.887H18.393a.887.887,0,1,1,0-1.774h5.183A.887.887,0,0,1,24.463,51.47Zm-6.07-34.859h5.183a.887.887,0,0,0,0-1.774H18.393a.887.887,0,0,0,0,1.774ZM48.605,14.43a1.819,1.819,0,0,1,.4,1.131V28.356a1.822,1.822,0,0,1-1.82,1.82H34.839V51.827a3.309,3.309,0,0,1-3.032,3.523H10.161A3.309,3.309,0,0,1,7.13,51.827V48.479h0V18.718h0V15.368a3.309,3.309,0,0,1,3.032-3.523H28.454l.766-.625V6.637a1.794,1.794,0,0,1,1.792-1.792h7.674a5.381,5.381,0,1,1,6.082,6.212v.163l3.377,2.755a2.525,2.525,0,0,1,.46.456ZM45.628,28.4,37.593,21.85a1.057,1.057,0,0,0-1.226.02L28.355,28.4H45.628ZM29.22,13.51l-1.942,1.584,1.942,1.584Zm-2.46,13.9,6.409-5.225-6.409-5.228Zm20.469,0V16.961l-2.782,2.27,0,0-3.626,2.958,6.411,5.227ZM44.768,13.51v3.168l1.942-1.584ZM40.386,5.732a3.608,3.608,0,1,0,3.608-3.608,3.612,3.612,0,0,0-3.608,3.608ZM30.994,18.125h0l3.578,2.919.674-.549a2.827,2.827,0,0,1,3.469-.02l.7.571,3.58-2.921V11.019a5.339,5.339,0,0,1-1.423-.484.888.888,0,0,1-.134.011l-8.2.011h0a.887.887,0,0,1,0-1.774l6.322-.008a5.351,5.351,0,0,1-.872-2.156H31.012a.022.022,0,0,0-.018.018V18.125ZM8.9,15.368V17.83H24.985V15.561a1.818,1.818,0,0,1,.4-1.13,2.522,2.522,0,0,1,.461-.457l.436-.356H10.161c-.682,0-1.257.8-1.257,1.748Zm24.161,36.46V49.365H8.9v2.462c0,.948.576,1.748,1.257,1.748H31.807C32.489,53.576,33.065,52.775,33.065,51.828Zm0-21.651h-6.26a1.811,1.811,0,0,1-1.179-.436.883.883,0,0,1-.1-.09,1.814,1.814,0,0,1-.542-1.294V19.6H8.9V47.591H33.065V30.176Zm.172-16.925h7.884a.887.887,0,0,0,0-1.774H33.237a.887.887,0,1,0,0,1.774Zm0,2.694h7.884a.887.887,0,0,0,0-1.774H33.237a.887.887,0,1,0,0,1.774Zm0,2.995h7.884a.887.887,0,0,0,0-1.774H33.237a.887.887,0,1,0,0,1.774ZM24.129,31.364h4.625a2.226,2.226,0,0,1,1.79,3.55,2.27,2.27,0,0,1,.437,1.356,2.215,2.215,0,0,1-.449,1.34,2.224,2.224,0,0,1-.474,3.144,2.227,2.227,0,0,1-2.048,3.1H20.381a4.637,4.637,0,0,1-2.485-.726,1.482,1.482,0,0,1-1.273.726H12.25a1.484,1.484,0,0,1-1.482-1.482V32.847a1.484,1.484,0,0,1,1.482-1.483h4.373a1.477,1.477,0,0,1,1.08.47c1.055-.551,1.778-2.808,1.778-4.4V25.844a1.356,1.356,0,0,1,.679-1.228,1.913,1.913,0,0,1,1.935.2A4.7,4.7,0,0,1,24.142,29.1l-.013,2.267Zm-7.8,10.717V33.138h-3.79v8.943Zm6.906-8.943a.887.887,0,0,1-.887-.892l.018-3.173c0-.01,0-.019,0-.028a3.005,3.005,0,0,0-1.113-2.655v1.048c0,1.952-.937,5.407-3.15,6.15v7.6l.287.172a3.472,3.472,0,0,0,1.988.72H28.01a.452.452,0,0,0,0-.9H26.875a.887.887,0,1,1,0-1.774h1.88a.452.452,0,0,0,0-.9h-1.88a.887.887,0,1,1,0-1.774h1.88a.459.459,0,0,0,.452-.453.414.414,0,0,0-.394-.451H26.875a.887.887,0,1,1,0-1.774h1.88a.452.452,0,0,0,0-.9H23.238ZM42.747,7.747a.887.887,0,0,0,.638.271H43.4a.887.887,0,0,0,.644-.3l2.5-2.8A.887.887,0,1,0,45.22,3.742L43.36,5.827l-.616-.637a.887.887,0,0,0-1.276,1.233Z"/>
      </g>
    </g>
  </g>
</svg>
