<svg xmlns="http://www.w3.org/2000/svg" xmlns:xlink="http://www.w3.org/1999/xlink" width="98" height="97.999" viewBox="0 0 98 97.999">
  <defs>
    <clipPath id="clip-path">
      <rect id="Rectangle_412572" data-name="Rectangle 412572" width="57" height="55" transform="translate(1139.586 3878.606)" fill="#fff" stroke="#707070" stroke-width="1"/>
    </clipPath>
  </defs>
  <g id="Group_1207318" data-name="Group 1207318" transform="translate(-1119.085 -3857.106)">
    <g id="Group_1204751" data-name="Group 1204751" transform="translate(1119.086 3857.106)">
      <g id="Group_1204438" data-name="Group 1204438">
        <g id="Group_1204285" data-name="Group 1204285">
          <g id="Group_1204180" data-name="Group 1204180">
            <g id="Group_1204143" data-name="Group 1204143">
              <g id="Group_1188789" data-name="Group 1188789" transform="translate(0)">
                <path id="Path_1243039" data-name="Path 1243039" d="M41.05,0h0a41.05,41.05,0,0,1,0,82.1h0a41.05,41.05,0,0,1,0-82.1Z" transform="translate(7.951 7.949)" fill="#ffc63f"/>
                <rect id="Rectangle_400907" data-name="Rectangle 400907" width="88.438" height="88.437" rx="44.218" transform="translate(4.782 4.781)" fill="none"/>
                <g id="Group_1098742" data-name="Group 1098742" transform="translate(0)">
                  <g id="Rectangle_400898" data-name="Rectangle 400898" transform="translate(0)" fill="none" stroke="#fff" stroke-width="2" opacity="0.859">
                    <rect width="98" height="97.999" rx="48.999" stroke="none"/>
                    <rect x="1" y="1" width="96" height="95.999" rx="47.999" fill="none"/>
                  </g>
                  <g id="Rectangle_400907-2" data-name="Rectangle 400907" transform="translate(0)" fill="none" stroke="#0f1f33" stroke-linecap="round" stroke-width="2">
                    <rect width="98" height="97.999" rx="48.999" stroke="none"/>
                    <rect x="1" y="1" width="96" height="95.999" rx="47.999" fill="none"/>
                  </g>
                </g>
              </g>
            </g>
          </g>
        </g>
      </g>
    </g>
    <g id="Mask_Group_1099542" data-name="Mask Group 1099542" clip-path="url(#clip-path)">
      <g id="web-touch_17108602" transform="translate(1138.273 3876.298)">
        <g id="Group_1207685" data-name="Group 1207685">
          <g id="Group_1207684" data-name="Group 1207684">
            <g id="Group_1207683" data-name="Group 1207683">
              <g id="Group_1207682" data-name="Group 1207682">
                <g id="Group_1207675" data-name="Group 1207675">
                  <path id="Path_1329643" data-name="Path 1329643" d="M54.31,6.864v43.29a4.125,4.125,0,0,1-4.122,4.122H6.822A4.125,4.125,0,0,1,2.7,50.154V6.864A4.125,4.125,0,0,1,6.822,2.742H50.188A4.12,4.12,0,0,1,54.31,6.864Z" fill="#5b52c5"/>
                  <path id="Path_1329644" data-name="Path 1329644" d="M50.188,54.7H6.822a4.552,4.552,0,0,1-4.548-4.548V6.864A4.56,4.56,0,0,1,6.822,2.308H50.188a4.554,4.554,0,0,1,4.548,4.556v43.29A4.552,4.552,0,0,1,50.188,54.7ZM6.822,3.16a3.7,3.7,0,0,0-3.7,3.7v43.29a3.7,3.7,0,0,0,3.7,3.7H50.188a3.7,3.7,0,0,0,3.7-3.7V6.864a3.706,3.706,0,0,0-3.7-3.7Z"/>
                </g>
                <g id="Group_1207676" data-name="Group 1207676">
                  <path id="Path_1329645" data-name="Path 1329645" d="M56.916,9.47V52.76a4.125,4.125,0,0,1-4.122,4.122H9.428A4.125,4.125,0,0,1,5.306,52.76V9.47A4.125,4.125,0,0,1,9.428,5.348H52.794A4.12,4.12,0,0,1,56.916,9.47Z" fill="#efefed"/>
                  <path id="Path_1329646" data-name="Path 1329646" d="M52.794,57.308H9.428A4.552,4.552,0,0,1,4.88,52.76V9.47A4.552,4.552,0,0,1,9.428,4.923H52.794A4.56,4.56,0,0,1,57.351,9.47V52.76a4.565,4.565,0,0,1-4.556,4.548ZM9.428,5.766a3.7,3.7,0,0,0-3.7,3.7v43.29a3.7,3.7,0,0,0,3.7,3.7H52.794a3.706,3.706,0,0,0,3.7-3.7V9.47a3.7,3.7,0,0,0-3.7-3.7H9.428Z"/>
                </g>
                <g id="Group_1207677" data-name="Group 1207677">
                  <path id="Path_1329647" data-name="Path 1329647" d="M56.916,15.619V9.47a4.125,4.125,0,0,0-4.122-4.122H9.428A4.125,4.125,0,0,0,5.306,9.47v6.149Z" fill="#8f90fb"/>
                  <path id="Path_1329648" data-name="Path 1329648" d="M56.916,16.045H5.306a.422.422,0,0,1-.426-.426V9.47A4.552,4.552,0,0,1,9.428,4.923H52.794A4.56,4.56,0,0,1,57.351,9.47v6.149A.434.434,0,0,1,56.916,16.045ZM5.732,15.194H56.5V9.47a3.7,3.7,0,0,0-3.7-3.7H9.428a3.7,3.7,0,0,0-3.7,3.7Z"/>
                </g>
                <g id="Group_1207678" data-name="Group 1207678">
                  <circle id="Ellipse_12975" data-name="Ellipse 12975" cx="1.226" cy="1.226" r="1.226" transform="translate(8.781 9.258)" fill="#fff"/>
                  <path id="Path_1329649" data-name="Path 1329649" d="M10.007,12.136a1.656,1.656,0,1,1,1.652-1.661,1.663,1.663,0,0,1-1.652,1.661Zm0-2.461a.8.8,0,1,0,.8.8A.807.807,0,0,0,10.007,9.675Z"/>
                </g>
                <g id="Group_1207679" data-name="Group 1207679">
                  <circle id="Ellipse_12976" data-name="Ellipse 12976" cx="1.226" cy="1.226" r="1.226" transform="translate(13.252 9.258)" fill="#fff"/>
                  <path id="Path_1329650" data-name="Path 1329650" d="M14.478,12.136a1.656,1.656,0,1,1,1.661-1.661,1.663,1.663,0,0,1-1.661,1.661Zm0-2.461a.8.8,0,1,0,.809.8A.818.818,0,0,0,14.478,9.675Z"/>
                </g>
                <g id="Group_1207680" data-name="Group 1207680">
                  <circle id="Ellipse_12977" data-name="Ellipse 12977" cx="1.226" cy="1.226" r="1.226" transform="translate(17.723 9.258)" fill="#fff"/>
                  <path id="Path_1329651" data-name="Path 1329651" d="M18.949,12.136a1.656,1.656,0,1,1,1.661-1.661,1.656,1.656,0,0,1-1.661,1.661Zm0-2.461a.8.8,0,0,0,0,1.61.809.809,0,0,0,.809-.809A.818.818,0,0,0,18.949,9.675Z"/>
                </g>
                <g id="Group_1207681" data-name="Group 1207681">
                  <path id="Path_1329652" data-name="Path 1329652" d="M53.441,10.91H34.117a.426.426,0,0,1,0-.852H53.441a.426.426,0,0,1,0,.852Z"/>
                </g>
              </g>
            </g>
          </g>
        </g>
        <g id="Group_1207690" data-name="Group 1207690">
          <g id="Group_1207686" data-name="Group 1207686">
            <path id="Path_1329653" data-name="Path 1329653" d="M26.086,47.795a.188.188,0,0,1-.068-.009A13.627,13.627,0,1,1,41.493,32.3a.43.43,0,0,1-.358.485.426.426,0,0,1-.485-.358A12.773,12.773,0,1,0,26.137,46.943a.426.426,0,0,1,.358.485.407.407,0,0,1-.409.366Z"/>
          </g>
          <g id="Group_1207687" data-name="Group 1207687">
            <path id="Path_1329654" data-name="Path 1329654" d="M25.3,44.141a.575.575,0,0,1-.119-.017A10.22,10.22,0,1,1,37.839,31.469a.426.426,0,1,1-.818.238A9.37,9.37,0,1,0,25.413,43.315a.42.42,0,0,1,.29.528.4.4,0,0,1-.4.3Z"/>
          </g>
          <g id="Group_1207688" data-name="Group 1207688">
            <path id="Path_1329655" data-name="Path 1329655" d="M24.417,40.011a.482.482,0,0,1-.238-.068,6.041,6.041,0,0,1-.971-.809A6.811,6.811,0,0,1,32.84,29.5a6.985,6.985,0,0,1,.809.971.424.424,0,0,1-.707.468,5.726,5.726,0,0,0-.7-.843,5.962,5.962,0,0,0-8.431,8.431,5.726,5.726,0,0,0,.843.7.424.424,0,0,1,.119.588.431.431,0,0,1-.358.2Z"/>
          </g>
          <g id="Group_1207689" data-name="Group 1207689">
            <path id="Path_1329656" data-name="Path 1329656" d="M42.855,40.07l-1.55,1.55L46.7,47.011a2.426,2.426,0,0,1-.009,3.441l-2.512,2.512a2.434,2.434,0,0,1-3.441.009l-5.391-5.391-1.55,1.55a2.43,2.43,0,0,1-4.1-1.2l-2.478-11.54A2.428,2.428,0,0,1,30.106,33.5l11.548,2.478a2.432,2.432,0,0,1,1.2,4.088Z" fill="#54e28e"/>
            <path id="Path_1329657" data-name="Path 1329657" d="M42.447,54.114a2.863,2.863,0,0,1-2.018-.835L35.344,48.2l-1.252,1.252a2.841,2.841,0,0,1-2.836.724,2.808,2.808,0,0,1-1.976-2.138L26.8,36.493a2.862,2.862,0,0,1,3.4-3.4l11.548,2.478a2.859,2.859,0,0,1,1.422,4.812l-1.252,1.252L47,46.722a2.853,2.853,0,0,1-.009,4.037l-2.512,2.512a2.949,2.949,0,0,1-2.035.843Zm-7.1-6.958a.4.4,0,0,1,.3.128l5.391,5.391a2,2,0,0,0,2.836-.009l2.512-2.512a2.012,2.012,0,0,0,.009-2.836L41,41.927a.422.422,0,0,1,0-.6l1.55-1.55a2,2,0,0,0-1-3.373l-11.54-2.478a2.011,2.011,0,0,0-2.385,2.385l2.478,11.54a2.008,2.008,0,0,0,3.381,1l1.55-1.55a.409.409,0,0,1,.307-.136Z" fill="#000100"/>
          </g>
        </g>
      </g>
    </g>
  </g>
</svg>
