<svg xmlns="http://www.w3.org/2000/svg" xmlns:xlink="http://www.w3.org/1999/xlink" width="189.428" height="182.781" viewBox="0 0 189.428 182.781">
  <defs>
    <clipPath id="clip-path">
      <rect id="Rectangle_412572" data-name="Rectangle 412572" width="189.428" height="182.781" transform="translate(1139.586 3878.605)" fill="#fff" stroke="#707070" stroke-width="1"/>
    </clipPath>
  </defs>
  <g id="Mask_Group_1099538" data-name="Mask Group 1099538" transform="translate(-1139.586 -3878.605)" clip-path="url(#clip-path)">
    <g id="camcorder_3673030" transform="translate(1142.911 3878.607)">
      <g id="Group_1207670" data-name="Group 1207670" transform="translate(2.948 2.948)">
        <g id="Group_1207656" data-name="Group 1207656" transform="translate(70.754 53.065)">
          <path id="Path_1329547" data-name="Path 1329547" d="M114.455,17.742H28.961a5.913,5.913,0,0,0-5.9,5.9v82.546a5.913,5.913,0,0,0,5.9,5.9h85.494A14.746,14.746,0,0,0,129.2,97.34V32.482A14.746,14.746,0,0,0,114.455,17.742Z" transform="translate(-23.065 -17.742)" fill="#ccd1d9"/>
        </g>
        <g id="Group_1207657" data-name="Group 1207657" transform="translate(88.442 117.923)">
          <path id="Path_1329548" data-name="Path 1329548" d="M105.037,37.258V52a2.957,2.957,0,0,1-2.948,2.948H31.335A2.957,2.957,0,0,1,28.387,52V37.258h76.65Z" transform="translate(-28.387 -37.258)" fill="#e6e9ed"/>
        </g>
        <g id="Group_1207658" data-name="Group 1207658" transform="translate(58.962 112.027)">
          <path id="Path_1329549" data-name="Path 1329549" d="M37.2,35.484v8.844a2.957,2.957,0,0,1-2.948,2.948H19.516V35.484Z" transform="translate(-19.516 -35.484)" fill="#969faa"/>
        </g>
        <g id="Group_1207659" data-name="Group 1207659" transform="translate(58.962 76.65)">
          <path id="Path_1329550" data-name="Path 1329550" d="M37.2,27.787v8.844H19.516V24.839h14.74A2.957,2.957,0,0,1,37.2,27.787Z" transform="translate(-19.516 -24.839)" fill="#969faa"/>
        </g>
        <g id="Group_1207660" data-name="Group 1207660" transform="translate(58.962 88.442)">
          <path id="Path_1329551" data-name="Path 1329551" d="M19.516,28.387H37.2V51.972H19.516Z" transform="translate(-19.516 -28.387)" fill="#aab2bd"/>
        </g>
        <g id="Group_1207661" data-name="Group 1207661" transform="translate(0 159.196)">
          <path id="Path_1329552" data-name="Path 1329552" d="M60.736,49.677v2.948A14.746,14.746,0,0,1,46,67.366H16.515a14.746,14.746,0,0,1-14.74-14.74V49.677Z" transform="translate(-1.774 -49.677)" fill="#aab2bd"/>
        </g>
        <g id="Group_1207662" data-name="Group 1207662" transform="translate(0 23.585)">
          <path id="Path_1329553" data-name="Path 1329553" d="M60.736,109.106v35.377H1.774V23.611a14.746,14.746,0,0,1,14.74-14.74H46a14.746,14.746,0,0,1,14.74,14.74v85.494Z" transform="translate(-1.774 -8.871)" fill="#ccd1d9"/>
        </g>
        <g id="Group_1207663" data-name="Group 1207663" transform="translate(11.792 35.377)">
          <path id="Path_1329554" data-name="Path 1329554" d="M40.7,15.367V80.225a2.957,2.957,0,0,1-2.948,2.948H8.271a2.957,2.957,0,0,1-2.948-2.948V15.367a2.957,2.957,0,0,1,2.948-2.948H37.751A2.957,2.957,0,0,1,40.7,15.367Z" transform="translate(-5.323 -12.419)" fill="#e6e9ed"/>
        </g>
        <g id="Group_1207664" data-name="Group 1207664" transform="translate(11.792 123.819)">
          <path id="Path_1329555" data-name="Path 1329555" d="M40.7,41.98V59.669a2.957,2.957,0,0,1-2.948,2.948H8.271a2.957,2.957,0,0,1-2.948-2.948V41.98a2.957,2.957,0,0,1,2.948-2.948H37.751A2.957,2.957,0,0,1,40.7,41.98Z" transform="translate(-5.323 -39.032)" fill="#fcd770"/>
        </g>
        <g id="Group_1207665" data-name="Group 1207665" transform="translate(23.585 53.065)">
          <circle id="Ellipse_12958" data-name="Ellipse 12958" cx="5.896" cy="5.896" r="5.896" fill="#ff826e"/>
        </g>
        <g id="Group_1207666" data-name="Group 1207666" transform="translate(88.442 64.858)">
          <path id="Path_1329556" data-name="Path 1329556" d="M105.037,74.356H28.387V24.238a2.949,2.949,0,0,1,2.948-2.948h70.754a2.949,2.949,0,0,1,2.948,2.948Z" transform="translate(-28.387 -21.29)" fill="#69d6f4"/>
        </g>
        <g id="Group_1207667" data-name="Group 1207667" transform="translate(112.027 94.339)">
          <path id="Path_1329557" data-name="Path 1329557" d="M64.965,44.9a14.632,14.632,0,0,1-2.948,8.844H38.432A14.74,14.74,0,1,1,64.965,44.9Z" transform="translate(-35.484 -30.161)" fill="#fcd770"/>
        </g>
        <g id="Group_1207668" data-name="Group 1207668" transform="translate(88.442)">
          <path id="Path_1329558" data-name="Path 1329558" d="M105.037,40.1A38.325,38.325,0,1,1,66.712,1.774,38.346,38.346,0,0,1,105.037,40.1Z" transform="translate(-28.387 -1.774)" fill="#e6e9ed"/>
        </g>
        <g id="Group_1207669" data-name="Group 1207669" transform="translate(112.027 17.688)">
          <path id="Path_1329559" data-name="Path 1329559" d="M70.861,27.733,35.484,48.37V7.1Z" transform="translate(-35.484 -7.097)" fill="#ff826e"/>
        </g>
      </g>
      <g id="Group_1207671" data-name="Group 1207671" transform="translate(0 0)">
        <path id="Path_1329560" data-name="Path 1329560" d="M16.828,16.855A8.844,8.844,0,1,0,25.672,25.7,8.855,8.855,0,0,0,16.828,16.855Zm0,11.792A2.948,2.948,0,1,1,19.776,25.7,2.951,2.951,0,0,1,16.828,28.647Z" transform="translate(15.601 36.211)"/>
        <circle id="Ellipse_12959" data-name="Ellipse 12959" cx="2.948" cy="2.948" r="2.948" transform="translate(29.481 76.65)"/>
        <circle id="Ellipse_12960" data-name="Ellipse 12960" cx="2.948" cy="2.948" r="2.948" transform="translate(29.481 88.442)"/>
        <path id="Path_1329561" data-name="Path 1329561" d="M10.332,88.182H39.812a5.9,5.9,0,0,0,5.9-5.9V17.428a5.9,5.9,0,0,0-5.9-5.9H10.332a5.9,5.9,0,0,0-5.9,5.9V82.286A5.9,5.9,0,0,0,10.332,88.182Zm0-70.754H39.812l0,64.858H10.332Z" transform="translate(7.357 23.845)"/>
        <path id="Path_1329562" data-name="Path 1329562" d="M10.332,67.626H39.812a5.9,5.9,0,0,0,5.9-5.9V44.041a5.9,5.9,0,0,0-5.9-5.9H10.332a5.9,5.9,0,0,0-5.9,5.9V61.73A5.9,5.9,0,0,0,10.332,67.626Zm11.792-5.9V44.041h5.9V61.73Zm17.691,0h-5.9V44.041h5.9ZM10.332,44.041h5.9V61.73h-5.9Z" transform="translate(7.357 85.674)"/>
        <path id="Path_1329563" data-name="Path 1329563" d="M170.013,54.433a41.285,41.285,0,1,0-78.944-.481H80.485A8.855,8.855,0,0,0,71.641,62.8v14.74h-5.9V42.16A17.706,17.706,0,0,0,48.056,24.472H18.576A17.706,17.706,0,0,0,.887,42.16V165.98a17.706,17.706,0,0,0,17.688,17.688H48.056A17.706,17.706,0,0,0,65.745,165.98V130.6h5.9v14.74a8.855,8.855,0,0,0,8.844,8.844H165.98A17.706,17.706,0,0,0,183.668,136.5V71.641A17.711,17.711,0,0,0,170.013,54.433ZM130.6,6.783A35.377,35.377,0,1,1,95.226,42.16,35.416,35.416,0,0,1,130.6,6.783ZM95.226,124.707H165.98V136.5H95.226Zm23.585-11.792a11.792,11.792,0,0,1,23.585,0,11.68,11.68,0,0,1-1.61,5.9H120.423a11.654,11.654,0,0,1-1.613-5.9Zm47.169,5.9H147.265a17.689,17.689,0,1,0-33.325,0H95.226V71.641h6.548a41.113,41.113,0,0,0,25.881,11.642V89.33h5.9V83.283a41.1,41.1,0,0,0,25.881-11.642h6.548Zm-88.442-5.9H65.745V95.226H77.537Zm0-29.481v5.9H65.745v-5.9ZM18.576,30.368H48.056A11.8,11.8,0,0,1,59.849,42.16V160.084H6.783V42.16A11.8,11.8,0,0,1,18.576,30.368Zm29.481,147.4H18.576A11.8,11.8,0,0,1,6.783,165.98H59.849A11.8,11.8,0,0,1,48.056,177.772ZM65.745,118.81H77.537v5.9H65.745ZM177.772,136.5a11.8,11.8,0,0,1-11.792,11.792H80.485a2.951,2.951,0,0,1-2.948-2.948V130.6a5.9,5.9,0,0,0,5.9-5.9V83.433a5.9,5.9,0,0,0-5.9-5.9V62.8a2.951,2.951,0,0,1,2.948-2.948H93.368a41.441,41.441,0,0,0,3.411,5.9H95.226a5.9,5.9,0,0,0-5.9,5.9V136.5a5.9,5.9,0,0,0,5.9,5.9H165.98a5.9,5.9,0,0,0,5.9-5.9V71.641a5.9,5.9,0,0,0-5.9-5.9h-1.554a41.278,41.278,0,0,0,3.325-5.716,11.775,11.775,0,0,1,10.021,11.612Z" transform="translate(-0.887 -0.887)"/>
        <path id="Path_1329564" data-name="Path 1329564" d="M47.016,32.823h5.9v5.9h-5.9Z" transform="translate(106.284 73.308)"/>
        <path id="Path_1329565" data-name="Path 1329565" d="M0,0H5.9V5.9H0Z" transform="translate(144.282 90.324) rotate(-45)"/>
        <path id="Path_1329566" data-name="Path 1329566" d="M0,0H5.9V5.9H0Z" transform="translate(106.76 90.294) rotate(-45)"/>
        <path id="Path_1329567" data-name="Path 1329567" d="M31.048,32.823h5.9v5.9h-5.9Z" transform="translate(69.186 73.308)"/>
        <path id="Path_1329568" data-name="Path 1329568" d="M34.6,5.552V57.091L78.771,31.322Zm5.9,10.265,26.58,15.5-26.58,15.5Z" transform="translate(77.43 9.952)"/>
      </g>
    </g>
  </g>
</svg>
