<svg xmlns="http://www.w3.org/2000/svg" xmlns:xlink="http://www.w3.org/1999/xlink" width="189.428" height="182.781" viewBox="0 0 189.428 182.781">
  <defs>
    <clipPath id="clip-path">
      <rect id="Rectangle_412572" data-name="Rectangle 412572" width="189.428" height="182.781" transform="translate(1139.586 3878.605)" fill="#fff" stroke="#707070" stroke-width="1"/>
    </clipPath>
  </defs>
  <g id="Mask_Group_1099537" data-name="Mask Group 1099537" transform="translate(-1139.586 -3878.605)" clip-path="url(#clip-path)">
    <g id="text_9390950" transform="translate(1145.587 3881.283)">
      <rect id="Rectangle_426348" data-name="Rectangle 426348" width="77.623" height="11.09" transform="translate(49.901 166.337)" fill="#5a5a8b"/>
      <rect id="Rectangle_426349" data-name="Rectangle 426349" width="10.71" height="11.09" transform="translate(116.815 166.337)" fill="#42446a"/>
      <path id="Path_1329534" data-name="Path 1329534" d="M55.762,62.82H22.495l5.544-17.109H50.217Z" transform="translate(49.585 103.524)" fill="#42446a"/>
      <path id="Path_1329535" data-name="Path 1329535" d="M38.45,56.556l2.03,6.264H53.5L47.959,45.712H25.781l-2.314,7.14h9.889A5.355,5.355,0,0,1,38.45,56.556Z" transform="translate(51.843 103.524)" fill="#2d2f47"/>
      <path id="Path_1329536" data-name="Path 1329536" d="M172.876,134.485H6.161A5.355,5.355,0,0,1,.806,129.13V12.857A5.355,5.355,0,0,1,6.161,7.5H172.875a5.355,5.355,0,0,1,5.355,5.355V129.13A5.355,5.355,0,0,1,172.876,134.485Z" transform="translate(-0.805 14.751)" fill="#5a5a8b"/>
      <path id="Path_1329537" data-name="Path 1329537" d="M60.444,7.5H49.2a5.355,5.355,0,0,1,5.355,5.355V129.129a5.355,5.355,0,0,1-5.355,5.355H60.444a5.355,5.355,0,0,0,5.355-5.355V12.857A5.355,5.355,0,0,0,60.444,7.5Z" transform="translate(111.626 14.751)" fill="#42446a"/>
      <rect id="Rectangle_426350" data-name="Rectangle 426350" width="155.247" height="93.715" transform="translate(11.09 33.269)" fill="#edf2fa"/>
      <path id="Path_1329538" data-name="Path 1329538" d="M45.162,7.5h-39A5.357,5.357,0,0,0,.806,12.857V129.128a5.355,5.355,0,0,0,5.355,5.355h138.7" transform="translate(-0.806 14.751)" fill="none" stroke="#000" stroke-linecap="round" stroke-linejoin="round" stroke-miterlimit="10" stroke-width="1.611"/>
      <path id="Path_1329539" data-name="Path 1329539" d="M40.847,7.5h39A5.357,5.357,0,0,1,85.2,12.857V129.128a5.355,5.355,0,0,1-5.355,5.355H63.506" transform="translate(92.223 14.751)" fill="none" stroke="#000" stroke-linecap="round" stroke-linejoin="round" stroke-miterlimit="10" stroke-width="1.611"/>
      <path id="Path_1329540" data-name="Path 1329540" d="M31.577,104.532H4.142V10.817H37.41" transform="translate(6.946 22.453)" fill="none" stroke="#000" stroke-linecap="round" stroke-linejoin="round" stroke-miterlimit="10" stroke-width="1.611"/>
      <path id="Path_1329541" data-name="Path 1329541" d="M98.788,10.817h33.268v93.715H15.908" transform="translate(34.282 22.453)" fill="none" stroke="#000" stroke-linecap="round" stroke-linejoin="round" stroke-miterlimit="10" stroke-width="1.611"/>
      <path id="Path_1329542" data-name="Path 1329542" d="M102.865,117.246H41.876L14.153,89.522V.806h88.712Z" transform="translate(30.204 -0.805)" fill="#d9e6fb"/>
      <rect id="Rectangle_426351" data-name="Rectangle 426351" width="10.71" height="116.44" transform="translate(122.359 0.001)" fill="#b4cbed"/>
      <line id="Line_5130" data-name="Line 5130" x2="22.178" transform="translate(77.624 138.146)" fill="none" stroke="#000" stroke-linecap="round" stroke-linejoin="round" stroke-miterlimit="10" stroke-width="1.611"/>
      <path id="Path_1329543" data-name="Path 1329543" d="M55.762,62.82H22.495l5.544-17.109H50.217Z" transform="translate(49.585 103.524)" fill="none" stroke="#000" stroke-linecap="round" stroke-linejoin="round" stroke-miterlimit="10" stroke-width="1.611"/>
      <rect id="Rectangle_426352" data-name="Rectangle 426352" width="77.623" height="11.09" transform="translate(49.901 166.337)" fill="none" stroke="#000" stroke-linecap="round" stroke-linejoin="round" stroke-miterlimit="10" stroke-width="1.611"/>
      <g id="Group_1207655" data-name="Group 1207655" transform="translate(60.305 16.44)">
        <line id="Line_5131" data-name="Line 5131" x2="12.459" fill="none" stroke="#000" stroke-linecap="round" stroke-linejoin="round" stroke-miterlimit="10" stroke-width="1.611"/>
        <line id="Line_5132" data-name="Line 5132" y2="21.841" transform="translate(6.205 0.72)" fill="none" stroke="#000" stroke-linecap="round" stroke-linejoin="round" stroke-miterlimit="10" stroke-width="1.611"/>
      </g>
      <line id="Line_5133" data-name="Line 5133" x2="27.723" transform="translate(88.713 16.631)" fill="none" stroke="#000" stroke-linecap="round" stroke-linejoin="round" stroke-miterlimit="10" stroke-width="1.611"/>
      <line id="Line_5134" data-name="Line 5134" x2="27.723" transform="translate(88.713 27.721)" fill="none" stroke="#000" stroke-linecap="round" stroke-linejoin="round" stroke-miterlimit="10" stroke-width="1.611"/>
      <line id="Line_5135" data-name="Line 5135" x2="27.723" transform="translate(88.713 38.811)" fill="none" stroke="#000" stroke-linecap="round" stroke-linejoin="round" stroke-miterlimit="10" stroke-width="1.611"/>
      <line id="Line_5136" data-name="Line 5136" x2="55.446" transform="translate(60.99 49.9)" fill="none" stroke="#000" stroke-linecap="round" stroke-linejoin="round" stroke-miterlimit="10" stroke-width="1.611"/>
      <line id="Line_5137" data-name="Line 5137" x2="55.446" transform="translate(60.99 60.99)" fill="none" stroke="#000" stroke-linecap="round" stroke-linejoin="round" stroke-miterlimit="10" stroke-width="1.611"/>
      <line id="Line_5138" data-name="Line 5138" x2="55.446" transform="translate(60.99 72.079)" fill="none" stroke="#000" stroke-linecap="round" stroke-linejoin="round" stroke-miterlimit="10" stroke-width="1.611"/>
      <path id="Path_1329544" data-name="Path 1329544" d="M14.153,27.5H41.876V55.225Z" transform="translate(30.204 61.216)" fill="#b4cbed"/>
      <path id="Path_1329545" data-name="Path 1329545" d="M102.866,78.72v38.528H41.877L14.153,89.523V.806h88.713V67.049" transform="translate(30.204 -0.806)" fill="none" stroke="#000" stroke-linecap="round" stroke-linejoin="round" stroke-miterlimit="10" stroke-width="1.611"/>
      <path id="Path_1329546" data-name="Path 1329546" d="M41.876,55.225V27.5H14.153" transform="translate(30.204 61.216)" fill="none" stroke="#000" stroke-linecap="round" stroke-linejoin="round" stroke-miterlimit="10" stroke-width="1.611"/>
    </g>
  </g>
</svg>
