<svg xmlns="http://www.w3.org/2000/svg" xmlns:xlink="http://www.w3.org/1999/xlink" width="176.586" height="170.39" viewBox="0 0 176.586 170.39">
  <defs>
    <clipPath id="clip-path">
      <rect id="Rectangle_412572" data-name="Rectangle 412572" width="176.586" height="170.39" transform="translate(1139.586 3878.606)" fill="#fff" stroke="#707070" stroke-width="1"/>
    </clipPath>
  </defs>
  <g id="Mask_Group_1099535" data-name="Mask Group 1099535" transform="translate(-1139.586 -3878.606)" clip-path="url(#clip-path)">
    <g id="Layer_x0020_1" transform="translate(1140.639 3878.606)">
      <path id="Path_1329501" data-name="Path 1329501" d="M87.24,98.8a44.642,44.642,0,1,1,44.642-44.642A44.8,44.8,0,0,1,87.24,98.8Zm83.491,34.078H112.457l1.7,23.514H129.5a4.951,4.951,0,0,1,4.771,5.112v4.771a4.659,4.659,0,0,1-4.771,4.771H44.642a4.951,4.951,0,0,1-5.112-4.771v-4.771a5.241,5.241,0,0,1,5.112-5.112H60.659l1.363-23.514H3.749A3.868,3.868,0,0,1,0,128.793V4.409A3.782,3.782,0,0,1,3.749.66H170.731a3.782,3.782,0,0,1,3.749,3.749V128.793A3.868,3.868,0,0,1,170.731,132.883Zm-62.363,0H66.111L64.748,156.4h45.324ZM4.089,128.793h166.3V109.369H4.089Zm166.3-23.514V4.749H4.089v100.53ZM44.642,160.486a.9.9,0,0,0-1.022,1.022v4.771c0,.341.341.682,1.022.682H129.5a.733.733,0,0,0,.682-.682v-4.771c0-.682-.341-1.022-.682-1.022Zm48.732-36.8H81.106a1.964,1.964,0,0,1-2.045-2.045v-5.452a2.2,2.2,0,0,1,2.045-2.045H93.374a1.964,1.964,0,0,1,2.045,2.045v5.452A1.807,1.807,0,0,1,93.374,123.682ZM83.15,119.592h8.179v-1.363H83.15ZM71.564,83.129A10.482,10.482,0,0,1,61.34,72.905c0-8.519,9.883-13.29,16.357-8.179V35.42a1.826,1.826,0,0,1,1.7-1.7L110.413,25.2a2.184,2.184,0,0,1,2.726,2.045V64.727A10.482,10.482,0,0,1,102.916,74.95a10.223,10.223,0,1,1,6.134-18.4V36.1L81.787,42.576V72.905A10.252,10.252,0,0,1,71.564,83.129Zm0-16.357c-7.838,0-7.838,12.268,0,12.268C79.742,79.039,79.742,66.771,71.564,66.771Zm31.352-8.179c-8.179,0-8.179,12.268,0,12.268C110.753,70.861,110.753,58.593,102.916,58.593Zm6.134-26.581V29.967L81.787,37.123v1.363ZM87.24,13.61a40.553,40.553,0,1,0,40.553,40.553A40.65,40.65,0,0,0,87.24,13.61Z" transform="translate(0 -0.66)" fill-rule="evenodd"/>
      <path id="Path_1329502" data-name="Path 1329502" d="M84.47,96.035a44.642,44.642,0,1,1,44.642-44.642A44.8,44.8,0,0,1,84.47,96.035ZM1.32,102.51h166.3V1.98H1.32Z" transform="translate(2.769 2.109)" fill="#5798dc" fill-rule="evenodd"/>
      <path id="Path_1329503" data-name="Path 1329503" d="M167.621,35.75H1.32V55.174h166.3ZM76.292,48.018V42.566a2.2,2.2,0,0,1,2.045-2.045H90.6a1.964,1.964,0,0,1,2.045,2.045v5.452A1.807,1.807,0,0,1,90.6,50.063H78.336A1.964,1.964,0,0,1,76.292,48.018Z" transform="translate(2.769 72.959)" fill="#4a5254" fill-rule="evenodd"/>
      <path id="Path_1329504" data-name="Path 1329504" d="M64.52,43.34H22.263L20.9,66.854H66.224Z" transform="translate(43.848 88.883)" fill="#5c6365" fill-rule="evenodd"/>
      <path id="Path_1329505" data-name="Path 1329505" d="M99.957,52.25H15.1a.9.9,0,0,0-1.022,1.022v4.771c0,.341.341.682,1.022.682H99.957a.733.733,0,0,0,.682-.682V53.272C100.638,52.591,100.3,52.25,99.957,52.25Z" transform="translate(29.54 107.576)" fill="#4a5254" fill-rule="evenodd"/>
      <path id="Path_1329506" data-name="Path 1329506" d="M55.623,85.946A40.553,40.553,0,1,0,15.07,45.393,40.65,40.65,0,0,0,55.623,85.946ZM50.17,64.136A10.252,10.252,0,0,1,39.947,74.359,10.482,10.482,0,0,1,29.724,64.136c0-8.519,9.883-13.29,16.357-8.179V26.65a1.826,1.826,0,0,1,1.7-1.7L78.8,16.427a2.184,2.184,0,0,1,2.726,2.045V55.957A10.482,10.482,0,0,1,71.3,66.18a10.223,10.223,0,1,1,6.134-18.4V27.331L50.17,33.806Z" transform="translate(31.617 8.11)" fill="#ffa725" fill-rule="evenodd"/>
      <path id="Path_1329507" data-name="Path 1329507" d="M37.374,31.628c7.838,0,7.838-12.268,0-12.268C29.2,19.36,29.2,31.628,37.374,31.628Z" transform="translate(65.541 38.573)" fill="#e64c3c" fill-rule="evenodd"/>
      <path id="Path_1329508" data-name="Path 1329508" d="M27.081,34.268c8.179,0,8.179-12.268,0-12.268C19.243,22,19.243,34.268,27.081,34.268Z" transform="translate(44.483 44.111)" fill="#e64c3c" fill-rule="evenodd"/>
      <path id="Path_1329509" data-name="Path 1329509" d="M26.4,18.639l27.262-6.475V10.12L26.4,17.276Z" transform="translate(55.387 19.187)" fill="#ffa725" fill-rule="evenodd"/>
      <path id="Path_1329510" data-name="Path 1329510" d="M35.019,38.61H26.84v1.363h8.179Z" transform="translate(56.31 78.959)" fill="#fff" fill-rule="evenodd"/>
    </g>
  </g>
</svg>
