<svg xmlns="http://www.w3.org/2000/svg" xmlns:xlink="http://www.w3.org/1999/xlink" width="98" height="97.999" viewBox="0 0 98 97.999">
  <defs>
    <clipPath id="clip-path">
      <rect id="Rectangle_412572" data-name="Rectangle 412572" width="57" height="55" transform="translate(1139.586 3878.605)" fill="#fff" stroke="#707070" stroke-width="1"/>
    </clipPath>
  </defs>
  <g id="Group_1206467" data-name="Group 1206467" transform="translate(-1119.086 -3857.106)">
    <g id="Group_1204751" data-name="Group 1204751" transform="translate(1119.086 3857.106)">
      <g id="Group_1204438" data-name="Group 1204438">
        <g id="Group_1204285" data-name="Group 1204285">
          <g id="Group_1204180" data-name="Group 1204180">
            <g id="Group_1204143" data-name="Group 1204143">
              <g id="Group_1188789" data-name="Group 1188789" transform="translate(0)">
                <path id="Path_1243039" data-name="Path 1243039" d="M41.05,0h0a41.05,41.05,0,0,1,0,82.1h0a41.05,41.05,0,0,1,0-82.1Z" transform="translate(7.951 7.949)" fill="#ffc63f"/>
                <rect id="Rectangle_400907" data-name="Rectangle 400907" width="88.438" height="88.437" rx="44.218" transform="translate(4.782 4.781)" fill="none"/>
                <g id="Group_1098742" data-name="Group 1098742" transform="translate(0)">
                  <g id="Rectangle_400898" data-name="Rectangle 400898" transform="translate(0)" fill="none" stroke="#fff" stroke-width="2" opacity="0.859">
                    <rect width="98" height="97.999" rx="48.999" stroke="none"/>
                    <rect x="1" y="1" width="96" height="95.999" rx="47.999" fill="none"/>
                  </g>
                  <g id="Rectangle_400907-2" data-name="Rectangle 400907" transform="translate(0)" fill="none" stroke="#0f1f33" stroke-linecap="round" stroke-width="2">
                    <rect width="98" height="97.999" rx="48.999" stroke="none"/>
                    <rect x="1" y="1" width="96" height="95.999" rx="47.999" fill="none"/>
                  </g>
                </g>
              </g>
            </g>
          </g>
        </g>
      </g>
    </g>
    <g id="Mask_Group_1099495" data-name="Mask Group 1099495" clip-path="url(#clip-path)">
      <g id="Layer_18" data-name="Layer 18" transform="translate(1139.7 3877.722)">
        <path id="Path_1328878" data-name="Path 1328878" d="M12.419,45.24v.887a2.661,2.661,0,1,1-5.322,0V45.24a5.322,5.322,0,0,0-5.322,5.322V55H17.741V50.562a5.322,5.322,0,0,0-5.322-5.322Z" fill="#2763bb"/>
        <path id="Path_1328879" data-name="Path 1328879" d="M13.306,54.11a2.661,2.661,0,0,0,2.661-2.661V46.6a5.294,5.294,0,0,0-3.548-1.363v.887a2.661,2.661,0,1,1-5.322,0V45.24a5.322,5.322,0,0,0-5.322,5.322V54.11Z" fill="#3079e6"/>
        <path id="Path_1328880" data-name="Path 1328880" d="M12.419,34.6h0c0,1.96-3.363,3.548-5.322,3.548H3.548V34.6A3.548,3.548,0,0,1,7.1,31.047h5.322A3.548,3.548,0,0,1,15.967,34.6v3.548h0A3.548,3.548,0,0,1,12.419,34.6h0" fill="#474747"/>
        <path id="Path_1328881" data-name="Path 1328881" d="M12.419,34.6c0,1.96-3.363,3.548-5.322,3.548H5.322V40.8a4.435,4.435,0,1,0,8.871,0V37.651A3.532,3.532,0,0,1,12.419,34.6Z" fill="#fddfb1"/>
        <path id="Path_1328882" data-name="Path 1328882" d="M5.322,40.8V38.143H3.548a1.774,1.774,0,1,0,0,3.548H5.411a4.425,4.425,0,0,1-.089-.887Z" fill="#fddfb1"/>
        <path id="Path_1328883" data-name="Path 1328883" d="M15.967,38.143H14.193V40.8a4.425,4.425,0,0,1-.089.887h1.863a1.774,1.774,0,1,0,0-3.548Z" fill="#fddfb1"/>
        <path id="Path_1328884" data-name="Path 1328884" d="M9.758,48.788a2.661,2.661,0,0,0,2.661-2.661V45.24H7.1v.887A2.661,2.661,0,0,0,9.758,48.788Z" fill="#fddfb1"/>
        <path id="Path_1328885" data-name="Path 1328885" d="M7.1,38.143H5.322V40.8A4.417,4.417,0,0,0,5.7,42.579H9.758a2.661,2.661,0,0,0,2.661-2.661V34.6C12.419,36.555,9.056,38.143,7.1,38.143Z" fill="#feecd0"/>
        <path id="Path_1328886" data-name="Path 1328886" d="M44.353,16.854v.887a2.661,2.661,0,0,0,5.322,0v-.887A5.322,5.322,0,0,1,55,22.176v4.435H39.03V22.176a5.322,5.322,0,0,1,5.322-5.322Z" fill="#2763bb"/>
        <path id="Path_1328887" data-name="Path 1328887" d="M43.466,25.725A2.661,2.661,0,0,1,40.8,23.063V18.217a5.294,5.294,0,0,1,3.548-1.363v.887a2.661,2.661,0,0,0,5.322,0v-.887A5.322,5.322,0,0,1,55,22.176v3.548Z" fill="#3079e6"/>
        <path id="Path_1328888" data-name="Path 1328888" d="M44.353,6.209h0c0,1.96,3.363,3.548,5.322,3.548h3.548V6.209a3.548,3.548,0,0,0-3.548-3.548H44.353A3.548,3.548,0,0,0,40.8,6.209V9.758h0a3.548,3.548,0,0,0,3.548-3.548h0" fill="#474747"/>
        <path id="Path_1328889" data-name="Path 1328889" d="M44.353,6.209c0,1.96,3.363,3.548,5.322,3.548h1.774v2.661a4.435,4.435,0,1,1-8.871,0V9.265a3.532,3.532,0,0,0,1.774-3.056Z" fill="#fddfb1"/>
        <path id="Path_1328890" data-name="Path 1328890" d="M51.449,12.419V9.758h1.774a1.774,1.774,0,0,1,0,3.548H51.361a4.425,4.425,0,0,0,.089-.887Z" fill="#fddfb1"/>
        <path id="Path_1328891" data-name="Path 1328891" d="M40.8,9.758h1.774v2.661a4.424,4.424,0,0,0,.089.887H40.8a1.774,1.774,0,1,1,0-3.548Z" fill="#fddfb1"/>
        <path id="Path_1328892" data-name="Path 1328892" d="M47.014,20.4a2.661,2.661,0,0,1-2.661-2.661v-.887h5.322v.887A2.661,2.661,0,0,1,47.014,20.4Z" fill="#fddfb1"/>
        <path id="Path_1328893" data-name="Path 1328893" d="M49.675,9.758h1.774v2.661a4.417,4.417,0,0,1-.374,1.774H47.014a2.661,2.661,0,0,1-2.661-2.661V6.209C44.353,8.169,47.716,9.758,49.675,9.758Z" fill="#feecd0"/>
        <path id="Path_1328894" data-name="Path 1328894" d="M18.628,1.774A12.412,12.412,0,0,1,30.85,12.052l3.745,2.14-3.745,2.14A12.413,12.413,0,1,1,18.628,1.774Z" fill="#559b38"/>
        <path id="Path_1328895" data-name="Path 1328895" d="M18.628,1.774A12.4,12.4,0,0,0,7.884,20.4H21.289a5.322,5.322,0,0,0,5.322-5.322V4.69a12.339,12.339,0,0,0-7.984-2.916Z" fill="#6bc148"/>
        <rect id="Rectangle_426330" data-name="Rectangle 426330" width="9.758" height="7.096" rx="1.774" transform="translate(11.532 7.096)" fill="#7cdf54"/>
        <path id="Path_1328896" data-name="Path 1328896" d="M38.143,30.16A12.412,12.412,0,0,0,25.922,40.438l-3.745,2.14,3.745,2.14A12.413,12.413,0,1,0,38.143,30.16Z" fill="#f3a845"/>
        <path id="Path_1328897" data-name="Path 1328897" d="M38.143,30.16A12.412,12.412,0,0,0,25.922,40.438l-3.745,2.14,3.745,2.14a12.384,12.384,0,0,0,2.042,4.956H41.692a4.435,4.435,0,0,0,4.435-4.435V33.072A12.364,12.364,0,0,0,38.143,30.16Z" fill="#eecc61"/>
        <rect id="Rectangle_426331" data-name="Rectangle 426331" width="11.532" height="7.096" rx="1.774" transform="translate(30.16 35.482)" fill="#fce79c"/>
        <path id="Path_1328898" data-name="Path 1328898" d="M31.934,39.918V39.03a5.322,5.322,0,0,1,5.322-5.322h0a5.322,5.322,0,0,1,5.322,5.322h0A6.424,6.424,0,0,1,40.7,43.573h0a2.661,2.661,0,0,0-.78,1.882v.671H36.369v-.672A6.945,6.945,0,0,1,38.4,40.545h0a2.141,2.141,0,0,0,.627-1.514h0a1.774,1.774,0,0,0-1.774-1.774h0a1.774,1.774,0,0,0-1.774,1.774v.887Z" fill="#fff"/>
        <circle id="Ellipse_12913" data-name="Ellipse 12913" cx="1.774" cy="1.774" r="1.774" transform="translate(36.369 48.788)" fill="#fff"/>
        <path id="Path_1328899" data-name="Path 1328899" d="M14.193,14.193l1.774,1.774,7.1-7.1,2.661,2.661-8.243,8.243a2.141,2.141,0,0,1-1.514.627h0a2.145,2.145,0,0,1-1.514-.627l-2.921-2.921Z" fill="#fff"/>
        <path id="Path_1328900" data-name="Path 1328900" d="M15.967,42.579a2.655,2.655,0,0,0,.887-5.159V34.6a4.441,4.441,0,0,0-4.435-4.435H7.1A4.441,4.441,0,0,0,2.661,34.6V37.42a2.655,2.655,0,0,0,.887,5.159h1.2A5.322,5.322,0,0,0,5.908,44.47,6.218,6.218,0,0,0,.887,50.562V55a.887.887,0,0,0,.887.887H17.741A.887.887,0,0,0,18.628,55V50.562a6.218,6.218,0,0,0-5.021-6.092,5.322,5.322,0,0,0,1.162-1.891Zm0-1.774H15.08V39.03h.887a.887.887,0,0,1,0,1.774Zm-4.435,5.322a1.774,1.774,0,1,1-3.548,0ZM9.758,44.353A3.548,3.548,0,0,1,6.209,40.8V39.03H7.1a8.3,8.3,0,0,0,5.1-2.106,4.473,4.473,0,0,0,1.111,1.219V40.8A3.548,3.548,0,0,1,9.758,44.353ZM4.435,34.6A2.661,2.661,0,0,1,7.1,31.934h5.322A2.661,2.661,0,0,1,15.08,34.6V37.1A2.666,2.666,0,0,1,13.306,34.6a.887.887,0,1,0-1.774,0c0,1.234-2.683,2.661-4.435,2.661H4.435ZM3.548,40.8a.887.887,0,0,1,0-1.774h.887V40.8Zm13.306,9.758V54.11H15.08V50.562H13.306V54.11h-7.1V50.562H4.435V54.11H2.661V50.562a4.442,4.442,0,0,1,3.557-4.347,3.54,3.54,0,0,0,7.079,0,4.442,4.442,0,0,1,3.557,4.347Z"/>
        <path id="Path_1328901" data-name="Path 1328901" d="M37.256,32.821a6.217,6.217,0,0,0-6.209,6.209v.887a.887.887,0,0,0,.887.887h3.548a.887.887,0,0,0,.887-.887V39.03a.887.887,0,0,1,1.774,0,1.247,1.247,0,0,1-.367.887,7.778,7.778,0,0,0-2.294,5.537v.672a.887.887,0,0,0,.887.887h3.548a.887.887,0,0,0,.887-.887v-.672a1.787,1.787,0,0,1,.52-1.254,7.262,7.262,0,0,0,2.141-5.17,6.217,6.217,0,0,0-6.209-6.209ZM40.07,42.946a3.57,3.57,0,0,0-1.033,2.294H37.256a6.017,6.017,0,0,1,1.774-4.068,3.006,3.006,0,0,0,.887-2.141,2.661,2.661,0,0,0-5.322,0H32.821a4.435,4.435,0,0,1,8.871,0,5.5,5.5,0,0,1-1.622,3.915Z"/>
        <path id="Path_1328902" data-name="Path 1328902" d="M38.143,47.9A2.661,2.661,0,1,0,40.8,50.562,2.661,2.661,0,0,0,38.143,47.9Zm0,3.548a.887.887,0,1,1,.887-.887A.887.887,0,0,1,38.143,51.449Z"/>
        <path id="Path_1328903" data-name="Path 1328903" d="M38.143,29.273a13.269,13.269,0,0,0-13.018,10.6l-3.393,1.937a.887.887,0,0,0,0,1.54l3.389,1.937A13.3,13.3,0,1,0,38.143,29.273Zm0,24.838A11.5,11.5,0,0,1,26.8,44.566a.887.887,0,0,0-.434-.621l-2.4-1.366,2.4-1.37a.887.887,0,0,0,.434-.621A11.526,11.526,0,1,1,38.143,54.11Z"/>
        <path id="Path_1328904" data-name="Path 1328904" d="M50.864,16.084a5.322,5.322,0,0,0,1.162-1.891h1.2a2.655,2.655,0,0,0,.887-5.159V6.209a4.441,4.441,0,0,0-4.435-4.435H44.353a4.441,4.441,0,0,0-4.435,4.435V9.034a2.655,2.655,0,0,0,.887,5.159H42a5.322,5.322,0,0,0,1.162,1.891,6.218,6.218,0,0,0-5.021,6.092v4.435a.887.887,0,0,0,.887.887H55a.887.887,0,0,0,.887-.887V22.176A6.218,6.218,0,0,0,50.864,16.084Zm-7.4-3.665V9.758a4.46,4.46,0,0,0,1.111-1.216,8.3,8.3,0,0,0,5.1,2.1h.887v1.774a3.548,3.548,0,1,1-7.1,0Zm5.322,5.322a1.774,1.774,0,1,1-3.548,0Zm4.435-5.322h-.887V10.645h.887a.887.887,0,0,1,0,1.774ZM41.692,6.209a2.661,2.661,0,0,1,2.661-2.661h5.322a2.661,2.661,0,0,1,2.661,2.661V8.871H49.675c-1.752,0-4.435-1.427-4.435-2.661a.887.887,0,0,0-1.774,0,2.666,2.666,0,0,1-1.774,2.509ZM40.8,12.419a.887.887,0,0,1,0-1.774h.887v1.774ZM54.11,25.725H52.336V22.176H50.562v3.548h-7.1V22.176H41.692v3.548H39.918V22.176a4.442,4.442,0,0,1,3.557-4.347,3.54,3.54,0,0,0,7.079,0,4.442,4.442,0,0,1,3.557,4.347Z"/>
        <path id="Path_1328905" data-name="Path 1328905" d="M31.646,16.9l3.393-1.937a.887.887,0,0,0,0-1.54l-3.389-1.937a13.306,13.306,0,1,0,0,5.411ZM18.628,25.725A11.532,11.532,0,1,1,29.976,12.2a.887.887,0,0,0,.434.621l2.4,1.367-2.4,1.37a.887.887,0,0,0-.434.621,11.5,11.5,0,0,1-11.35,9.541Z"/>
        <path id="Path_1328906" data-name="Path 1328906" d="M23.691,8.243a.887.887,0,0,0-1.254,0l-6.469,6.469L14.82,13.566a.887.887,0,0,0-1.254,0L10.9,16.227a.887.887,0,0,0,0,1.254L13.826,20.4a3.009,3.009,0,0,0,2.141.887h0a3.046,3.046,0,0,0,2.14-.887l8.243-8.243a.887.887,0,0,0,0-1.254Zm-6.837,10.9a1.257,1.257,0,0,1-.887.367h0a1.242,1.242,0,0,1-.887-.368l-2.294-2.293,1.407-1.407,1.147,1.147a.887.887,0,0,0,1.254,0l6.469-6.469,1.407,1.407Z"/>
      </g>
    </g>
  </g>
</svg>
