<svg xmlns="http://www.w3.org/2000/svg" xmlns:xlink="http://www.w3.org/1999/xlink" width="98" height="97.999" viewBox="0 0 98 97.999">
  <defs>
    <clipPath id="clip-path">
      <rect id="Rectangle_412572" data-name="Rectangle 412572" width="57" height="55" transform="translate(1139.586 3878.605)" fill="#fff" stroke="#707070" stroke-width="1"/>
    </clipPath>
  </defs>
  <g id="Group_1206469" data-name="Group 1206469" transform="translate(-1119.086 -3857.106)">
    <g id="Group_1204751" data-name="Group 1204751" transform="translate(1119.086 3857.106)">
      <g id="Group_1204438" data-name="Group 1204438">
        <g id="Group_1204285" data-name="Group 1204285">
          <g id="Group_1204180" data-name="Group 1204180">
            <g id="Group_1204143" data-name="Group 1204143">
              <g id="Group_1188789" data-name="Group 1188789" transform="translate(0)">
                <path id="Path_1243039" data-name="Path 1243039" d="M41.05,0h0a41.05,41.05,0,0,1,0,82.1h0a41.05,41.05,0,0,1,0-82.1Z" transform="translate(7.951 7.949)" fill="#ffc63f"/>
                <rect id="Rectangle_400907" data-name="Rectangle 400907" width="88.438" height="88.437" rx="44.218" transform="translate(4.782 4.781)" fill="none"/>
                <g id="Group_1098742" data-name="Group 1098742" transform="translate(0)">
                  <g id="Rectangle_400898" data-name="Rectangle 400898" transform="translate(0)" fill="none" stroke="#fff" stroke-width="2" opacity="0.859">
                    <rect width="98" height="97.999" rx="48.999" stroke="none"/>
                    <rect x="1" y="1" width="96" height="95.999" rx="47.999" fill="none"/>
                  </g>
                  <g id="Rectangle_400907-2" data-name="Rectangle 400907" transform="translate(0)" fill="none" stroke="#0f1f33" stroke-linecap="round" stroke-width="2">
                    <rect width="98" height="97.999" rx="48.999" stroke="none"/>
                    <rect x="1" y="1" width="96" height="95.999" rx="47.999" fill="none"/>
                  </g>
                </g>
              </g>
            </g>
          </g>
        </g>
      </g>
    </g>
    <g id="Mask_Group_1099493" data-name="Mask Group 1099493" clip-path="url(#clip-path)">
      <g id="customer-service_6641830" transform="translate(1138.455 3876.772)">
        <path id="Path_1328854" data-name="Path 1328854" d="M10.083,24.195l-.917,3.3,2.952.738.9-3.256Z" fill="#f6bb92"/>
        <path id="Path_1328855" data-name="Path 1328855" d="M36.224,21.667,32.77,23.489l2.122,3.182,2.889-2.064Z" fill="#f6bb92"/>
        <path id="Path_1328856" data-name="Path 1328856" d="M30.249,24.749l-3.821-2.293A3.208,3.208,0,0,0,24.777,22H20.47a2.946,2.946,0,0,0-2.083.863l-2.8,2.8-2.56-.685-.9,3.256,4.381,1.1,2.75-.917v3.667h7.333V27.5l3.594,1.438a1.948,1.948,0,0,0,1.856-.224l2.859-2.042L32.77,23.489Z" fill="#57a865"/>
        <path id="Path_1328857" data-name="Path 1328857" d="M26.554,52.248,26.583,55h5.5l-1.833-2.75Z" fill="#d6d5d0"/>
        <path id="Path_1328858" data-name="Path 1328858" d="M22,52.248l1.833-12.833,2.626,3.667.1,9.166h3.7l.792-9.166-4.459-11H19.249l-.8,20.107Z" fill="#7a4922"/>
        <path id="Path_1328859" data-name="Path 1328859" d="M18.445,52.189,18.333,55h4.7L22,52.248Z" fill="#d6d5d0"/>
        <path id="Path_1328860" data-name="Path 1328860" d="M32.014,13.685l.509,10.678,3.732-.567-.146-10.219Z" fill="#d78e0c"/>
        <path id="Path_1328861" data-name="Path 1328861" d="M22.982,42.129,13.8,47.6l2.172,3.473,8.6-5.522Z" fill="#d78e0c"/>
        <path id="Path_1328862" data-name="Path 1328862" d="M41.635,15.661a7.39,7.39,0,0,0-5.345-2.088l-.181,0L36.254,23.8l.8-.121.833,1.562a2.292,2.292,0,0,1-.255,2.537l-2,2.421A45.375,45.375,0,0,0,29.562,41.5l-.914,3a2.292,2.292,0,0,1-1.975,1.614l-1.762.168-.341-.733-8.6,5.523.1.153A7.39,7.39,0,0,0,27,53.043l1.553-1.264a41.479,41.479,0,0,0,15.092-28.1l.2-1.992a7.39,7.39,0,0,0-2.2-6.023Z" fill="#ecab2c"/>
        <circle id="Ellipse_12911" data-name="Ellipse 12911" cx="10.083" cy="10.083" r="10.083" transform="translate(32.875 35.749)" fill="#e6e5e0"/>
        <path id="Path_1328863" data-name="Path 1328863" d="M6.416,7.791a5.042,5.042,0,0,0,5.042,5.042h.458l4.583,2.75v-2.75h.458a5.042,5.042,0,0,0,0-10.083h-5.5A5.042,5.042,0,0,0,6.416,7.791Z" fill="#a1dcff"/>
        <path id="Path_1328864" data-name="Path 1328864" d="M23.018,21.966a3.41,3.41,0,1,1,3.41-3.41,3.41,3.41,0,0,1-3.41,3.41Z" fill="#f6bb92"/>
        <path id="Path_1328865" data-name="Path 1328865" d="M42.86,34.832c-.352,0-.7.017-1.045.05a42.328,42.328,0,0,0,2.642-11.116l.2-1.992A8.266,8.266,0,0,0,42.176,15a8.354,8.354,0,0,0-6.008-2.347l-4.275.113a.917.917,0,0,0-.891.96l.445,9.348-1.254.627L26.8,21.67a4.127,4.127,0,0,0-1.309-.506,3.657,3.657,0,0,0,.408-4.74,4.038,4.038,0,0,0,1.334-.888.917.917,0,1,0-1.3-1.3,2.2,2.2,0,0,1-1.565.648H22.92a3.664,3.664,0,0,0-2.65,6.2,3.834,3.834,0,0,0-2.629,1.129l-2.43,2.43-4.989-1.335a.917.917,0,0,0-1.12.641l-.917,3.3a.917.917,0,0,0,.661,1.134l7.333,1.833a.916.916,0,0,0,.512-.02l1.543-.514v2.378l-.482,12.056-4.521,2.695a.917.917,0,0,0-.308,1.274l2.267,3.626a8.33,8.33,0,0,0,7.059,3.9,8.229,8.229,0,0,0,3.315-.7l0,.085a.917.917,0,0,0,.917.907h5.5a.917.917,0,0,0,.763-1.425l-1.655-2.482.123-1.425q.629-.587,1.233-1.2A11,11,0,1,0,42.86,34.832Zm-6.032-7.641-2,2.421-.031.04a46.27,46.27,0,0,0-4.909,8.387L27.4,31.9V28.853l2.337.935a2.853,2.853,0,0,0,2.729-.329l4.662-3.33a1.37,1.37,0,0,1-.3,1.062Zm-.942-2.426-.854.61-.291-.436Zm-.778-10.246.121,8.492-1.936.294-.416-8.727Zm-12.187,2.2a1.833,1.833,0,1,1-1.833,1.833,1.833,1.833,0,0,1,1.833-1.833ZM10.626,25.315l1.169.313-.418,1.5L10.2,26.838Zm5.739,3.064-3.209-.8.41-1.475,1.683.45a.917.917,0,0,0,.885-.237l2.8-2.8a2.016,2.016,0,0,1,1.435-.594h4.308a2.292,2.292,0,0,1,1.179.326l3.821,2.293a.916.916,0,0,0,.882.034l1.184-.592a.9.9,0,0,0,.817.292l.177-.027.8,1.2L31.4,27.967a1.028,1.028,0,0,1-.983.118l-3.6-1.438a.917.917,0,0,0-1.257.851v3.667h-5.5v-2.75a.917.917,0,0,0-1.207-.87ZM20.033,33h5.835l3.017,7.441q-.143.372-.281.746c-.006.016-.011.032-.016.048l-.914,3a1.373,1.373,0,0,1-.377.606l-.018-1.771a.917.917,0,0,0-.172-.524L24.48,38.882a.917.917,0,0,0-1.653.4l-.285,1.994C22.5,41.3,19.632,43,19.632,43Zm4.1,9.636a.913.913,0,0,0,.12-.34l.07-.489,1.127,1.575.02,1.923-.1.009Zm-1.649.8.824,1.776L16.159,49.8l-1.183-1.892Zm6.909,9.32.883,1.325h-2.88l0-.258c.03-.024.06-.046.09-.07l1.758-1.434a.917.917,0,0,0,.151.438Zm-3.067-.425a6.44,6.44,0,0,1-5.465,1.3,6.515,6.515,0,0,1-3.691-2.3l6.945-4.46a.917.917,0,0,0,.788.325l1.762-.168a3.2,3.2,0,0,0,2.764-2.26l.907-2.979a44.435,44.435,0,0,1,5.925-11.033l1.982-2.4a3.2,3.2,0,0,0,.357-3.552l-.832-1.563a.914.914,0,0,0-.706-.477l-.118-8.253A6.509,6.509,0,0,1,40.9,16.318a6.442,6.442,0,0,1,1.931,5.276l-.2,1.992A40.5,40.5,0,0,1,39.67,35.3a11.005,11.005,0,0,0-7.717,11.947c-1.268,1.361-5.63,5.08-5.63,5.08ZM42.86,55a9.166,9.166,0,1,1,9.166-9.166A9.166,9.166,0,0,1,42.86,55Z"/>
        <path id="Path_1328866" data-name="Path 1328866" d="M47.915,47.8l-4.138-2.453V40.332a.917.917,0,1,0-1.833,0v5.5a.917.917,0,0,0,.445.786l4.583,2.75a.917.917,0,1,0,.943-1.572Z"/>
        <path id="Path_1328867" data-name="Path 1328867" d="M11.565,13.75l4.365,2.619a.917.917,0,0,0,1.388-.786V13.732a5.958,5.958,0,0,0-.458-11.9h-5.5a5.958,5.958,0,0,0,0,11.916ZM7.236,7.791A4.129,4.129,0,0,1,11.36,3.667h5.5a4.125,4.125,0,0,1,0,8.25H16.4a.917.917,0,0,0-.917.917v1.131L12.29,12.047a.917.917,0,0,0-.472-.131H11.36A4.129,4.129,0,0,1,7.236,7.791Z"/>
        <path id="Path_1328868" data-name="Path 1328868" d="M14.569,11a.917.917,0,0,0,.917-.917V8.25a.917.917,0,0,0-1.833,0v1.833A.917.917,0,0,0,14.569,11Z"/>
        <circle id="Ellipse_12912" data-name="Ellipse 12912" cx="0.917" cy="0.917" r="0.917" transform="translate(13.652 4.583)"/>
      </g>
    </g>
  </g>
</svg>
