<svg xmlns="http://www.w3.org/2000/svg" xmlns:xlink="http://www.w3.org/1999/xlink" width="98" height="97.999" viewBox="0 0 98 97.999">
  <defs>
    <clipPath id="clip-path">
      <rect id="Rectangle_412572" data-name="Rectangle 412572" width="57" height="55" transform="translate(1139.586 3878.605)" fill="#fff" stroke="#707070" stroke-width="1"/>
    </clipPath>
  </defs>
  <g id="Group_1206470" data-name="Group 1206470" transform="translate(-1119.086 -3857.106)">
    <g id="Group_1204751" data-name="Group 1204751" transform="translate(1119.086 3857.106)">
      <g id="Group_1204438" data-name="Group 1204438">
        <g id="Group_1204285" data-name="Group 1204285">
          <g id="Group_1204180" data-name="Group 1204180">
            <g id="Group_1204143" data-name="Group 1204143">
              <g id="Group_1188789" data-name="Group 1188789" transform="translate(0)">
                <path id="Path_1243039" data-name="Path 1243039" d="M41.05,0h0a41.05,41.05,0,0,1,0,82.1h0a41.05,41.05,0,0,1,0-82.1Z" transform="translate(7.951 7.949)" fill="#ffc63f"/>
                <rect id="Rectangle_400907" data-name="Rectangle 400907" width="88.438" height="88.437" rx="44.218" transform="translate(4.782 4.781)" fill="none"/>
                <g id="Group_1098742" data-name="Group 1098742" transform="translate(0)">
                  <g id="Rectangle_400898" data-name="Rectangle 400898" transform="translate(0)" fill="none" stroke="#fff" stroke-width="2" opacity="0.859">
                    <rect width="98" height="97.999" rx="48.999" stroke="none"/>
                    <rect x="1" y="1" width="96" height="95.999" rx="47.999" fill="none"/>
                  </g>
                  <g id="Rectangle_400907-2" data-name="Rectangle 400907" transform="translate(0)" fill="none" stroke="#0f1f33" stroke-linecap="round" stroke-width="2">
                    <rect width="98" height="97.999" rx="48.999" stroke="none"/>
                    <rect x="1" y="1" width="96" height="95.999" rx="47.999" fill="none"/>
                  </g>
                </g>
              </g>
            </g>
          </g>
        </g>
      </g>
    </g>
    <g id="Mask_Group_1099492" data-name="Mask Group 1099492" clip-path="url(#clip-path)">
      <g id="channel_650975" transform="translate(1139.586 3877.605)">
        <circle id="Ellipse_12910" data-name="Ellipse 12910" cx="5.354" cy="5.354" r="5.354" transform="translate(23.146 28.946)" fill="#ffe7bd"/>
        <path id="Path_1328822" data-name="Path 1328822" d="M30.285,38.762a5.354,5.354,0,0,1-3.244-9.613,5.354,5.354,0,1,0,4.7,9.41A5.351,5.351,0,0,1,30.285,38.762Z" fill="#ffdfa7"/>
        <path id="Path_1328823" data-name="Path 1328823" d="M34.747,53.932H22.253V44.116a2.677,2.677,0,0,1,2.677-2.677h7.139a2.677,2.677,0,0,1,2.677,2.677v9.816Z" fill="#b0db51"/>
        <path id="Path_1328824" data-name="Path 1328824" d="M27.608,41.439H24.93a2.677,2.677,0,0,0-2.677,2.677v9.816H24.93V44.116A2.677,2.677,0,0,1,27.608,41.439Z" fill="#9cc445"/>
        <path id="Path_1328825" data-name="Path 1328825" d="M28.5,28.946l-8.031-.892,1.785,2.677-1.785,2.677h9.816l2.644,3.9A5.354,5.354,0,0,0,28.5,28.946Z" fill="#8f807d"/>
        <g id="Group_1207496" data-name="Group 1207496">
          <path id="Path_1328826" data-name="Path 1328826" d="M26.715,41.439l.892,2.677h1.785l.892-2.677Z" fill="#f3f1f1"/>
          <path id="Path_1328827" data-name="Path 1328827" d="M29.392,44.116l.892,6.247L28.5,52.148l-1.785-1.785.892-6.247Z" fill="#f3f1f1"/>
        </g>
        <rect id="Rectangle_426329" data-name="Rectangle 426329" width="16.063" height="10.708" transform="translate(40.101 25.377)" fill="#ffc44f"/>
        <path id="Path_1328828" data-name="Path 1328828" d="M48.132,33.884l8.031-6.247V25.377H40.1v2.261Z" fill="#ffb357"/>
        <path id="Path_1328829" data-name="Path 1328829" d="M48.132,31.623,40.1,25.377H56.163Z" fill="#ffd791"/>
        <path id="Path_1328830" data-name="Path 1328830" d="M12.437,42.332H3.514A2.677,2.677,0,0,1,.837,39.655V21.807A2.677,2.677,0,0,1,3.514,19.13h8.924a2.677,2.677,0,0,1,2.677,2.677V39.655A2.677,2.677,0,0,1,12.437,42.332Z" fill="#f3f1f1"/>
        <g id="Group_1207497" data-name="Group 1207497">
          <path id="Path_1328831" data-name="Path 1328831" d="M3.514,19.13A2.677,2.677,0,0,0,.837,21.807v6.321l9-9Z" fill="#e6e3e2"/>
          <path id="Path_1328832" data-name="Path 1328832" d="M.837,36.754v2.9a2.677,2.677,0,0,0,1.68,2.484l12.6-12.6V22.477Z" fill="#e6e3e2"/>
          <path id="Path_1328833" data-name="Path 1328833" d="M5.224,42.332h7.213a2.677,2.677,0,0,0,2.677-2.677V32.441Z" fill="#e6e3e2"/>
        </g>
        <g id="Group_1207498" data-name="Group 1207498">
          <path id="Path_1328834" data-name="Path 1328834" d="M.837,39.655a2.677,2.677,0,0,0,2.677,2.677h8.924a2.677,2.677,0,0,0,2.677-2.677V37.87H.837Z" fill="#9b8e8b"/>
          <path id="Path_1328835" data-name="Path 1328835" d="M12.437,19.13H3.514A2.677,2.677,0,0,0,.837,21.807H15.114A2.677,2.677,0,0,0,12.437,19.13Z" fill="#9b8e8b"/>
        </g>
        <path id="Path_1328836" data-name="Path 1328836" d="M22.309,34.3A6.191,6.191,0,0,0,33.57,37.854c.01-.015.019-.03.028-.045s.015-.018.022-.029a6.191,6.191,0,0,0-5.073-9.67l-7.987-.888a.844.844,0,0,0-.788,1.3l1.475,2.213-1.475,2.213a.844.844,0,0,0,.7,1.3H22.31C22.31,34.263,22.309,34.282,22.309,34.3ZM28.5,38.818A4.523,4.523,0,0,1,23.982,34.3c0-.019,0-.037,0-.056h5.857L31.9,37.277A4.525,4.525,0,0,1,28.5,38.818Zm-5.55-8.551-.789-1.183,6.247.694a.855.855,0,0,0,.092.005,4.521,4.521,0,0,1,4.313,5.865l-1.836-2.709a.837.837,0,0,0-.692-.367H22.032l.918-1.376A.837.837,0,0,0,22.949,30.267Z"/>
        <path id="Path_1328837" data-name="Path 1328837" d="M32.069,40.6H24.931a3.518,3.518,0,0,0-3.514,3.514v9.816a.837.837,0,0,0,.837.837H34.747a.837.837,0,0,0,.837-.837V44.116A3.518,3.518,0,0,0,32.069,40.6Zm-3.736,4.35h.334l.731,5.114-.9.9-.9-.9Zm.791-2.677-.335,1h-.579l-.335-1ZM33.91,53.1H23.09V44.116a1.843,1.843,0,0,1,1.84-1.84h1.182l.639,1.918-.864,6.051a.836.836,0,0,0,.237.71l1.785,1.785a.845.845,0,0,0,1.183,0l1.785-1.785a.837.837,0,0,0,.237-.71l-.864-6.051.639-1.918h1.182a1.843,1.843,0,0,1,1.84,1.84V53.1Z"/>
        <path id="Path_1328838" data-name="Path 1328838" d="M57,25.352a.844.844,0,0,0-.835-.812H40.1a.846.846,0,0,0-.837.837V36.085a.837.837,0,0,0,.837.837h2.342a.837.837,0,0,0,0-1.673H40.937V27.087l6.681,5.2a.844.844,0,0,0,1.027,0l6.681-5.2v8.161H46.236a.837.837,0,1,0,0,1.673h9.928A.837.837,0,0,0,57,36.085V25.377C57,25.368,57,25.36,57,25.352Zm-8.867,5.211-5.593-4.35H53.725Z"/>
        <path id="Path_1328839" data-name="Path 1328839" d="M28.611,2.231a8.756,8.756,0,0,0,0,17.513.837.837,0,1,0,0-1.673,7.083,7.083,0,0,1,0-14.166c4.17,0,7.083,2.68,7.083,6.517A3.887,3.887,0,0,1,32.277,14.6V7.027a.837.837,0,0,0-1.673,0v.411a3.3,3.3,0,0,0-1.992-.682,3.983,3.983,0,0,0-3.665,4.231,3.983,3.983,0,0,0,3.665,4.231,3.3,3.3,0,0,0,1.992-.682v.977a.837.837,0,0,0,.837.837,6.871,6.871,0,0,0,3.413-.976,5.459,5.459,0,0,0,2.515-4.952C37.368,5.676,33.685,2.231,28.611,2.231Zm0,11.314a2.331,2.331,0,0,1-1.992-2.558A2.331,2.331,0,0,1,28.611,8.43,2.331,2.331,0,0,1,30.6,10.987,2.331,2.331,0,0,1,28.611,13.545Z"/>
        <path id="Path_1328840" data-name="Path 1328840" d="M15.951,39.655V21.807a3.518,3.518,0,0,0-3.514-3.514H3.514A3.518,3.518,0,0,0,0,21.807V39.655a3.518,3.518,0,0,0,3.514,3.514h8.924A3.518,3.518,0,0,0,15.951,39.655ZM1.673,22.644h12.6V37.033H1.673Zm1.841-2.677h8.924a1.841,1.841,0,0,1,1.637,1H1.876A1.841,1.841,0,0,1,3.514,19.967ZM12.437,41.5H3.514a1.843,1.843,0,0,1-1.84-1.84v-.948h12.6v.948A1.843,1.843,0,0,1,12.437,41.5Z"/>
        <path id="Path_1328841" data-name="Path 1328841" d="M8.031,39.264H7.92a.837.837,0,0,0,0,1.673h.112a.837.837,0,0,0,0-1.673Z"/>
        <path id="Path_1328842" data-name="Path 1328842" d="M33.511,18.976a.837.837,0,1,0,.519-1.591c-.223-.073-.449-.142-.672-.2a.837.837,0,0,0-.456,1.61C33.1,18.847,33.308,18.91,33.511,18.976Z"/>
        <path id="Path_1328843" data-name="Path 1328843" d="M38.1,21.16a.837.837,0,0,0,.475-1.526c-.464-.319-.949-.62-1.44-.893a.837.837,0,0,0-.813,1.462c.445.247.884.52,1.3.809A.832.832,0,0,0,38.1,21.16Z"/>
        <path id="Path_1328844" data-name="Path 1328844" d="M40.416,23.446a.837.837,0,1,0,1.237-1.127c-.157-.172-.319-.343-.483-.509a.837.837,0,0,0-1.192,1.175C40.127,23.135,40.274,23.291,40.416,23.446Z"/>
        <path id="Path_1328845" data-name="Path 1328845" d="M17.859,21.937a.833.833,0,0,0,.524-.185c.168-.135.337-.266.5-.39a.837.837,0,1,0-1-1.343c-.184.137-.37.281-.555.43a.837.837,0,0,0,.526,1.488Z"/>
        <path id="Path_1328846" data-name="Path 1328846" d="M20.78,20.038a.835.835,0,0,0,.381-.092c.188-.1.38-.19.571-.279a.836.836,0,1,0-.7-1.518c-.211.1-.424.2-.632.308a.837.837,0,0,0,.382,1.581Z"/>
        <path id="Path_1328847" data-name="Path 1328847" d="M19.988,47.991c-.179-.112-.359-.228-.533-.347a.837.837,0,1,0-.94,1.384c.193.131.391.26.588.383a.837.837,0,0,0,.885-1.42Z"/>
        <path id="Path_1328848" data-name="Path 1328848" d="M18.009,46.538c-.23-.2-.456-.4-.674-.612a.837.837,0,0,0-1.159,1.206c.24.231.49.458.744.675a.837.837,0,0,0,1.09-1.27Z"/>
        <path id="Path_1328849" data-name="Path 1328849" d="M16.1,44.593c-.135-.163-.269-.33-.4-.5a.837.837,0,0,0-1.328,1.018c.141.184.289.369.438.549A.837.837,0,1,0,16.1,44.593Z"/>
        <path id="Path_1328850" data-name="Path 1328850" d="M44.831,38.949a.837.837,0,0,0-1.061.524c-.068.2-.14.4-.216.6a.837.837,0,0,0,1.562.6c.083-.217.163-.439.238-.661A.836.836,0,0,0,44.831,38.949Z"/>
        <path id="Path_1328851" data-name="Path 1328851" d="M40.377,45.2c-.272.3-.56.587-.854.863a.837.837,0,1,0,1.145,1.221c.324-.3.641-.625.942-.952A.837.837,0,0,0,40.377,45.2Z"/>
        <path id="Path_1328852" data-name="Path 1328852" d="M43.659,41.949a.836.836,0,0,0-1.141.313c-.2.35-.414.7-.639,1.031a.837.837,0,0,0,1.388.935c.248-.369.486-.751.706-1.138A.836.836,0,0,0,43.659,41.949Z"/>
        <path id="Path_1328853" data-name="Path 1328853" d="M37.635,47.582c-.174.12-.353.238-.531.351A.837.837,0,1,0,38,49.347c.2-.124.394-.255.586-.387a.837.837,0,0,0-.949-1.378Z"/>
      </g>
    </g>
  </g>
</svg>
