<svg xmlns="http://www.w3.org/2000/svg" xmlns:xlink="http://www.w3.org/1999/xlink" width="98" height="97.999" viewBox="0 0 98 97.999">
  <defs>
    <clipPath id="clip-path">
      <rect id="Rectangle_412572" data-name="Rectangle 412572" width="57" height="55" transform="translate(1139.586 3878.606)" fill="#fff" stroke="#707070" stroke-width="1"/>
    </clipPath>
  </defs>
  <g id="Group_1206942" data-name="Group 1206942" transform="translate(-1119.086 -3857.106)">
    <g id="Group_1204751" data-name="Group 1204751" transform="translate(1119.086 3857.106)">
      <g id="Group_1204438" data-name="Group 1204438">
        <g id="Group_1204285" data-name="Group 1204285">
          <g id="Group_1204180" data-name="Group 1204180">
            <g id="Group_1204143" data-name="Group 1204143">
              <g id="Group_1188789" data-name="Group 1188789" transform="translate(0)">
                <path id="Path_1243039" data-name="Path 1243039" d="M41.05,0h0a41.05,41.05,0,0,1,0,82.1h0a41.05,41.05,0,0,1,0-82.1Z" transform="translate(7.951 7.949)" fill="#ffc63f"/>
                <rect id="Rectangle_400907" data-name="Rectangle 400907" width="88.438" height="88.437" rx="44.218" transform="translate(4.782 4.781)" fill="none"/>
                <g id="Group_1098742" data-name="Group 1098742" transform="translate(0)">
                  <g id="Rectangle_400898" data-name="Rectangle 400898" transform="translate(0)" fill="none" stroke="#fff" stroke-width="2" opacity="0.859">
                    <rect width="98" height="97.999" rx="48.999" stroke="none"/>
                    <rect x="1" y="1" width="96" height="95.999" rx="47.999" fill="none"/>
                  </g>
                  <g id="Rectangle_400907-2" data-name="Rectangle 400907" transform="translate(0)" fill="none" stroke="#0f1f33" stroke-linecap="round" stroke-width="2">
                    <rect width="98" height="97.999" rx="48.999" stroke="none"/>
                    <rect x="1" y="1" width="96" height="95.999" rx="47.999" fill="none"/>
                  </g>
                </g>
              </g>
            </g>
          </g>
        </g>
      </g>
    </g>
    <g id="Mask_Group_1099507" data-name="Mask Group 1099507" clip-path="url(#clip-path)">
      <g id="laptop-megaphone-file-screen-Digital_Marketing" data-name="laptop-megaphone-file-screen-Digital Marketing" transform="translate(1137.741 3875.761)">
        <path id="Path_1329028" data-name="Path 1329028" d="M2.845,49.31h55V55a1.9,1.9,0,0,1-1.9,1.9H4.741a1.9,1.9,0,0,1-1.9-1.9Z" fill="#e8e5fb"/>
        <path id="Path_1329029" data-name="Path 1329029" d="M55.948,49.31H4.741V20.862a1.9,1.9,0,0,1,1.9-1.9H54.052a1.9,1.9,0,0,1,1.9,1.9Z" fill="#3780ea"/>
        <path id="Path_1329030" data-name="Path 1329030" d="M54.052,3.793A2.845,2.845,0,0,1,56.9,6.638v4.741h-5.69V6.638a2.845,2.845,0,0,1,2.845-2.845Z" fill="#3e8bda"/>
        <path id="Path_1329031" data-name="Path 1329031" d="M54.052,3.793a2.845,2.845,0,0,0-2.845,2.845V45.517H17.069V7.586a3.793,3.793,0,0,1,3.793-3.793Z" fill="#64c1f7"/>
        <path id="Path_1329032" data-name="Path 1329032" d="M12.328,25.6v5.69l-3.793-.948V26.552Z" fill="#ec455a"/>
        <path id="Path_1329033" data-name="Path 1329033" d="M12.328,24.655h7.586v7.586H12.328Z" fill="#e8e5fb"/>
        <path id="Path_1329034" data-name="Path 1329034" d="M18.966,32.241l-.948,8.534H14.224V32.241Z" fill="#c7bec5"/>
        <path id="Path_1329035" data-name="Path 1329035" d="M36.423,27.111a1.854,1.854,0,0,1,.559,1.337,1.9,1.9,0,0,1-1.9,1.9h-1.9V26.552h1.9a1.854,1.854,0,0,1,1.337.559Z" fill="#ec455a"/>
        <path id="Path_1329036" data-name="Path 1329036" d="M33.19,19.914V36.983L19.914,32.241V24.655Z" fill="#f6cc4f"/>
        <path id="Path_1329037" data-name="Path 1329037" d="M25.6,49.31h9.483V53.1H25.6Z" fill="#898890"/>
        <path id="Path_1329038" data-name="Path 1329038" d="M57.845,48.362H56.9v-27.5a2.853,2.853,0,0,0-2.845-2.845h-1.9v-5.69H56.9a.948.948,0,0,0,.948-.948V6.638a3.793,3.793,0,0,0-3.793-3.793H20.862a4.741,4.741,0,0,0-4.741,4.741V18.017H6.638a2.853,2.853,0,0,0-2.845,2.845v27.5H2.845a.948.948,0,0,0-.948.948V55a2.853,2.853,0,0,0,2.845,2.845H55.948A2.853,2.853,0,0,0,58.793,55V49.31A.948.948,0,0,0,57.845,48.362ZM52.155,6.638a1.9,1.9,0,1,1,3.793,0v3.793H52.155Zm-34.138.948a2.853,2.853,0,0,1,2.845-2.845H50.79a3.7,3.7,0,0,0-.531,1.9V44.569H18.017V41.724a.938.938,0,0,0,.939-.844l.853-7.672,13.058,4.666a.943.943,0,0,0,1.271-.891v-5.69h.948a2.845,2.845,0,0,0,0-5.69h-.948v-5.69a.962.962,0,0,0-.4-.778.981.981,0,0,0-.872-.114L19.753,23.707H18.017Zm2.845,23.982v-6.24L32.241,21.26V35.636ZM34.138,29.4V27.5h.948a.948.948,0,0,1,0,1.9ZM18.966,25.6v5.69h-5.69V25.6ZM17.9,33.19l-.74,6.638H15.172V33.19ZM5.69,20.862a.948.948,0,0,1,.948-.948h9.483v3.793H12.328a.948.948,0,0,0-.948.948v.209l-3.072.768a.948.948,0,0,0-.721.92v3.793a.948.948,0,0,0,.721.92l3.072.768v.209a.948.948,0,0,0,.948.948h.948v7.586a.948.948,0,0,0,.948.948h1.9v3.793a.948.948,0,0,0,.948.948H51.207a.948.948,0,0,0,.948-.948v-25.6h1.9a.948.948,0,0,1,.948.948v27.5H5.69Zm5.69,5.955v3.262l-1.9-.474V27.291ZM34.138,50.259v1.9H26.552v-1.9ZM56.9,55a.948.948,0,0,1-.948.948H4.741A.948.948,0,0,1,3.793,55V50.259H24.655V53.1a.948.948,0,0,0,.948.948h9.483a.948.948,0,0,0,.948-.948V50.259H56.9Z"/>
        <path id="Path_1329039" data-name="Path 1329039" d="M20.862,7.586h5.69v1.9h-5.69Z"/>
        <path id="Path_1329040" data-name="Path 1329040" d="M20.862,15.172H47.414v1.9H20.862Z"/>
        <path id="Path_1329041" data-name="Path 1329041" d="M20.862,11.379H47.414v1.9H20.862Z"/>
        <path id="Path_1329042" data-name="Path 1329042" d="M43.621,19.914h3.793v1.9H43.621Z"/>
        <path id="Path_1329043" data-name="Path 1329043" d="M39.828,23.707h7.586v1.9H39.828Z"/>
        <path id="Path_1329044" data-name="Path 1329044" d="M39.828,31.293h7.586v1.9H39.828Z"/>
        <path id="Path_1329045" data-name="Path 1329045" d="M39.828,35.086h7.586v1.9H39.828Z"/>
        <path id="Path_1329046" data-name="Path 1329046" d="M39.828,27.5h7.586v1.9H39.828Z"/>
        <path id="Path_1329047" data-name="Path 1329047" d="M28.448,7.586H47.414v1.9H28.448Z"/>
        <path id="Path_1329048" data-name="Path 1329048" d="M39.828,19.914h1.9v1.9h-1.9Z"/>
      </g>
    </g>
  </g>
</svg>
