<svg xmlns="http://www.w3.org/2000/svg" xmlns:xlink="http://www.w3.org/1999/xlink" width="98" height="97.999" viewBox="0 0 98 97.999">
  <defs>
    <clipPath id="clip-path">
      <rect id="Rectangle_412572" data-name="Rectangle 412572" width="57" height="55" transform="translate(1139.586 3878.606)" fill="#fff" stroke="#707070" stroke-width="1"/>
    </clipPath>
  </defs>
  <g id="Group_1206956" data-name="Group 1206956" transform="translate(-1119.086 -3857.106)">
    <g id="Group_1204751" data-name="Group 1204751" transform="translate(1119.086 3857.106)">
      <g id="Group_1204438" data-name="Group 1204438">
        <g id="Group_1204285" data-name="Group 1204285">
          <g id="Group_1204180" data-name="Group 1204180">
            <g id="Group_1204143" data-name="Group 1204143">
              <g id="Group_1188789" data-name="Group 1188789" transform="translate(0)">
                <path id="Path_1243039" data-name="Path 1243039" d="M41.05,0h0a41.05,41.05,0,0,1,0,82.1h0a41.05,41.05,0,0,1,0-82.1Z" transform="translate(7.951 7.949)" fill="#ffc63f"/>
                <rect id="Rectangle_400907" data-name="Rectangle 400907" width="88.438" height="88.437" rx="44.218" transform="translate(4.782 4.781)" fill="none"/>
                <g id="Group_1098742" data-name="Group 1098742" transform="translate(0)">
                  <g id="Rectangle_400898" data-name="Rectangle 400898" transform="translate(0)" fill="none" stroke="#fff" stroke-width="2" opacity="0.859">
                    <rect width="98" height="97.999" rx="48.999" stroke="none"/>
                    <rect x="1" y="1" width="96" height="95.999" rx="47.999" fill="none"/>
                  </g>
                  <g id="Rectangle_400907-2" data-name="Rectangle 400907" transform="translate(0)" fill="none" stroke="#0f1f33" stroke-linecap="round" stroke-width="2">
                    <rect width="98" height="97.999" rx="48.999" stroke="none"/>
                    <rect x="1" y="1" width="96" height="95.999" rx="47.999" fill="none"/>
                  </g>
                </g>
              </g>
            </g>
          </g>
        </g>
      </g>
    </g>
    <g id="Mask_Group_1099511" data-name="Mask Group 1099511" clip-path="url(#clip-path)">
      <g id="Layer_45" data-name="Layer 45" transform="translate(1137.741 3874.813)">
        <path id="Path_1329063" data-name="Path 1329063" d="M41.942,45.166a36.3,36.3,0,0,0,1.982-7.235H30.345v5.69a42.78,42.78,0,0,1,11.6,1.546Z" fill="#7ed63e"/>
        <path id="Path_1329064" data-name="Path 1329064" d="M30.79,55.938c4.6-.256,8.658-4.447,11.152-10.772a29.622,29.622,0,0,1,6.913,2.864A25.492,25.492,0,0,1,30.79,55.938Z" fill="#4e901e"/>
        <path id="Path_1329065" data-name="Path 1329065" d="M41.942,45.166a36.3,36.3,0,0,0,1.982-7.235H54.81a25.438,25.438,0,0,1-5.955,10.1,29.622,29.622,0,0,0-6.913-2.864Z" fill="#5eac24"/>
        <path id="Path_1329066" data-name="Path 1329066" d="M30.79,55.938c-.152.009-.294.009-.446.009V43.62a42.78,42.78,0,0,1,11.6,1.546C39.448,51.491,35.389,55.682,30.79,55.938Z" fill="#5eac24"/>
        <path id="Path_1329067" data-name="Path 1329067" d="M18.747,15.523a36.3,36.3,0,0,0-1.982,7.235H30.345v-5.69a42.779,42.779,0,0,1-11.6-1.546Z" fill="#a4e276"/>
        <path id="Path_1329068" data-name="Path 1329068" d="M30.345,17.069v5.69H43.924a36.3,36.3,0,0,0-1.982-7.235,42.779,42.779,0,0,1-11.6,1.546Z" fill="#91dc5a"/>
        <path id="Path_1329069" data-name="Path 1329069" d="M18.747,45.166a36.3,36.3,0,0,1-1.982-7.235H30.345v5.69a42.78,42.78,0,0,0-11.6,1.546Z" fill="#91dc5a"/>
        <path id="Path_1329070" data-name="Path 1329070" d="M11.839,12.661a25.585,25.585,0,0,0-5.96,10.1H16.765a36.3,36.3,0,0,1,1.982-7.235,29.6,29.6,0,0,1-6.908-2.862Z" fill="#b6eb92"/>
        <path id="Path_1329071" data-name="Path 1329071" d="M29.77,4.765c-4.546.327-8.552,4.493-11.023,10.758a42.779,42.779,0,0,0,11.6,1.546V4.741C30.155,4.741,29.965,4.76,29.77,4.765Z" fill="#b6eb92"/>
        <path id="Path_1329072" data-name="Path 1329072" d="M30.919,4.765c-.2,0-.385-.024-.575-.024V17.069a42.779,42.779,0,0,0,11.6-1.546C39.472,9.258,35.465,5.092,30.919,4.765Z" fill="#a4e276"/>
        <path id="Path_1329073" data-name="Path 1329073" d="M41.942,15.523a29.6,29.6,0,0,0,6.908-2.862,25.517,25.517,0,0,0-17.931-7.9c4.546.327,8.552,4.493,11.023,10.758Z" fill="#91dc5a"/>
        <path id="Path_1329074" data-name="Path 1329074" d="M41.942,15.523a36.3,36.3,0,0,1,1.982,7.235H54.81a25.585,25.585,0,0,0-5.96-10.1,29.6,29.6,0,0,1-6.908,2.862Z" fill="#7ed63e"/>
        <path id="Path_1329075" data-name="Path 1329075" d="M30.79,4.751c-.152-.009-.294-.009-.446-.009.19,0,.379.019.575.024-.044,0-.085-.011-.129-.014Z" fill="#9bc9ff"/>
        <path id="Path_1329076" data-name="Path 1329076" d="M29.77,4.765a25.517,25.517,0,0,0-17.931,7.9,29.6,29.6,0,0,0,6.908,2.862C21.218,9.258,25.224,5.092,29.77,4.765Z" fill="#dcf4ca"/>
        <path id="Path_1329077" data-name="Path 1329077" d="M29.9,4.751c-.044,0-.085.011-.129.014.2,0,.385-.024.575-.024C30.193,4.741,30.051,4.741,29.9,4.751Z" fill="#9bc9ff"/>
        <path id="Path_1329078" data-name="Path 1329078" d="M29.9,55.938c-4.6-.256-8.658-4.447-11.152-10.772a29.622,29.622,0,0,0-6.913,2.864A25.492,25.492,0,0,0,29.9,55.938Z" fill="#91dc5a"/>
        <path id="Path_1329079" data-name="Path 1329079" d="M18.747,45.166a36.3,36.3,0,0,1-1.982-7.235H5.879a25.438,25.438,0,0,0,5.955,10.1,29.622,29.622,0,0,1,6.913-2.864Z" fill="#a4e276"/>
        <path id="Path_1329080" data-name="Path 1329080" d="M29.9,55.938c.152.009.294.009.446.009V43.62a42.78,42.78,0,0,0-11.6,1.546C21.241,51.491,25.3,55.682,29.9,55.938Z" fill="#7ed63e"/>
        <rect id="Rectangle_426334" data-name="Rectangle 426334" width="55" height="15.172" rx="1.897" transform="translate(2.845 22.758)" fill="#2488ff"/>
        <path id="Path_1329081" data-name="Path 1329081" d="M55.948,22.758h-1.9a1.9,1.9,0,0,1,1.9,1.9V36.034a1.9,1.9,0,0,1-1.9,1.9h1.9a1.9,1.9,0,0,0,1.9-1.9V24.655A1.9,1.9,0,0,0,55.948,22.758Z" fill="#006df0"/>
        <path id="Path_1329082" data-name="Path 1329082" d="M52.088,54.051l-6.571,3.793L38.879,46.351l-4.457,3.66,1.384-16.576,15.04,7.093-5.4,2.029Z" fill="#ed1c24"/>
        <g id="Group_1207538" data-name="Group 1207538">
          <path id="Path_1329083" data-name="Path 1329083" d="M55.948,21.81h-.465a26.546,26.546,0,0,0-50.277,0H4.741A2.853,2.853,0,0,0,1.9,24.655V36.034a2.853,2.853,0,0,0,2.845,2.845h.465a26.406,26.406,0,0,0,5.946,9.805.021.021,0,0,0,.019.019.009.009,0,0,0,.009.009,26.289,26.289,0,0,0,18.662,8.174c.171.009.834.009.967,0A26.611,26.611,0,0,0,42.245,54.07l2.447,4.248a1,1,0,0,0,.578.446,1.093,1.093,0,0,0,.247.028,1.037,1.037,0,0,0,.474-.123l6.572-3.793a.948.948,0,0,0,.341-1.3l-3.034-5.263a26.323,26.323,0,0,0,5.614-9.435h.465a2.853,2.853,0,0,0,2.845-2.845V24.655a2.853,2.853,0,0,0-2.845-2.845Zm-2.475,0H44.7a37.687,37.687,0,0,0-1.527-5.68,30.207,30.207,0,0,0,5.5-2.295,24.772,24.772,0,0,1,4.8,7.975ZM47.3,12.422a28.832,28.832,0,0,1-4.817,1.934,21.591,21.591,0,0,0-5.168-7.662A24.537,24.537,0,0,1,47.3,12.422ZM31.293,5.756c3.613.5,7.027,3.831,9.35,9.113a42.046,42.046,0,0,1-9.35,1.223Zm0,12.233a43.721,43.721,0,0,0,10.052-1.347,36.439,36.439,0,0,1,1.432,5.168H31.293ZM29.4,5.756V16.092a42.046,42.046,0,0,1-9.35-1.223C22.37,9.587,25.783,6.259,29.4,5.756Zm0,12.233V21.81H17.913a36.438,36.438,0,0,1,1.432-5.168A43.721,43.721,0,0,0,29.4,17.989ZM23.375,6.695a21.591,21.591,0,0,0-5.168,7.662,29.163,29.163,0,0,1-4.817-1.934,24.537,24.537,0,0,1,9.985-5.728Zm-11.36,7.14a30.492,30.492,0,0,0,5.5,2.295,37.687,37.687,0,0,0-1.527,5.68H7.216a24.771,24.771,0,0,1,4.8-7.975ZM7.207,38.879h8.781a37.687,37.687,0,0,0,1.527,5.68,29.9,29.9,0,0,0-5.472,2.285,24.539,24.539,0,0,1-4.836-7.965Zm6.2,9.378a28.6,28.6,0,0,1,4.8-1.925,21.591,21.591,0,0,0,5.168,7.662,24.431,24.431,0,0,1-9.966-5.737ZM29.4,54.933c-3.613-.5-7.027-3.831-9.35-9.113A42.046,42.046,0,0,1,29.4,44.6Zm0-12.233a43.721,43.721,0,0,0-10.052,1.347,36.438,36.438,0,0,1-1.432-5.168H29.4Zm1.9,12.214V44.588c.891.019,1.764.066,2.617.133l-.427,5.215a.935.935,0,0,0,.5.92.948.948,0,0,0,1.043-.114l3.584-2.949.531.91c-2.2,3.641-4.95,5.813-7.852,6.211Zm0-12.223V38.879H34.4l-.332,3.954c-.91-.076-1.84-.123-2.778-.142Zm6,11.294a17.251,17.251,0,0,0,2.921-3.423L41.3,52.43A24.44,24.44,0,0,1,37.3,53.985ZM50.789,53.7l-4.922,2.845L39.7,45.877a.943.943,0,0,0-.654-.465,1.031,1.031,0,0,0-.171-.009,1,1,0,0,0-.607.209L35.56,47.85l1.072-12.972,11.787,5.557-3.3,1.233a.925.925,0,0,0-.559.569.979.979,0,0,0,.066.8Zm-1.916-7.1-2.048-3.547,4.353-1.631a.948.948,0,0,0,.076-1.745l-1.678-.8h3.907A24.672,24.672,0,0,1,48.874,46.6ZM56.9,36.034a.948.948,0,0,1-.948.948h-10.4l-4.3-2.029a.865.865,0,0,0,.37-.389l2-3.992,2,3.992a.937.937,0,0,0,.844.522.389.389,0,0,0,.1-.009.928.928,0,0,0,.816-.711l1.9-7.586a.948.948,0,0,0-1.84-.455l-1.271,5.092-1.707-3.395a.985.985,0,0,0-1.688,0L41.07,31.416,39.8,26.324a.948.948,0,0,0-1.84.455l1.878,7.51L36.2,32.573a.948.948,0,0,0-.872.038.96.96,0,0,0-.474.749l-.3,3.622H4.741a.948.948,0,0,1-.948-.948V24.655a.948.948,0,0,1,.948-.948H55.948a.948.948,0,0,1,.948.948Z" fill="#231f20"/>
          <path id="Path_1329084" data-name="Path 1329084" d="M35.315,25.632a.948.948,0,0,0-1.149.689l-1.274,5.1-1.694-3.4a.988.988,0,0,0-1.7,0l-1.7,3.4-1.279-5.1a.948.948,0,1,0-1.84.461l1.9,7.586a.948.948,0,0,0,1.769.19l2-3.989,1.991,3.993a.948.948,0,0,0,1.769-.19L36,26.786a.948.948,0,0,0-.686-1.154Z" fill="#231f20"/>
          <path id="Path_1329085" data-name="Path 1329085" d="M22.041,25.632a.948.948,0,0,0-1.15.689l-1.274,5.1-1.694-3.4a.988.988,0,0,0-1.7,0l-1.7,3.4-1.279-5.1a.948.948,0,1,0-1.84.461l1.9,7.586a.948.948,0,0,0,1.769.19l2-3.989,2,3.993a.948.948,0,0,0,1.769-.19l1.9-7.586a.948.948,0,0,0-.689-1.154Z" fill="#231f20"/>
        </g>
      </g>
    </g>
  </g>
</svg>
