<svg xmlns="http://www.w3.org/2000/svg" xmlns:xlink="http://www.w3.org/1999/xlink" width="98" height="97.998" viewBox="0 0 98 97.998">
  <defs>
    <clipPath id="clip-path">
      <rect id="Rectangle_412572" data-name="Rectangle 412572" width="57" height="55" transform="translate(1139.586 3878.605)" fill="#fff" stroke="#707070" stroke-width="1"/>
    </clipPath>
  </defs>
  <g id="Group_1206945" data-name="Group 1206945" transform="translate(-1119.086 -3857.106)">
    <g id="Group_1204751" data-name="Group 1204751" transform="translate(1119.086 3857.106)">
      <g id="Group_1204438" data-name="Group 1204438">
        <g id="Group_1204285" data-name="Group 1204285">
          <g id="Group_1204180" data-name="Group 1204180">
            <g id="Group_1204143" data-name="Group 1204143">
              <g id="Group_1188789" data-name="Group 1188789" transform="translate(0)">
                <path id="Path_1243039" data-name="Path 1243039" d="M41.05,0h0a41.05,41.05,0,0,1,0,82.1h0a41.05,41.05,0,0,1,0-82.1Z" transform="translate(7.951 7.949)" fill="#ffc63f"/>
                <rect id="Rectangle_400907" data-name="Rectangle 400907" width="88.438" height="88.437" rx="44.218" transform="translate(4.782 4.781)" fill="none"/>
                <g id="Group_1098742" data-name="Group 1098742" transform="translate(0)">
                  <g id="Rectangle_400898" data-name="Rectangle 400898" transform="translate(0)" fill="none" stroke="#fff" stroke-width="2" opacity="0.859">
                    <rect width="98" height="97.999" rx="48.999" stroke="none"/>
                    <rect x="1" y="1" width="96" height="95.999" rx="47.999" fill="none"/>
                  </g>
                  <g id="Rectangle_400907-2" data-name="Rectangle 400907" transform="translate(0)" fill="none" stroke="#0f1f33" stroke-linecap="round" stroke-width="2">
                    <rect width="98" height="97.999" rx="48.999" stroke="none"/>
                    <rect x="1" y="1" width="96" height="95.999" rx="47.999" fill="none"/>
                  </g>
                </g>
              </g>
            </g>
          </g>
        </g>
      </g>
    </g>
    <g id="Mask_Group_1099504" data-name="Mask Group 1099504" clip-path="url(#clip-path)">
      <g id="blog_1792014" transform="translate(1140.586 3878.605)">
        <path id="Path_1328939" data-name="Path 1328939" d="M21.484,42.109v5.156A3.438,3.438,0,0,1,18.047,50.7H14.609v3.438H40.391V50.7H36.953a3.438,3.438,0,0,1-3.437-3.437V42.109Zm0,0" fill="#cfd8dc"/>
        <path id="Path_1328940" data-name="Path 1328940" d="M29.219,42.145v3.438a1.719,1.719,0,1,1-3.437,0V42.145Zm0,0" fill="#b0bec5"/>
        <path id="Path_1328941" data-name="Path 1328941" d="M.859,36.953v3.438a1.719,1.719,0,0,0,1.719,1.719H52.422a1.719,1.719,0,0,0,1.719-1.719V7.734a1.719,1.719,0,0,0-1.719-1.719H2.578A1.719,1.719,0,0,0,.859,7.734Zm0,0" fill="#eee"/>
        <path id="Path_1328942" data-name="Path 1328942" d="M25.781,35.234h3.438v3.438H25.781Zm0,0" fill="#e0e0e0"/>
        <path id="Path_1328943" data-name="Path 1328943" d="M54.141,7.734a1.719,1.719,0,0,0-1.719-1.719H2.578A1.719,1.719,0,0,0,.859,7.734V31.8H54.141Zm0,0" fill="#90a4ae"/>
        <path id="Path_1328944" data-name="Path 1328944" d="M14.609,50.7H40.391v3.438H14.609Zm0,0" fill="#eee"/>
        <path id="Path_1328945" data-name="Path 1328945" d="M12.031.859H44.688V31.8H12.031Zm0,0" fill="#8edf78"/>
        <path id="Path_1328946" data-name="Path 1328946" d="M12.031.859H44.688V7.734H12.031Zm0,0" fill="#90a4ae"/>
        <path id="Path_1328947" data-name="Path 1328947" d="M8.594,20.625h2.973a1.719,1.719,0,0,0,1.408-.733l2.184-3.12a1.716,1.716,0,0,0,.311-.985V11.172a4.3,4.3,0,0,1,4.3,4.3v4.3h6.875a1.719,1.719,0,0,1,0,3.438v1.719a1.719,1.719,0,0,1-1.719,1.719v1.719A1.719,1.719,0,0,1,23.2,30.078V31.8a1.719,1.719,0,0,1-1.719,1.719H15.9L12.461,31.8H8.594Zm0,0" fill="#ffdecf"/>
        <path id="Path_1328948" data-name="Path 1328948" d="M0,18.906H8.594V34.375H0Zm0,0" fill="#a6e7ff"/>
        <path id="Path_1328949" data-name="Path 1328949" d="M50.7,21.484h-4.3v3.438L41.25,21.484H35.234V11.172H50.7Zm0,0" fill="#a6e7ff"/>
        <path id="Path_1328950" data-name="Path 1328950" d="M54.141,38.672a8.594,8.594,0,1,1-8.594-8.594A8.594,8.594,0,0,1,54.141,38.672Zm0,0" fill="#a6e7ff"/>
        <path id="Path_1328951" data-name="Path 1328951" d="M45.547,35.754a2.517,2.517,0,0,0-3.56,3.56l3.56,3.56,3.56-3.56a2.517,2.517,0,0,0-3.56-3.56Zm0,0" fill="#ff8a65"/>
        <g id="Group_1207520" data-name="Group 1207520">
          <path id="Path_1328952" data-name="Path 1328952" d="M24.922,3.438H42.109V5.156H24.922Zm0,0" fill="#fff"/>
          <path id="Path_1328953" data-name="Path 1328953" d="M21.484,3.438H23.2V5.156H21.484Zm0,0" fill="#fff"/>
          <path id="Path_1328954" data-name="Path 1328954" d="M18.047,3.438h1.719V5.156H18.047Zm0,0" fill="#fff"/>
          <path id="Path_1328955" data-name="Path 1328955" d="M14.609,3.438h1.719V5.156H14.609Zm0,0" fill="#fff"/>
          <path id="Path_1328956" data-name="Path 1328956" d="M3.438,30.078H5.156V31.8H3.438Zm0,0" fill="#fff"/>
          <path id="Path_1328957" data-name="Path 1328957" d="M5.156,13.75H8.594v1.719H5.156Zm0,0" fill="#fff"/>
          <path id="Path_1328958" data-name="Path 1328958" d="M3.438,10.313H6.875v1.719H3.438Zm0,0" fill="#fff"/>
          <path id="Path_1328959" data-name="Path 1328959" d="M38.672,15.469h1.719v1.719H38.672Zm0,0" fill="#fff"/>
          <path id="Path_1328960" data-name="Path 1328960" d="M42.109,15.469h1.719v1.719H42.109Zm0,0" fill="#fff"/>
          <path id="Path_1328961" data-name="Path 1328961" d="M45.547,15.469h1.719v1.719H45.547Zm0,0" fill="#fff"/>
          <path id="Path_1328962" data-name="Path 1328962" d="M22.344,12.031h6.875V13.75H22.344Zm0,0" fill="#fff"/>
          <path id="Path_1328963" data-name="Path 1328963" d="M30.938,12.031h4.3V13.75h-4.3Zm0,0" fill="#fff"/>
          <path id="Path_1328964" data-name="Path 1328964" d="M22.344,15.469h3.438v1.719H22.344Zm0,0" fill="#fff"/>
          <path id="Path_1328965" data-name="Path 1328965" d="M27.5,15.469h7.734v1.719H27.5Zm0,0" fill="#fff"/>
          <path id="Path_1328966" data-name="Path 1328966" d="M30.938,24.063h8.594v1.719H30.938Zm0,0" fill="#fff"/>
          <path id="Path_1328967" data-name="Path 1328967" d="M29.219,27.5h5.156v1.719H29.219Zm0,0" fill="#fff"/>
          <path id="Path_1328968" data-name="Path 1328968" d="M36.094,27.5h3.438v1.719H36.094Zm0,0" fill="#fff"/>
        </g>
        <path id="Path_1328969" data-name="Path 1328969" d="M52.422,5.156H45.547V0H11.172V5.156H2.578A2.578,2.578,0,0,0,0,7.734v8.594H1.719V7.734a.859.859,0,0,1,.859-.859h8.594V19.766H9.453V18.047H0v1.719H7.734v13.75H0v1.719H9.453V32.656h2.805L15.7,34.375h5.789a2.578,2.578,0,0,0,2.42-1.719H38.26a9.387,9.387,0,0,0-1.8,8.594H2.578a.859.859,0,0,1-.859-.859V36.953H0v3.438a2.578,2.578,0,0,0,2.578,2.578H20.625v4.3a2.578,2.578,0,0,1-2.578,2.578h-4.3V55h27.5V49.844h-4.3a2.578,2.578,0,0,1-2.578-2.578v-4.3h2.762A9.447,9.447,0,0,0,55,38.672V7.734a2.578,2.578,0,0,0-2.578-2.578ZM26.641,42.969h1.719v2.614a.859.859,0,0,1-1.719,0Zm-4.3,4.3v-4.3h2.578v2.614a2.578,2.578,0,0,0,5.156,0V42.969h2.578v4.3a4.254,4.254,0,0,0,.882,2.578H21.462a4.254,4.254,0,0,0,.882-2.578Zm14.609,4.3h2.578v1.719H15.469V51.563ZM12.891,1.719H43.828V6.875H12.891ZM49.844,12.031v8.594h-4.3v2.691l-4.039-2.691H36.094V12.031ZM23.2,29.219H21.055v1.719h1.289V31.8a.859.859,0,0,1-.859.859H16.1l-3.437-1.719H9.453V21.484h2.112a2.583,2.583,0,0,0,2.113-1.1l2.184-3.121a2.565,2.565,0,0,0,.466-1.478V12.14a3.446,3.446,0,0,1,2.578,3.329v5.156h7.734a.859.859,0,0,1,0,1.719H22.773v1.719h3.008v.859a.859.859,0,0,1-.859.859H21.055V27.5h3.008v.859a.859.859,0,0,1-.859.859Zm.859,1.719v-.147a2.583,2.583,0,0,0,1.719-2.431V27.353A2.583,2.583,0,0,0,27.5,24.922V23.916a2.578,2.578,0,0,0-.859-5.009H20.625V15.469a5.161,5.161,0,0,0-5.156-5.156h-.859v5.474a.848.848,0,0,1-.156.492l-1.563,2.234V8.594H43.828v1.719H34.375V22.344h6.617l2.836,1.891v5.147a9.4,9.4,0,0,0-3.7,1.556ZM45.547,46.406a7.734,7.734,0,1,1,7.734-7.734A7.734,7.734,0,0,1,45.547,46.406Zm7.734-13.148a9.444,9.444,0,0,0-7.734-4.039V25.382l1.719,1.146V22.344h4.3V10.313H45.547V6.875h6.875a.859.859,0,0,1,.859.859Zm0,0"/>
        <path id="Path_1328970" data-name="Path 1328970" d="M24.922,34.375v5.156h5.156V34.375Zm3.438,3.438H26.641V36.094h1.719Zm0,0"/>
        <path id="Path_1328971" data-name="Path 1328971" d="M5.156,37.813h5.156v1.719H5.156Zm0,0"/>
        <path id="Path_1328972" data-name="Path 1328972" d="M12.031,36.094h6.875v1.719H12.031Zm0,0"/>
        <path id="Path_1328973" data-name="Path 1328973" d="M45.547,34.663a3.454,3.454,0,0,0-4.167.484,3.376,3.376,0,0,0,0,4.775l4.167,4.164,4.167-4.167a3.376,3.376,0,0,0,0-4.775,3.454,3.454,0,0,0-4.167-.481ZM48.5,38.7l-2.952,2.956-2.952-2.952a1.658,1.658,0,1,1,2.344-2.344l.608.608.608-.608a1.7,1.7,0,0,1,2.344,0,1.658,1.658,0,0,1,0,2.344Zm0,0"/>
        <path id="Path_1328974" data-name="Path 1328974" d="M3.438,49.844H5.156V55H3.438Zm0,0"/>
        <path id="Path_1328975" data-name="Path 1328975" d="M0,48.125H1.719V55H0Zm0,0"/>
        <path id="Path_1328976" data-name="Path 1328976" d="M6.875,51.563H8.594V55H6.875Zm0,0"/>
      </g>
    </g>
  </g>
</svg>
