<svg xmlns="http://www.w3.org/2000/svg" xmlns:xlink="http://www.w3.org/1999/xlink" width="98" height="97.999" viewBox="0 0 98 97.999">
  <defs>
    <clipPath id="clip-path">
      <rect id="Rectangle_412572" data-name="Rectangle 412572" width="57" height="55" transform="translate(1139.586 3878.606)" fill="#fff" stroke="#707070" stroke-width="1"/>
    </clipPath>
  </defs>
  <g id="Group_1206957" data-name="Group 1206957" transform="translate(-1119.086 -3857.106)">
    <g id="Group_1204751" data-name="Group 1204751" transform="translate(1119.086 3857.106)">
      <g id="Group_1204438" data-name="Group 1204438">
        <g id="Group_1204285" data-name="Group 1204285">
          <g id="Group_1204180" data-name="Group 1204180">
            <g id="Group_1204143" data-name="Group 1204143">
              <g id="Group_1188789" data-name="Group 1188789" transform="translate(0)">
                <path id="Path_1243039" data-name="Path 1243039" d="M41.05,0h0a41.05,41.05,0,0,1,0,82.1h0a41.05,41.05,0,0,1,0-82.1Z" transform="translate(7.951 7.949)" fill="#ffc63f"/>
                <rect id="Rectangle_400907" data-name="Rectangle 400907" width="88.438" height="88.437" rx="44.218" transform="translate(4.782 4.781)" fill="none"/>
                <g id="Group_1098742" data-name="Group 1098742" transform="translate(0)">
                  <g id="Rectangle_400898" data-name="Rectangle 400898" transform="translate(0)" fill="none" stroke="#fff" stroke-width="2" opacity="0.859">
                    <rect width="98" height="97.999" rx="48.999" stroke="none"/>
                    <rect x="1" y="1" width="96" height="95.999" rx="47.999" fill="none"/>
                  </g>
                  <g id="Rectangle_400907-2" data-name="Rectangle 400907" transform="translate(0)" fill="none" stroke="#0f1f33" stroke-linecap="round" stroke-width="2">
                    <rect width="98" height="97.999" rx="48.999" stroke="none"/>
                    <rect x="1" y="1" width="96" height="95.999" rx="47.999" fill="none"/>
                  </g>
                </g>
              </g>
            </g>
          </g>
        </g>
      </g>
    </g>
    <g id="Mask_Group_1099509" data-name="Mask Group 1099509" clip-path="url(#clip-path)">
      <g id="email_4274151" transform="translate(1138.752 3876.772)">
        <g id="Ikon">
          <circle id="Ellipse_12919" data-name="Ellipse 12919" cx="26.583" cy="26.583" r="26.583" transform="translate(2.75 2.75)" fill="#2196f3"/>
          <path id="Path_1329049" data-name="Path 1329049" d="M31.048,30.988,33.312,29.4l-.1-.069H25.393l-.067.048,2.293,1.607a3.067,3.067,0,0,0,3.428,0Z"/>
          <path id="Path_1329050" data-name="Path 1329050" d="M10.512,19a1.816,1.816,0,0,0-.429,1.165V38.5a1.825,1.825,0,0,0,.559,1.315L25.326,29.381Z" fill="#ffc107"/>
          <path id="Path_1329051" data-name="Path 1329051" d="M48.583,38.5V20.167A1.816,1.816,0,0,0,48.155,19L33.312,29.4,48.019,39.819a1.824,1.824,0,0,0,.564-1.319Z" fill="#ffc107"/>
          <path id="Path_1329052" data-name="Path 1329052" d="M46.75,40.333a1.824,1.824,0,0,0,1.269-.514L33.312,29.4l-2.264,1.586a3.067,3.067,0,0,1-3.428,0L25.326,29.38,10.643,39.815a1.824,1.824,0,0,0,1.274.518Z" fill="#ffb300"/>
          <path id="Path_1329053" data-name="Path 1329053" d="M31.048,30.988,48.155,19a1.821,1.821,0,0,0-1.4-.668H11.917a1.821,1.821,0,0,0-1.4.668L27.619,30.988a3.067,3.067,0,0,0,3.428,0Z" fill="#ffa000"/>
        </g>
        <g id="line">
          <path id="Path_1329054" data-name="Path 1329054" d="M29.333,56.833a27.5,27.5,0,1,1,27.5-27.5,27.5,27.5,0,0,1-27.5,27.5Zm0-53.167A25.667,25.667,0,1,0,55,29.333,25.667,25.667,0,0,0,29.333,3.667ZM46.75,17.417H11.917a2.753,2.753,0,0,0-2.75,2.75V38.5a2.753,2.753,0,0,0,2.75,2.75H46.75A2.753,2.753,0,0,0,49.5,38.5V20.167A2.753,2.753,0,0,0,46.75,17.417ZM46.2,19.25,30.525,30.232a2.148,2.148,0,0,1-2.383.009L12.467,19.25ZM23.733,29.381,11,38.438V20.461Zm1.6,1.122,1.771,1.241a3.984,3.984,0,0,0,4.464-.009l1.736-1.216,12.562,8.9H12.687ZM34.9,29.4l12.768-8.943V38.445Z"/>
        </g>
      </g>
    </g>
  </g>
</svg>
