<svg xmlns="http://www.w3.org/2000/svg" xmlns:xlink="http://www.w3.org/1999/xlink" width="98" height="97.999" viewBox="0 0 98 97.999">
  <defs>
    <clipPath id="clip-path">
      <rect id="Rectangle_412572" data-name="Rectangle 412572" width="57" height="55" transform="translate(1139.586 3878.605)" fill="#fff" stroke="#707070" stroke-width="1"/>
    </clipPath>
  </defs>
  <g id="Group_1207056" data-name="Group 1207056" transform="translate(-1119.086 -3857.107)">
    <g id="Group_1204751" data-name="Group 1204751" transform="translate(1119.086 3857.106)">
      <g id="Group_1204438" data-name="Group 1204438">
        <g id="Group_1204285" data-name="Group 1204285">
          <g id="Group_1204180" data-name="Group 1204180">
            <g id="Group_1204143" data-name="Group 1204143">
              <g id="Group_1188789" data-name="Group 1188789" transform="translate(0)">
                <path id="Path_1243039" data-name="Path 1243039" d="M41.05,0h0a41.05,41.05,0,0,1,0,82.1h0a41.05,41.05,0,0,1,0-82.1Z" transform="translate(7.951 7.949)" fill="#ffc63f"/>
                <rect id="Rectangle_400907" data-name="Rectangle 400907" width="88.438" height="88.437" rx="44.218" transform="translate(4.782 4.781)" fill="none"/>
                <g id="Group_1098742" data-name="Group 1098742" transform="translate(0)">
                  <g id="Rectangle_400898" data-name="Rectangle 400898" transform="translate(0)" fill="none" stroke="#fff" stroke-width="2" opacity="0.859">
                    <rect width="98" height="97.999" rx="48.999" stroke="none"/>
                    <rect x="1" y="1" width="96" height="95.999" rx="47.999" fill="none"/>
                  </g>
                  <g id="Rectangle_400907-2" data-name="Rectangle 400907" transform="translate(0)" fill="none" stroke="#0f1f33" stroke-linecap="round" stroke-width="2">
                    <rect width="98" height="97.999" rx="48.999" stroke="none"/>
                    <rect x="1" y="1" width="96" height="95.999" rx="47.999" fill="none"/>
                  </g>
                </g>
              </g>
            </g>
          </g>
        </g>
      </g>
    </g>
    <g id="Mask_Group_1099517" data-name="Mask Group 1099517" clip-path="url(#clip-path)">
      <g id="info_4685312" transform="translate(1139.699 3877.719)">
        <path id="Path_1329178" data-name="Path 1329178" d="M52.339,55H4.435a2.661,2.661,0,0,1-2.661-2.661V4.435A2.661,2.661,0,0,1,4.435,1.774h47.9A2.661,2.661,0,0,1,55,4.435v47.9A2.661,2.661,0,0,1,52.339,55Z" fill="#c9cacc"/>
        <path id="Path_1329179" data-name="Path 1329179" d="M52.339,1.774H4.435a2.646,2.646,0,0,0-.763.124,2.646,2.646,0,0,0-.124.763v47.9A2.661,2.661,0,0,0,6.21,53.226h47.9a2.646,2.646,0,0,0,.763-.124A2.646,2.646,0,0,0,55,52.339V4.435A2.661,2.661,0,0,0,52.339,1.774Z" fill="#e3e4e6"/>
        <path id="Path_1329180" data-name="Path 1329180" d="M52.339,1.774H4.435A2.661,2.661,0,0,0,1.774,4.435v.887H55V4.435A2.661,2.661,0,0,0,52.339,1.774Z" fill="#69737a"/>
        <path id="Path_1329181" data-name="Path 1329181" d="M55,12.42H16.855L15.081,8.872H1.774V5.323H55Z" fill="#c9cacc"/>
        <path id="Path_1329182" data-name="Path 1329182" d="M44.355,1.774H47.9V5.323H44.355Z" fill="#58b15e"/>
        <path id="Path_1329183" data-name="Path 1329183" d="M52.339,1.774h-.887V5.323H55V4.435A2.661,2.661,0,0,0,52.339,1.774Z" fill="#de422c"/>
        <path id="Path_1329184" data-name="Path 1329184" d="M47.9,1.774h3.548V5.323H47.9Z" fill="#efa661"/>
        <path id="Path_1329185" data-name="Path 1329185" d="M30.679,34.724a10.658,10.658,0,0,1-13.292,7.422l-8.516,3.1L11.727,38.1A10.645,10.645,0,0,1,26.1,22.934" fill="#4fa04b"/>
        <path id="Path_1329186" data-name="Path 1329186" d="M29.863,32.625l-3.768-9.687A10.645,10.645,0,0,0,10.468,35.75a10.629,10.629,0,0,0,19.393-3.129Z" fill="#58b15e"/>
        <g id="Group_1207569" data-name="Group 1207569">
          <circle id="Ellipse_12923" data-name="Ellipse 12923" cx="1.774" cy="1.774" r="1.774" transform="translate(13.306 30.161)" fill="#43525b"/>
          <circle id="Ellipse_12924" data-name="Ellipse 12924" cx="1.774" cy="1.774" r="1.774" transform="translate(19.516 30.161)" fill="#43525b"/>
          <circle id="Ellipse_12925" data-name="Ellipse 12925" cx="1.774" cy="1.774" r="1.774" transform="translate(25.726 30.161)" fill="#43525b"/>
        </g>
        <path id="Path_1329187" data-name="Path 1329187" d="M51.452,55V47.016a1.774,1.774,0,0,0-3.548,0,1.774,1.774,0,1,0-3.548,0,1.774,1.774,0,0,0-3.548,0v-6.21a1.774,1.774,0,1,0-3.548,0V48.79l-2.176-1.631a5.15,5.15,0,0,0-3.091-1.03,1.832,1.832,0,0,0-1.209,3.207L37.258,55" fill="#ecb7ab"/>
        <path id="Path_1329188" data-name="Path 1329188" d="M43.468,47.016h1.774v4.435H43.468Z" fill="#fde0d3"/>
        <path id="Path_1329189" data-name="Path 1329189" d="M39.919,47.016h1.774v4.435H39.919Z" fill="#fde0d3"/>
        <path id="Path_1329190" data-name="Path 1329190" d="M47.016,47.016H48.79v4.435H47.016Z" fill="#fde0d3"/>
        <path id="Path_1329191" data-name="Path 1329191" d="M39.387,35.936l8.516,3.1-2.856-7.138a10.623,10.623,0,1,0-5.661,4.042Z" fill="#006fbe"/>
        <path id="Path_1329192" data-name="Path 1329192" d="M36.371,15.081a10.626,10.626,0,0,0-9.032,5.031A10.635,10.635,0,0,0,46.306,29.54a10.636,10.636,0,0,0-9.935-14.46Z" fill="#007dc8"/>
        <path id="Path_1329193" data-name="Path 1329193" d="M33.71,32.823h5.323l-.887-6.21.887-1.774H33.71l.887,6.21Z" fill="#fff"/>
        <circle id="Ellipse_12926" data-name="Ellipse 12926" cx="1.774" cy="1.774" r="1.774" transform="translate(34.597 18.629)" fill="#fff"/>
        <path id="Path_1329194" data-name="Path 1329194" d="M52.339.887H4.435A3.548,3.548,0,0,0,.887,4.435v47.9a3.548,3.548,0,0,0,3.548,3.548h47.9a3.548,3.548,0,0,0,3.548-3.548V4.435A3.548,3.548,0,0,0,52.339.887Zm1.774,3.548H52.339V2.661A1.774,1.774,0,0,1,54.113,4.435Zm-5.323,0V2.661h1.774V4.435Zm-1.774,0H45.242V2.661h1.774Zm7.1,1.774v5.323H17.4L15.879,8.474a.887.887,0,0,0-.8-.491H2.661V6.21ZM4.435,2.661H43.468V4.435H2.661A1.774,1.774,0,0,1,4.435,2.661ZM39.919,47.016v4.435h1.774V47.016a.887.887,0,0,1,1.774,0v4.435h1.774V47.016a.887.887,0,0,1,1.774,0v4.435H48.79V47.016a.887.887,0,1,1,1.774,0v7.1H37.592L31.37,48.669a.943.943,0,0,1,.621-1.653,4.3,4.3,0,0,1,2.559.852L36.726,49.5a.887.887,0,0,0,1.419-.71V40.806a.887.887,0,1,1,1.774,0Zm12.419,7.1v-7.1A2.661,2.661,0,0,0,47.9,45.034a2.656,2.656,0,0,0-3.548,0,2.763,2.763,0,0,0-2.661-.528v-3.7a2.661,2.661,0,0,0-5.323,0v6.21l-.757-.567a6.075,6.075,0,0,0-3.624-1.207A2.718,2.718,0,0,0,30.2,50l4.7,4.109H4.435a1.774,1.774,0,0,1-1.774-1.774V9.758H14.532l1.528,3.058a.887.887,0,0,0,.794.491H54.113V52.339a1.774,1.774,0,0,1-1.774,1.774Z"/>
        <path id="Path_1329195" data-name="Path 1329195" d="M39.787,24.372a.887.887,0,0,0-.755-.42H33.71a.887.887,0,0,0-.878,1.013L33.68,30.9l-.768,1.527a.887.887,0,0,0,.8,1.284h5.323A.887.887,0,0,0,39.91,32.7l-.848-5.935.764-1.527A.887.887,0,0,0,39.787,24.372Zm-4.642,7.563.246-.491a.887.887,0,0,0,.084-.523l-.743-5.2H37.6l-.246.491a.892.892,0,0,0-.084.523l.743,5.2Z"/>
        <path id="Path_1329196" data-name="Path 1329196" d="M36.371,23.065A2.661,2.661,0,1,0,33.71,20.4,2.661,2.661,0,0,0,36.371,23.065Zm0-3.548a.887.887,0,1,1-.887.887A.887.887,0,0,1,36.371,19.516Z"/>
        <path id="Path_1329197" data-name="Path 1329197" d="M46.047,32A11.528,11.528,0,1,0,25.6,21.645a11.532,11.532,0,0,0-14.87,16.567l-2.681,6.7a.887.887,0,0,0,1.127,1.162l8.245-3a11.546,11.546,0,0,0,13.77-7.062,11.488,11.488,0,0,0,8.167.855l8.245,3a.887.887,0,0,0,1.128-1.162Zm-19.423-.142q.3.474.64.914a.876.876,0,0,1-.651-.839C26.613,31.91,26.622,31.887,26.624,31.861ZM20.4,41.694a9.763,9.763,0,0,1-2.769-.4.9.9,0,0,0-.554.017l-6.653,2.418,2.119-5.3a.887.887,0,0,0-.1-.844A9.738,9.738,0,0,1,25.073,23.4a11.461,11.461,0,0,0,.6,6.614A2.651,2.651,0,0,0,28.69,34.3a11.749,11.749,0,0,0,.949.766A9.771,9.771,0,0,1,20.4,41.694ZM39.694,35.1a.892.892,0,0,0-.3-.053.864.864,0,0,0-.251.036,9.763,9.763,0,1,1,5.186-3.707.887.887,0,0,0-.1.844l2.119,5.3Z"/>
        <path id="Path_1329198" data-name="Path 1329198" d="M15.081,29.274a2.661,2.661,0,1,0,2.661,2.661A2.661,2.661,0,0,0,15.081,29.274Zm0,3.548a.887.887,0,1,1,.887-.887A.887.887,0,0,1,15.081,32.823Z"/>
        <path id="Path_1329199" data-name="Path 1329199" d="M21.29,29.274a2.661,2.661,0,1,0,2.661,2.661A2.661,2.661,0,0,0,21.29,29.274Zm0,3.548a.887.887,0,1,1,.887-.887A.887.887,0,0,1,21.29,32.823Z"/>
      </g>
    </g>
  </g>
</svg>
