<svg xmlns="http://www.w3.org/2000/svg" xmlns:xlink="http://www.w3.org/1999/xlink" width="98" height="97.999" viewBox="0 0 98 97.999">
  <defs>
    <clipPath id="clip-path">
      <rect id="Rectangle_412572" data-name="Rectangle 412572" width="57" height="55" transform="translate(1139.586 3878.606)" fill="#fff" stroke="#707070" stroke-width="1"/>
    </clipPath>
  </defs>
  <g id="Group_1207058" data-name="Group 1207058" transform="translate(-1119.086 -3857.106)">
    <g id="Group_1204751" data-name="Group 1204751" transform="translate(1119.086 3857.106)">
      <g id="Group_1204438" data-name="Group 1204438">
        <g id="Group_1204285" data-name="Group 1204285">
          <g id="Group_1204180" data-name="Group 1204180">
            <g id="Group_1204143" data-name="Group 1204143">
              <g id="Group_1188789" data-name="Group 1188789" transform="translate(0)">
                <path id="Path_1243039" data-name="Path 1243039" d="M41.05,0h0a41.05,41.05,0,0,1,0,82.1h0a41.05,41.05,0,0,1,0-82.1Z" transform="translate(7.951 7.949)" fill="#ffc63f"/>
                <rect id="Rectangle_400907" data-name="Rectangle 400907" width="88.438" height="88.437" rx="44.218" transform="translate(4.782 4.781)" fill="none"/>
                <g id="Group_1098742" data-name="Group 1098742" transform="translate(0)">
                  <g id="Rectangle_400898" data-name="Rectangle 400898" transform="translate(0)" fill="none" stroke="#fff" stroke-width="2" opacity="0.859">
                    <rect width="98" height="97.999" rx="48.999" stroke="none"/>
                    <rect x="1" y="1" width="96" height="95.999" rx="47.999" fill="none"/>
                  </g>
                  <g id="Rectangle_400907-2" data-name="Rectangle 400907" transform="translate(0)" fill="none" stroke="#0f1f33" stroke-linecap="round" stroke-width="2">
                    <rect width="98" height="97.999" rx="48.999" stroke="none"/>
                    <rect x="1" y="1" width="96" height="95.999" rx="47.999" fill="none"/>
                  </g>
                </g>
              </g>
            </g>
          </g>
        </g>
      </g>
    </g>
    <g id="Mask_Group_1099519" data-name="Mask Group 1099519" clip-path="url(#clip-path)">
      <g id="self-worth_10242864" transform="translate(1139.699 3877.719)">
        <path id="Path_1329221" data-name="Path 1329221" d="M54.113,8.871H34.6a.89.89,0,0,0-.887.887V25.726a.89.89,0,0,0,.887.887h7.984l1.774,4.435,1.774-4.435h7.984A.89.89,0,0,0,55,25.726V9.758A.89.89,0,0,0,54.113,8.871Z" fill="#cce0ff"/>
        <rect id="Rectangle_426335" data-name="Rectangle 426335" width="24.839" height="45.242" rx="1.774" transform="translate(1.774 1.774)" fill="#8394a6"/>
        <path id="Path_1329222" data-name="Path 1329222" d="M1.774,5.323H26.613V43.468H1.774Z" fill="#f2f2f2"/>
        <circle id="Ellipse_12927" data-name="Ellipse 12927" cx="3.548" cy="3.548" r="3.548" transform="translate(40.806 35.484)" fill="#ffd199"/>
        <path id="Path_1329223" data-name="Path 1329223" d="M50.565,55V47.016a3.547,3.547,0,0,0-3.548-3.548H41.694a3.547,3.547,0,0,0-3.548,3.548V55Z" fill="#4d9aff"/>
        <circle id="Ellipse_12928" data-name="Ellipse 12928" cx="3.105" cy="3.105" r="3.105" transform="translate(11.089 23.065)" fill="#ffd199"/>
        <path id="Path_1329224" data-name="Path 1329224" d="M19.516,39.919V33.71a3.547,3.547,0,0,0-3.548-3.548H12.419A3.547,3.547,0,0,0,8.871,33.71v6.21Z" fill="#67cc6d"/>
        <path id="Path_1329225" data-name="Path 1329225" d="M7.984,12.419h3.548v7.1H7.984Z" fill="#67cc6d"/>
        <path id="Path_1329226" data-name="Path 1329226" d="M11.532,18.629h.887l1.331.887h4.888a1.39,1.39,0,0,0,1.375-1.233l.381-3.46a1.385,1.385,0,0,0-1.375-1.535H16.97l.745-2.981a1.159,1.159,0,0,0-.727-1.393A1.142,1.142,0,0,0,15.6,9.59l-.878,2.351a2.074,2.074,0,0,1-1.943,1.348H11.541V18.62Z" fill="#ffd199"/>
        <path id="Path_1329227" data-name="Path 1329227" d="M47.016,12.419h3.548v7.1H47.016Z" transform="translate(97.581 31.935) rotate(180)" fill="#4d9aff"/>
        <path id="Path_1329228" data-name="Path 1329228" d="M47.016,13.306h-.887L44.8,12.419H39.91a1.39,1.39,0,0,0-1.375,1.233l-.381,3.46a1.385,1.385,0,0,0,1.375,1.535h2.049l-.745,2.981a1.159,1.159,0,0,0,.727,1.393,1.142,1.142,0,0,0,1.393-.674L43.831,20a2.074,2.074,0,0,1,1.943-1.348h1.233V13.315Z" fill="#ffd199"/>
        <path id="Path_1329229" data-name="Path 1329229" d="M47.016,42.581H46.99a4.436,4.436,0,1,0-5.269,0h-.027a4.437,4.437,0,0,0-4.435,4.435V55a.89.89,0,0,0,.887.887H50.565A.89.89,0,0,0,51.452,55V47.016A4.437,4.437,0,0,0,47.016,42.581Zm-5.323-3.548a2.661,2.661,0,1,1,2.661,2.661A2.669,2.669,0,0,1,41.694,39.032Zm7.984,15.081H39.032v-7.1a2.669,2.669,0,0,1,2.661-2.661h5.323a2.669,2.669,0,0,1,2.661,2.661Z"/>
        <path id="Path_1329230" data-name="Path 1329230" d="M7.984,33.71v6.21a.89.89,0,0,0,.887.887H19.516a.89.89,0,0,0,.887-.887V33.71A4.433,4.433,0,0,0,16.6,29.336a3.992,3.992,0,1,0-4.808,0A4.426,4.426,0,0,0,7.984,33.71Zm6.21-9.758a2.218,2.218,0,1,1-2.218,2.218A2.219,2.219,0,0,1,14.194,23.952ZM9.758,33.71a2.669,2.669,0,0,1,2.661-2.661h3.548a2.669,2.669,0,0,1,2.661,2.661v5.323H9.758Z"/>
        <path id="Path_1329231" data-name="Path 1329231" d="M21.273,14.93A2.272,2.272,0,0,0,19.01,12.41H18.1l.47-1.872a2.034,2.034,0,0,0-1.331-2.457,2.011,2.011,0,0,0-2.484,1.206l-.878,2.351a1.19,1.19,0,0,1-1.109.772H12.41a.882.882,0,0,0-.887-.878H7.975a.89.89,0,0,0-.887.887v7.1a.89.89,0,0,0,.887.887h3.548a.868.868,0,0,0,.852-.727l.869.577a.879.879,0,0,0,.488.151H18.62a2.261,2.261,0,0,0,2.253-2.023l.381-3.46Zm-10.627,3.7H8.871V13.306h1.774Zm8.481-.444a.5.5,0,0,1-.5.444H14.007L12.9,17.893a.879.879,0,0,0-.488-.151V14.185h.346a2.985,2.985,0,0,0,2.777-1.925l.878-2.351a.233.233,0,0,1,.3-.142.279.279,0,0,1,.133.328L16.1,13.076a.931.931,0,0,0,.16.763.892.892,0,0,0,.7.337H19.01a.507.507,0,0,1,.373.169.477.477,0,0,1,.124.381Z"/>
        <path id="Path_1329232" data-name="Path 1329232" d="M39.529,19.525h.914l-.47,1.872A2.012,2.012,0,0,0,43.8,22.639l.878-2.351a1.19,1.19,0,0,1,1.109-.772h.355a.882.882,0,0,0,.887.878h3.548a.89.89,0,0,0,.887-.887v-7.1a.89.89,0,0,0-.887-.887H47.025a.868.868,0,0,0-.852.727l-.869-.577a.879.879,0,0,0-.488-.151H39.928a2.261,2.261,0,0,0-2.253,2.023l-.381,3.46a2.272,2.272,0,0,0,2.262,2.519ZM47.9,13.306h1.774v5.323H47.9Zm-8.481.444a.5.5,0,0,1,.5-.444h4.622l1.109.736a.879.879,0,0,0,.488.151v3.557h-.346a2.985,2.985,0,0,0-2.777,1.925l-.878,2.351a.233.233,0,0,1-.3.142.279.279,0,0,1-.133-.328l.745-2.981a.931.931,0,0,0-.16-.763.892.892,0,0,0-.7-.337H39.538a.507.507,0,0,1-.373-.169.477.477,0,0,1-.124-.381Z"/>
        <path id="Path_1329233" data-name="Path 1329233" d="M54.113,7.984H34.6a1.779,1.779,0,0,0-1.774,1.774V25.726A1.779,1.779,0,0,0,34.6,27.5h7.381l1.552,3.877a.888.888,0,0,0,1.65,0L46.732,27.5h7.381a1.779,1.779,0,0,0,1.774-1.774V9.758A1.779,1.779,0,0,0,54.113,7.984Zm0,17.742H46.129a.887.887,0,0,0-.825.559l-.949,2.377-.949-2.377a.887.887,0,0,0-.825-.559H34.6V9.758H54.113Z"/>
        <path id="Path_1329234" data-name="Path 1329234" d="M35.559,40.32h1.773v1.809H35.559Z" transform="matrix(0.49, -0.872, 0.872, 0.49, -17.369, 52.8)"/>
        <path id="Path_1329235" data-name="Path 1329235" d="M22.63,34.481l3.1,1.739v6.36H2.661V6.21H25.726V31.935H27.5V3.548A2.669,2.669,0,0,0,24.839.887H3.548A2.669,2.669,0,0,0,.887,3.548V45.242A2.669,2.669,0,0,0,3.548,47.9h21.29A2.669,2.669,0,0,0,27.5,45.242V37.223l6.165,3.469.869-1.544L23.5,32.938ZM2.661,3.548a.89.89,0,0,1,.887-.887h21.29a.89.89,0,0,1,.887.887v.887H2.661ZM25.726,45.242a.89.89,0,0,1-.887.887H3.548a.89.89,0,0,1-.887-.887v-.887H25.726Z"/>
      </g>
    </g>
  </g>
</svg>
