<svg xmlns="http://www.w3.org/2000/svg" xmlns:xlink="http://www.w3.org/1999/xlink" width="98" height="97.999" viewBox="0 0 98 97.999">
  <defs>
    <clipPath id="clip-path">
      <rect id="Rectangle_412572" data-name="Rectangle 412572" width="57" height="55" transform="translate(1139.586 3878.606)" fill="#fff" stroke="#707070" stroke-width="1"/>
    </clipPath>
  </defs>
  <g id="Group_1207070" data-name="Group 1207070" transform="translate(-1119.086 -3857.106)">
    <g id="Group_1204751" data-name="Group 1204751" transform="translate(1119.086 3857.106)">
      <g id="Group_1204438" data-name="Group 1204438">
        <g id="Group_1204285" data-name="Group 1204285">
          <g id="Group_1204180" data-name="Group 1204180">
            <g id="Group_1204143" data-name="Group 1204143">
              <g id="Group_1188789" data-name="Group 1188789" transform="translate(0)">
                <path id="Path_1243039" data-name="Path 1243039" d="M41.05,0h0a41.05,41.05,0,0,1,0,82.1h0a41.05,41.05,0,0,1,0-82.1Z" transform="translate(7.951 7.949)" fill="#ffc63f"/>
                <rect id="Rectangle_400907" data-name="Rectangle 400907" width="88.438" height="88.437" rx="44.218" transform="translate(4.782 4.781)" fill="none"/>
                <g id="Group_1098742" data-name="Group 1098742" transform="translate(0)">
                  <g id="Rectangle_400898" data-name="Rectangle 400898" transform="translate(0)" fill="none" stroke="#fff" stroke-width="2" opacity="0.859">
                    <rect width="98" height="97.999" rx="48.999" stroke="none"/>
                    <rect x="1" y="1" width="96" height="95.999" rx="47.999" fill="none"/>
                  </g>
                  <g id="Rectangle_400907-2" data-name="Rectangle 400907" transform="translate(0)" fill="none" stroke="#0f1f33" stroke-linecap="round" stroke-width="2">
                    <rect width="98" height="97.999" rx="48.999" stroke="none"/>
                    <rect x="1" y="1" width="96" height="95.999" rx="47.999" fill="none"/>
                  </g>
                </g>
              </g>
            </g>
          </g>
        </g>
      </g>
    </g>
    <g id="Mask_Group_1099520" data-name="Mask Group 1099520" clip-path="url(#clip-path)">
      <g id="social-media_1508098" transform="translate(1138.753 3876.772)">
        <circle id="Ellipse_12929" data-name="Ellipse 12929" cx="7.333" cy="7.333" r="7.333" transform="translate(22 22)" fill="#6cbbc7"/>
        <circle id="Ellipse_12930" data-name="Ellipse 12930" cx="11" cy="11" r="11" transform="translate(33.916 33.916)" fill="#f5cf68"/>
        <circle id="Ellipse_12931" data-name="Ellipse 12931" cx="11" cy="11" r="11" transform="translate(33.916 2.75)" fill="#a7d6dd"/>
        <rect id="Rectangle_426336" data-name="Rectangle 426336" width="11" height="11" rx="1.833" transform="translate(39.416 8.25)" fill="#b3b3b3"/>
        <path id="Path_1329236" data-name="Path 1329236" d="M39.416,11.917v5.5A1.833,1.833,0,0,0,41.25,19.25h7.333a1.833,1.833,0,0,0,1.833-1.833v-5.5Z" fill="#e6e6e6"/>
        <circle id="Ellipse_12932" data-name="Ellipse 12932" cx="11" cy="11" r="11" transform="translate(2.75 2.75)" fill="#02998a"/>
        <circle id="Ellipse_12933" data-name="Ellipse 12933" cx="1.833" cy="1.833" r="1.833" transform="translate(43.083 13.75)" fill="#02998a"/>
        <rect id="Rectangle_426337" data-name="Rectangle 426337" width="12.833" height="9.167" rx="1.833" transform="translate(38.5 40.333)" fill="#e6e6e6"/>
        <path id="Path_1329237" data-name="Path 1329237" d="M43.083,42.517v4.8l4.8-2.4Z" fill="#f80"/>
        <circle id="Ellipse_12934" data-name="Ellipse 12934" cx="11" cy="11" r="11" transform="translate(2.75 33.916)" fill="#e6e6e6"/>
        <path id="Path_1329238" data-name="Path 1329238" d="M7.333,40.333l4.583,4.583L13.75,46.75l1.833-1.833,4.583-4.583Z" fill="#02998a"/>
        <path id="Path_1329239" data-name="Path 1329239" d="M7.333,40.333V49.5l4.583-4.583Z" fill="#a7d6dd"/>
        <path id="Path_1329240" data-name="Path 1329240" d="M15.583,44.916,20.167,49.5V40.333Z" fill="#a7d6dd"/>
        <path id="Path_1329241" data-name="Path 1329241" d="M13.75,46.75l-1.833-1.833L7.333,49.5H20.167l-4.583-4.583Z" fill="#89c9d2"/>
        <path id="Path_1329242" data-name="Path 1329242" d="M41.25,20.167h7.333a2.75,2.75,0,0,0,2.75-2.75V10.083a2.75,2.75,0,0,0-2.75-2.75H41.25a2.75,2.75,0,0,0-2.75,2.75v7.333A2.75,2.75,0,0,0,41.25,20.167Zm-.917-10.083a.917.917,0,0,1,.917-.917h7.333a.917.917,0,0,1,.917.917V11H40.333Zm0,2.75H49.5v4.583a.917.917,0,0,1-.917.917H41.25a.917.917,0,0,1-.917-.917Z"/>
        <path id="Path_1329243" data-name="Path 1329243" d="M42.166,15.583a2.75,2.75,0,1,0,2.75-2.75A2.75,2.75,0,0,0,42.166,15.583Zm2.75-.917a.917.917,0,1,1-.917.917A.917.917,0,0,1,44.916,14.667Z"/>
        <path id="Path_1329244" data-name="Path 1329244" d="M40.333,50.416H49.5a2.75,2.75,0,0,0,2.75-2.75v-5.5a2.75,2.75,0,0,0-2.75-2.75H40.333a2.75,2.75,0,0,0-2.75,2.75v5.5A2.75,2.75,0,0,0,40.333,50.416Zm-.917-8.25a.917.917,0,0,1,.917-.917H49.5a.917.917,0,0,1,.917.917v5.5a.917.917,0,0,1-.917.917H40.333a.917.917,0,0,1-.917-.917Z"/>
        <path id="Path_1329245" data-name="Path 1329245" d="M43.083,42.517v4.8l4.8-2.4Z"/>
        <path id="Path_1329246" data-name="Path 1329246" d="M6.417,50.416H21.083v-11H6.417Zm7.333-2.37,1.833-1.833,2.37,2.37H9.546l2.37-2.37Zm3.129-3.129,2.37-2.37v4.741Zm-3.129.537-4.2-4.2h8.408Zm-3.129-.537-2.37,2.37V42.546Z"/>
        <path id="Path_1329247" data-name="Path 1329247" d="M33.047,14.667a11.917,11.917,0,1,0,0-1.833H25.622a11.917,11.917,0,1,0,0,1.833h2.795v6.471a8.25,8.25,0,0,0,0,16.392V44h-2.8a11.917,11.917,0,1,0,0,1.833h7.425a11.917,11.917,0,1,0,0-1.833H30.25V37.529a8.25,8.25,0,0,0,0-16.392V14.667ZM13.75,55A10.083,10.083,0,1,1,23.833,44.916,10.083,10.083,0,0,1,13.75,55ZM44.916,34.833A10.083,10.083,0,1,1,34.833,44.916,10.083,10.083,0,0,1,44.916,34.833ZM27.262,28.417a9.4,9.4,0,0,1,2.072-5.051A9.4,9.4,0,0,1,31.4,28.417ZM31.4,30.25A9.4,9.4,0,0,1,29.333,35.3a9.4,9.4,0,0,1-2.072-5.051Zm-4.279-6.934a11.248,11.248,0,0,0-1.7,5.1H22.99a6.425,6.425,0,0,1,4.136-5.1ZM22.99,30.25h2.438a11.248,11.248,0,0,0,1.7,5.1,6.425,6.425,0,0,1-4.136-5.1Zm8.551,5.1a11.248,11.248,0,0,0,1.7-5.1h2.438A6.425,6.425,0,0,1,31.54,35.35Zm4.136-6.934H33.238a11.248,11.248,0,0,0-1.7-5.1,6.425,6.425,0,0,1,4.136,5.1Zm9.24-24.75A10.083,10.083,0,1,1,34.833,13.75,10.083,10.083,0,0,1,44.916,3.667Zm-27.5,19.466V17.417h2.75V15.583h-2.75v-2.75a.917.917,0,0,1,.917-.917h1.833V10.083H18.333a2.75,2.75,0,0,0-2.75,2.75v2.75h-2.75v1.833h2.75v6.242a10.1,10.1,0,1,1,1.833-.525Z"/>
      </g>
    </g>
  </g>
</svg>
