<svg xmlns="http://www.w3.org/2000/svg" xmlns:xlink="http://www.w3.org/1999/xlink" width="98" height="97.999" viewBox="0 0 98 97.999">
  <defs>
    <clipPath id="clip-path">
      <rect id="Rectangle_412572" data-name="Rectangle 412572" width="57" height="55" transform="translate(1139.586 3878.606)" fill="#fff" stroke="#707070" stroke-width="1"/>
    </clipPath>
  </defs>
  <g id="Group_1207071" data-name="Group 1207071" transform="translate(-1119.086 -3857.106)">
    <g id="Group_1204751" data-name="Group 1204751" transform="translate(1119.086 3857.106)">
      <g id="Group_1204438" data-name="Group 1204438">
        <g id="Group_1204285" data-name="Group 1204285">
          <g id="Group_1204180" data-name="Group 1204180">
            <g id="Group_1204143" data-name="Group 1204143">
              <g id="Group_1188789" data-name="Group 1188789" transform="translate(0)">
                <path id="Path_1243039" data-name="Path 1243039" d="M41.05,0h0a41.05,41.05,0,0,1,0,82.1h0a41.05,41.05,0,0,1,0-82.1Z" transform="translate(7.951 7.949)" fill="#ffc63f"/>
                <rect id="Rectangle_400907" data-name="Rectangle 400907" width="88.438" height="88.437" rx="44.218" transform="translate(4.782 4.781)" fill="none"/>
                <g id="Group_1098742" data-name="Group 1098742" transform="translate(0)">
                  <g id="Rectangle_400898" data-name="Rectangle 400898" transform="translate(0)" fill="none" stroke="#fff" stroke-width="2" opacity="0.859">
                    <rect width="98" height="97.999" rx="48.999" stroke="none"/>
                    <rect x="1" y="1" width="96" height="95.999" rx="47.999" fill="none"/>
                  </g>
                  <g id="Rectangle_400907-2" data-name="Rectangle 400907" transform="translate(0)" fill="none" stroke="#0f1f33" stroke-linecap="round" stroke-width="2">
                    <rect width="98" height="97.999" rx="48.999" stroke="none"/>
                    <rect x="1" y="1" width="96" height="95.999" rx="47.999" fill="none"/>
                  </g>
                </g>
              </g>
            </g>
          </g>
        </g>
      </g>
    </g>
    <g id="Mask_Group_1099523" data-name="Mask Group 1099523" clip-path="url(#clip-path)">
      <g id="_x33_2_x2C__Favorite_x2C__files_and_folders_x2C__archive_x2C__document_x2C__file_x2C__folder" transform="translate(1139.475 3877.494)">
        <g id="Group_1207604" data-name="Group 1207604">
          <path id="XMLID_506_" d="M50.406,8.075H6.818a3.353,3.353,0,0,0-3.353,3.353V40.207H53.759V11.428A3.353,3.353,0,0,0,50.406,8.075Z" fill="#7b6c79"/>
          <path id="XMLID_510_" d="M7.656,12.266V40.207H49.568V12.266Z" fill="#deeaf9"/>
          <path id="XMLID_511_" d="M21.068,15.619V35.737l7.544-5.868,7.544,5.868V15.619Z" fill="#73ca8d"/>
          <path id="XMLID_512_" d="M32.8,22.018l-2.1,2.042.5,2.885-2.591-1.362-2.591,1.362.5-2.885-2.1-2.042,2.9-.421,1.3-2.624,1.3,2.624Z" fill="#f7e45a"/>
          <path id="XMLID_518_" d="M53.759,39.09a2.524,2.524,0,0,1,2.515,2.524,7.534,7.534,0,0,1-7.535,7.535H8.485A7.534,7.534,0,0,1,.95,41.613,2.523,2.523,0,0,1,3.465,39.09H16.876l11.735,2.179L40.347,39.09Z" fill="#695d67"/>
          <path id="XMLID_519_" d="M40.347,39.09l-1.676,4.191H18.553L16.876,39.09Z" fill="#544e55"/>
          <g id="Group_1207603" data-name="Group 1207603">
            <path id="Path_1329293" data-name="Path 1329293" d="M36.156,14.781H21.068a.838.838,0,0,0-.838.838V35.737a.838.838,0,0,0,1.353.662l7.03-5.467,7.03,5.467a.838.838,0,0,0,1.353-.662V15.619A.838.838,0,0,0,36.156,14.781Zm-.838,19.242-6.191-4.815a.838.838,0,0,0-1.029,0l-6.191,4.815V16.457H35.318Z"/>
            <path id="Path_1329294" data-name="Path 1329294" d="M25.615,24.353,25.2,26.8a.839.839,0,0,0,1.216.884l2.2-1.157,2.2,1.157a.839.839,0,0,0,1.216-.884l-.42-2.45,1.78-1.735a.839.839,0,0,0-.465-1.43l-2.46-.357-1.1-2.229a.839.839,0,0,0-1.5,0l-1.1,2.229-2.46.357a.839.839,0,0,0-.465,1.43Zm1.822-1.927a.838.838,0,0,0,.631-.458l.543-1.1.543,1.1a.838.838,0,0,0,.631.458L31,22.6l-.879.857a.838.838,0,0,0-.241.742l.208,1.21L29,24.84a.839.839,0,0,0-.78,0l-1.087.571.208-1.21a.838.838,0,0,0-.241-.742l-.879-.857Z"/>
            <path id="Path_1329295" data-name="Path 1329295" d="M54.6,38.36V11.428a4.2,4.2,0,0,0-4.191-4.191H6.818a4.2,4.2,0,0,0-4.191,4.191V38.36A3.368,3.368,0,0,0,.112,41.614a8.382,8.382,0,0,0,8.373,8.373H48.739a8.382,8.382,0,0,0,8.373-8.373A3.368,3.368,0,0,0,54.6,38.36ZM4.3,11.428A2.518,2.518,0,0,1,6.818,8.913H50.406a2.518,2.518,0,0,1,2.515,2.515V38.251H50.406V12.266a.838.838,0,0,0-.838-.838H7.656a.838.838,0,0,0-.838.838V38.251H4.3ZM8.494,38.251V13.1H48.729V38.251Zm30.615,1.676L38.1,42.443H19.12l-1.006-2.515Zm9.63,8.382H8.485a6.7,6.7,0,0,1-6.7-6.7,1.688,1.688,0,0,1,1.686-1.686H16.309l1.466,3.664a.838.838,0,0,0,.778.527H38.671a.838.838,0,0,0,.778-.527l1.466-3.664H53.75a1.688,1.688,0,0,1,1.686,1.686,6.7,6.7,0,0,1-6.7,6.7Z"/>
          </g>
        </g>
      </g>
    </g>
  </g>
</svg>
