<svg xmlns="http://www.w3.org/2000/svg" xmlns:xlink="http://www.w3.org/1999/xlink" width="98" height="97.999" viewBox="0 0 98 97.999">
  <defs>
    <clipPath id="clip-path">
      <rect id="Rectangle_412572" data-name="Rectangle 412572" width="57" height="55" transform="translate(1139.586 3878.606)" fill="#fff" stroke="#707070" stroke-width="1"/>
    </clipPath>
  </defs>
  <g id="Group_1207155" data-name="Group 1207155" transform="translate(-1119.086 -3857.106)">
    <g id="Group_1204751" data-name="Group 1204751" transform="translate(1119.086 3857.106)">
      <g id="Group_1204438" data-name="Group 1204438">
        <g id="Group_1204285" data-name="Group 1204285">
          <g id="Group_1204180" data-name="Group 1204180">
            <g id="Group_1204143" data-name="Group 1204143">
              <g id="Group_1188789" data-name="Group 1188789" transform="translate(0)">
                <path id="Path_1243039" data-name="Path 1243039" d="M41.05,0h0a41.05,41.05,0,0,1,0,82.1h0a41.05,41.05,0,0,1,0-82.1Z" transform="translate(7.951 7.949)" fill="#ffc63f"/>
                <rect id="Rectangle_400907" data-name="Rectangle 400907" width="88.438" height="88.437" rx="44.218" transform="translate(4.782 4.781)" fill="none"/>
                <g id="Group_1098742" data-name="Group 1098742" transform="translate(0)">
                  <g id="Rectangle_400898" data-name="Rectangle 400898" transform="translate(0)" fill="none" stroke="#fff" stroke-width="2" opacity="0.859">
                    <rect width="98" height="97.999" rx="48.999" stroke="none"/>
                    <rect x="1" y="1" width="96" height="95.999" rx="47.999" fill="none"/>
                  </g>
                  <g id="Rectangle_400907-2" data-name="Rectangle 400907" transform="translate(0)" fill="none" stroke="#0f1f33" stroke-linecap="round" stroke-width="2">
                    <rect width="98" height="97.999" rx="48.999" stroke="none"/>
                    <rect x="1" y="1" width="96" height="95.999" rx="47.999" fill="none"/>
                  </g>
                </g>
              </g>
            </g>
          </g>
        </g>
      </g>
    </g>
    <g id="Mask_Group_1099525" data-name="Mask Group 1099525" clip-path="url(#clip-path)">
      <g id="broadcasting_3613987" transform="translate(1139.699 3877.719)">
        <g id="Group_1207618" data-name="Group 1207618">
          <g id="Group_1207605" data-name="Group 1207605">
            <path id="Path_1329330" data-name="Path 1329330" d="M41.694,55H15.081a3.544,3.544,0,0,1,3.548-3.548H38.145A3.547,3.547,0,0,1,41.694,55Z" fill="#969faa"/>
          </g>
          <g id="Group_1207606" data-name="Group 1207606">
            <path id="Path_1329331" data-name="Path 1329331" d="M20.4,47.9H36.371v3.548H20.4Z" fill="#aab2bd"/>
          </g>
          <g id="Group_1207607" data-name="Group 1207607">
            <path id="Path_1329332" data-name="Path 1329332" d="M55,40.806v3.548A3.547,3.547,0,0,1,51.452,47.9H5.323a3.547,3.547,0,0,1-3.548-3.548V40.806H55Z" fill="#ccd1d9"/>
          </g>
          <g id="Group_1207608" data-name="Group 1207608">
            <path id="Path_1329333" data-name="Path 1329333" d="M5.323,14.194H51.452A3.549,3.549,0,0,1,55,17.742V40.806H1.774V17.742A3.549,3.549,0,0,1,5.323,14.194Z" fill="#69d6f4"/>
          </g>
          <g id="Group_1207609" data-name="Group 1207609">
            <path id="Path_1329334" data-name="Path 1329334" d="M26.613,14.194,24.9,5.633A2.975,2.975,0,0,1,24.839,5a3.229,3.229,0,0,1,3.229-3.229H46.448A3.241,3.241,0,0,1,49.677,5a2.975,2.975,0,0,1-.062.63L47.9,14.194l-1.251,6.272a3.236,3.236,0,0,1-3.167,2.6H39.032l-4.977,3.318a1.362,1.362,0,0,1-2.12-1.135V23.065h-.9a3.236,3.236,0,0,1-3.167-2.6Z" fill="#e6e9ed"/>
          </g>
          <g id="Group_1207610" data-name="Group 1207610">
            <circle id="Ellipse_12935" data-name="Ellipse 12935" cx="7.097" cy="7.097" r="7.097" transform="translate(30.161 5.323)" fill="#4fc1e9"/>
          </g>
          <g id="Group_1207611" data-name="Group 1207611">
            <path id="Path_1329335" data-name="Path 1329335" d="M31.935,30.161H51.452V33.71H31.935Z" fill="#ff826e"/>
          </g>
          <g id="Group_1207612" data-name="Group 1207612">
            <path id="Path_1329336" data-name="Path 1329336" d="M21.29,39.981v.825H5.323v-.825a7.226,7.226,0,0,1,6.21-7.159A1.779,1.779,0,0,0,13.306,34.6a1.787,1.787,0,0,0,1.774-1.774A7.225,7.225,0,0,1,21.29,39.981Z" fill="#ff826e"/>
          </g>
          <g id="Group_1207613" data-name="Group 1207613">
            <path id="Path_1329337" data-name="Path 1329337" d="M7.984,24.839a1.735,1.735,0,0,0-1.251.523l-.053.053a6.277,6.277,0,0,1-.47-2.377,5.3,5.3,0,0,1,5.3-5.3h3.6a5.293,5.293,0,0,1,5.3,5.3,6.277,6.277,0,0,1-.47,2.377l-.053-.053a1.735,1.735,0,0,0-1.251-.523H16.855a6.419,6.419,0,0,1-4.542-1.881l-.417-.417a1.255,1.255,0,0,0-2.138.887v1.41Z" fill="#fcd770"/>
          </g>
          <g id="Group_1207614" data-name="Group 1207614">
            <path id="Path_1329338" data-name="Path 1329338" d="M18.629,24.839a1.735,1.735,0,0,1,1.251.523l.053.053a1.745,1.745,0,0,1,.47,1.2,1.779,1.779,0,0,1-1.774,1.774H16.855V24.839Z" fill="#f0d0b4"/>
          </g>
          <g id="Group_1207615" data-name="Group 1207615">
            <path id="Path_1329339" data-name="Path 1329339" d="M15.081,31.048v1.774A1.787,1.787,0,0,1,13.306,34.6a1.779,1.779,0,0,1-1.774-1.774V31.048Z" fill="#f0d0b4"/>
          </g>
          <g id="Group_1207616" data-name="Group 1207616">
            <path id="Path_1329340" data-name="Path 1329340" d="M16.855,24.839v4.435a1.779,1.779,0,0,1-1.774,1.774H11.532a1.779,1.779,0,0,1-1.774-1.774V23.428a1.255,1.255,0,0,1,2.138-.887l.417.417A6.419,6.419,0,0,0,16.855,24.839Z" fill="#f0d0b4"/>
          </g>
          <g id="Group_1207617" data-name="Group 1207617">
            <path id="Path_1329341" data-name="Path 1329341" d="M9.758,24.839v3.548H7.984A1.779,1.779,0,0,1,6.21,26.613a1.745,1.745,0,0,1,.47-1.2l.053-.053a1.735,1.735,0,0,1,1.251-.523Z" fill="#f0d0b4"/>
          </g>
        </g>
        <g id="Group_1207619" data-name="Group 1207619">
          <path id="Path_1329342" data-name="Path 1329342" d="M37.258,20.4a7.984,7.984,0,1,0-7.984-7.984A7.993,7.993,0,0,0,37.258,20.4Zm1.41-10.645a9.948,9.948,0,0,1,.321,1.774H35.528a9.948,9.948,0,0,1,.321-1.774ZM36.532,7.984a10.024,10.024,0,0,1,.726-1.238,10.025,10.025,0,0,1,.726,1.238Zm2.456,5.323a9.948,9.948,0,0,1-.321,1.774H35.849a9.948,9.948,0,0,1-.321-1.774Zm-1.005,3.548a10.024,10.024,0,0,1-.726,1.237,9.914,9.914,0,0,1-.726-1.237Zm1.954,0H41.6A6.206,6.206,0,0,1,39.227,18.3,11.879,11.879,0,0,0,39.938,16.855Zm.561-1.774a11.6,11.6,0,0,0,.274-1.774H43.4a6.154,6.154,0,0,1-.537,1.774Zm.274-3.548A11.6,11.6,0,0,0,40.5,9.758H42.86a6.154,6.154,0,0,1,.537,1.774Zm-.835-3.548a11.75,11.75,0,0,0-.711-1.449A6.217,6.217,0,0,1,41.6,7.984Zm-5.36,0H32.92a6.206,6.206,0,0,1,2.369-1.449,11.878,11.878,0,0,0-.711,1.449Zm-.561,1.774a11.6,11.6,0,0,0-.274,1.774H31.119a6.154,6.154,0,0,1,.537-1.774Zm-.274,3.548a11.6,11.6,0,0,0,.274,1.774H31.656a6.154,6.154,0,0,1-.537-1.774Zm.835,3.548a11.751,11.751,0,0,0,.711,1.449,6.217,6.217,0,0,1-2.369-1.449Z"/>
          <path id="Path_1329343" data-name="Path 1329343" d="M51.452,13.306H48.985l1.5-7.5A4.117,4.117,0,0,0,46.448.887H28.068A4.117,4.117,0,0,0,24.031,5.81l1.5,7.5H5.323A4.441,4.441,0,0,0,.887,17.742V44.355A4.441,4.441,0,0,0,5.323,48.79H19.516v1.774h-.887A4.441,4.441,0,0,0,14.194,55v.887H42.581V55a4.441,4.441,0,0,0-4.435-4.435h-.887V48.79H51.452a4.441,4.441,0,0,0,4.435-4.435V17.742A4.441,4.441,0,0,0,51.452,13.306ZM28.068,2.661H46.448a2.343,2.343,0,0,1,2.3,2.8L45.779,20.3a2.349,2.349,0,0,1-2.3,1.882H38.763l-5.2,3.469a.49.49,0,0,1-.738-.395V22.177H31.034a2.347,2.347,0,0,1-2.3-1.882L25.771,5.461a2.342,2.342,0,0,1,2.3-2.8ZM5.323,15.081H25.885L27,20.644a4.126,4.126,0,0,0,4.036,3.308l.014,1.3a2.248,2.248,0,0,0,3.5,1.871l4.757-3.17h4.181a4.124,4.124,0,0,0,4.035-3.308l1.113-5.563h2.821a2.665,2.665,0,0,1,2.661,2.661V39.919H22.175a8.164,8.164,0,0,0-6.207-7.828v-.319a2.658,2.658,0,0,0,1.774-2.5h.887a2.665,2.665,0,0,0,2.661-2.661,2.628,2.628,0,0,0-.371-1.332,7.018,7.018,0,0,0,.371-2.24A6.193,6.193,0,0,0,15.1,16.855h-3.6a6.193,6.193,0,0,0-6.186,6.187,7.014,7.014,0,0,0,.371,2.24,2.628,2.628,0,0,0-.371,1.332,2.665,2.665,0,0,0,2.661,2.661h.887a2.658,2.658,0,0,0,1.774,2.5v.319a8.165,8.165,0,0,0-6.207,7.828H2.661V17.742a2.665,2.665,0,0,1,2.661-2.661ZM8.871,27.5H7.984a.887.887,0,0,1,0-1.774h.887Zm0-4.068v.52H7.984a2.637,2.637,0,0,0-.784.131,5.3,5.3,0,0,1-.1-1.041,4.417,4.417,0,0,1,4.412-4.412h3.6a4.417,4.417,0,0,1,4.412,4.412,5.289,5.289,0,0,1-.1,1.041,2.637,2.637,0,0,0-.784-.131H16.855a5.5,5.5,0,0,1-3.916-1.622l-.413-.413a2.142,2.142,0,0,0-3.656,1.515Zm8.871,2.294h.887a.887.887,0,0,1,0,1.774h-.887Zm-2.661,4.435H11.532a.888.888,0,0,1-.887-.887V23.432a.368.368,0,0,1,.627-.26l.413.413a7.249,7.249,0,0,0,4.283,2.088v3.6A.888.888,0,0,1,15.081,30.161Zm-2.661,1.774h1.774v.887a.887.887,0,1,1-1.774,0Zm-1.556,1.938a2.659,2.659,0,0,0,4.886,0A6.382,6.382,0,0,1,20.4,39.919H6.21A6.382,6.382,0,0,1,10.863,33.874ZM40.655,54.113H16.119a2.666,2.666,0,0,1,2.51-1.774H38.145a2.666,2.666,0,0,1,2.51,1.774Zm-5.171-3.548H21.29V48.79H35.484Zm15.968-3.548H5.323a2.665,2.665,0,0,1-2.661-2.661V41.694H54.113v2.661A2.665,2.665,0,0,1,51.452,47.016Z"/>
          <circle id="Ellipse_12936" data-name="Ellipse 12936" cx="0.887" cy="0.887" r="0.887" transform="translate(23.952 43.468)"/>
          <circle id="Ellipse_12937" data-name="Ellipse 12937" cx="0.887" cy="0.887" r="0.887" transform="translate(27.5 43.468)"/>
          <circle id="Ellipse_12938" data-name="Ellipse 12938" cx="0.887" cy="0.887" r="0.887" transform="translate(31.048 43.468)"/>
          <path id="Path_1329344" data-name="Path 1329344" d="M52.339,29.274H31.048V34.6h21.29Zm-1.774,3.548H32.823V31.048H50.565Z"/>
          <path id="Path_1329345" data-name="Path 1329345" d="M31.048,36.371h1.774v1.774H31.048Z"/>
          <path id="Path_1329346" data-name="Path 1329346" d="M34.6,36.371H52.339v1.774H34.6Z"/>
        </g>
      </g>
    </g>
  </g>
</svg>
