<svg xmlns="http://www.w3.org/2000/svg" xmlns:xlink="http://www.w3.org/1999/xlink" width="98" height="97.999" viewBox="0 0 98 97.999">
  <defs>
    <clipPath id="clip-path">
      <rect id="Rectangle_412572" data-name="Rectangle 412572" width="57" height="55" transform="translate(1139.586 3878.606)" fill="#fff" stroke="#707070" stroke-width="1"/>
    </clipPath>
  </defs>
  <g id="Group_1207152" data-name="Group 1207152" transform="translate(-1119.086 -3857.106)">
    <g id="Group_1204751" data-name="Group 1204751" transform="translate(1119.086 3857.106)">
      <g id="Group_1204438" data-name="Group 1204438">
        <g id="Group_1204285" data-name="Group 1204285">
          <g id="Group_1204180" data-name="Group 1204180">
            <g id="Group_1204143" data-name="Group 1204143">
              <g id="Group_1188789" data-name="Group 1188789" transform="translate(0)">
                <path id="Path_1243039" data-name="Path 1243039" d="M41.05,0h0a41.05,41.05,0,0,1,0,82.1h0a41.05,41.05,0,0,1,0-82.1Z" transform="translate(7.951 7.949)" fill="#ffc63f"/>
                <rect id="Rectangle_400907" data-name="Rectangle 400907" width="88.438" height="88.437" rx="44.218" transform="translate(4.782 4.781)" fill="none"/>
                <g id="Group_1098742" data-name="Group 1098742" transform="translate(0)">
                  <g id="Rectangle_400898" data-name="Rectangle 400898" transform="translate(0)" fill="none" stroke="#fff" stroke-width="2" opacity="0.859">
                    <rect width="98" height="97.999" rx="48.999" stroke="none"/>
                    <rect x="1" y="1" width="96" height="95.999" rx="47.999" fill="none"/>
                  </g>
                  <g id="Rectangle_400907-2" data-name="Rectangle 400907" transform="translate(0)" fill="none" stroke="#0f1f33" stroke-linecap="round" stroke-width="2">
                    <rect width="98" height="97.999" rx="48.999" stroke="none"/>
                    <rect x="1" y="1" width="96" height="95.999" rx="47.999" fill="none"/>
                  </g>
                </g>
              </g>
            </g>
          </g>
        </g>
      </g>
    </g>
    <g id="Mask_Group_1099528" data-name="Mask Group 1099528" clip-path="url(#clip-path)">
      <g id="online-education_18286012" transform="translate(1139.894 3877.914)">
        <g id="Group_1207624" data-name="Group 1207624">
          <g id="Group_1207620" data-name="Group 1207620">
            <path id="Path_1329390" data-name="Path 1329390" d="M14.329,53.161h16.7l-4.424-9H18.753Z" fill="#006edb" fill-rule="evenodd"/>
            <path id="Path_1329391" data-name="Path 1329391" d="M30.429,53.161h.6l-4.424-9H19.237a33.206,33.206,0,0,0,11.192,9Z" fill="#0e82f5" fill-rule="evenodd"/>
            <path id="Path_1329392" data-name="Path 1329392" d="M11.505,51.912H33.848a1.477,1.477,0,0,1,1.477,1.477h0a1.477,1.477,0,0,1-1.477,1.477H11.505a1.477,1.477,0,1,1,0-2.954Z" fill="#2891fa" fill-rule="evenodd"/>
            <path id="Path_1329393" data-name="Path 1329393" d="M28.134,51.912h5.713a1.477,1.477,0,0,1,.483,2.873,32.934,32.934,0,0,1-6.2-2.873Z" fill="#43a2ff" fill-rule="evenodd"/>
            <path id="Path_1329394" data-name="Path 1329394" d="M2.811,14.421H42.542a2.036,2.036,0,0,1,2.035,2.035V43.9a2.036,2.036,0,0,1-2.035,2.035H2.811A2.036,2.036,0,0,1,.776,43.9V16.455a2.036,2.036,0,0,1,2.035-2.035Z" fill="#2891fa" fill-rule="evenodd"/>
            <path id="Path_1329395" data-name="Path 1329395" d="M13.24,14.421h29.3a2.041,2.041,0,0,1,2.035,2.035V43.9a2.041,2.041,0,0,1-2.035,2.035H20.761A33.12,33.12,0,0,1,13.24,14.421Z" fill="#43a2ff" fill-rule="evenodd"/>
            <path id="Path_1329396" data-name="Path 1329396" d="M3.458,17.1H41.9V43.25H3.458Z" fill="#9ae7fd" fill-rule="evenodd"/>
            <path id="Path_1329397" data-name="Path 1329397" d="M12.6,17.1H41.9V43.25H18.529A33.123,33.123,0,0,1,12.6,17.1Z" fill="#c9f0ff" fill-rule="evenodd"/>
          </g>
          <g id="Group_1207621" data-name="Group 1207621">
            <path id="Path_1329398" data-name="Path 1329398" d="M36,39.189H9.353V11.91l6.436-6.436H36Z" fill="#e0dfe1" fill-rule="evenodd"/>
            <path id="Path_1329399" data-name="Path 1329399" d="M14.305,6.958l1.483-1.483H36V28.117A16.323,16.323,0,0,1,14.305,6.958Z" fill="#f0f0f0" fill-rule="evenodd"/>
            <path id="Path_1329400" data-name="Path 1329400" d="M15.789,11.91V5.474L9.353,11.91Z" fill="#d1d3d3" fill-rule="evenodd"/>
            <path id="Path_1329401" data-name="Path 1329401" d="M15.789,11.91V5.474L14.305,6.958a16.228,16.228,0,0,0-1.187,4.952Z" fill="#e0dfe1" fill-rule="evenodd"/>
            <path id="Path_1329402" data-name="Path 1329402" d="M31.674,8.5a.826.826,0,1,1,0,1.652H24.214a.826.826,0,1,1,0-1.652ZM12.467,33.2H15.7l.01,0,.01,0,.01,0,.01,0,.009,0,.009,0,.009,0,.009,0,.009,0,.009,0,.009,0,.009,0,.009,0,.008,0,.008,0,.008,0,.008.005.008.005.008.006.008.006.008.006.007.006.007.006.007.006.007.006.007.007.007.007.006.007.006.007.006.007.006.007.006.008.006.008.006.008.005.008.005.008,0,.008,0,.008,0,.008,0,.009,0,.009,0,.009,0,.009,0,.009,0,.009,0,.009,0,.009,0,.009,0,.01,0,.01,0,.01,0,.01v3.236a.4.4,0,0,1-.4.4H12.467a.4.4,0,0,1-.4-.4V33.6a.4.4,0,0,1,.4-.4Zm0-6.085H15.7l.01,0,.01,0,.01,0,.01,0,.009,0,.009,0,.009,0,.009,0,.009,0,.009,0,.009,0,.009,0,.009,0,.008,0,.008,0,.008,0,.008.005.008.005.008.006.008.006.008.006.007.006.007.006.007.006.007.006.007.007.007.007.006.007.006.007.006.007.006.007.006.008.006.008.006.008.005.008.005.008,0,.008,0,.008,0,.008,0,.009,0,.009,0,.009,0,.009,0,.009,0,.009,0,.009,0,.009,0,.009,0,.01,0,.01,0,.01,0,.01v3.235a.4.4,0,0,1-.4.4H12.467a.4.4,0,0,1-.4-.4V27.518a.4.4,0,0,1,.4-.4Zm0-6.085H15.7l.01,0,.01,0,.01,0,.01,0,.009,0,.009,0,.009,0,.009,0,.009,0,.009,0,.009,0,.009,0,.009,0,.008,0,.008,0,.008,0,.008.005.008.005.008.006.008.006.008.006.007.006.007.006.007.006.007.006.007.007.007.007.006.007.006.007.006.007.006.007.006.008.006.008.006.008.005.008.005.008,0,.008,0,.008,0,.008,0,.009,0,.009,0,.009,0,.009,0,.009,0,.009,0,.009,0,.009,0,.009,0,.01,0,.01,0,.01,0,.01v3.236a.4.4,0,0,1-.4.4H12.467a.4.4,0,0,1-.4-.4V21.433a.4.4,0,0,1,.4-.4Zm0-6.085H15.7l.01,0,.01,0,.01,0,.01,0,.009,0,.009,0,.009,0,.009,0,.009,0,.009,0,.009,0,.009,0,.009,0,.008,0,.008,0,.008,0,.008.005.008.005.008.006.008.006.008.006.007.006.007.006.007.006.007.006.007.007.007.007.006.007.006.007.006.007.006.007.006.008.006.008.006.008.005.008.005.008,0,.008,0,.008,0,.008,0,.009,0,.009,0,.009,0,.009,0,.009,0,.009,0,.009,0,.009,0,.009,0,.01,0,.01,0,.01,0,.01v3.236a.4.4,0,0,1-.4.4H12.467a.4.4,0,0,1-.4-.4V15.348a.4.4,0,0,1,.4-.4ZM31.674,32.841a.826.826,0,0,1,0,1.652H21.7a.826.826,0,1,1,0-1.652Zm0,3.042a.826.826,0,1,1,0,1.652H18.962a.826.826,0,1,1,0-1.652Zm0-9.126a.826.826,0,0,1,0,1.652H21.7a.826.826,0,0,1,0-1.652Zm0,3.042a.826.826,0,0,1,0,1.652H18.962a.826.826,0,1,1,0-1.652Zm0-9.127a.826.826,0,0,1,0,1.652H21.7a.826.826,0,1,1,0-1.652Zm0,3.042a.826.826,0,0,1,0,1.652H18.962a.826.826,0,0,1,0-1.652Zm0-9.126a.826.826,0,0,1,0,1.652H21.7a.826.826,0,1,1,0-1.652Zm0,3.042a.826.826,0,0,1,0,1.652H18.962a.826.826,0,0,1,0-1.652Zm0-6.084a.826.826,0,1,1,0,1.652H20.192a.826.826,0,1,1,0-1.652Z" fill="#d1d3d3" fill-rule="evenodd"/>
            <path id="Path_1329403" data-name="Path 1329403" d="M31.674,8.5a.826.826,0,1,1,0,1.652H24.214a.826.826,0,1,1,0-1.652Zm-8.2,19.9a16.254,16.254,0,0,1-2.492-1.224.826.826,0,0,1,.724-.428h9.972a.826.826,0,0,1,0,1.652ZM16.041,22.59a16.344,16.344,0,0,1-.971-1.556H15.7l.01,0,.01,0,.01,0,.01,0,.009,0,.009,0,.009,0,.009,0,.009,0,.009,0,.009,0,.009,0,.009,0,.008,0,.008,0,.008,0,.008.005.008.005.008.006.008.006.008.006.007.006.007.006.007.006.007.006.007.007.007.007.006.007.006.007.006.007.006.007.006.008.006.008.006.008.005.008.005.008,0,.008,0,.008,0,.008,0,.009,0,.009,0,.009,0,.009,0,.009,0,.009,0,.009,0,.009,0,.009,0,.01,0,.01,0,.01,0,.01V22.59ZM14.1,18.923a16.23,16.23,0,0,1-.94-3.973H15.7l.01,0,.01,0,.01,0,.01,0,.009,0,.009,0,.009,0,.009,0,.009,0,.009,0,.009,0,.009,0,.009,0,.008,0,.008,0,.008,0,.008.005.008.005.008.006.008.006.008.006.007.006.007.006.007.006.007.006.007.007.007.007.006.007.006.007.006.007.006.007.006.008.006.008.006.008.005.008.005.008,0,.008,0,.008,0,.008,0,.009,0,.009,0,.009,0,.009,0,.009,0,.009,0,.009,0,.009,0,.009,0,.01,0,.01,0,.01,0,.01v3.236a.4.4,0,0,1-.4.4H14.1Zm17.573,1.75a.826.826,0,0,1,0,1.652H21.7a.826.826,0,1,1,0-1.652Zm0,3.042a.826.826,0,0,1,0,1.652H18.962a.826.826,0,0,1,0-1.652Zm0-9.126a.826.826,0,0,1,0,1.652H21.7a.826.826,0,1,1,0-1.652Zm0,3.042a.826.826,0,0,1,0,1.652H18.962a.826.826,0,0,1,0-1.652Zm0-6.084a.826.826,0,1,1,0,1.652H20.192a.826.826,0,1,1,0-1.652Z" fill="#e0dfe1" fill-rule="evenodd"/>
            <path id="Path_1329404" data-name="Path 1329404" d="M13.23,14.261h3.175a.4.4,0,0,1,.4.4v3.175a.4.4,0,0,1-.4.4H13.23a.4.4,0,0,1-.4-.4V14.66a.4.4,0,0,1,.4-.4Z" fill="#58d561" fill-rule="evenodd"/>
            <path id="Path_1329405" data-name="Path 1329405" d="M14.106,14.261h2.3a.4.4,0,0,1,.4.4v2.158H14.5a.4.4,0,0,1-.4-.4Z" fill="#6ce75a" fill-rule="evenodd"/>
            <path id="Path_1329406" data-name="Path 1329406" d="M13.23,20.346h3.175a.4.4,0,0,1,.4.4V23.92a.4.4,0,0,1-.4.4H13.23a.4.4,0,0,1-.4-.4V20.745a.4.4,0,0,1,.4-.4Z" fill="#ffc328" fill-rule="evenodd"/>
            <path id="Path_1329407" data-name="Path 1329407" d="M14.106,20.346h2.3a.4.4,0,0,1,.4.4V22.9H14.5a.4.4,0,0,1-.4-.4Z" fill="#ffd54f" fill-rule="evenodd"/>
            <path id="Path_1329408" data-name="Path 1329408" d="M13.23,26.431h3.175a.4.4,0,0,1,.4.4v3.175a.4.4,0,0,1-.4.4H13.23a.4.4,0,0,1-.4-.4V26.83a.4.4,0,0,1,.4-.4Z" fill="#eb4e5c" fill-rule="evenodd"/>
            <path id="Path_1329409" data-name="Path 1329409" d="M14.106,26.431h2.3a.4.4,0,0,1,.4.4v2.158H14.5a.4.4,0,0,1-.4-.4Z" fill="#ff6372" fill-rule="evenodd"/>
            <path id="Path_1329410" data-name="Path 1329410" d="M13.23,32.516h3.175a.4.4,0,0,1,.4.4V36.09a.4.4,0,0,1-.4.4H13.23a.4.4,0,0,1-.4-.4V32.915a.4.4,0,0,1,.4-.4Z" fill="#2891fa" fill-rule="evenodd"/>
            <path id="Path_1329411" data-name="Path 1329411" d="M14.106,32.516h2.3a.4.4,0,0,1,.4.4v2.158H14.5a.4.4,0,0,1-.4-.4Z" fill="#43a2ff" fill-rule="evenodd"/>
          </g>
          <g id="Group_1207622" data-name="Group 1207622">
            <path id="Path_1329412" data-name="Path 1329412" d="M51.656,12.863l-16.968-9.8-4.7,8.139a24.484,24.484,0,0,0,7.548,6.52A24.484,24.484,0,0,0,46.957,21Z" fill="#3b3b6b" fill-rule="evenodd"/>
            <path id="Path_1329413" data-name="Path 1329413" d="M51.656,12.863,39.511,5.851a17.006,17.006,0,0,0,6.3,14.994q.582.1,1.141.157Z" fill="#45467e" fill-rule="evenodd"/>
            <path id="Path_1329414" data-name="Path 1329414" d="M45.777,3.454l9.512,12.6L39.617,14.122l-9.512-12.6Z" fill="#32325b" fill-rule="evenodd"/>
            <path id="Path_1329415" data-name="Path 1329415" d="M45.777,3.454l9.512,12.6L40.8,14.269a17,17,0,0,1-.682-11.513Z" fill="#3b3b6b" fill-rule="evenodd"/>
            <path id="Path_1329416" data-name="Path 1329416" d="M52.771,20.418l1.036,2.144-2.082,3.605L50.75,23.92l-2.434.278L50.4,20.593Z" fill="#ffc328" fill-rule="evenodd"/>
            <path id="Path_1329417" data-name="Path 1329417" d="M52.771,20.418l1.036,2.144-.937,1.622a16.931,16.931,0,0,1-3.8-1.3L50.4,20.593Z" fill="#ffd54f" fill-rule="evenodd"/>
          </g>
          <g id="Group_1207623" data-name="Group 1207623">
            <path id="Path_1329418" data-name="Path 1329418" d="M40.7,45.228l2.728,6.428,1.387-2.9,3.046,1.013L45.08,43.223Z" fill="#ffc328" fill-rule="evenodd"/>
            <path id="Path_1329419" data-name="Path 1329419" d="M44.82,48.763l3.041,1.012L45.08,43.222l-4.074,1.866a28.741,28.741,0,0,0,3.814,3.674h0Z" fill="#ffd54f" fill-rule="evenodd"/>
            <path id="Path_1329420" data-name="Path 1329420" d="M39.871,45.228l-2.728,6.428-1.387-2.9-3.046,1.013,2.781-6.552Z" fill="#ffc328" fill-rule="evenodd"/>
            <path id="Path_1329421" data-name="Path 1329421" d="M41.755,31.224l.2.311a1.723,1.723,0,0,0,2,.727l.351-.111a1.742,1.742,0,0,1,2.253,1.89l-.048.365a1.723,1.723,0,0,0,1.062,1.84l.34.14a1.742,1.742,0,0,1,.511,2.9l-.272.248a1.723,1.723,0,0,0-.369,2.092l.17.326a1.742,1.742,0,0,1-1.47,2.547l-.368.016a1.723,1.723,0,0,0-1.627,1.365l-.079.359a1.742,1.742,0,0,1-2.763,1.006l-.292-.224a1.723,1.723,0,0,0-2.124,0l-.292.224a1.742,1.742,0,0,1-2.763-1.006l-.079-.359a1.723,1.723,0,0,0-1.627-1.365l-.368-.016a1.742,1.742,0,0,1-1.47-2.547l.17-.326a1.723,1.723,0,0,0-.369-2.092l-.272-.248a1.742,1.742,0,0,1,.511-2.9l.34-.14a1.723,1.723,0,0,0,1.062-1.84l-.048-.365a1.742,1.742,0,0,1,2.252-1.89l.351.111a1.723,1.723,0,0,0,2-.726l.2-.311a1.742,1.742,0,0,1,2.941,0Z" fill="#eb4e5c" fill-rule="evenodd"/>
            <path id="Path_1329422" data-name="Path 1329422" d="M41.755,31.224l.2.311a1.723,1.723,0,0,0,2,.727l.351-.111a1.742,1.742,0,0,1,2.253,1.89l-.048.365a1.723,1.723,0,0,0,1.062,1.84l.34.14a1.742,1.742,0,0,1,.511,2.9l-.272.248a1.723,1.723,0,0,0-.369,2.092l.17.326a1.742,1.742,0,0,1-1.47,2.547l-.368.016a1.723,1.723,0,0,0-1.627,1.365l-.079.359a1.7,1.7,0,0,1-1.073,1.25,28.529,28.529,0,0,1-8.62-15.074,1.694,1.694,0,0,1,1.562-.26l.351.111a1.723,1.723,0,0,0,2-.727l.2-.311a1.742,1.742,0,0,1,2.94,0h0Z" fill="#ff6372" fill-rule="evenodd"/>
            <circle id="Ellipse_12943" data-name="Ellipse 12943" cx="4.87" cy="4.87" r="4.87" transform="translate(35.415 34.142)" fill="#e0dfe1"/>
            <path id="Path_1329423" data-name="Path 1329423" d="M40.017,43.875a28.514,28.514,0,0,1-4.029-7.156,4.871,4.871,0,1,1,4.3,7.164q-.135,0-.268-.007Z" fill="#f0f0f0" fill-rule="evenodd"/>
          </g>
        </g>
        <path id="Path_1329424" data-name="Path 1329424" d="M53.037,22.529l-.6-1.246-1.382.1-1.044,1.806.81-.091a.7.7,0,0,1,.093-.005.835.835,0,0,1,.758.5l.322.743ZM49,16.094l-9.323-1.151a.832.832,0,0,1-.561-.322l-5.656-7.5-2.322,4.024a24.307,24.307,0,0,0,6.97,5.863,24.284,24.284,0,0,0,8.565,3.108Zm-5.09,5.138q-.514-.137-1.028-.3V31.189a.886.886,0,0,0,.976.286l.052-.017V21.232ZM45.573,33.11a.879.879,0,0,1,.322.823l-.047.365a2.539,2.539,0,0,0,1.563,2.712l.343.14a.916.916,0,0,1,.265,1.523l-.27.248A2.541,2.541,0,0,0,47.2,42l.171.326a.879.879,0,0,1-.021.882.867.867,0,0,1-.753.457l-.369.016A2.536,2.536,0,0,0,43.838,45.7l-.083.359a.914.914,0,0,1-1.449.53l-.3-.225a2.539,2.539,0,0,0-3.132,0l-.291.225a.911.911,0,0,1-1.449-.53l-.083-.359a2.537,2.537,0,0,0-2.4-2.013l-.364-.016a.918.918,0,0,1-.774-1.339L33.689,42a2.541,2.541,0,0,0-.545-3.084l-.27-.248a.916.916,0,0,1,.265-1.523l.343-.14A2.539,2.539,0,0,0,35.044,34.3L35,33.932a.888.888,0,0,1,.317-.823.9.9,0,0,1,.577-.218.984.984,0,0,1,.291.046l.348.112a2.543,2.543,0,0,0,2.945-1.071l.2-.311a.917.917,0,0,1,1.548,0l.2.311a2.536,2.536,0,0,0,2.94,1.071l.353-.112a.873.873,0,0,1,.863.172Zm.976,15.3-1.06-2.492a1.014,1.014,0,0,0-.042.132l-.078.359a2.528,2.528,0,0,1-1.631,1.861,2.642,2.642,0,0,1-.628.145l.525,1.23.6-1.246a.821.821,0,0,1,1-.426Zm-8.767,0a2.662,2.662,0,0,1-.628-.144,2.518,2.518,0,0,1-1.631-1.861l-.078-.359a1.03,1.03,0,0,0-.042-.132l-1.06,2.492,1.314-.436a.823.823,0,0,1,1,.426l.6,1.246Zm-10.663-1.66h-8.56l-2.13,4.328H29.243Zm6.887,5.98H11.666a.651.651,0,0,0,0,1.3h22.34a.651.651,0,1,0,0-1.3ZM2.971,45.107A1.213,1.213,0,0,1,1.761,43.9V16.455a1.212,1.212,0,0,1,1.21-1.208H8.69v1.029H3.621a.826.826,0,0,0-.826.826V43.252a.826.826,0,0,0,.826.826h28.51a2.533,2.533,0,0,0,1.153,1.029ZM15.125,11.084V7.469L11.51,11.084Zm16.9,29.056a.9.9,0,0,1,.2,1.1l-.171.326a2.625,2.625,0,0,0-.275.859H4.446v-24.5H8.69V39.19a.825.825,0,0,0,.826.826H31.892Zm9.2-19.8v9.365a2.622,2.622,0,0,0-.784-.118,2.514,2.514,0,0,0-2.166,1.19l-.2.311a.9.9,0,0,1-1.049.382l-.047-.015v-13.2c.1.059.2.119.3.177a29.272,29.272,0,0,0,3.947,1.9ZM32.027,6.3l-.873,1.515H25.14a.826.826,0,0,0,0,1.652H30.2l-.764,1.325-.031.065h-8.29a.826.826,0,0,0,0,1.652h9c.379.469.795.934,1.241,1.39H22.626a.826.826,0,0,0,0,1.652H32.6a.813.813,0,0,0,.416-.112,28.307,28.307,0,0,0,2.322,1.772V31.3a2.55,2.55,0,0,0-1.08.542,2.521,2.521,0,0,0-.893,2.306l.047.365a.886.886,0,0,1-.332.835A.819.819,0,0,0,32.6,35.2H19.883a.826.826,0,1,0,0,1.652H31.191a2.463,2.463,0,0,0-.229.7,2.528,2.528,0,0,0-.021.814h-20.6V12.737h5.61a.829.829,0,0,0,.826-.826V6.3ZM32.1,2.577,45.49,4.231l6.851,9.078L45.62,9.43a.826.826,0,0,0-.826,1.43l6.721,3.879L40.228,13.345ZM56.163,16.471c-.005.012-2.3,3.982-2.3,3.982l.847,1.751a.845.845,0,0,1-.031.772L52.6,26.581a.823.823,0,0,1-.712.413l-.047,0a.827.827,0,0,1-.712-.5L50.4,24.811l-1.828.209a.827.827,0,0,1-.81-1.234l2.083-3.605a.826.826,0,0,1,.654-.411l1.937-.143,1.678-2.9-3.335-.412-2.945,5.1a.829.829,0,0,1-.8.409c-.478-.049-.971-.124-1.47-.216v9.7a2.582,2.582,0,0,1,1.075.541,2.522,2.522,0,0,1,.893,2.305l-.047.366a.892.892,0,0,0,.556.967l.343.141a2.569,2.569,0,0,1,.753,4.268l-.27.249a.894.894,0,0,0-.2,1.1l.171.327a2.568,2.568,0,0,1-1.828,3.717l1.771,4.169a.827.827,0,0,1-1.023,1.105l-2.353-.783-1.075,2.239a.822.822,0,0,1-.743.47h-.021a.82.82,0,0,1-.738-.5L41,47.668a.888.888,0,0,0-1.1,0L38.062,51.98a.822.822,0,0,1-.743.5H37.3a.822.822,0,0,1-.743-.47l-1.075-2.239-2.353.783a.825.825,0,0,1-1.023-1.105l1.143-2.694h-4.3l2.13,4.328h2.919a2.3,2.3,0,1,1,0,4.606H11.666a2.3,2.3,0,0,1,0-4.606H14.59l2.124-4.328H2.971A2.864,2.864,0,0,1,.11,43.9V16.455A2.864,2.864,0,0,1,2.971,13.6H8.69V11.91a.817.817,0,0,1,.239-.583l6.435-6.436a.835.835,0,0,1,.587-.242H31.6l-1.99-2.633A.826.826,0,0,1,30.37.7L46.04,2.635a.829.829,0,0,1,.556.322l9.515,12.6a.828.828,0,0,1,.052.909ZM44.212,39.013a3.766,3.766,0,1,0-3.766,3.764A3.771,3.771,0,0,0,44.212,39.013Zm1.652,0a5.417,5.417,0,1,0-5.417,5.416,5.423,5.423,0,0,0,5.417-5.416ZM16.138,33.34H13.816v2.322h2.322Zm1.652-.427a1.227,1.227,0,0,0-1.226-1.225H13.391a1.227,1.227,0,0,0-1.226,1.225v3.175a1.227,1.227,0,0,0,1.226,1.226h3.174a1.227,1.227,0,0,0,1.226-1.226Zm-1.652-5.657H13.816v2.321h2.322Zm1.652-.426A1.228,1.228,0,0,0,16.564,25.6H13.391a1.228,1.228,0,0,0-1.226,1.226V30a1.227,1.227,0,0,0,1.226,1.225h3.174A1.227,1.227,0,0,0,17.79,30Zm-1.652-5.657H13.816v2.32h2.322Zm1.652-.428a1.227,1.227,0,0,0-1.226-1.225H13.391a1.227,1.227,0,0,0-1.226,1.225V23.92a1.227,1.227,0,0,0,1.226,1.224h3.174A1.227,1.227,0,0,0,17.79,23.92Zm-1.652-5.657H13.816v2.32h2.322Zm1.652-.427a1.227,1.227,0,0,0-1.226-1.225H13.391a1.227,1.227,0,0,0-1.226,1.225v3.175a1.227,1.227,0,0,0,1.226,1.225h3.174a1.227,1.227,0,0,0,1.226-1.225ZM32.6,19.985a.826.826,0,1,1,0,1.652H22.626a.826.826,0,0,1,0-1.652Zm0,12.169H22.626a.826.826,0,0,0,0,1.652H32.6a.826.826,0,1,0,0-1.652ZM19.883,18.595a.826.826,0,1,1,0-1.652H32.6a.826.826,0,1,1,0,1.652ZM32.6,26.069H22.626a.826.826,0,0,0,0,1.652H32.6a.826.826,0,0,0,0-1.652ZM19.883,30.763H32.6a.826.826,0,1,0,0-1.652H19.883a.826.826,0,1,0,0,1.652Zm-.826-6.911a.828.828,0,0,0,.826.826H32.6a.826.826,0,0,0,0-1.652H19.883a.829.829,0,0,0-.826.826Z" fill-rule="evenodd"/>
      </g>
    </g>
  </g>
</svg>
