<svg xmlns="http://www.w3.org/2000/svg" xmlns:xlink="http://www.w3.org/1999/xlink" width="98" height="97.999" viewBox="0 0 98 97.999">
  <defs>
    <clipPath id="clip-path">
      <rect id="Rectangle_412572" data-name="Rectangle 412572" width="57" height="55" transform="translate(1139.586 3878.606)" fill="#fff" stroke="#707070" stroke-width="1"/>
    </clipPath>
  </defs>
  <g id="Group_1207156" data-name="Group 1207156" transform="translate(-1119.086 -3857.106)">
    <g id="Group_1204751" data-name="Group 1204751" transform="translate(1119.086 3857.106)">
      <g id="Group_1204438" data-name="Group 1204438">
        <g id="Group_1204285" data-name="Group 1204285">
          <g id="Group_1204180" data-name="Group 1204180">
            <g id="Group_1204143" data-name="Group 1204143">
              <g id="Group_1188789" data-name="Group 1188789" transform="translate(0)">
                <path id="Path_1243039" data-name="Path 1243039" d="M41.05,0h0a41.05,41.05,0,0,1,0,82.1h0a41.05,41.05,0,0,1,0-82.1Z" transform="translate(7.951 7.949)" fill="#ffc63f"/>
                <rect id="Rectangle_400907" data-name="Rectangle 400907" width="88.438" height="88.437" rx="44.218" transform="translate(4.782 4.781)" fill="none"/>
                <g id="Group_1098742" data-name="Group 1098742" transform="translate(0)">
                  <g id="Rectangle_400898" data-name="Rectangle 400898" transform="translate(0)" fill="none" stroke="#fff" stroke-width="2" opacity="0.859">
                    <rect width="98" height="97.999" rx="48.999" stroke="none"/>
                    <rect x="1" y="1" width="96" height="95.999" rx="47.999" fill="none"/>
                  </g>
                  <g id="Rectangle_400907-2" data-name="Rectangle 400907" transform="translate(0)" fill="none" stroke="#0f1f33" stroke-linecap="round" stroke-width="2">
                    <rect width="98" height="97.999" rx="48.999" stroke="none"/>
                    <rect x="1" y="1" width="96" height="95.999" rx="47.999" fill="none"/>
                  </g>
                </g>
              </g>
            </g>
          </g>
        </g>
      </g>
    </g>
    <g id="Mask_Group_1099524" data-name="Mask Group 1099524" clip-path="url(#clip-path)">
      <g id="multiple-devices_2206454" transform="translate(1139.586 3877.606)">
        <path id="Path_1329296" data-name="Path 1329296" d="M40.378,20.664V31.424a8.486,8.486,0,0,1-6.634,8.245v2.593h8A4.267,4.267,0,0,1,46.034,46.5v2.754H52.2V20.889a1.117,1.117,0,0,0-1.113-1.113H40.334A8.762,8.762,0,0,1,40.378,20.664Z" fill="#dde5eb"/>
        <path id="Path_1329297" data-name="Path 1329297" d="M4.8,39.256H8.039v9.995H4.8Z" fill="#dde5eb"/>
        <path id="Path_1329298" data-name="Path 1329298" d="M40.378,31.425a8.486,8.486,0,0,1-6.634,8.245v2.593h8A4.267,4.267,0,0,1,46.034,46.5v2.754H48.96V23.6a.558.558,0,0,0-.557-.557H40.378v8.386Z" fill="#fff"/>
        <path id="Path_1329299" data-name="Path 1329299" d="M15.343,46.5a4.267,4.267,0,0,1,4.289-4.235h8V39.671a8.547,8.547,0,0,1-6.067-5.216v3.311a1.492,1.492,0,0,1-1.486,1.49H8.039v9.995h7.3V46.5Z" fill="#fff"/>
        <path id="Path_1329300" data-name="Path 1329300" d="M8.039,39.256h3.475v9.995H8.039Z" fill="#d8e6eb"/>
        <path id="Path_1329301" data-name="Path 1329301" d="M30.689,13.428c-4.2,0-7.78,1.213-9.122,4.285v5.148c1.343-3.072,4.92-4.285,9.122-4.285,5.351,0,9.689,1.966,9.689,7.236V20.664C40.378,15.394,36.04,13.428,30.689,13.428Z" fill="#fda613"/>
        <path id="Path_1329302" data-name="Path 1329302" d="M30.689,13.428c-4.2,0-7.78,1.213-9.122,4.285v5.148a6.207,6.207,0,0,1,2.957-3.044c.392-4.09,3.67-5.937,7.908-6.315-.565-.05-1.148-.075-1.743-.075Z" fill="#fa8701"/>
        <path id="Path_1329303" data-name="Path 1329303" d="M46.034,49.251V46.5a4.267,4.267,0,0,0-4.289-4.235h-8v.526a3.055,3.055,0,1,1-6.111,0v-.526h-8A4.267,4.267,0,0,0,15.343,46.5v2.754Z" fill="#fd646f"/>
        <path id="Path_1329304" data-name="Path 1329304" d="M19.963,49.251V46.5a4.267,4.267,0,0,1,4.289-4.235h-4.62A4.267,4.267,0,0,0,15.343,46.5v2.754Z" fill="#fc4755"/>
        <path id="Path_1329305" data-name="Path 1329305" d="M31.818,39.887H29.56a8.673,8.673,0,0,1-1.927-.218v3.119a3.055,3.055,0,1,0,6.111,0V39.67A8.672,8.672,0,0,1,31.818,39.887Z" fill="#fdd1a3"/>
        <path id="Path_1329306" data-name="Path 1329306" d="M30.516,42.788v-2.9H29.56a8.673,8.673,0,0,1-1.927-.218v3.119a3.062,3.062,0,0,0,3.055,3.069,3.031,3.031,0,0,0,1.441-.363A3.07,3.07,0,0,1,30.516,42.788Z" fill="#ffbb85"/>
        <path id="Path_1329307" data-name="Path 1329307" d="M41.7,27.073H40.378v4.352a8.437,8.437,0,0,1-.093,1.241H41.7a1.762,1.762,0,0,0,1.781-1.742V28.815A1.762,1.762,0,0,0,41.7,27.073Z" fill="#fdd1a3"/>
        <path id="Path_1329308" data-name="Path 1329308" d="M30.689,18.576c-4.2,0-7.78,1.213-9.122,4.285V34.455a8.56,8.56,0,0,0,7.993,5.432h2.258a8.512,8.512,0,0,0,8.561-8.463V25.812c0-5.269-4.338-7.236-9.69-7.236Z" fill="#fdd1a3"/>
        <path id="Path_1329309" data-name="Path 1329309" d="M24.484,31.425V25.812c0-4.684,3.427-6.758,7.947-7.161-.565-.05-1.148-.075-1.743-.075-4.2,0-7.78,1.213-9.122,4.285V34.455a8.56,8.56,0,0,0,7.993,5.432l2.871-.024a8.5,8.5,0,0,1-7.947-8.439Z" fill="#ffbb85"/>
        <path id="Path_1329310" data-name="Path 1329310" d="M30.689,36.7a3.277,3.277,0,0,1-3.266-3.281.378.378,0,0,1,.377-.379h5.778a.378.378,0,0,1,.377.379A3.277,3.277,0,0,1,30.689,36.7Z" fill="#ef7280"/>
        <path id="Path_1329311" data-name="Path 1329311" d="M56.165,52.4a1.117,1.117,0,0,1-1.113,1.113H1.948A1.117,1.117,0,0,1,.835,52.4V50.365a1.117,1.117,0,0,1,1.113-1.113h53.1a1.117,1.117,0,0,1,1.113,1.113Z" fill="#8c9ba7"/>
        <path id="Path_1329312" data-name="Path 1329312" d="M5.344,52.4V50.365a1.117,1.117,0,0,1,1.113-1.113H1.948A1.117,1.117,0,0,0,.835,50.365V52.4a1.117,1.117,0,0,0,1.113,1.113H6.457A1.117,1.117,0,0,1,5.344,52.4Z" fill="#798b97"/>
        <path id="Path_1329313" data-name="Path 1329313" d="M20.081,3.491H3.545A1.492,1.492,0,0,0,2.06,4.981V37.767a1.492,1.492,0,0,0,1.486,1.49H20.081a1.492,1.492,0,0,0,1.486-1.49V4.981a1.492,1.492,0,0,0-1.486-1.49Z" fill="#8c9ba7"/>
        <path id="Path_1329314" data-name="Path 1329314" d="M5.542,4.981a1.492,1.492,0,0,1,1.486-1.49H3.545A1.492,1.492,0,0,0,2.06,4.981V6.63H5.542Z" fill="#798b97"/>
        <path id="Path_1329315" data-name="Path 1329315" d="M5.542,37.767V35.214H2.06v2.553a1.492,1.492,0,0,0,1.486,1.49H7.027A1.492,1.492,0,0,1,5.542,37.767Z" fill="#798b97"/>
        <path id="Path_1329316" data-name="Path 1329316" d="M2.06,6.631H21.567V35.214H2.06Z" fill="#c7eefd"/>
        <path id="Path_1329317" data-name="Path 1329317" d="M5.116,24.452a1.21,1.21,0,0,1-.359-.859,6.833,6.833,0,0,1,.785-3.173V6.631H2.06V35.214H5.542V24.724A1.212,1.212,0,0,1,5.116,24.452Z" fill="#98e5fb"/>
        <path id="Path_1329318" data-name="Path 1329318" d="M14.05,17.888a3.974,3.974,0,0,1-4.474,0,6.143,6.143,0,0,0-3.984,5.707.368.368,0,0,0,.11.263.38.38,0,0,0,.267.109H17.657a.381.381,0,0,0,.267-.109.369.369,0,0,0,.11-.263A6.142,6.142,0,0,0,14.05,17.888Z" fill="#0592fb"/>
        <path id="Path_1329319" data-name="Path 1329319" d="M11.719,18.575a3.947,3.947,0,0,1-2.143-.687,6.143,6.143,0,0,0-3.984,5.707.368.368,0,0,0,.11.263.38.38,0,0,0,.267.109H9.422a.381.381,0,0,1-.267-.109.368.368,0,0,1-.11-.263A6.1,6.1,0,0,1,11.719,18.575Z" fill="#0181fb"/>
        <path id="Path_1329320" data-name="Path 1329320" d="M15.741,14.708a3.928,3.928,0,1,1-3.928-3.869A3.9,3.9,0,0,1,15.741,14.708Z" fill="#0592fb"/>
        <path id="Path_1329321" data-name="Path 1329321" d="M11.355,14.708a3.864,3.864,0,0,1,2.193-3.471,3.959,3.959,0,0,0-1.735-.4,3.869,3.869,0,1,0,0,7.738,3.959,3.959,0,0,0,1.735-.4,3.864,3.864,0,0,1-2.193-3.471Z" fill="#0181fb"/>
        <path id="Path_1329322" data-name="Path 1329322" d="M30.408,30.6h1.171a.835.835,0,0,0,0-1.67H30.7V27a.835.835,0,0,0-1.67,0v2.224A1.379,1.379,0,0,0,30.408,30.6Z"/>
        <path id="Path_1329323" data-name="Path 1329323" d="M25.5,29.042a.835.835,0,0,0,.835-.835V26.26a.835.835,0,1,0-1.67,0v1.948A.835.835,0,0,0,25.5,29.042Z"/>
        <path id="Path_1329324" data-name="Path 1329324" d="M35.879,29.042a.835.835,0,0,0,.835-.835V26.26a.835.835,0,1,0-1.67,0v1.948A.835.835,0,0,0,35.879,29.042Z"/>
        <path id="Path_1329325" data-name="Path 1329325" d="M30.689,37.536a4.113,4.113,0,0,0,4.1-4.116,1.214,1.214,0,0,0-1.212-1.213H27.8a1.214,1.214,0,0,0-1.212,1.213A4.113,4.113,0,0,0,30.689,37.536Zm2.389-3.659a2.429,2.429,0,0,1-4.777,0Z"/>
        <path id="Path_1329326" data-name="Path 1329326" d="M55.052,48.416H53.039V20.889a1.95,1.95,0,0,0-1.948-1.948H41.052c-.787-4.058-4.465-6.347-10.364-6.347-3.683,0-6.5.894-8.287,2.552V4.981a2.325,2.325,0,0,0-2.321-2.325H3.545A2.325,2.325,0,0,0,1.225,4.981V37.767a2.325,2.325,0,0,0,2.321,2.325h.416v8.325H1.948A1.951,1.951,0,0,0,0,50.365V52.4a1.951,1.951,0,0,0,1.948,1.948h53.1A1.951,1.951,0,0,0,57,52.4V50.365a1.951,1.951,0,0,0-1.948-1.948ZM41.7,33.5a2.6,2.6,0,0,0,2.616-2.577V28.815A2.6,2.6,0,0,0,41.7,26.238h-.486V23.874h6.912v4.292a.835.835,0,0,0,1.67,0V23.6A1.393,1.393,0,0,0,48.4,22.2H41.213v-1.54c0-.018,0-.036,0-.054h9.879a.282.282,0,0,1,.278.278V48.417H49.8V32.063a.835.835,0,1,0-1.67,0V48.416H46.869V46.5a5.1,5.1,0,0,0-5.124-5.07H40.523a.835.835,0,0,0,0,1.67h1.222A3.431,3.431,0,0,1,45.2,46.5v1.92H16.178V46.5a3.431,3.431,0,0,1,3.454-3.4h7.179a3.888,3.888,0,0,0,7.754,0h2.061a.835.835,0,0,0,0-1.67H34.579V40.312A9.37,9.37,0,0,0,40.974,33.5H41.7Zm-.5-1.67c.006-.135.01-.27.01-.406V27.908H41.7a.928.928,0,0,1,.946.907v2.109a.928.928,0,0,1-.946.907h-.5ZM28.468,42.788V40.659a9.523,9.523,0,0,0,1.092.064h2.258a9.526,9.526,0,0,0,1.092-.065v2.13a2.221,2.221,0,1,1-4.441,0ZM22.4,17.911A5.2,5.2,0,0,1,24.3,15.768a11.808,11.808,0,0,1,6.394-1.5,11.808,11.808,0,0,1,6.394,1.5,5.479,5.479,0,0,1,2.461,4.9v.22c-1.73-2.036-4.755-3.143-8.854-3.143-3.683,0-6.5.894-8.287,2.552V17.911Zm0,5.148A5.2,5.2,0,0,1,24.3,20.916a11.808,11.808,0,0,1,6.394-1.5,11.808,11.808,0,0,1,6.394,1.5,5.479,5.479,0,0,1,2.461,4.9v5.613a7.686,7.686,0,0,1-7.726,7.628H29.56A7.737,7.737,0,0,1,22.4,34.29Zm0,14.708v-.329a9.429,9.429,0,0,0,4.4,2.874v1.116H19.632a5.1,5.1,0,0,0-5.124,5.07v1.92H8.874V40.091H20.081A2.325,2.325,0,0,0,22.4,37.767ZM2.895,7.466H15.029a.835.835,0,0,0,0-1.67H2.895V4.981a.653.653,0,0,1,.651-.655H20.081a.653.653,0,0,1,.651.655V5.8H19.037a.835.835,0,0,0,0,1.67h1.695V34.379H2.895Zm.651,30.956a.653.653,0,0,1-.651-.655V36.049H20.732v1.718a.653.653,0,0,1-.651.655ZM7.2,40.091v8.325H5.631V40.091ZM55.33,52.4a.282.282,0,0,1-.278.278H1.948A.282.282,0,0,1,1.67,52.4V50.365a.282.282,0,0,1,.278-.278h53.1a.282.282,0,0,1,.278.278Z"/>
        <path id="Path_1329327" data-name="Path 1329327" d="M15.5,17.676a4.645,4.645,0,0,0,1.071-2.968,4.763,4.763,0,0,0-9.526,0,4.646,4.646,0,0,0,1.071,2.968,6.944,6.944,0,0,0-3.364,5.916A1.21,1.21,0,0,0,5.969,24.8H17.657a1.21,1.21,0,0,0,1.212-1.209A6.945,6.945,0,0,0,15.5,17.676Zm-3.692-6A3.035,3.035,0,1,1,8.72,14.708,3.067,3.067,0,0,1,11.813,11.674ZM6.448,23.132a5.309,5.309,0,0,1,3.06-4.309,4.8,4.8,0,0,0,4.61,0,5.308,5.308,0,0,1,3.06,4.309Z"/>
        <path id="Path_1329328" data-name="Path 1329328" d="M15.988,26.7H7.638a.835.835,0,0,0,0,1.67h8.35a.835.835,0,1,0,0-1.67Z"/>
        <path id="Path_1329329" data-name="Path 1329329" d="M14.318,29.709H9.308a.835.835,0,0,0,0,1.67h5.01a.835.835,0,1,0,0-1.67Z"/>
      </g>
    </g>
  </g>
</svg>
