<svg xmlns="http://www.w3.org/2000/svg" xmlns:xlink="http://www.w3.org/1999/xlink" width="98" height="97.999" viewBox="0 0 98 97.999">
  <defs>
    <clipPath id="clip-path">
      <rect id="Rectangle_412572" data-name="Rectangle 412572" width="57" height="55" transform="translate(1139.586 3878.606)" fill="#fff" stroke="#707070" stroke-width="1"/>
    </clipPath>
  </defs>
  <g id="Group_1207172" data-name="Group 1207172" transform="translate(-1119.086 -3857.106)">
    <g id="Group_1204751" data-name="Group 1204751" transform="translate(1119.086 3857.106)">
      <g id="Group_1204438" data-name="Group 1204438">
        <g id="Group_1204285" data-name="Group 1204285">
          <g id="Group_1204180" data-name="Group 1204180">
            <g id="Group_1204143" data-name="Group 1204143">
              <g id="Group_1188789" data-name="Group 1188789" transform="translate(0)">
                <path id="Path_1243039" data-name="Path 1243039" d="M41.05,0h0a41.05,41.05,0,0,1,0,82.1h0a41.05,41.05,0,0,1,0-82.1Z" transform="translate(7.951 7.949)" fill="#ffc63f"/>
                <rect id="Rectangle_400907" data-name="Rectangle 400907" width="88.438" height="88.437" rx="44.218" transform="translate(4.782 4.781)" fill="none"/>
                <g id="Group_1098742" data-name="Group 1098742" transform="translate(0)">
                  <g id="Rectangle_400898" data-name="Rectangle 400898" transform="translate(0)" fill="none" stroke="#fff" stroke-width="2" opacity="0.859">
                    <rect width="98" height="97.999" rx="48.999" stroke="none"/>
                    <rect x="1" y="1" width="96" height="95.999" rx="47.999" fill="none"/>
                  </g>
                  <g id="Rectangle_400907-2" data-name="Rectangle 400907" transform="translate(0)" fill="none" stroke="#0f1f33" stroke-linecap="round" stroke-width="2">
                    <rect width="98" height="97.999" rx="48.999" stroke="none"/>
                    <rect x="1" y="1" width="96" height="95.999" rx="47.999" fill="none"/>
                  </g>
                </g>
              </g>
            </g>
          </g>
        </g>
      </g>
    </g>
    <g id="Mask_Group_1099530" data-name="Mask Group 1099530" clip-path="url(#clip-path)">
      <g id="laptop_675587" transform="translate(1139.586 3877.606)">
        <path id="Path_1329429" data-name="Path 1329429" d="M40.91,40.594H22.578a.856.856,0,0,1-.856-.856V18.563a.856.856,0,0,1,.856-.856H40.91a.856.856,0,0,1,.856.856V39.738A.856.856,0,0,1,40.91,40.594ZM23.434,38.882H40.054V19.419H23.434Z"/>
        <path id="Path_1329430" data-name="Path 1329430" d="M53.406,47.268V14.651a3.7,3.7,0,0,0-3.665-3.737H7.26a3.7,3.7,0,0,0-3.665,3.737v32.6" fill="#53515e"/>
        <path id="Path_1329431" data-name="Path 1329431" d="M33.387,47.005H.856v1.766A5.279,5.279,0,0,0,6.135,54.05h44.73a5.279,5.279,0,0,0,5.279-5.279V47.005Z" fill="#dfe2ea"/>
        <path id="Path_1329432" data-name="Path 1329432" d="M1.156,50.528A5.28,5.28,0,0,0,6.135,54.05h44.73a5.281,5.281,0,0,0,4.979-3.522H1.156Z" fill="#c7cad3"/>
        <path id="Path_1329433" data-name="Path 1329433" d="M39.234,36.7l2.029.86A3.722,3.722,0,1,0,45.649,34.3l-.21-1.695A19.112,19.112,0,0,0,49.32,10.914H14.746A19.085,19.085,0,0,0,39.234,36.7Z" fill="#474756"/>
        <rect id="Rectangle_426340" data-name="Rectangle 426340" width="41.882" height="27.947" transform="translate(7.758 15.022)" fill="#fff"/>
        <path id="Path_1329434" data-name="Path 1329434" d="M49.64,15.022H13.372A19.073,19.073,0,0,0,39.234,36.7l2.029.86A3.722,3.722,0,1,0,45.649,34.3l-.21-1.695a18.988,18.988,0,0,0,4.2-6.223V15.022Z" fill="#e9ebf2"/>
        <path id="Path_1329435" data-name="Path 1329435" d="M18.367,25.684H12.384a.569.569,0,0,1-.569-.569V19.132a.569.569,0,0,1,.569-.569h5.983a.569.569,0,0,1,.569.569v5.983A.569.569,0,0,1,18.367,25.684Z" fill="#ff9ea4"/>
        <path id="Path_1329436" data-name="Path 1329436" d="M18.367,18.563H12.95a18.988,18.988,0,0,0,1.181,7.122h4.236a.569.569,0,0,0,.569-.569V19.132A.569.569,0,0,0,18.367,18.563Z" fill="#ff839b"/>
        <path id="Path_1329437" data-name="Path 1329437" d="M45.688,10.3A16.375,16.375,0,1,0,38.208,34.5l5.044,2.138a.59.59,0,0,0,.9-.6l-.624-5.042A16.379,16.379,0,0,0,45.688,10.3Z" fill="#86e56e"/>
        <circle id="Ellipse_12944" data-name="Ellipse 12944" cx="1.712" cy="1.712" r="1.712" transform="translate(43.253 36.248)" fill="#00aaf0"/>
        <path id="Path_1329438" data-name="Path 1329438" d="M24.183,18.172A17.324,17.324,0,0,0,33.7,27.689a5.266,5.266,0,0,0,5.708-1.15l.445-.455a1.419,1.419,0,0,0-.263-2.217l-2.82-1.68a1.579,1.579,0,0,0-1.925.242l-.64.648a.553.553,0,0,1-.616.118,9.541,9.541,0,0,1-4.9-4.913.553.553,0,0,1,.108-.616l.648-.645a1.58,1.58,0,0,0,.242-1.925l-1.68-2.814a1.438,1.438,0,0,0-2.219-.263l-.453.445A5.265,5.265,0,0,0,24.183,18.172Z" fill="#fff"/>
        <path id="Path_1329439" data-name="Path 1329439" d="M43.529,30.988a16.394,16.394,0,0,0,3.787-17.526c0,.127,0,.254,0,.381a16.845,16.845,0,0,1-31.386,8.5,16.207,16.207,0,0,0,2.181,5.627A16.379,16.379,0,0,0,38.208,34.5l5.044,2.138a.59.59,0,0,0,.9-.6Z" fill="#5fce6a"/>
        <path id="Path_1329440" data-name="Path 1329440" d="M56.144,46.149H54.261v-31.5a4.563,4.563,0,0,0-4.521-4.593H46.547c-.048-.075-.1-.151-.145-.225a17.212,17.212,0,0,0-30.8,4.333H7.758a.856.856,0,0,0-.856.856V42.969a.856.856,0,0,0,.856.856H49.64a.856.856,0,0,0,.856-.856V27.586a.856.856,0,0,0-1.712,0V42.113H8.614V15.877h6.548a17.573,17.573,0,0,0-.277,1.83H11.814a.856.856,0,0,0-.856.856v7.122a.856.856,0,0,0,.856.856h4.56a17.254,17.254,0,0,0,1.015,1.883q.174.28.359.551H14.489a.856.856,0,0,0,0,1.712h4.447a.85.85,0,0,0,.123-.01A17.23,17.23,0,0,0,38.2,35.421l4.3,1.823a2.567,2.567,0,1,0,2.465-1.852h-.029l-.507-4.1a17.263,17.263,0,0,0,3.08-19.525H49.74a2.85,2.85,0,0,1,2.81,2.882v31.5H11.5a.856.856,0,0,0,0,1.712H53.216a.836.836,0,0,0,.38,0h1.693v.91a4.428,4.428,0,0,1-4.423,4.423H6.135a4.428,4.428,0,0,1-4.423-4.423v-.91H7.078a.856.856,0,0,0,0-1.712H4.45v-31.5A2.85,2.85,0,0,1,7.26,11.77h6.664a.856.856,0,1,0,0-1.712H7.26a4.563,4.563,0,0,0-4.521,4.593v31.5H.856A.856.856,0,0,0,0,47.005v1.766a6.142,6.142,0,0,0,6.135,6.135h44.73A6.142,6.142,0,0,0,57,48.771V47.005A.856.856,0,0,0,56.144,46.149ZM12.67,24.829v-5.41H14.8a17.051,17.051,0,0,0,.891,5.41ZM45.82,37.959a.856.856,0,1,1-1.439-.624,1.419,1.419,0,0,0,.131-.1.854.854,0,0,1,1.309.725Zm-2.892-7.582a.856.856,0,0,0-.249.715l.57,4.61-4.707-2a.856.856,0,0,0-.658,0A15.528,15.528,0,0,1,17.73,25.375c-.006-.015-.012-.031-.019-.046a15.52,15.52,0,1,1,25.217,5.049Z"/>
        <circle id="Ellipse_12945" data-name="Ellipse 12945" cx="0.856" cy="0.856" r="0.856" transform="translate(10.958 28.975)"/>
        <path id="Path_1329441" data-name="Path 1329441" d="M18.936,32.169H14.489a.856.856,0,0,0,0,1.712h4.447a.856.856,0,0,0,0-1.712Z"/>
        <circle id="Ellipse_12946" data-name="Ellipse 12946" cx="0.856" cy="0.856" r="0.856" transform="translate(10.958 32.169)"/>
        <path id="Path_1329442" data-name="Path 1329442" d="M18.936,35.592H14.489a.856.856,0,0,0,0,1.712h4.447a.856.856,0,0,0,0-1.712Z"/>
        <circle id="Ellipse_12947" data-name="Ellipse 12947" cx="0.856" cy="0.856" r="0.856" transform="translate(10.958 35.592)"/>
        <path id="Path_1329443" data-name="Path 1329443" d="M18.936,38.882H14.489a.856.856,0,0,0,0,1.712h4.447a.856.856,0,0,0,0-1.712Z"/>
        <circle id="Ellipse_12948" data-name="Ellipse 12948" cx="0.856" cy="0.856" r="0.856" transform="translate(10.958 38.882)"/>
        <path id="Path_1329444" data-name="Path 1329444" d="M40.027,23.131l-2.821-1.68a2.434,2.434,0,0,0-2.97.377l-.492.5a8.659,8.659,0,0,1-4.192-4.206l.495-.493a2.434,2.434,0,0,0,.372-2.969l-1.68-2.814-.011-.018a2.294,2.294,0,0,0-3.543-.417l-.459.451a6.109,6.109,0,0,0-1.338,6.635,18.281,18.281,0,0,0,9.987,9.987,6.11,6.11,0,0,0,6.643-1.345l.437-.447a2.275,2.275,0,0,0-.429-3.558Zm-.787,2.354-.438.448a4.4,4.4,0,0,1-4.781.963,16.561,16.561,0,0,1-9.047-9.047h0a4.4,4.4,0,0,1,.958-4.774l.457-.449a.561.561,0,0,1,.4-.164.577.577,0,0,1,.408.17.588.588,0,0,1,.082.1l1.672,2.8a.723.723,0,0,1-.11.881l-.655.653a1.417,1.417,0,0,0-.278,1.562,10.369,10.369,0,0,0,5.34,5.349,1.416,1.416,0,0,0,1.569-.3l.637-.644a.723.723,0,0,1,.881-.112L39.144,24.6a.564.564,0,0,1,.1.888Z"/>
      </g>
    </g>
  </g>
</svg>
