<svg xmlns="http://www.w3.org/2000/svg" xmlns:xlink="http://www.w3.org/1999/xlink" width="98" height="97.999" viewBox="0 0 98 97.999">
  <defs>
    <clipPath id="clip-path">
      <rect id="Rectangle_412572" data-name="Rectangle 412572" width="57" height="55" transform="translate(1139.586 3878.606)" fill="#fff" stroke="#707070" stroke-width="1"/>
    </clipPath>
  </defs>
  <g id="Group_1206119" data-name="Group 1206119" transform="translate(-1119.086 -3857.106)">
    <g id="Group_1204751" data-name="Group 1204751" transform="translate(1119.086 3857.106)">
      <g id="Group_1204438" data-name="Group 1204438">
        <g id="Group_1204285" data-name="Group 1204285">
          <g id="Group_1204180" data-name="Group 1204180">
            <g id="Group_1204143" data-name="Group 1204143">
              <g id="Group_1188789" data-name="Group 1188789" transform="translate(0)">
                <path id="Path_1243039" data-name="Path 1243039" d="M41.05,0h0a41.05,41.05,0,0,1,0,82.1h0a41.05,41.05,0,0,1,0-82.1Z" transform="translate(7.951 7.949)" fill="#ffc63f"/>
                <rect id="Rectangle_400907" data-name="Rectangle 400907" width="88.438" height="88.437" rx="44.218" transform="translate(4.782 4.781)" fill="none"/>
                <g id="Group_1098742" data-name="Group 1098742" transform="translate(0)">
                  <g id="Rectangle_400898" data-name="Rectangle 400898" transform="translate(0)" fill="none" stroke="#fff" stroke-width="2" opacity="0.859">
                    <rect width="98" height="97.999" rx="48.999" stroke="none"/>
                    <rect x="1" y="1" width="96" height="95.999" rx="47.999" fill="none"/>
                  </g>
                  <g id="Rectangle_400907-2" data-name="Rectangle 400907" transform="translate(0)" fill="none" stroke="#0f1f33" stroke-linecap="round" stroke-width="2">
                    <rect width="98" height="97.999" rx="48.999" stroke="none"/>
                    <rect x="1" y="1" width="96" height="95.999" rx="47.999" fill="none"/>
                  </g>
                </g>
              </g>
            </g>
          </g>
        </g>
      </g>
    </g>
    <g id="Mask_Group_1099469" data-name="Mask Group 1099469" clip-path="url(#clip-path)">
      <g id="recruitment_9631291" transform="translate(1137.941 3875.954)">
        <g id="Group_1207409" data-name="Group 1207409">
          <path id="Path_1328415" data-name="Path 1328415" d="M23.673,40.773H19.715a5.092,5.092,0,0,0-5.076,5.076V52.88H28.749V45.861A5.094,5.094,0,0,0,23.673,40.773Zm-1.979-7.149a3.5,3.5,0,1,0,3.5,3.5A3.5,3.5,0,0,0,21.694,33.624Zm16.912,0a3.5,3.5,0,1,0,3.5,3.5A3.5,3.5,0,0,0,38.606,33.624Zm1.967,7.149H36.628a5.092,5.092,0,0,0-5.076,5.076V52.88H45.661V45.861A5.1,5.1,0,0,0,40.573,40.773Z" fill="#9695c9" fill-rule="evenodd"/>
          <path id="Path_1328416" data-name="Path 1328416" d="M48.829,45.461H44.836A5.147,5.147,0,0,0,39.7,50.6V52.88H53.952V50.6A5.145,5.145,0,0,0,48.829,45.461Zm-33.365,0H11.471A5.147,5.147,0,0,0,6.336,50.6V52.88H20.6V50.6A5.147,5.147,0,0,0,15.464,45.461Zm-1.99-8.079A3.916,3.916,0,1,0,17.4,41.3a3.918,3.918,0,0,0-3.922-3.922Zm18.679,8.079h-4A5.147,5.147,0,0,0,23.013,50.6V52.88H37.275V50.6A5.145,5.145,0,0,0,32.152,45.461Zm-2-8.079A3.916,3.916,0,1,0,34.06,41.3,3.921,3.921,0,0,0,30.15,37.381Zm16.677,0A3.916,3.916,0,1,0,50.749,41.3,3.921,3.921,0,0,0,46.827,37.381Z" fill="#cecbe6" fill-rule="evenodd"/>
          <path id="Path_1328417" data-name="Path 1328417" d="M3.9,55.742H56.39a1.425,1.425,0,0,0,0-2.85H3.9a1.425,1.425,0,0,0,0,2.85Z" fill="#e6e6e6" fill-rule="evenodd"/>
          <path id="Path_1328418" data-name="Path 1328418" d="M27.159,5.029A13.644,13.644,0,1,0,41.244,26.852l6.124,3.533c.813-1.4,1.39-2.4,2.214-3.828L43.47,23.025a13.648,13.648,0,0,0-16.312-18Z" fill="#e6e6e6" fill-rule="evenodd"/>
          <path id="Path_1328419" data-name="Path 1328419" d="M27.995,8.185A10.376,10.376,0,1,0,40.7,15.523,10.376,10.376,0,0,0,27.995,8.185Z" fill="#cecbe6" fill-rule="evenodd"/>
          <path id="Path_1328420" data-name="Path 1328420" d="M47.5,25.357,45.26,29.231a1.358,1.358,0,0,0,.495,1.837l6.195,3.58a1.348,1.348,0,0,0,1.837-.495l2.238-3.887a1.361,1.361,0,0,0-.495-1.837l-6.195-3.58A1.37,1.37,0,0,0,47.5,25.357Z" fill="#e6e6e6" fill-rule="evenodd"/>
          <path id="Path_1328421" data-name="Path 1328421" d="M30.68,12.378a4.169,4.169,0,1,0,4.169,4.169A4.169,4.169,0,0,0,30.68,12.378ZM23.2,25.392A10.385,10.385,0,0,0,38.17,25.4a5.471,5.471,0,0,0-5.359-4.417H28.56A5.461,5.461,0,0,0,23.2,25.392Z" fill="#dcdbd4" fill-rule="evenodd"/>
        </g>
        <path id="Path_1328422" data-name="Path 1328422" d="M30.68,13.2a3.339,3.339,0,1,0,3.345,3.333A3.339,3.339,0,0,0,30.68,13.2Zm-3.521-.188a4.993,4.993,0,1,1,6.854,7.255,6.32,6.32,0,0,1,4.475,3.474,9.553,9.553,0,1,0-15.581,0,6.379,6.379,0,0,1,4.475-3.474,4.973,4.973,0,0,1-.224-7.255ZM38.783,25.946l-.047.047a11.031,11.031,0,1,1,.047-.047Zm-1.519-.8a4.639,4.639,0,0,0-4.452-3.333H28.56a4.65,4.65,0,0,0-4.452,3.333A9.569,9.569,0,0,0,37.264,25.145Zm10.941.624-2.238,3.875a.535.535,0,0,0,.188.718l6.207,3.58a.535.535,0,0,0,.718-.188l2.238-3.875a.532.532,0,0,0-.188-.718l-6.195-3.58a.543.543,0,0,0-.73.188Zm-3.227,2.3,1.39-2.4-3.333-1.931a.82.82,0,0,1-.353-1.013,12.8,12.8,0,1,0-2.073,3.6.824.824,0,0,1,1.107-.153Zm2.355-3.745a2.2,2.2,0,0,1,2.485-.13l6.124,3.545a2.16,2.16,0,0,1,.789,2.956l-2.238,3.875a2.16,2.16,0,0,1-2.956.789l-6.195-3.569a2.182,2.182,0,0,1-1.06-2.226l-2.862-1.649a14.47,14.47,0,1,1,3.039-5.264ZM3.9,54.918H56.39a.607.607,0,0,0,0-1.213H3.9a.6.6,0,0,0-.424,1.025.59.59,0,0,0,.424.188Zm52.5,1.649H3.9a2.257,2.257,0,0,1-1.59-3.851,2.224,2.224,0,0,1,1.59-.66H5.512V50.6a5.978,5.978,0,0,1,4.735-5.83,4.738,4.738,0,1,1,7.832-4.57l.459-.118a4.328,4.328,0,1,1,6.324,0l.66.177a4.739,4.739,0,0,1,9.245,0l.671-.177a4.328,4.328,0,1,1,6.324,0l.459.118a4.738,4.738,0,1,1,7.832,4.57,5.98,5.98,0,0,1,4.723,5.83v1.46H56.39a2.255,2.255,0,0,1,.012,4.511ZM7.161,52.056H19.774V50.6a4.328,4.328,0,0,0-4.311-4.311H11.471A4.328,4.328,0,0,0,7.161,50.6Zm14.262,0H22.2V50.6a5.98,5.98,0,0,1,4.723-5.83A4.718,4.718,0,0,1,25.463,42a4.221,4.221,0,0,0-1.79-.389H19.715a4.1,4.1,0,0,0-1.555.294,4.7,4.7,0,0,1-1.484,2.874,5.978,5.978,0,0,1,4.735,5.83v1.449Zm2.426,0h12.6V50.6a4.328,4.328,0,0,0-4.311-4.311H28.148a4.318,4.318,0,0,0-4.3,4.311Zm14.251,0h.777V50.6a5.98,5.98,0,0,1,4.723-5.83,4.751,4.751,0,0,1-1.472-2.874,4.292,4.292,0,0,0-1.555-.294H36.628a4.221,4.221,0,0,0-1.79.389,4.748,4.748,0,0,1-1.46,2.768,5.978,5.978,0,0,1,4.735,5.83v1.472Zm2.426,0h12.6V50.6a4.328,4.328,0,0,0-4.311-4.311H44.825A4.328,4.328,0,0,0,40.514,50.6v1.46ZM13.473,38.206a3.091,3.091,0,1,0,3.086,3.086,3.1,3.1,0,0,0-3.086-3.086Zm16.677,0a3.091,3.091,0,1,0,3.086,3.086,3.1,3.1,0,0,0-3.086-3.086Zm16.677,0a3.091,3.091,0,1,0,3.086,3.086,3.1,3.1,0,0,0-3.086-3.086ZM21.694,34.449a2.677,2.677,0,1,0,2.673,2.673,2.68,2.68,0,0,0-2.673-2.673Zm16.912,0a2.677,2.677,0,1,0,2.673,2.673,2.68,2.68,0,0,0-2.673-2.673Z"/>
      </g>
    </g>
  </g>
</svg>
