<svg xmlns="http://www.w3.org/2000/svg" xmlns:xlink="http://www.w3.org/1999/xlink" width="98" height="97.998" viewBox="0 0 98 97.998">
  <defs>
    <clipPath id="clip-path">
      <rect id="Rectangle_412572" data-name="Rectangle 412572" width="57" height="55" transform="translate(1139.586 3878.606)" fill="#fff" stroke="#707070" stroke-width="1"/>
    </clipPath>
  </defs>
  <g id="Group_1206121" data-name="Group 1206121" transform="translate(-1119.086 -3857.106)">
    <g id="Group_1204751" data-name="Group 1204751" transform="translate(1119.086 3857.106)">
      <g id="Group_1204438" data-name="Group 1204438">
        <g id="Group_1204285" data-name="Group 1204285">
          <g id="Group_1204180" data-name="Group 1204180">
            <g id="Group_1204143" data-name="Group 1204143">
              <g id="Group_1188789" data-name="Group 1188789" transform="translate(0)">
                <path id="Path_1243039" data-name="Path 1243039" d="M41.05,0h0a41.05,41.05,0,0,1,0,82.1h0a41.05,41.05,0,0,1,0-82.1Z" transform="translate(7.951 7.949)" fill="#ffc63f"/>
                <rect id="Rectangle_400907" data-name="Rectangle 400907" width="88.438" height="88.437" rx="44.218" transform="translate(4.782 4.781)" fill="none"/>
                <g id="Group_1098742" data-name="Group 1098742" transform="translate(0)">
                  <g id="Rectangle_400898" data-name="Rectangle 400898" transform="translate(0)" fill="none" stroke="#fff" stroke-width="2" opacity="0.859">
                    <rect width="98" height="97.999" rx="48.999" stroke="none"/>
                    <rect x="1" y="1" width="96" height="95.999" rx="47.999" fill="none"/>
                  </g>
                  <g id="Rectangle_400907-2" data-name="Rectangle 400907" transform="translate(0)" fill="none" stroke="#0f1f33" stroke-linecap="round" stroke-width="2">
                    <rect width="98" height="97.999" rx="48.999" stroke="none"/>
                    <rect x="1" y="1" width="96" height="95.999" rx="47.999" fill="none"/>
                  </g>
                </g>
              </g>
            </g>
          </g>
        </g>
      </g>
    </g>
    <g id="Mask_Group_1099467" data-name="Mask Group 1099467" clip-path="url(#clip-path)">
      <g id="Layer_x0020_1" transform="translate(1139.582 3877.603)">
        <g id="_539472224">
          <path id="_539489360" d="M34.592,46.76H.672A.669.669,0,0,1,0,46.092V24.18a.668.668,0,0,1,1.118-.494L13.584,35.032l3.633-2.873a.668.668,0,0,1,.828,0l3.633,2.873L34.142,23.686a.668.668,0,0,1,1.118.494V46.092a.667.667,0,0,1-.667.668ZM1.34,45.424H33.924V25.691L22.16,36.4a.667.667,0,0,1-.864.03l-3.664-2.9-3.664,2.9a.668.668,0,0,1-.864-.03L1.34,25.691V45.424Z" fill-rule="evenodd"/>
          <path id="_539488496" d="M34.6,46.76H.672a.668.668,0,0,1-.414-1.193l16.96-13.409a.668.668,0,0,1,.828,0l16.9,13.359A.668.668,0,0,1,34.6,46.76ZM2.594,45.424H32.67L17.632,33.535Z" fill-rule="evenodd"/>
          <path id="_539488688" d="M25.556,22.951H23.765a.668.668,0,0,1,0-1.336h1.791a.668.668,0,0,1,0,1.336Zm-5.181,0H9.708a.668.668,0,1,1,0-1.336H20.375a.668.668,0,0,1,0,1.336Z" fill-rule="evenodd"/>
          <path id="_539488976" d="M25.556,26.542H14.889a.668.668,0,1,1,0-1.336H25.556a.668.668,0,0,1,0,1.336Zm-14.057,0H9.708a.668.668,0,1,1,0-1.336H11.5a.668.668,0,0,1,0,1.336Z" fill-rule="evenodd"/>
          <path id="_539488928" d="M25.556,30.134H23.765a.668.668,0,0,1,0-1.336h1.791a.668.668,0,0,1,0,1.336Zm-5.181,0H9.708a.668.668,0,1,1,0-1.336H20.375a.668.668,0,0,1,0,1.336Z" fill-rule="evenodd"/>
          <path id="_539488760" d="M9.031,17.465h-4.2a.668.668,0,0,1-.472-1.14l4.2-4.2A.668.668,0,0,1,9.7,12.6v4.2a.668.668,0,0,1-.668.668ZM6.445,16.129H8.363V14.211Z" fill-rule="evenodd"/>
          <path id="_539488640" d="M49.261,16.656A7.742,7.742,0,1,1,57,8.914,7.751,7.751,0,0,1,49.261,16.656Zm0-14.148a6.406,6.406,0,1,0,6.407,6.406A6.413,6.413,0,0,0,49.261,2.508Z" fill-rule="evenodd"/>
          <path id="_539488568" d="M49.261,16.656a7.706,7.706,0,0,1-6.068-2.934.668.668,0,0,1-.024-.8,7.437,7.437,0,0,1,12.184,0,.668.668,0,0,1-.024.8,7.7,7.7,0,0,1-6.068,2.934Zm-4.686-3.373a6.407,6.407,0,0,0,9.372,0,6.1,6.1,0,0,0-9.372,0Z" fill-rule="evenodd"/>
          <path id="_539488376" d="M49.261,11.088a3.347,3.347,0,1,1,3.347-3.347A3.35,3.35,0,0,1,49.261,11.088Zm0-5.358a2.011,2.011,0,1,0,2.011,2.011A2.013,2.013,0,0,0,49.261,5.73Z" fill-rule="evenodd"/>
          <path id="_539488736" d="M54.851,55.835a.666.666,0,0,1-.322-.083l-3.993-2.2A7.742,7.742,0,1,1,57,45.917a7.677,7.677,0,0,1-1.387,4.422l-.1,4.842a.668.668,0,0,1-.668.655Zm-4.2-3.649a.671.671,0,0,1,.322.083l3.234,1.78.08-3.945a.67.67,0,0,1,.13-.384,6.406,6.406,0,1,0-5.155,2.6,6.456,6.456,0,0,0,1.258-.123.633.633,0,0,1,.131-.013Z" fill-rule="evenodd"/>
          <path id="_539488352" d="M52.983,44.9h-.841a.668.668,0,0,1,0-1.336h.841a.668.668,0,0,1,0,1.336Zm-2.433,0H45.54a.668.668,0,0,1,0-1.336h5.01a.668.668,0,0,1,0,1.336Z" fill-rule="evenodd"/>
          <path id="_539487488" d="M52.983,47.337h-5.01a.668.668,0,0,1,0-1.336h5.01a.668.668,0,0,1,0,1.336Zm-6.6,0H45.54a.668.668,0,0,1,0-1.336h.841a.668.668,0,0,1,0,1.336Z" fill-rule="evenodd"/>
          <path id="_539488208" d="M52.983,49.776h-.841a.668.668,0,0,1,0-1.336h.841a.668.668,0,0,1,0,1.336Zm-2.433,0H45.54a.668.668,0,0,1,0-1.336h5.01a.668.668,0,0,1,0,1.336Z" fill-rule="evenodd"/>
          <path id="_539487872" d="M47.061,42.827H46.5a.668.668,0,0,1,0-1.336h.561a.668.668,0,0,1,0,1.336Z" fill-rule="evenodd"/>
          <path id="_539487920" d="M52.022,42.827H48.683a.668.668,0,0,1,0-1.336h3.339a.668.668,0,0,1,0,1.336Z" fill-rule="evenodd"/>
          <path id="_539488160" d="M49.261,35.158A7.742,7.742,0,1,1,57,27.415,7.751,7.751,0,0,1,49.261,35.158Zm0-14.149a6.406,6.406,0,1,0,6.407,6.406,6.413,6.413,0,0,0-6.407-6.406Z" fill-rule="evenodd"/>
          <path id="_539488040" d="M47.971,31.611A1.829,1.829,0,0,1,46.13,29.78V25.057a1.838,1.838,0,0,1,2.756-1.592l4.085,2.358a1.84,1.84,0,0,1,0,3.185l-4.085,2.358a1.829,1.829,0,0,1-.914.245Zm0-7.056a.5.5,0,0,0-.5.508v4.71a.5.5,0,0,0,.751.435L52.3,27.85a.5.5,0,0,0,0-.87l-4.085-2.358a.493.493,0,0,0-.25-.066Z" fill-rule="evenodd"/>
          <path id="_539487584" d="M39.722,28.566H37.508a.668.668,0,0,1,0-1.336h2.214a.668.668,0,1,1,0,1.336Z" fill-rule="evenodd"/>
          <path id="_539487992" d="M39.722,47.673H37.508a.668.668,0,0,1,0-1.336h2.214a.668.668,0,1,1,0,1.336Z" fill-rule="evenodd"/>
          <path id="_539487728" d="M24.532,43.419h-13.8a.668.668,0,0,1,0-1.336h13.8a.668.668,0,0,1,0,1.336Z" fill-rule="evenodd"/>
          <path id="_539487608" d="M39.722,9.582H37.508a.668.668,0,0,1,0-1.336h2.214a.668.668,0,1,1,0,1.336Z" fill-rule="evenodd"/>
          <path id="_539474816" d="M13.968,36.431l-.014.012Zm7.328,0-3.664-2.9-3.663,2.9-.015.011L2.594,45.425H32.67L21.3,36.431ZM10.732,42.083h13.8a.668.668,0,0,1,0,1.336h-13.8a.668.668,0,0,1,0-1.336Z" fill="#fff180" fill-rule="evenodd"/>
          <path id="_539473832" d="M6.445,16.129H8.363V14.211Z" fill="#a6b8d1" fill-rule="evenodd"/>
          <path id="_539473976" d="M31.1,21.9v4.552l2.5-2.276Z" fill="#ffba41" fill-rule="evenodd"/>
          <path id="_539473640" d="M4.164,26.455V21.9l-2.5,2.276Z" fill="#ffba41" fill-rule="evenodd"/>
          <path id="_539473880" d="M4.373,28.452,1.34,25.691V44.712l11.183-8.841-8.131-7.4-.009-.008-.01-.009Z" fill="#ffe22f" fill-rule="evenodd"/>
          <path id="_539473784" d="M50.549,49.776H45.54a.668.668,0,0,1,0-1.336h5.01a.668.668,0,0,1,0,1.336Zm-7.695-3.858A6.412,6.412,0,0,0,50.519,52.2a.634.634,0,0,1,.131-.013.671.671,0,0,1,.322.083L54.2,54.05l.08-3.945a.67.67,0,0,1,.13-.384,6.406,6.406,0,1,0-11.561-3.8Zm10.128,3.858h-.841a.668.668,0,0,1,0-1.336h.841a.668.668,0,0,1,0,1.336Zm0-2.438h-5.01a.668.668,0,1,1,0-1.336h5.01a.668.668,0,0,1,0,1.336ZM51.217,44.23a.668.668,0,0,1-.668.668H45.54a.668.668,0,0,1,0-1.336h5.01A.668.668,0,0,1,51.217,44.23Zm.805-1.4H48.683a.668.668,0,1,1,0-1.336h3.339a.668.668,0,1,1,0,1.336Zm-4.962,0H46.5a.668.668,0,0,1,0-1.336h.561a.668.668,0,1,1,0,1.336Zm-.68,4.511H45.54a.668.668,0,0,1,0-1.336h.841a.668.668,0,0,1,0,1.336Zm6.6-2.439h-.841a.668.668,0,0,1,0-1.336h.841a.668.668,0,0,1,0,1.336Z" fill="#1ab193" fill-rule="evenodd"/>
          <path id="_539474360" d="M48.217,30.208,52.3,27.85a.5.5,0,0,0,0-.87l-4.085-2.358a.5.5,0,0,0-.751.441v4.71a.5.5,0,0,0,.751.435Z" fill="#ffe5c1" fill-rule="evenodd"/>
          <path id="_539473664" d="M52.97,29.008l-4.085,2.358A1.837,1.837,0,0,1,46.13,29.78V25.057a1.838,1.838,0,0,1,2.756-1.592l4.085,2.358a1.84,1.84,0,0,1,0,3.185ZM42.855,27.415a6.406,6.406,0,1,0,6.406-6.406A6.413,6.413,0,0,0,42.855,27.415Z" fill="#eb5468" fill-rule="evenodd"/>
          <path id="_539473736" d="M49.307,9.752a2.01,2.01,0,1,0-.092,0h.092Z" fill="#ffe5c1" fill-rule="evenodd"/>
          <path id="_539473472" d="M53.945,13.281a6.1,6.1,0,0,0-9.369,0,6.4,6.4,0,0,0,3.761,1.974l.044.006a6.584,6.584,0,0,0,.879.06,6.387,6.387,0,0,0,4.684-2.04Z" fill="#8dbd57" fill-rule="evenodd"/>
          <path id="_539473232" d="M51.6,10.131a7.455,7.455,0,0,1,3.164,2.058,6.406,6.406,0,1,0-11.01,0,7.459,7.459,0,0,1,3.163-2.058,3.347,3.347,0,1,1,4.683,0Z" fill="#cfe7b4" fill-rule="evenodd"/>
          <path id="_539472896" d="M33.924,44.713V25.691L22.742,35.872Z" fill="#ffe22f" fill-rule="evenodd"/>
          <path id="_539473136" d="M30.432,28.635a.668.668,0,0,1-.668-.668V20.392a.668.668,0,0,1,1.118-.494l4.16,3.787a.668.668,0,0,1,0,.988l-4.16,3.787a.669.669,0,0,1-.45.174ZM31.1,21.9v4.552l2.5-2.276L31.1,21.9ZM4.832,28.635a.669.669,0,0,1-.45-.174L.223,24.674a.668.668,0,0,1,0-.988L4.382,19.9a.668.668,0,0,1,1.118.494v7.575a.668.668,0,0,1-.668.668ZM1.664,24.18l2.5,2.276V21.9l-2.5,2.276ZM21.881,13.266H13.393a.668.668,0,0,1-.449-1.161l4.24-3.86a.668.668,0,0,1,.9,0l4.177,3.8a.668.668,0,0,1-.378,1.218ZM15.118,11.93h5.027L17.632,9.642Z" fill-rule="evenodd"/>
          <path id="_539473160" d="M25.556,19.36H14.889a.668.668,0,0,1,0-1.336H25.556a.668.668,0,0,1,0,1.336Zm-14.057,0H9.708a.668.668,0,1,1,0-1.336H11.5a.668.668,0,0,1,0,1.336Z" fill-rule="evenodd"/>
          <path id="_539472968" d="M13.554,36.575A.664.664,0,0,1,13.1,36.4l-8.722-7.94a.668.668,0,0,1-.218-.494V16.8a.667.667,0,0,1,.2-.472l4.2-4.2a.668.668,0,0,1,.472-.2h21.4a.668.668,0,0,1,.668.668V27.966a.668.668,0,0,1-.218.494L22.16,36.4a.667.667,0,0,1-.864.03l-3.664-2.9-3.664,2.9a.667.667,0,0,1-.415.144ZM5.5,27.672l8.084,7.36,3.633-2.873a.668.668,0,0,1,.828,0l3.633,2.873,8.084-7.36V13.266H9.307L5.5,17.073v10.6h0Z" fill-rule="evenodd"/>
          <path id="_539473376" d="M9.7,13.266V16.8a.668.668,0,0,1-.668.668H5.5v2.89c0,.012,0,.025,0,.037v7.279l8.085,7.361,3.633-2.873a.668.668,0,0,1,.828,0l3.633,2.873,8.084-7.36V13.266H9.7Zm5.19,4.758H25.556a.668.668,0,0,1,0,1.336H14.889a.668.668,0,0,1,0-1.336Zm5.486,3.592a.668.668,0,0,1,0,1.336H9.708a.668.668,0,1,1,0-1.336H20.375Zm-5.486,3.591H25.556a.668.668,0,0,1,0,1.336H14.889a.668.668,0,0,1,0-1.336ZM20.375,28.8a.668.668,0,0,1,0,1.336H9.708a.668.668,0,1,1,0-1.336H20.375ZM11.5,25.207a.668.668,0,0,1,0,1.336H9.708a.668.668,0,1,1,0-1.336ZM23.765,28.8h1.791a.668.668,0,1,1,0,1.336H23.765a.668.668,0,1,1,0-1.336Zm0-7.183h1.791a.668.668,0,1,1,0,1.336H23.765a.668.668,0,1,1,0-1.336Zm-11.6-2.924a.668.668,0,0,1-.668.668H9.708a.668.668,0,1,1,0-1.336H11.5A.668.668,0,0,1,12.167,18.692Z" fill="#e5f4ff" fill-rule="evenodd"/>
          <path id="_539473112" d="M15.118,11.93h5.027L17.632,9.642Z" fill="#ffba41" fill-rule="evenodd"/>
        </g>
      </g>
    </g>
  </g>
</svg>
