<svg xmlns="http://www.w3.org/2000/svg" xmlns:xlink="http://www.w3.org/1999/xlink" width="98" height="97.999" viewBox="0 0 98 97.999">
  <defs>
    <clipPath id="clip-path">
      <rect id="Rectangle_412572" data-name="Rectangle 412572" width="57" height="55" transform="translate(1139.586 3878.606)" fill="#fff" stroke="#707070" stroke-width="1"/>
    </clipPath>
  </defs>
  <g id="Group_1206125" data-name="Group 1206125" transform="translate(-1119.086 -3857.106)">
    <g id="Group_1204751" data-name="Group 1204751" transform="translate(1119.086 3857.106)">
      <g id="Group_1204438" data-name="Group 1204438">
        <g id="Group_1204285" data-name="Group 1204285">
          <g id="Group_1204180" data-name="Group 1204180">
            <g id="Group_1204143" data-name="Group 1204143">
              <g id="Group_1188789" data-name="Group 1188789" transform="translate(0)">
                <path id="Path_1243039" data-name="Path 1243039" d="M41.05,0h0a41.05,41.05,0,0,1,0,82.1h0a41.05,41.05,0,0,1,0-82.1Z" transform="translate(7.951 7.949)" fill="#ffc63f"/>
                <rect id="Rectangle_400907" data-name="Rectangle 400907" width="88.438" height="88.437" rx="44.218" transform="translate(4.782 4.781)" fill="none"/>
                <g id="Group_1098742" data-name="Group 1098742" transform="translate(0)">
                  <g id="Rectangle_400898" data-name="Rectangle 400898" transform="translate(0)" fill="none" stroke="#fff" stroke-width="2" opacity="0.859">
                    <rect width="98" height="97.999" rx="48.999" stroke="none"/>
                    <rect x="1" y="1" width="96" height="95.999" rx="47.999" fill="none"/>
                  </g>
                  <g id="Rectangle_400907-2" data-name="Rectangle 400907" transform="translate(0)" fill="none" stroke="#0f1f33" stroke-linecap="round" stroke-width="2">
                    <rect width="98" height="97.999" rx="48.999" stroke="none"/>
                    <rect x="1" y="1" width="96" height="95.999" rx="47.999" fill="none"/>
                  </g>
                </g>
              </g>
            </g>
          </g>
        </g>
      </g>
    </g>
    <g id="Mask_Group_1099472" data-name="Mask Group 1099472" clip-path="url(#clip-path)">
      <g id="whatsapp_889235" transform="translate(1140.586 3878.606)">
        <path id="Path_1328456" data-name="Path 1328456" d="M27.433.232A27.382,27.382,0,0,0,4.387,42.391L.126,53.445A1.141,1.141,0,0,0,1.192,55a1.11,1.11,0,0,0,.383-.066l11.409-4.073A27.382,27.382,0,1,0,27.433.232Z" fill="#4caf50"/>
        <path id="Path_1328457" data-name="Path 1328457" d="M40.488,32.294s-2.8-1.369-4.545-2.282c-1.981-1.02-4.308.89-5.4,1.976a13.731,13.731,0,0,1-4.58-2.907,13.72,13.72,0,0,1-2.907-4.58c1.086-1.1,2.992-3.423,1.976-5.4-.9-1.752-2.282-4.545-2.282-4.548a1.141,1.141,0,0,0-1.018-.628H19.447a6.875,6.875,0,0,0-5.7,6.846c0,3.582,4.288,10.465,7.179,13.358s9.773,7.179,13.358,7.179a6.875,6.875,0,0,0,6.846-5.7V33.319A1.141,1.141,0,0,0,40.488,32.294Z" fill="#fafafa"/>
        <path id="Path_1328458" data-name="Path 1328458" d="M1.192,55A1.141,1.141,0,0,1,.126,53.445l4.26-11.051a27.5,27.5,0,1,1,8.6,8.463L1.582,54.93A1.138,1.138,0,0,1,1.192,55Zm11.932-6.542a1.141,1.141,0,0,1,.618.185A25.016,25.016,0,1,0,6.6,41.618a1.141,1.141,0,0,1,.119,1.047l-3.571,9.28,9.584-3.423A1.14,1.14,0,0,1,13.124,48.454Z"/>
        <path id="Path_1328459" data-name="Path 1328459" d="M34.279,41.305c-3.582,0-10.467-4.29-13.358-7.179s-7.179-9.776-7.179-13.358a6.875,6.875,0,0,1,5.7-6.846h2.282a1.141,1.141,0,0,1,1.022.637s1.369,2.8,2.282,4.545c1.015,1.978-.89,4.306-1.974,5.4a13.731,13.731,0,0,0,2.907,4.58A13.731,13.731,0,0,0,30.546,32c1.1-1.086,3.423-2.987,5.4-1.974,1.752.9,4.543,2.282,4.545,2.282a1.141,1.141,0,0,1,.63,1.015V35.6A6.875,6.875,0,0,1,34.279,41.305ZM19.447,16.2a4.74,4.74,0,0,0-3.423,4.564c0,2.645,3.729,8.961,6.512,11.742s9.1,6.512,11.742,6.512A4.74,4.74,0,0,0,38.843,35.6V34.028c-.933-.456-2.7-1.337-3.945-1.976-.541-.26-2.156.858-3.195,2.024a1.159,1.159,0,0,1-1.173.34,16,16,0,0,1-6.2-3.713,16,16,0,0,1-3.7-6.2,1.141,1.141,0,0,1,.34-1.173c1.164-1.029,2.3-2.645,2.024-3.195-.641-1.234-1.515-3-1.978-3.936Z"/>
      </g>
    </g>
  </g>
</svg>
