<svg xmlns="http://www.w3.org/2000/svg" xmlns:xlink="http://www.w3.org/1999/xlink" width="98" height="97.998" viewBox="0 0 98 97.998">
  <defs>
    <clipPath id="clip-path">
      <rect id="Rectangle_412572" data-name="Rectangle 412572" width="57" height="55" transform="translate(1139.586 3878.606)" fill="#fff" stroke="#707070" stroke-width="1"/>
    </clipPath>
  </defs>
  <g id="Group_1206120" data-name="Group 1206120" transform="translate(-1119.086 -3857.106)">
    <g id="Group_1204751" data-name="Group 1204751" transform="translate(1119.086 3857.106)">
      <g id="Group_1204438" data-name="Group 1204438">
        <g id="Group_1204285" data-name="Group 1204285">
          <g id="Group_1204180" data-name="Group 1204180">
            <g id="Group_1204143" data-name="Group 1204143">
              <g id="Group_1188789" data-name="Group 1188789" transform="translate(0)">
                <path id="Path_1243039" data-name="Path 1243039" d="M41.05,0h0a41.05,41.05,0,0,1,0,82.1h0a41.05,41.05,0,0,1,0-82.1Z" transform="translate(7.951 7.949)" fill="#ffc63f"/>
                <rect id="Rectangle_400907" data-name="Rectangle 400907" width="88.438" height="88.437" rx="44.218" transform="translate(4.782 4.781)" fill="none"/>
                <g id="Group_1098742" data-name="Group 1098742" transform="translate(0)">
                  <g id="Rectangle_400898" data-name="Rectangle 400898" transform="translate(0)" fill="none" stroke="#fff" stroke-width="2" opacity="0.859">
                    <rect width="98" height="97.999" rx="48.999" stroke="none"/>
                    <rect x="1" y="1" width="96" height="95.999" rx="47.999" fill="none"/>
                  </g>
                  <g id="Rectangle_400907-2" data-name="Rectangle 400907" transform="translate(0)" fill="none" stroke="#0f1f33" stroke-linecap="round" stroke-width="2">
                    <rect width="98" height="97.999" rx="48.999" stroke="none"/>
                    <rect x="1" y="1" width="96" height="95.999" rx="47.999" fill="none"/>
                  </g>
                </g>
              </g>
            </g>
          </g>
        </g>
      </g>
    </g>
    <g id="Mask_Group_1099468" data-name="Mask Group 1099468" clip-path="url(#clip-path)">
      <g id="advertisement_3881433" transform="translate(1140.586 3878.606)">
        <g id="Group_1207407" data-name="Group 1207407">
          <g id="Group_1207395" data-name="Group 1207395">
            <path id="Path_1328397" data-name="Path 1328397" d="M28.387,52.339H6.21V10.645A4.436,4.436,0,0,1,10.645,6.21H32.823V47.9A4.436,4.436,0,0,1,28.387,52.339Z" fill="#969faa"/>
          </g>
          <g id="Group_1207396" data-name="Group 1207396">
            <path id="Path_1328398" data-name="Path 1328398" d="M28.387,45.242H10.645a.887.887,0,0,1-.887-.887V14.194a.887.887,0,0,1,.887-.887H28.387a.887.887,0,0,1,.887.887V44.355A.887.887,0,0,1,28.387,45.242Z" fill="#69d6f4"/>
          </g>
          <g id="Group_1207397" data-name="Group 1207397">
            <circle id="Ellipse_12880" data-name="Ellipse 12880" cx="6.21" cy="6.21" r="6.21" transform="translate(13.306 20.403)" fill="#4fc1e9"/>
          </g>
          <g id="Group_1207398" data-name="Group 1207398">
            <path id="Path_1328399" data-name="Path 1328399" d="M7.984,51.452v.887A1.787,1.787,0,0,1,6.21,54.113a1.779,1.779,0,0,1-1.774-1.774V46.706a5.148,5.148,0,0,0,1.774.31H7.984Z" fill="#aab2bd"/>
          </g>
          <g id="Group_1207399" data-name="Group 1207399">
            <path id="Path_1328400" data-name="Path 1328400" d="M11.532,36.371V47.016H6.21a5.148,5.148,0,0,1-1.774-.31V36.673a5.36,5.36,0,0,1,1.774-.3h5.323Z" fill="#e6e9ed"/>
          </g>
          <g id="Group_1207400" data-name="Group 1207400">
            <path id="Path_1328401" data-name="Path 1328401" d="M15.081,45.242V48.79l-3.548-1.774V36.371L15.081,34.6V45.242Z" fill="#ff826e"/>
          </g>
          <g id="Group_1207401" data-name="Group 1207401">
            <path id="Path_1328402" data-name="Path 1328402" d="M4.435,36.681V46.706a5.313,5.313,0,0,1-1.987-8.773,5.118,5.118,0,0,1,1.987-1.251Z" fill="#ff826e"/>
          </g>
          <g id="Group_1207402" data-name="Group 1207402">
            <path id="Path_1328403" data-name="Path 1328403" d="M17.334,40.487a1.7,1.7,0,0,1,0,3.3l-2.253.568V39.919Z" fill="#ffc729"/>
          </g>
          <g id="Group_1207403" data-name="Group 1207403">
            <path id="Path_1328404" data-name="Path 1328404" d="M51.452,36.371l.887,17.742H38.145l.887-17.742Z" fill="#ffc729"/>
          </g>
          <g id="Group_1207404" data-name="Group 1207404">
            <path id="Path_1328405" data-name="Path 1328405" d="M52.339,16.855H31.048a1.774,1.774,0,0,1-1.774-1.774V2.661A1.774,1.774,0,0,1,31.048.887h21.29a1.774,1.774,0,0,1,1.774,1.774V15.081A1.774,1.774,0,0,1,52.339,16.855Z" fill="#e6e9ed"/>
          </g>
          <g id="Group_1207405" data-name="Group 1207405">
            <path id="Path_1328406" data-name="Path 1328406" d="M39.919,24.839V15.081a1.779,1.779,0,0,1,1.774-1.774,1.787,1.787,0,0,1,1.774,1.774v7.1A1.779,1.779,0,0,1,45.242,20.4a1.787,1.787,0,0,1,1.774,1.774A1.779,1.779,0,0,1,48.79,20.4a1.787,1.787,0,0,1,1.774,1.774v1.774a1.779,1.779,0,0,1,1.774-1.774,1.787,1.787,0,0,1,1.774,1.774v6a9.093,9.093,0,0,1-2.661,6.423H39.032a9.093,9.093,0,0,1-2.661-6.423V23.065a.89.89,0,0,1,.887-.887,2.665,2.665,0,0,1,2.661,2.661Z" fill="#f0d0b4"/>
          </g>
          <g id="Group_1207406" data-name="Group 1207406">
            <path id="Path_1328407" data-name="Path 1328407" d="M46.227,10.157l-6.006,3a1.435,1.435,0,0,1-2.076-1.286v-6a1.435,1.435,0,0,1,2.076-1.286l6.006,3a1.443,1.443,0,0,1,0,2.573Z" fill="#ff826e"/>
          </g>
        </g>
        <g id="Group_1207408" data-name="Group 1207408">
          <path id="Path_1328408" data-name="Path 1328408" d="M52.339,17.742A2.665,2.665,0,0,0,55,15.081V2.661A2.665,2.665,0,0,0,52.339,0H31.048a2.665,2.665,0,0,0-2.661,2.661V5.323H10.645a5.328,5.328,0,0,0-5.323,5.323v24.91A6.2,6.2,0,0,0,3.548,47.3v5.043a2.661,2.661,0,0,0,5.263.553,5.3,5.3,0,0,0,1.834.334H28.387A5.328,5.328,0,0,0,33.71,47.9V17.742h5.323v4.042a3.512,3.512,0,0,0-1.774-.493,1.776,1.776,0,0,0-1.774,1.774v6.881a9.891,9.891,0,0,0,2.644,6.746L37.213,55H53.272l-.915-18.307A9.9,9.9,0,0,0,55,29.946V23.952a2.653,2.653,0,0,0-3.651-2.466,2.638,2.638,0,0,0-4.333-1.277,2.579,2.579,0,0,0-2.661-.529V17.742ZM15.968,41.056l1.155.289a.817.817,0,0,1,0,1.585l-1.155.288Zm1.586-1.433-1.586-.4V33.161l-4.645,2.322h-.678V14.194H28.387V44.355H18.254a2.586,2.586,0,0,0-.7-4.732ZM6.21,46.129a4.431,4.431,0,0,1-.887-.09V37.348a4.431,4.431,0,0,1,.887-.09h4.435v8.871Zm6.21-9.21,1.774-.887V47.355l-1.774-.887ZM10.645,7.1H28.387v5.323H10.645a1.776,1.776,0,0,0-1.774,1.774v21.29H7.1V10.645A3.552,3.552,0,0,1,10.645,7.1Zm-8.871,34.6a4.415,4.415,0,0,1,1.774-3.525V45.22A4.418,4.418,0,0,1,1.774,41.694ZM6.21,53.226a.889.889,0,0,1-.887-.887V47.832a6.232,6.232,0,0,0,.887.071H7.1v4.435a.889.889,0,0,1-.887.887ZM31.935,47.9a3.552,3.552,0,0,1-3.548,3.548H10.645a3.507,3.507,0,0,1-1.774-.485V47.9h2.452l4.645,2.322v-4.1H28.387a1.776,1.776,0,0,0,1.774-1.774V17.579a2.631,2.631,0,0,0,.887.163h.887Zm-.887-31.935a.889.889,0,0,1-.887-.887V2.661a.889.889,0,0,1,.887-.887h21.29a.889.889,0,0,1,.887.887V15.081a.889.889,0,0,1-.887.887H44.355v-.887a2.651,2.651,0,0,0-1.372-2.314l3.636-1.819a2.323,2.323,0,0,0,0-4.155l-6-3a2.323,2.323,0,0,0-3.361,2.078v6a2.32,2.32,0,0,0,1.95,2.285,2.622,2.622,0,0,0-.176.924v.887Zm8.778-3.606a.564.564,0,0,1-.794-.491v-6a.548.548,0,0,1,.793-.491l6,3a.548.548,0,0,1,0,.981Zm-.749,40.864.8-15.968H50.608l.8,15.968ZM45.242,21.29a.889.889,0,0,1,.887.887v4.435H47.9V22.177a.887.887,0,1,1,1.774,0v4.435h1.774V23.952a.887.887,0,1,1,1.774,0v5.994a8.137,8.137,0,0,1-2.165,5.538H39.423a8.137,8.137,0,0,1-2.165-5.538V23.065a1.776,1.776,0,0,1,1.774,1.774v1.774h1.774V15.081a.887.887,0,0,1,1.774,0V26.613h1.774V22.177A.889.889,0,0,1,45.242,21.29Z"/>
          <path id="Path_1328409" data-name="Path 1328409" d="M14.194,8.871h7.1v1.774h-7.1Z"/>
          <path id="Path_1328410" data-name="Path 1328410" d="M23.065,8.871h1.774v1.774H23.065Z"/>
          <path id="Path_1328411" data-name="Path 1328411" d="M17.742,47.9h5.323v1.774H17.742Z"/>
          <path id="Path_1328412" data-name="Path 1328412" d="M21.29,40.806h1.774v1.774H21.29Z"/>
          <path id="Path_1328413" data-name="Path 1328413" d="M24.839,40.806h1.774v1.774H24.839Z"/>
          <path id="Path_1328414" data-name="Path 1328414" d="M26.613,26.613a7.1,7.1,0,1,0-7.1,7.1A7.105,7.105,0,0,0,26.613,26.613Zm-7.452,4.258a7.011,7.011,0,0,1-.447-.71h1.6a7.164,7.164,0,0,1-.446.71l-.355.473Zm-4.968-4.258a5.3,5.3,0,0,1,.31-1.774h1.653a8.424,8.424,0,0,0,0,3.548H14.5A5.3,5.3,0,0,1,14.194,26.613Zm3.548,0a7.061,7.061,0,0,1,.25-1.774h3.047a6.406,6.406,0,0,1,0,3.548H17.993A7.021,7.021,0,0,1,17.742,26.613Zm1.774-4.731.355.474a7.012,7.012,0,0,1,.447.71h-1.6a7.164,7.164,0,0,1,.446-.71Zm5.323,4.731a5.3,5.3,0,0,1-.31,1.774H22.876a8.424,8.424,0,0,0,0-3.548h1.653A5.3,5.3,0,0,1,24.839,26.613ZM21.577,31.52a8.847,8.847,0,0,0,.742-1.359h1.154a5.352,5.352,0,0,1-1.9,1.359Zm1.9-8.456H22.318a8.924,8.924,0,0,0-.742-1.359A5.36,5.36,0,0,1,23.473,23.065Zm-6.017-1.359a8.847,8.847,0,0,0-.742,1.359H15.56A5.352,5.352,0,0,1,17.455,21.705Zm-1.9,8.456h1.154a8.924,8.924,0,0,0,.742,1.359A5.359,5.359,0,0,1,15.56,30.161Z"/>
        </g>
      </g>
    </g>
  </g>
</svg>
