<svg xmlns="http://www.w3.org/2000/svg" xmlns:xlink="http://www.w3.org/1999/xlink" width="98" height="97.999" viewBox="0 0 98 97.999">
  <defs>
    <clipPath id="clip-path">
      <rect id="Rectangle_412572" data-name="Rectangle 412572" width="57" height="55" transform="translate(1139.586 3878.606)" fill="#fff" stroke="#707070" stroke-width="1"/>
    </clipPath>
  </defs>
  <g id="Group_1206431" data-name="Group 1206431" transform="translate(-1119.086 -3857.106)">
    <g id="Group_1204751" data-name="Group 1204751" transform="translate(1119.086 3857.106)">
      <g id="Group_1204438" data-name="Group 1204438">
        <g id="Group_1204285" data-name="Group 1204285">
          <g id="Group_1204180" data-name="Group 1204180">
            <g id="Group_1204143" data-name="Group 1204143">
              <g id="Group_1188789" data-name="Group 1188789" transform="translate(0)">
                <path id="Path_1243039" data-name="Path 1243039" d="M41.05,0h0a41.05,41.05,0,0,1,0,82.1h0a41.05,41.05,0,0,1,0-82.1Z" transform="translate(7.951 7.949)" fill="#ffc63f"/>
                <rect id="Rectangle_400907" data-name="Rectangle 400907" width="88.438" height="88.437" rx="44.218" transform="translate(4.782 4.781)" fill="none"/>
                <g id="Group_1098742" data-name="Group 1098742" transform="translate(0)">
                  <g id="Rectangle_400898" data-name="Rectangle 400898" transform="translate(0)" fill="none" stroke="#fff" stroke-width="2" opacity="0.859">
                    <rect width="98" height="97.999" rx="48.999" stroke="none"/>
                    <rect x="1" y="1" width="96" height="95.999" rx="47.999" fill="none"/>
                  </g>
                  <g id="Rectangle_400907-2" data-name="Rectangle 400907" transform="translate(0)" fill="none" stroke="#0f1f33" stroke-linecap="round" stroke-width="2">
                    <rect width="98" height="97.999" rx="48.999" stroke="none"/>
                    <rect x="1" y="1" width="96" height="95.999" rx="47.999" fill="none"/>
                  </g>
                </g>
              </g>
            </g>
          </g>
        </g>
      </g>
    </g>
    <g id="Mask_Group_1099479" data-name="Mask Group 1099479" clip-path="url(#clip-path)">
      <g id="promote_2728267" transform="translate(1139.742 3877.805)">
        <circle id="Ellipse_12893" data-name="Ellipse 12893" cx="6.2" cy="6.2" r="6.2" transform="translate(42.515 6.2)" fill="#976947"/>
        <path id="Path_1328577" data-name="Path 1328577" d="M53.144,8.414c0-.124-.012-.245-.017-.368a6.2,6.2,0,0,0-8.83,8.7,7.348,7.348,0,0,0,1.032.081C49.645,16.829,53.144,13.062,53.144,8.414Z" fill="#ac876c"/>
        <path id="Path_1328578" data-name="Path 1328578" d="M23.029,37.2v7.972a2.657,2.657,0,0,0,5.314,0V37.2Z" fill="#a0a8b3"/>
        <path id="Path_1328579" data-name="Path 1328579" d="M26.572,26.572l12.4-5.314V42.515L26.572,37.2Z" fill="#c7e2fb"/>
        <path id="Path_1328580" data-name="Path 1328580" d="M26.572,36.358c6.166-3.019,10.522-8.385,11.362-14.656l-11.362,4.87Z" fill="#ebf7fe"/>
        <path id="Path_1328581" data-name="Path 1328581" d="M.886,39.858H7.972v5.314H.886Z" fill="#fadfb2"/>
        <path id="Path_1328582" data-name="Path 1328582" d="M.886,7.972H14.842a2.654,2.654,0,0,1,1.879.779l3.651,3.65V10.427a8.655,8.655,0,0,0-8.655-8.655H.886Z" fill="#976947"/>
        <path id="Path_1328583" data-name="Path 1328583" d="M14.172,7.972v7.086l3.436,3.436a6.414,6.414,0,0,1,1.879,4.536H14.172v5.314L8.857,30.115l5.314,4.429a4.277,4.277,0,0,1-1.252,3.024l-1.038,1.038a4.277,4.277,0,0,1-3.024,1.252H.886V7.972Z" fill="#fadfb2"/>
        <path id="Path_1328584" data-name="Path 1328584" d="M.886,45.172h9.9a6.048,6.048,0,0,1,6.048,6.048V55.8H.886Z" fill="#4472b0"/>
        <path id="Path_1328585" data-name="Path 1328585" d="M26.572,37.2H23.029a5.314,5.314,0,1,1,0-10.629h3.543Z" fill="#e0747c"/>
        <path id="Path_1328586" data-name="Path 1328586" d="M38.972,28.343a3.543,3.543,0,0,1,0,7.086Z" fill="#e0747c"/>
        <path id="Path_1328587" data-name="Path 1328587" d="M40.743,46.058H54.915v8.857H40.743Z" fill="#976947"/>
        <path id="Path_1328588" data-name="Path 1328588" d="M40.743,46.058l7.086,5.314,7.086-5.314Z" fill="#ac876c"/>
        <g id="Group_1207455" data-name="Group 1207455">
          <path id="Path_1328589" data-name="Path 1328589" d="M10.78,44.2H8.857V40.659a5.126,5.126,0,0,0,3.65-1.512l1.038-1.038a5.2,5.2,0,0,0,1.512-3.65.888.888,0,0,0-.319-.681l-4.093-3.411L14.451,29.1a.881.881,0,0,0,.606-.839V23.83h4.429a.885.885,0,0,0,.886-.886,7.253,7.253,0,0,0-2.138-5.162l-3.176-3.176V8.794a1.761,1.761,0,0,1,1.038.5l3.65,3.65a.886.886,0,0,0,.626.26.875.875,0,0,0,.339-.067.885.885,0,0,0,.546-.818V10.343A9.542,9.542,0,0,0,11.716.8H.886V2.572H11.716a7.771,7.771,0,0,1,7.768,7.6L17.348,8.039A3.521,3.521,0,0,0,14.842,7H.886V8.772h12.4v6.2a.882.882,0,0,0,.26.626l3.436,3.436a5.494,5.494,0,0,1,1.549,3.024H14.172a.885.885,0,0,0-.886.886V27.62l-4.709,1.57A.886.886,0,0,0,8.29,30.71l4.972,4.143a3.417,3.417,0,0,1-.969,2l-1.038,1.038a3.369,3.369,0,0,1-2.4.993H.886v1.771h6.2V44.2H.886v1.771H10.78a5.162,5.162,0,0,1,5.163,5.163v4.581h1.771V51.136A6.934,6.934,0,0,0,10.78,44.2Z"/>
          <path id="Path_1328590" data-name="Path 1328590" d="M38.623,43.245a.87.87,0,0,0,.349.072.886.886,0,0,0,.886-.886v-6.29a4.429,4.429,0,0,0,0-8.678v-6.29a.886.886,0,0,0-1.235-.814L26.39,25.6H23.029a6.2,6.2,0,0,0-.886,12.329v7.157a3.543,3.543,0,0,0,7.086,0V39.219ZM41.629,31.8A2.654,2.654,0,0,1,39.858,34.3V29.309A2.652,2.652,0,0,1,41.629,31.8Zm-3.543,9.286L27.457,36.533v-9.46l10.629-4.555ZM18.6,31.8a4.434,4.434,0,0,1,4.429-4.429h2.657v8.857H23.029A4.434,4.434,0,0,1,18.6,31.8Zm8.857,13.286a1.771,1.771,0,1,1-3.543,0V38H26.39l1.067.458Z"/>
          <path id="Path_1328591" data-name="Path 1328591" d="M44.95,11.429h7.514V13.2H44.95Z" transform="translate(5.56 38.054) rotate(-45)"/>
          <path id="Path_1328592" data-name="Path 1328592" d="M50.036,13.9h1.771v1.252H50.036Z" transform="translate(4.642 40.269) rotate(-45)"/>
          <path id="Path_1328593" data-name="Path 1328593" d="M45.608,9.474h1.771v1.252H45.608Z" transform="translate(6.476 35.84) rotate(-45)"/>
          <path id="Path_1328594" data-name="Path 1328594" d="M54.915,45.088H40.743a.885.885,0,0,0-.886.886V50.4H35.429V43.316H33.658v7.972a.885.885,0,0,0,.886.886h5.314v2.657a.885.885,0,0,0,.886.886H54.915a.885.885,0,0,0,.886-.886V45.974A.886.886,0,0,0,54.915,45.088Zm-2.657,1.771-4.429,3.321L43.4,46.859ZM41.629,53.945v-6.2L47.3,52a.886.886,0,0,0,1.063,0l5.669-4.251v6.2Z"/>
          <path id="Path_1328595" data-name="Path 1328595" d="M35.429,13.2H41.69a7.086,7.086,0,1,0,0-1.771H34.543a.885.885,0,0,0-.886.886v7.972h1.771ZM48.715,7A5.314,5.314,0,1,1,43.4,12.316,5.32,5.32,0,0,1,48.715,7Z"/>
          <path id="Path_1328596" data-name="Path 1328596" d="M46.317,34.719l1.252,1.252.519-.519a5.162,5.162,0,0,0,0-7.3l-.519-.519-1.252,1.252.519.519a3.391,3.391,0,0,1,0,4.8Z"/>
          <path id="Path_1328597" data-name="Path 1328597" d="M50.378,38.476a9.436,9.436,0,0,0,0-13.347l-.151-.152-1.254,1.251.152.153a7.666,7.666,0,0,1,0,10.844l-.151.152,1.254,1.251Z"/>
        </g>
      </g>
    </g>
  </g>
</svg>
