<svg xmlns="http://www.w3.org/2000/svg" xmlns:xlink="http://www.w3.org/1999/xlink" width="98" height="97.999" viewBox="0 0 98 97.999">
  <defs>
    <clipPath id="clip-path">
      <rect id="Rectangle_412572" data-name="Rectangle 412572" width="57" height="55" transform="translate(1139.586 3878.606)" fill="#fff" stroke="#707070" stroke-width="1"/>
    </clipPath>
  </defs>
  <g id="Group_1206458" data-name="Group 1206458" transform="translate(-1119.086 -3857.106)">
    <g id="Group_1204751" data-name="Group 1204751" transform="translate(1119.086 3857.106)">
      <g id="Group_1204438" data-name="Group 1204438">
        <g id="Group_1204285" data-name="Group 1204285">
          <g id="Group_1204180" data-name="Group 1204180">
            <g id="Group_1204143" data-name="Group 1204143">
              <g id="Group_1188789" data-name="Group 1188789" transform="translate(0)">
                <path id="Path_1243039" data-name="Path 1243039" d="M41.05,0h0a41.05,41.05,0,0,1,0,82.1h0a41.05,41.05,0,0,1,0-82.1Z" transform="translate(7.951 7.949)" fill="#ffc63f"/>
                <rect id="Rectangle_400907" data-name="Rectangle 400907" width="88.438" height="88.437" rx="44.218" transform="translate(4.782 4.781)" fill="none"/>
                <g id="Group_1098742" data-name="Group 1098742" transform="translate(0)">
                  <g id="Rectangle_400898" data-name="Rectangle 400898" transform="translate(0)" fill="none" stroke="#fff" stroke-width="2" opacity="0.859">
                    <rect width="98" height="97.999" rx="48.999" stroke="none"/>
                    <rect x="1" y="1" width="96" height="95.999" rx="47.999" fill="none"/>
                  </g>
                  <g id="Rectangle_400907-2" data-name="Rectangle 400907" transform="translate(0)" fill="none" stroke="#0f1f33" stroke-linecap="round" stroke-width="2">
                    <rect width="98" height="97.999" rx="48.999" stroke="none"/>
                    <rect x="1" y="1" width="96" height="95.999" rx="47.999" fill="none"/>
                  </g>
                </g>
              </g>
            </g>
          </g>
        </g>
      </g>
    </g>
    <g id="Mask_Group_1099490" data-name="Mask Group 1099490" clip-path="url(#clip-path)">
      <g id="idea_9551633" transform="translate(1139.041 3877.065)">
        <g id="Group_1207495" data-name="Group 1207495">
          <path id="Path_1328791" data-name="Path 1328791" d="M16.09,56.007H37.512a1.952,1.952,0,0,0,1.952-1.952V29.195a1.959,1.959,0,0,0-1.952-1.952H16.09a1.959,1.959,0,0,0-1.952,1.952v24.86A1.952,1.952,0,0,0,16.09,56.007Z" fill="#e6e6e6" fill-rule="evenodd"/>
          <path id="Path_1328792" data-name="Path 1328792" d="M15.046,54.123a1.242,1.242,0,0,0,1.044,1.884,1.952,1.952,0,0,1-1.952-1.952V27.6c0-2.474,3.96-2.485,3.96-.908v24.86C18.1,53.965,15.692,53.012,15.046,54.123Z" fill="#b3b4b4" fill-rule="evenodd"/>
          <path id="Path_1328793" data-name="Path 1328793" d="M28.764,10.575a9.278,9.278,0,0,1,9.282,9.282c0,3.517-2.405,6.547-4.323,9.316H23.839c-1.929-2.78-4.357-5.764-4.357-9.316a9.278,9.278,0,0,1,9.282-9.282Z" fill="#fdb614" fill-rule="evenodd"/>
          <path id="Path_1328794" data-name="Path 1328794" d="M24.679,34.085l.93,2.825c.386,1.157.976,1.793,1.657,1.793h3c.681,0,1.271-.635,1.657-1.793l.93-2.825Z" fill="#b3b4b4" fill-rule="evenodd"/>
          <path id="Path_1328795" data-name="Path 1328795" d="M23.363,32.066h10.8a1.522,1.522,0,0,1,0,3.041h-10.8a1.521,1.521,0,0,1,0-3.041Z" fill="#b3b4b4" fill-rule="evenodd"/>
          <path id="Path_1328796" data-name="Path 1328796" d="M23.363,32.066h10.8a1.522,1.522,0,0,0,0-3.041h-10.8a1.521,1.521,0,0,0,0,3.041Z" fill="#b3b4b4" fill-rule="evenodd"/>
          <path id="Path_1328797" data-name="Path 1328797" d="M39.475,36.4a7.012,7.012,0,1,1-7.012,7.012A7.017,7.017,0,0,1,39.475,36.4Z" fill="#fdb614" fill-rule="evenodd"/>
          <path id="Path_1328798" data-name="Path 1328798" d="M41.824,47.111v.817h-4.7v-.817c0-.908,1.623.023.964-2.3l.647-2.213c-.93-.556-.851-1.793-.851-2.723h3.2c0,.93.079,2.167-.862,2.723l.647,2.213C40.2,47.145,41.824,46.215,41.824,47.111Z" fill="#e6e6e6" fill-rule="evenodd"/>
        </g>
        <path id="Path_1328799" data-name="Path 1328799" d="M40.678,38.9a.539.539,0,0,1,1.078,0v.84a.6.6,0,0,1-.136.363,3.39,3.39,0,0,1-.772,2.7l.533,1.849a.522.522,0,0,1,0,.3c-.284.987-.045,1.067.159,1.146.431.159.828.306.828,1.01v.817a.533.533,0,0,1-.533.533h-4.7a.542.542,0,0,1-.545-.533V47.1c0-.715.4-.851.828-1.01.2-.079.443-.159.159-1.146a.541.541,0,0,1,.011-.329l.533-1.827a3.361,3.361,0,0,1-.772-2.7.515.515,0,0,1-.136-.363v-.84a.539.539,0,0,1,1.078,0v.431h.658v-.431a.539.539,0,0,1,1.078,0v.431h.658V38.9Zm.613,8.5c0-.454.011-.227-.125-.284-.624-.227-1.339-.488-.862-2.3l-.59-2.031a.546.546,0,0,1,.227-.647c.522-.306.59-1.044.6-1.725H38.408c.011.681.079,1.418.6,1.725a.544.544,0,0,1,.238.613l-.6,2.065c.465,1.815-.25,2.076-.862,2.3-.136.057-.125-.17-.125.284ZM40.008,35.878a7.554,7.554,0,0,1,0,15.068v3.1a2.5,2.5,0,0,1-2.5,2.5H16.09a2.44,2.44,0,0,1-1.759-.738,2.53,2.53,0,0,1-.738-1.759V27.6c0-3.154,5.049-3.245,5.049-.9h2.825a12.555,12.555,0,0,1-2.519-6.842,9.826,9.826,0,0,1,19.652,0,12.683,12.683,0,0,1-2.5,6.842h1.43a2.5,2.5,0,0,1,2.5,2.5v6.683ZM38.93,50.946a7.554,7.554,0,0,1,0-15.068V29.195a1.419,1.419,0,0,0-1.418-1.418H35.356c-.182.272-.374.533-.556.806a2.119,2.119,0,0,1,.76,3.483,2.083,2.083,0,0,1-1.4,3.574H32.905l-.477,1.441c-.352,1.078-1.044,2.167-2.167,2.167h-3c-1.123,0-1.815-1.089-2.167-2.167l-.477-1.441H23.363a2.084,2.084,0,0,1-1.4-3.574,2.123,2.123,0,0,1,.794-3.495l-.556-.794H18.643V51.548c0,3.2-3.234,1.8-3.234,3.211a.674.674,0,0,0,.681.7H37.512a1.419,1.419,0,0,0,1.418-1.418ZM44.059,38.84a6.475,6.475,0,1,0,0,9.157,6.472,6.472,0,0,0,0-9.157Zm-22.7,13.786a.539.539,0,0,1,0-1.078H35.118a.539.539,0,0,1,0,1.078Zm0-3.03a.539.539,0,0,1,0-1.078h10.4a.539.539,0,0,1,0,1.078Zm0-3.03a.539.539,0,0,1,0-1.078h9.1a.539.539,0,0,1,0,1.078Zm0-3.8a.539.539,0,0,1,0-1.078h6.2a.539.539,0,0,1,0,1.078Zm12.81-11.245a.983.983,0,0,0,0-1.963h-10.8a.983.983,0,0,0,0,1.963Zm-10.155-3.03h2.519v-7.33a1.429,1.429,0,1,0-1.43,1.43.539.539,0,0,1,0,1.078,2.512,2.512,0,1,1,2.519-2.519v7.33h1.827V21.15a2.512,2.512,0,1,1,2.519,2.519.539.539,0,0,1,0-1.078,1.429,1.429,0,1,0-1.43-1.43v7.33h3.03c1.815-2.587,3.96-5.446,3.96-8.623a8.748,8.748,0,0,0-17.5,0c-.011,3.188,2.167,6.025,3.983,8.623Zm7.761,7.148H25.757c.227.692.681,2.53,1.509,2.53h3c.556,0,.953-.851,1.146-1.43ZM34.165,32.6h-10.8a.983.983,0,0,0,0,1.963h10.8A.983.983,0,0,0,34.165,32.6ZM27.992,2.076a.539.539,0,0,1,1.078,0V5.707a.539.539,0,0,1-1.078,0Zm17.462,16.4a.539.539,0,0,1,0,1.078H41.824a.539.539,0,0,1,0-1.078ZM40.11,6.649a.538.538,0,0,1,.76.76L38.306,9.985a.538.538,0,0,1-.76-.76ZM11.6,19.539a.539.539,0,0,1,0-1.078h3.631a.539.539,0,0,1,0,1.078ZM16.169,7.421a.538.538,0,0,1,.76-.76l2.564,2.564a.538.538,0,0,1-.76.76ZM14.671,53.7c.885-1.2,2.882-.329,2.882-2.156V26.687c0-.806-2.882-.9-2.882.908Z"/>
      </g>
    </g>
  </g>
</svg>
