<svg xmlns="http://www.w3.org/2000/svg" xmlns:xlink="http://www.w3.org/1999/xlink" width="98" height="97.999" viewBox="0 0 98 97.999">
  <defs>
    <clipPath id="clip-path">
      <rect id="Rectangle_412572" data-name="Rectangle 412572" width="57" height="55" transform="translate(1139.586 3878.606)" fill="#fff" stroke="#707070" stroke-width="1"/>
    </clipPath>
  </defs>
  <g id="Group_1206457" data-name="Group 1206457" transform="translate(-1119.086 -3857.106)">
    <g id="Group_1204751" data-name="Group 1204751" transform="translate(1119.086 3857.106)">
      <g id="Group_1204438" data-name="Group 1204438">
        <g id="Group_1204285" data-name="Group 1204285">
          <g id="Group_1204180" data-name="Group 1204180">
            <g id="Group_1204143" data-name="Group 1204143">
              <g id="Group_1188789" data-name="Group 1188789" transform="translate(0)">
                <path id="Path_1243039" data-name="Path 1243039" d="M41.05,0h0a41.05,41.05,0,0,1,0,82.1h0a41.05,41.05,0,0,1,0-82.1Z" transform="translate(7.951 7.949)" fill="#ffc63f"/>
                <rect id="Rectangle_400907" data-name="Rectangle 400907" width="88.438" height="88.437" rx="44.218" transform="translate(4.782 4.781)" fill="none"/>
                <g id="Group_1098742" data-name="Group 1098742" transform="translate(0)">
                  <g id="Rectangle_400898" data-name="Rectangle 400898" transform="translate(0)" fill="none" stroke="#fff" stroke-width="2" opacity="0.859">
                    <rect width="98" height="97.999" rx="48.999" stroke="none"/>
                    <rect x="1" y="1" width="96" height="95.999" rx="47.999" fill="none"/>
                  </g>
                  <g id="Rectangle_400907-2" data-name="Rectangle 400907" transform="translate(0)" fill="none" stroke="#0f1f33" stroke-linecap="round" stroke-width="2">
                    <rect width="98" height="97.999" rx="48.999" stroke="none"/>
                    <rect x="1" y="1" width="96" height="95.999" rx="47.999" fill="none"/>
                  </g>
                </g>
              </g>
            </g>
          </g>
        </g>
      </g>
    </g>
    <g id="Mask_Group_1099491" data-name="Mask Group 1099491" clip-path="url(#clip-path)">
      <g id="chat_1918507" transform="translate(1139.586 3877.606)">
        <path id="Path_1328800" data-name="Path 1328800" d="M56.109,2.672V18.7H52.547v2.672L47.2,18.7H41.859V11.578H15.141V2.672Z" fill="#ccd1d9"/>
        <path id="Path_1328801" data-name="Path 1328801" d="M41.868,32.063c4.881,0,9.148,3.206,11.569,8.025C51.015,44.9,46.749,48.1,41.868,48.1S32.722,44.9,30.3,40.087c2.422-4.818,6.688-8.025,11.568-8.025Zm5.344,8.025a5.344,5.344,0,1,0-5.344,5.344A5.342,5.342,0,0,0,47.212,40.087Z" fill="#f5f7fa"/>
        <path id="Path_1328802" data-name="Path 1328802" d="M41.868,34.743a5.344,5.344,0,1,1-5.344,5.344A5.342,5.342,0,0,1,41.868,34.743Z" fill="#5d9cec"/>
        <path id="Path_1328803" data-name="Path 1328803" d="M41.868,25.846a14.241,14.241,0,1,1-14.24,14.241v-.009a14.213,14.213,0,0,1,3.135-8.906,14.438,14.438,0,0,1,4.23-3.562,14.158,14.158,0,0,1,6.867-1.763ZM53.438,40.087c-2.423-4.818-6.689-8.025-11.569-8.025S32.722,35.269,30.3,40.087C32.722,44.9,36.989,48.1,41.868,48.1S51.015,44.9,53.438,40.087Z" fill="#5d9cec"/>
        <path id="Path_1328804" data-name="Path 1328804" d="M34.993,27.609a14.438,14.438,0,0,0-4.23,3.563,14.213,14.213,0,0,0-3.135,8.906H12.469L5.344,43.641V40.078H.891v-28.5H41.859V25.846A14.158,14.158,0,0,0,34.993,27.609Z" fill="#e6e9ed"/>
        <path id="Path_1328805" data-name="Path 1328805" d="M5.344,44.531a.891.891,0,0,1-.891-.891V40.969H.891A.89.89,0,0,1,0,40.078v-28.5a.89.89,0,0,1,.891-.891H41.859a.89.89,0,0,1,.891.891V25.841a.891.891,0,0,1-1.781,0V12.469H1.781V39.188H5.344a.89.89,0,0,1,.891.891V42.2l5.835-2.918a.882.882,0,0,1,.4-.094H27.624a.891.891,0,1,1,0,1.781H12.679L5.743,44.438a.9.9,0,0,1-.4.094Z"/>
        <path id="Path_1328806" data-name="Path 1328806" d="M52.547,22.266a.9.9,0,0,1-.4-.094l-5.155-2.578H41.859a.891.891,0,0,1,0-1.781H47.2a.893.893,0,0,1,.4.094l4.054,2.028V18.7a.89.89,0,0,1,.891-.891h2.672V3.563H16.031v7.124a.891.891,0,0,1-1.781,0V2.672a.89.89,0,0,1,.891-.891H56.109A.89.89,0,0,1,57,2.672V18.7a.89.89,0,0,1-.891.891H53.438v1.781a.891.891,0,0,1-.891.891Z"/>
        <path id="Path_1328807" data-name="Path 1328807" d="M24.061,17.813H6.249a.891.891,0,0,1,0-1.781H24.061a.891.891,0,1,1,0,1.781Z"/>
        <path id="Path_1328808" data-name="Path 1328808" d="M13.374,21.375H6.249a.891.891,0,0,1,0-1.781h7.125a.891.891,0,0,1,0,1.781Z"/>
        <path id="Path_1328809" data-name="Path 1328809" d="M36.516,21.375H16.936a.891.891,0,0,1,0-1.781h19.58a.891.891,0,0,1,0,1.781Z"/>
        <path id="Path_1328810" data-name="Path 1328810" d="M16.045,28.5h-9.8a.891.891,0,0,1,0-1.781h9.8a.891.891,0,1,1,0,1.781Z"/>
        <path id="Path_1328811" data-name="Path 1328811" d="M34.99,28.5H19.608a.891.891,0,0,1,0-1.781H34.99a.891.891,0,0,1,0,1.781Z"/>
        <path id="Path_1328812" data-name="Path 1328812" d="M26.729,24.938H6.249a.891.891,0,0,1,0-1.781H26.729a.891.891,0,0,1,0,1.781Z"/>
        <path id="Path_1328813" data-name="Path 1328813" d="M36.516,24.938H30.292a.891.891,0,0,1,0-1.781h6.224a.891.891,0,0,1,0,1.781Z"/>
        <path id="Path_1328814" data-name="Path 1328814" d="M36.516,17.813H27.624a.891.891,0,0,1,0-1.781h8.892a.891.891,0,0,1,0,1.781Z"/>
        <path id="Path_1328815" data-name="Path 1328815" d="M24.061,32.063H6.249a.891.891,0,0,1,0-1.781H24.061a.891.891,0,1,1,0,1.781Z"/>
        <path id="Path_1328816" data-name="Path 1328816" d="M13.374,35.625H6.249a.891.891,0,0,1,0-1.781h7.125a.891.891,0,0,1,0,1.781Z"/>
        <path id="Path_1328817" data-name="Path 1328817" d="M28.664,35.625H16.936a.891.891,0,0,1,0-1.781H28.664a.891.891,0,0,1,0,1.781Z"/>
        <path id="Path_1328818" data-name="Path 1328818" d="M30.757,32.063H27.623a.891.891,0,0,1,0-1.781h3.134a.891.891,0,0,1,0,1.781Z"/>
        <path id="Path_1328819" data-name="Path 1328819" d="M41.867,55.219A15.134,15.134,0,1,1,57,40.085,15.151,15.151,0,0,1,41.867,55.219Zm0-28.486A13.352,13.352,0,1,0,55.219,40.085,13.368,13.368,0,0,0,41.867,26.733Z"/>
        <path id="Path_1328820" data-name="Path 1328820" d="M41.867,48.994c-5.061,0-9.685-3.181-12.367-8.511a.89.89,0,0,1,0-.8c2.683-5.33,7.3-8.512,12.367-8.512s9.685,3.181,12.367,8.512a.89.89,0,0,1,0,.8c-2.683,5.329-7.307,8.511-12.367,8.511ZM31.3,40.083c2.4,4.473,6.319,7.129,10.567,7.129s8.171-2.656,10.567-7.129c-2.4-4.474-6.319-7.13-10.567-7.13S33.7,35.609,31.3,40.083Z"/>
        <path id="Path_1328821" data-name="Path 1328821" d="M41.864,46.318A6.234,6.234,0,1,1,48.1,40.083,6.243,6.243,0,0,1,41.864,46.318Zm0-10.687a4.453,4.453,0,1,0,4.452,4.453A4.458,4.458,0,0,0,41.864,35.63Z"/>
      </g>
    </g>
  </g>
</svg>
