<svg xmlns="http://www.w3.org/2000/svg" xmlns:xlink="http://www.w3.org/1999/xlink" width="98" height="97.999" viewBox="0 0 98 97.999">
  <defs>
    <clipPath id="clip-path">
      <rect id="Rectangle_412572" data-name="Rectangle 412572" width="57" height="55" transform="translate(1139.586 3878.606)" fill="#fff" stroke="#707070" stroke-width="1"/>
    </clipPath>
  </defs>
  <g id="Group_1207316" data-name="Group 1207316" transform="translate(-1119.086 -3857.106)">
    <g id="Group_1204751" data-name="Group 1204751" transform="translate(1119.086 3857.106)">
      <g id="Group_1204438" data-name="Group 1204438">
        <g id="Group_1204285" data-name="Group 1204285">
          <g id="Group_1204180" data-name="Group 1204180">
            <g id="Group_1204143" data-name="Group 1204143">
              <g id="Group_1188789" data-name="Group 1188789" transform="translate(0)">
                <path id="Path_1243039" data-name="Path 1243039" d="M41.05,0h0a41.05,41.05,0,0,1,0,82.1h0a41.05,41.05,0,0,1,0-82.1Z" transform="translate(7.951 7.949)" fill="#ffc63f"/>
                <rect id="Rectangle_400907" data-name="Rectangle 400907" width="88.438" height="88.437" rx="44.218" transform="translate(4.782 4.781)" fill="none"/>
                <g id="Group_1098742" data-name="Group 1098742" transform="translate(0)">
                  <g id="Rectangle_400898" data-name="Rectangle 400898" transform="translate(0)" fill="none" stroke="#fff" stroke-width="2" opacity="0.859">
                    <rect width="98" height="97.999" rx="48.999" stroke="none"/>
                    <rect x="1" y="1" width="96" height="95.999" rx="47.999" fill="none"/>
                  </g>
                  <g id="Rectangle_400907-2" data-name="Rectangle 400907" transform="translate(0)" fill="none" stroke="#0f1f33" stroke-linecap="round" stroke-width="2">
                    <rect width="98" height="97.999" rx="48.999" stroke="none"/>
                    <rect x="1" y="1" width="96" height="95.999" rx="47.999" fill="none"/>
                  </g>
                </g>
              </g>
            </g>
          </g>
        </g>
      </g>
    </g>
    <g id="Mask_Group_1099544" data-name="Mask Group 1099544" clip-path="url(#clip-path)">
      <g id="target_1935867" transform="translate(1139.699 3877.719)">
        <path id="Path_1329658" data-name="Path 1329658" d="M37.506,43.273,34.6,50.565l-1.242,3.1a2.116,2.116,0,0,1-4.081-.79v-.124a2.113,2.113,0,0,1,.16-.807l4.09-9.909A14.45,14.45,0,0,0,37.506,43.273Z" fill="#dfb28b"/>
        <path id="Path_1329659" data-name="Path 1329659" d="M50.565,52.756v.124a2.116,2.116,0,0,1-4.081.79l-1.242-3.1-2.91-7.292a14.45,14.45,0,0,0,3.983-1.233l4.09,9.909a2.113,2.113,0,0,1,.16.807Z" fill="#dfb28b"/>
        <circle id="Ellipse_12978" data-name="Ellipse 12978" cx="15.081" cy="15.081" r="15.081" transform="translate(24.839 13.306)" fill="#ff826e"/>
        <circle id="Ellipse_12979" data-name="Ellipse 12979" cx="11.532" cy="11.532" r="11.532" transform="translate(28.387 16.855)" fill="#ffeaa7"/>
        <path id="Path_1329660" data-name="Path 1329660" d="M35.945,23.623a6.136,6.136,0,0,1,3.974-1.446,6.21,6.21,0,1,1,0,12.419,6.2,6.2,0,0,1-3.974-10.973Z" fill="#ff826e"/>
        <g id="Group_1207691" data-name="Group 1207691">
          <circle id="Ellipse_12980" data-name="Ellipse 12980" cx="7.984" cy="7.984" r="7.984" transform="translate(1.774 20.403)" fill="#e6e9ed"/>
          <circle id="Ellipse_12981" data-name="Ellipse 12981" cx="7.984" cy="7.984" r="7.984" transform="translate(1.774 39.032)" fill="#e6e9ed"/>
          <circle id="Ellipse_12982" data-name="Ellipse 12982" cx="7.984" cy="7.984" r="7.984" transform="translate(1.774 1.774)" fill="#e6e9ed"/>
        </g>
        <path id="Path_1329661" data-name="Path 1329661" d="M12.952,13.3a6.223,6.223,0,0,1,2.235,2.315,7.987,7.987,0,0,1-10.858,0A6.222,6.222,0,0,1,12.952,13.3Z" fill="#fcd770"/>
        <path id="Path_1329662" data-name="Path 1329662" d="M12.952,31.927a6.223,6.223,0,0,1,2.235,2.315,7.987,7.987,0,0,1-10.858,0,6.222,6.222,0,0,1,8.623-2.315Z" fill="#ff826e"/>
        <path id="Path_1329663" data-name="Path 1329663" d="M12.952,50.556a6.223,6.223,0,0,1,2.235,2.315,7.987,7.987,0,0,1-10.858,0,6.222,6.222,0,0,1,8.623-2.315Z" fill="#4fc1e9"/>
        <circle id="Ellipse_12983" data-name="Ellipse 12983" cx="3.548" cy="3.548" r="3.548" transform="translate(6.21 5.323)" fill="#f0d0b4"/>
        <circle id="Ellipse_12984" data-name="Ellipse 12984" cx="3.548" cy="3.548" r="3.548" transform="translate(6.21 23.952)" fill="#f0d0b4"/>
        <circle id="Ellipse_12985" data-name="Ellipse 12985" cx="3.548" cy="3.548" r="3.548" transform="translate(6.21 42.581)" fill="#f0d0b4"/>
        <path id="Path_1329664" data-name="Path 1329664" d="M47.455,42.458A15.962,15.962,0,1,0,27.624,18.213L17.97,13.1a8.879,8.879,0,1,0-.83,1.567l9.425,4.99A15.856,15.856,0,0,0,24,27.5H18.585a8.875,8.875,0,1,0,0,1.774H24a15.856,15.856,0,0,0,2.568,7.841l-9.425,4.99a8.886,8.886,0,1,0,.831,1.568l9.654-5.111a16.077,16.077,0,0,0,4.759,3.9l-3.769,9.155a2.972,2.972,0,0,0-.227,1.144v.128A3,3,0,0,0,34.179,54L35.2,51.452h9.444L45.661,54a3,3,0,0,0,5.791-1.115v-.128a2.98,2.98,0,0,0-.226-1.143ZM5.507,15.427a5.32,5.32,0,0,1,8.5,0,7.044,7.044,0,0,1-8.5,0ZM7.1,8.871a2.661,2.661,0,1,1,2.661,2.661A2.665,2.665,0,0,1,7.1,8.871Zm8.19,5.326a7.094,7.094,0,0,0-2.6-2.021,4.436,4.436,0,1,0-5.857,0A7.1,7.1,0,0,0,4.23,14.2a7.1,7.1,0,1,1,11.057,0ZM5.507,52.686a5.32,5.32,0,0,1,8.5,0,7.044,7.044,0,0,1-8.5,0ZM7.1,46.129A2.661,2.661,0,1,1,9.758,48.79,2.665,2.665,0,0,1,7.1,46.129Zm8.19,5.326a7.094,7.094,0,0,0-2.6-2.021,4.436,4.436,0,1,0-5.857,0,7.1,7.1,0,0,0-2.6,2.021,7.1,7.1,0,1,1,11.057,0ZM28.133,20.49l1.582.837a12.331,12.331,0,0,0-2.17,6.173H25.771a14.094,14.094,0,0,1,2.362-7.011Zm4.75,8.784a7.063,7.063,0,0,0,1.588,3.654L31.3,34.608a10.575,10.575,0,0,1-1.98-5.334ZM34.677,27.5a5.305,5.305,0,0,1,1.411-2.8L39.5,26.51l.83-1.568-2.626-1.39a5.323,5.323,0,1,1,0,9.671l2.626-1.39-.83-1.568-3.416,1.809a5.305,5.305,0,0,1-1.411-2.8h5.243V27.5Zm1.184,6.7a7.1,7.1,0,1,0,0-11.626l-3.379-1.789a10.645,10.645,0,1,1,0,15.2ZM34.473,23.846A7.066,7.066,0,0,0,32.885,27.5H29.319a10.575,10.575,0,0,1,1.98-5.334ZM5.507,34.057a5.32,5.32,0,0,1,8.5,0,7.044,7.044,0,0,1-8.5,0ZM7.1,27.5a2.661,2.661,0,1,1,2.661,2.661A2.665,2.665,0,0,1,7.1,27.5Zm8.19,5.326a7.094,7.094,0,0,0-2.6-2.021,4.436,4.436,0,1,0-5.857,0,7.1,7.1,0,0,0-2.6,2.021,7.1,7.1,0,1,1,11.057,0Zm10.485-3.552h1.774a12.331,12.331,0,0,0,2.17,6.173l-1.582.837A14.1,14.1,0,0,1,25.771,29.274Zm3.469,8.432,1.616-.855a12.42,12.42,0,1,0,0-16.927l-1.616-.855a14.193,14.193,0,1,1,0,18.637Zm3.291,15.635a1.229,1.229,0,0,1-2.369-.457v-.128a1.22,1.22,0,0,1,.092-.467L34,43.2a15.9,15.9,0,0,0,2.3.722Zm3.376-3.664,2.174-5.437a14.812,14.812,0,0,0,3.675,0l2.175,5.437Zm13.77,3.207a1.229,1.229,0,0,1-2.369.457l-3.767-9.417a15.726,15.726,0,0,0,2.3-.722l3.743,9.087a1.217,1.217,0,0,1,.092.468Z"/>
      </g>
    </g>
  </g>
</svg>
