<svg xmlns="http://www.w3.org/2000/svg" xmlns:xlink="http://www.w3.org/1999/xlink" width="98" height="97.999" viewBox="0 0 98 97.999">
  <defs>
    <clipPath id="clip-path">
      <rect id="Rectangle_412572" data-name="Rectangle 412572" width="57" height="55" transform="translate(1139.586 3878.606)" fill="#fff" stroke="#707070" stroke-width="1"/>
    </clipPath>
  </defs>
  <g id="Group_1207057" data-name="Group 1207057" transform="translate(-1119.086 -3857.106)">
    <g id="Group_1204751" data-name="Group 1204751" transform="translate(1119.086 3857.106)">
      <g id="Group_1204438" data-name="Group 1204438">
        <g id="Group_1204285" data-name="Group 1204285">
          <g id="Group_1204180" data-name="Group 1204180">
            <g id="Group_1204143" data-name="Group 1204143">
              <g id="Group_1188789" data-name="Group 1188789" transform="translate(0)">
                <path id="Path_1243039" data-name="Path 1243039" d="M41.05,0h0a41.05,41.05,0,0,1,0,82.1h0a41.05,41.05,0,0,1,0-82.1Z" transform="translate(7.951 7.949)" fill="#ffc63f"/>
                <rect id="Rectangle_400907" data-name="Rectangle 400907" width="88.438" height="88.437" rx="44.218" transform="translate(4.782 4.781)" fill="none"/>
                <g id="Group_1098742" data-name="Group 1098742" transform="translate(0)">
                  <g id="Rectangle_400898" data-name="Rectangle 400898" transform="translate(0)" fill="none" stroke="#fff" stroke-width="2" opacity="0.859">
                    <rect width="98" height="97.999" rx="48.999" stroke="none"/>
                    <rect x="1" y="1" width="96" height="95.999" rx="47.999" fill="none"/>
                  </g>
                  <g id="Rectangle_400907-2" data-name="Rectangle 400907" transform="translate(0)" fill="none" stroke="#0f1f33" stroke-linecap="round" stroke-width="2">
                    <rect width="98" height="97.999" rx="48.999" stroke="none"/>
                    <rect x="1" y="1" width="96" height="95.999" rx="47.999" fill="none"/>
                  </g>
                </g>
              </g>
            </g>
          </g>
        </g>
      </g>
    </g>
    <g id="Mask_Group_1099518" data-name="Mask Group 1099518" clip-path="url(#clip-path)">
      <g id="advertising_3881388" transform="translate(1140.586 3878.606)">
        <g id="Group_1207586" data-name="Group 1207586">
          <g id="Group_1207570" data-name="Group 1207570">
            <path id="Path_1329200" data-name="Path 1329200" d="M34.588,20.865a7.984,7.984,0,0,0-3.54,6.635c0,.266.018.532.044.8A10.645,10.645,0,0,1,15.249,14.273L20.4,16.855h3.548V12.419a3.527,3.527,0,0,0,3.256-2.156h.009a10.321,10.321,0,0,1,3.77,2.165A10.544,10.544,0,0,1,34.6,20.4C34.6,20.554,34.6,20.7,34.588,20.865Z" fill="#69d6f4"/>
          </g>
          <g id="Group_1207571" data-name="Group 1207571">
            <path id="Path_1329201" data-name="Path 1329201" d="M34.6,27.5v3.548H33.71a2.621,2.621,0,0,0-1.552.506A7.714,7.714,0,0,1,31.093,28.3c-.027-.266-.044-.532-.044-.8a7.977,7.977,0,0,1,7.984-7.984H45.9a4.685,4.685,0,0,1,4.187,2.59l.479.958a4.686,4.686,0,0,1,3.548,4.542V28.6a4.683,4.683,0,0,1-.94,2.812l-.124.169a2.676,2.676,0,0,0-1.6-.532h-.887V29.274a8.19,8.19,0,0,1-4.214-3.22l-.222-.328-4.719,2.36a11.282,11.282,0,0,1-5.039,1.189A1.787,1.787,0,0,1,34.6,27.5Z" fill="#656d78"/>
          </g>
          <g id="Group_1207572" data-name="Group 1207572">
            <path id="Path_1329202" data-name="Path 1329202" d="M43.468,46.129l.887,7.984H40.806l.887-7.984.887-.887Z" fill="#e6e9ed"/>
          </g>
          <g id="Group_1207573" data-name="Group 1207573">
            <path id="Path_1329203" data-name="Path 1329203" d="M46.129,48.79l.364-4.4v-.009a8.744,8.744,0,0,1,2.36,1.685,8.843,8.843,0,0,1,2.6,6.272v1.774h-7.1l-.887-7.984Z" fill="#ff826e"/>
          </g>
          <g id="Group_1207574" data-name="Group 1207574">
            <path id="Path_1329204" data-name="Path 1329204" d="M33.71,52.339a8.864,8.864,0,0,1,4.959-7.957v.009l.364,4.4,2.661-2.661-.887,7.984h-7.1Z" fill="#ff826e"/>
          </g>
          <g id="Group_1207575" data-name="Group 1207575">
            <path id="Path_1329205" data-name="Path 1329205" d="M42.616,43.468a8.751,8.751,0,0,1,3.877.914v.009l-.364,4.4-2.661-2.661-.887-.887-.887.887L39.032,48.79l-.364-4.4v-.009a8.783,8.783,0,0,1,3.912-.914Z" fill="#fc6e51"/>
          </g>
          <g id="Group_1207576" data-name="Group 1207576">
            <path id="Path_1329206" data-name="Path 1329206" d="M53.048,31.581a2.662,2.662,0,0,1-1.6,4.79h-.887V31.048h.887A2.676,2.676,0,0,1,53.048,31.581Z" fill="#f0d0b4"/>
          </g>
          <g id="Group_1207577" data-name="Group 1207577">
            <path id="Path_1329207" data-name="Path 1329207" d="M34.6,31.048v5.323H33.71a2.66,2.66,0,0,1-1.881-4.542,2.45,2.45,0,0,1,.328-.275,2.621,2.621,0,0,1,1.552-.506Z" fill="#f0d0b4"/>
          </g>
          <g id="Group_1207578" data-name="Group 1207578">
            <path id="Path_1329208" data-name="Path 1329208" d="M36.371,29.274a11.282,11.282,0,0,0,5.039-1.189l4.719-2.36.222.328a8.19,8.19,0,0,0,4.214,3.22v7.1a7.1,7.1,0,0,1-7.1,7.1H41.694a7.1,7.1,0,0,1-7.1-7.1V27.5a1.787,1.787,0,0,0,1.774,1.774Z" fill="#f0d0b4"/>
          </g>
          <g id="Group_1207579" data-name="Group 1207579">
            <path id="Path_1329209" data-name="Path 1329209" d="M31.048,41.694v5.323H11.532v2.156a1.389,1.389,0,0,1-1.393,1.393,1.422,1.422,0,0,1-.71-.2L1.65,45.694a1.557,1.557,0,0,1,0-2.679L9.43,38.34a1.422,1.422,0,0,1,.71-.2,1.389,1.389,0,0,1,1.393,1.393v2.156Z" fill="#ffeaa7"/>
          </g>
          <g id="Group_1207580" data-name="Group 1207580">
            <path id="Path_1329210" data-name="Path 1329210" d="M53.35,8.419a1.557,1.557,0,0,1,0,2.679l-8.108,4.87H43.468V12.419H31l-.009.009a10.321,10.321,0,0,0-3.77-2.165h-.009A3.465,3.465,0,0,0,27.5,8.871,3.539,3.539,0,0,0,27.021,7.1H43.468V3.548h1.774Z" fill="#ffeaa7"/>
          </g>
          <g id="Group_1207581" data-name="Group 1207581">
            <path id="Path_1329211" data-name="Path 1329211" d="M7.984,13.306v8.871H4.435V19.17a10.6,10.6,0,0,0-1.774-5.864Z" fill="#aab2bd"/>
          </g>
          <g id="Group_1207582" data-name="Group 1207582">
            <path id="Path_1329212" data-name="Path 1329212" d="M20.4.887V16.855l-5.154-2.581L9.758,11.532V6.21Z" fill="#e6e9ed"/>
          </g>
          <g id="Group_1207583" data-name="Group 1207583">
            <path id="Path_1329213" data-name="Path 1329213" d="M7.984,4.435A1.779,1.779,0,0,1,9.758,6.21v5.323a1.779,1.779,0,0,1-1.774,1.774H2.661A1.779,1.779,0,0,1,.887,11.532V6.21A1.779,1.779,0,0,1,2.661,4.435Z" fill="#ff826e"/>
          </g>
          <g id="Group_1207584" data-name="Group 1207584">
            <path id="Path_1329214" data-name="Path 1329214" d="M23.952,12.419v4.435H20.4V.887h3.548V12.419Z" fill="#ff826e"/>
          </g>
          <g id="Group_1207585" data-name="Group 1207585">
            <path id="Path_1329215" data-name="Path 1329215" d="M27.5,8.871a3.465,3.465,0,0,1-.293,1.393,3.527,3.527,0,0,1-3.256,2.156v-7.1A3.557,3.557,0,0,1,27.5,8.871Z" fill="#fcd770"/>
          </g>
        </g>
        <g id="Group_1207587" data-name="Group 1207587">
          <path id="Path_1329216" data-name="Path 1329216" d="M42.581,39.032a1.776,1.776,0,0,1-1.774-1.774H39.032a3.548,3.548,0,1,0,7.1,0H44.355A1.776,1.776,0,0,1,42.581,39.032Z"/>
          <path id="Path_1329217" data-name="Path 1329217" d="M39.919,33.71h1.774a2.661,2.661,0,1,0-5.323,0h1.774a.887.887,0,0,1,1.774,0Z"/>
          <path id="Path_1329218" data-name="Path 1329218" d="M43.468,33.71h1.774a.887.887,0,0,1,1.774,0H48.79a2.661,2.661,0,1,0-5.323,0Z"/>
          <path id="Path_1329219" data-name="Path 1329219" d="M51.185,22.321l-.307-.613A5.54,5.54,0,0,0,45.9,18.629H39.032a8.8,8.8,0,0,0-3.595.768,11.494,11.494,0,0,0-2.394-6.091h9.537v3.548h2.907l8.321-4.993a2.454,2.454,0,0,0,0-4.208L45.488,2.661H42.581V6.21h-15.1a4.425,4.425,0,0,0-2.638-1.685V0H20.194L10.309,4.942A2.651,2.651,0,0,0,7.984,3.548H2.661A2.665,2.665,0,0,0,0,6.21v5.323A2.666,2.666,0,0,0,2.133,14.14a9.645,9.645,0,0,1,1.415,5.025v3.9H8.871V14.03a2.655,2.655,0,0,0,1.438-1.23l3.661,1.831A11.522,11.522,0,0,0,30.493,29.888a8.816,8.816,0,0,0,.575,1.476,3.531,3.531,0,0,0,2.642,5.894h.052A8,8,0,0,0,38.3,43.585a9.76,9.76,0,0,0-5.472,8.754V55H52.339V52.339a9.762,9.762,0,0,0-5.473-8.754A7.993,7.993,0,0,0,51.4,37.258h.052A3.552,3.552,0,0,0,55,33.71a3.514,3.514,0,0,0-.818-2.238A5.59,5.59,0,0,0,55,28.6v-.992a5.563,5.563,0,0,0-3.815-5.287ZM45.9,20.4a3.775,3.775,0,0,1,3.395,2.1l.663,1.324.4.1a3.791,3.791,0,0,1,2.877,3.683V28.6a3.813,3.813,0,0,1-.469,1.817,3.525,3.525,0,0,0-1.3-.255V28.635l-.607-.2a7.33,7.33,0,0,1-3.76-2.872l-.651-.979-5.417,2.708a10.41,10.41,0,0,1-4.645,1.1.887.887,0,1,1,0-1.774h.887V24.839h-.887A2.665,2.665,0,0,0,33.711,27.5v2.661h0a3.52,3.52,0,0,0-1.159.21A7.082,7.082,0,0,1,39.032,20.4ZM30.57,24.839H28.892a24.329,24.329,0,0,0,.363-3.548h3.453a8.876,8.876,0,0,0-2.138,3.548Zm-6.619,5.323c-.954,0-1.969-1.355-2.669-3.548h5.339C25.921,28.807,24.905,30.161,23.952,30.161ZM20.83,24.839a22,22,0,0,1-.408-3.548h7.06a22.1,22.1,0,0,1-.408,3.548ZM14.239,21.29h4.41a24.329,24.329,0,0,0,.363,3.548h-3.74a9.652,9.652,0,0,1-1.033-3.548ZM10.645,6.758l8.871-4.435v13.1l-8.871-4.435Zm9.921,10.984h4.272V15.968h2.23a22.356,22.356,0,0,1,.408,3.548h-7.04Q20.469,18.613,20.566,17.742Zm8.684,1.774a24.3,24.3,0,0,0-.373-3.548H32.65a9.76,9.76,0,0,1,1.017,3.548Zm-.782-5.323a13.125,13.125,0,0,0-1.027-2.618c.058-.074.125-.138.178-.216a9.717,9.717,0,0,1,3.864,2.833ZM26.058,12.75a11.479,11.479,0,0,1,.557,1.443H24.839v-.977A4.348,4.348,0,0,0,26.058,12.75Zm18.3-4.766V4.435H45l7.9,4.74a.68.68,0,0,1,0,1.166L45,15.081h-.641V11.532H31.326A11.506,11.506,0,0,0,28.3,9.722a4.342,4.342,0,0,0,0-1.738Zm-17.742.887a2.658,2.658,0,0,1-1.774,2.5v-5A2.658,2.658,0,0,1,26.613,8.871Zm-3.548,7.1H21.29V1.774h1.774ZM5.323,21.29V19.166a11.417,11.417,0,0,0-1.139-4.972H7.1v7.1Zm3.548-9.758a.888.888,0,0,1-.887.887H2.661a.888.888,0,0,1-.887-.887V6.21a.888.888,0,0,1,.887-.887H7.984a.888.888,0,0,1,.887.887Zm9.99,5.543q-.157,1.191-.2,2.44H14.237a9.66,9.66,0,0,1,1.32-4.092ZM16.43,26.613h2.992a12.26,12.26,0,0,0,1.234,2.964A9.8,9.8,0,0,1,16.43,26.613Zm10.813,2.97a12.281,12.281,0,0,0,1.238-2.97h1.726a8.877,8.877,0,0,0-.045.887c0,.133.02.263.027.4A9.724,9.724,0,0,1,27.243,29.583Zm4.693,4.127a1.776,1.776,0,0,1,1.774-1.774v3.548A1.776,1.776,0,0,1,31.935,33.71Zm7.822,13.1L39.6,44.938a7.928,7.928,0,0,1,2.593-.563Zm2.824-.315.04.04.743,6.69H41.8l.743-6.69Zm.387-2.122a7.928,7.928,0,0,1,2.593.563L45.4,46.811ZM34.6,52.339a7.97,7.97,0,0,1,3.3-6.454l.407,4.884,2.225-2.225-.52,4.681H34.6Zm15.967,0v.887H45.149l-.52-4.681,2.225,2.225.407-4.885A7.971,7.971,0,0,1,50.565,52.339Zm-.887-15.968a6.218,6.218,0,0,1-6.211,6.21H41.694a6.218,6.218,0,0,1-6.21-6.211V30.009a2.647,2.647,0,0,0,.887.153,12.228,12.228,0,0,0,5.438-1.284l4.024-2.012a9.125,9.125,0,0,0,3.844,3.022Zm1.774-.887V31.935a1.774,1.774,0,0,1,0,3.548Z"/>
          <path id="Path_1329220" data-name="Path 1329220" d="M12.419,39.534a2.276,2.276,0,0,0-3.447-1.952L1.191,42.251a2.454,2.454,0,0,0,0,4.208l7.78,4.667a2.275,2.275,0,0,0,3.448-1.951V47.9H31.935v-7.1H12.419Zm17.742,3.046v3.548H10.645v3.046a.516.516,0,0,1-.76.43L2.1,44.938a.68.68,0,0,1,0-1.166L9.885,39.1a.5.5,0,0,1,.257-.071.5.5,0,0,1,.5.5v3.046Z"/>
        </g>
      </g>
    </g>
  </g>
</svg>
