<svg xmlns="http://www.w3.org/2000/svg" xmlns:xlink="http://www.w3.org/1999/xlink" width="98" height="97.998" viewBox="0 0 98 97.998">
  <defs>
    <clipPath id="clip-path">
      <rect id="Rectangle_412572" data-name="Rectangle 412572" width="57" height="55" transform="translate(1139.586 3878.606)" fill="#fff" stroke="#707070" stroke-width="1"/>
    </clipPath>
  </defs>
  <g id="Group_1206122" data-name="Group 1206122" transform="translate(-1119.086 -3857.106)">
    <g id="Group_1204751" data-name="Group 1204751" transform="translate(1119.086 3857.106)">
      <g id="Group_1204438" data-name="Group 1204438">
        <g id="Group_1204285" data-name="Group 1204285">
          <g id="Group_1204180" data-name="Group 1204180">
            <g id="Group_1204143" data-name="Group 1204143">
              <g id="Group_1188789" data-name="Group 1188789" transform="translate(0)">
                <path id="Path_1243039" data-name="Path 1243039" d="M41.05,0h0a41.05,41.05,0,0,1,0,82.1h0a41.05,41.05,0,0,1,0-82.1Z" transform="translate(7.951 7.949)" fill="#ffc63f"/>
                <rect id="Rectangle_400907" data-name="Rectangle 400907" width="88.438" height="88.437" rx="44.218" transform="translate(4.782 4.781)" fill="none"/>
                <g id="Group_1098742" data-name="Group 1098742" transform="translate(0)">
                  <g id="Rectangle_400898" data-name="Rectangle 400898" transform="translate(0)" fill="none" stroke="#fff" stroke-width="2" opacity="0.859">
                    <rect width="98" height="97.999" rx="48.999" stroke="none"/>
                    <rect x="1" y="1" width="96" height="95.999" rx="47.999" fill="none"/>
                  </g>
                  <g id="Rectangle_400907-2" data-name="Rectangle 400907" transform="translate(0)" fill="none" stroke="#0f1f33" stroke-linecap="round" stroke-width="2">
                    <rect width="98" height="97.999" rx="48.999" stroke="none"/>
                    <rect x="1" y="1" width="96" height="95.999" rx="47.999" fill="none"/>
                  </g>
                </g>
              </g>
            </g>
          </g>
        </g>
      </g>
    </g>
    <g id="Mask_Group_1099466" data-name="Mask Group 1099466" clip-path="url(#clip-path)">
      <g id="campaign_9622083" transform="translate(1139.584 3877.604)">
        <circle id="Ellipse_12878" data-name="Ellipse 12878" cx="16.927" cy="16.927" r="16.927" transform="translate(3.835 21.368)" fill="#ffa564"/>
        <circle id="Ellipse_12879" data-name="Ellipse 12879" cx="13.557" cy="13.557" r="13.557" transform="translate(7.205 24.738)" fill="#dbebff"/>
        <path id="Path_1328390" data-name="Path 1328390" d="M25.143,34.4l-4.8,1.811a2.1,2.1,0,1,0,2.271,3.025l2.53-4.836Z" fill="#057aff" fill-rule="evenodd"/>
        <path id="Path_1328391" data-name="Path 1328391" d="M16.121,19.563h4.64v8.055h-4.64Z" fill="#057aff"/>
        <g id="Group_1207394" data-name="Group 1207394">
          <path id="Path_1328392" data-name="Path 1328392" d="M38.306,9.948H34.783v10.4h3.522a5.315,5.315,0,0,0,0-10.4Z" fill="#ffe177" fill-rule="evenodd"/>
          <path id="Path_1328393" data-name="Path 1328393" d="M30,9.029v12.24H15.451a6.12,6.12,0,0,1,0-12.24Z" fill="#057aff" fill-rule="evenodd"/>
          <path id="Path_1328394" data-name="Path 1328394" d="M38.305,28.516c-4.775-.56-9.465-3.819-12.553-7.247V9.029C28.84,5.6,33.531,2.341,38.305,1.781Z" fill="#57a4ff" fill-rule="evenodd"/>
          <path id="Path_1328395" data-name="Path 1328395" d="M15.871,13.672h4.818v2.953H15.871a1.477,1.477,0,1,1,0-2.954Z" fill="#8ac9fe" fill-rule="evenodd"/>
          <path id="Path_1328396" data-name="Path 1328396" d="M28.463,10.656a.779.779,0,0,1,.041-1.1A19.9,19.9,0,0,1,34.421,5.4a.779.779,0,1,1,.664,1.41,18.418,18.418,0,0,0-5.52,3.888.778.778,0,0,1-1.1-.041Zm-13.3,4.493a.7.7,0,0,1,.7-.7H19.92v1.407H15.863A.7.7,0,0,1,15.161,15.149ZM20.7,17.41a.779.779,0,0,0,.78-.78V13.666a.78.78,0,0,0-.78-.78H15.863a2.262,2.262,0,0,0,0,4.524H20.7Zm18.383,1.867V11.019a4.536,4.536,0,0,1,0,8.258Zm-1.559,8.33V2.689A21.14,21.14,0,0,0,26.53,9.33V20.966a21.142,21.142,0,0,0,10.993,6.641ZM36.908,38.3A16.148,16.148,0,1,1,15.341,23.08v1.938a14.345,14.345,0,1,0,6.2-1.038V22.047h3.87a25.26,25.26,0,0,0,7.527,5.645,16.122,16.122,0,0,1,3.972,10.6ZM19.98,26.838V22.047H16.9v4.791Zm7.431,4.806a.779.779,0,0,0,1.1,0l1.811-1.812a12.732,12.732,0,0,1,3.188,7.683H30.947a.779.779,0,1,0,0,1.559h2.566a12.73,12.73,0,0,1-3.188,7.685l-1.811-1.812a.779.779,0,0,0-1.1,1.1l1.811,1.811a12.719,12.719,0,0,1-7.683,3.189V48.483a.779.779,0,1,0-1.559,0v2.567A12.719,12.719,0,0,1,12.3,47.86l1.811-1.811a.779.779,0,0,0-1.1-1.1l-1.811,1.811a12.724,12.724,0,0,1-3.188-7.683h2.566a.779.779,0,1,0,0-1.559H8.008a12.811,12.811,0,0,1,3.185-7.683l1.812,1.812a.779.779,0,0,0,1.1-1.1L12.3,28.729a12.7,12.7,0,0,1,3.045-2.007v.895a.779.779,0,0,0,.78.78h4.639a.779.779,0,0,0,.78-.78V25.542a12.734,12.734,0,0,1,7.683,3.188l-1.811,1.812a.778.778,0,0,0,0,1.1Zm-17.3-16.5a5.346,5.346,0,0,0,5.341,5.339h9.521V9.808H15.45a5.347,5.347,0,0,0-5.341,5.341Zm28.973-5.8V1.781a.779.779,0,0,0-.87-.774c-4.31.506-9.073,3.205-12.8,7.241H15.45a6.9,6.9,0,0,0-1.394,13.656A17.873,17.873,0,0,0,6.7,27.534,17.541,17.541,0,0,0,3.053,38.3a17.707,17.707,0,1,0,32.626-9.538,14.946,14.946,0,0,0,2.534.531.59.59,0,0,0,.091.006.779.779,0,0,0,.779-.779v-7.57a6.092,6.092,0,0,0,0-11.593Zm14.37,15.283a.781.781,0,0,1-1.065.286L47.3,21.98a.779.779,0,0,1,.779-1.35l5.092,2.939a.779.779,0,0,1,.285,1.064Zm.5-9.486a.78.78,0,0,1-.78.779H47.293a.779.779,0,0,1,0-1.559h5.879A.779.779,0,0,1,53.951,15.149ZM47.012,9.38A.78.78,0,0,1,47.3,8.316l5.091-2.94a.779.779,0,1,1,.78,1.35L48.076,9.665a.77.77,0,0,1-.388.1.778.778,0,0,1-.676-.39ZM21.92,38.873,23.5,35.849l-2.887,1.089a.782.782,0,0,1-.121.036,1.316,1.316,0,1,0,1.426,1.9Zm2.946-5.2-4.746,1.79A2.875,2.875,0,1,0,23.3,39.6l2.529-4.837a.779.779,0,0,0-.965-1.09Z" fill-rule="evenodd"/>
        </g>
      </g>
    </g>
  </g>
</svg>
