<svg xmlns="http://www.w3.org/2000/svg" xmlns:xlink="http://www.w3.org/1999/xlink" width="98" height="97.998" viewBox="0 0 98 97.998">
  <defs>
    <clipPath id="clip-path">
      <rect id="Rectangle_412572" data-name="Rectangle 412572" width="57" height="55" transform="translate(1139.586 3878.605)" fill="#fff" stroke="#707070" stroke-width="1"/>
    </clipPath>
  </defs>
  <g id="Group_1206122" data-name="Group 1206122" transform="translate(-1119.086 -3857.106)">
    <g id="Group_1204751" data-name="Group 1204751" transform="translate(1119.086 3857.106)">
      <g id="Group_1204438" data-name="Group 1204438">
        <g id="Group_1204285" data-name="Group 1204285">
          <g id="Group_1204180" data-name="Group 1204180">
            <g id="Group_1204143" data-name="Group 1204143">
              <g id="Group_1188789" data-name="Group 1188789" transform="translate(0)">
                <path id="Path_1243039" data-name="Path 1243039" d="M41.05,0h0a41.05,41.05,0,0,1,0,82.1h0a41.05,41.05,0,0,1,0-82.1Z" transform="translate(7.951 7.949)" fill="#ffc63f"/>
                <rect id="Rectangle_400907" data-name="Rectangle 400907" width="88.438" height="88.437" rx="44.218" transform="translate(4.782 4.781)" fill="none"/>
                <g id="Group_1098742" data-name="Group 1098742" transform="translate(0)">
                  <g id="Rectangle_400898" data-name="Rectangle 400898" transform="translate(0)" fill="none" stroke="#fff" stroke-width="2" opacity="0.859">
                    <rect width="98" height="97.999" rx="48.999" stroke="none"/>
                    <rect x="1" y="1" width="96" height="95.999" rx="47.999" fill="none"/>
                  </g>
                  <g id="Rectangle_400907-2" data-name="Rectangle 400907" transform="translate(0)" fill="none" stroke="#0f1f33" stroke-linecap="round" stroke-width="2">
                    <rect width="98" height="97.999" rx="48.999" stroke="none"/>
                    <rect x="1" y="1" width="96" height="95.999" rx="47.999" fill="none"/>
                  </g>
                </g>
              </g>
            </g>
          </g>
        </g>
      </g>
    </g>
    <g id="Mask_Group_1099512" data-name="Mask Group 1099512" clip-path="url(#clip-path)">
      <g id="website_4542202" transform="translate(1140.586 3878.605)">
        <g id="Group_1207539" data-name="Group 1207539">
          <path id="Path_1329086" data-name="Path 1329086" d="M51.541,54.2H3.459a.8.8,0,0,1-.8-.8V7.219H52.345V53.391a.8.8,0,0,1-.8.8Z" fill="#f9f3f1"/>
        </g>
        <g id="Group_1207540" data-name="Group 1207540">
          <path id="Path_1329087" data-name="Path 1329087" d="M52.345,7.219V53.391a.8.8,0,0,1-.8.8H49.4a.8.8,0,0,0,.8-.8V7.219Z" fill="#efe2dd"/>
        </g>
        <g id="Group_1207541" data-name="Group 1207541">
          <path id="Path_1329088" data-name="Path 1329088" d="M52.345,7.219H2.655V1.609a.8.8,0,0,1,.8-.8H51.541a.8.8,0,0,1,.8.8v5.61Z" fill="#8ac9fe"/>
        </g>
        <g id="Group_1207542" data-name="Group 1207542">
          <path id="Path_1329089" data-name="Path 1329089" d="M52.345,1.609V7.219H50.2V1.609a.8.8,0,0,0-.8-.8h2.146a.8.8,0,0,1,.8.8Z" fill="#60b7ff"/>
        </g>
        <g id="Group_1207549" data-name="Group 1207549">
          <g id="Group_1207543" data-name="Group 1207543">
            <path id="Path_1329090" data-name="Path 1329090" d="M47.025,32.852H7.975a1.28,1.28,0,0,1-1.28-1.28V17.5a1.28,1.28,0,0,1,1.28-1.28h39.05a1.28,1.28,0,0,1,1.28,1.28V31.572A1.28,1.28,0,0,1,47.025,32.852Z" fill="#b0e7c9"/>
          </g>
          <g id="Group_1207544" data-name="Group 1207544">
            <path id="Path_1329091" data-name="Path 1329091" d="M48.3,17.5V31.572a1.28,1.28,0,0,1-1.279,1.28H44.71a1.28,1.28,0,0,0,1.28-1.28V17.5a1.28,1.28,0,0,0-1.28-1.28h2.316A1.28,1.28,0,0,1,48.3,17.5Z" fill="#91deb6"/>
          </g>
          <g id="Group_1207545" data-name="Group 1207545">
            <path id="Path_1329092" data-name="Path 1329092" d="M32.952,31.193,42.215,32a2.07,2.07,0,0,1-.359,4.125l-3.6-.313L44.1,41.658a2.07,2.07,0,0,1-2.928,2.928l-5.847-5.847.313,3.6a2.07,2.07,0,0,1-4.125.359l-.805-9.262a2.07,2.07,0,0,1,2.242-2.242Z" fill="#fef0ae"/>
          </g>
          <g id="Group_1207546" data-name="Group 1207546">
            <path id="Path_1329093" data-name="Path 1329093" d="M41.319,33.742l-9.262-.806a2.067,2.067,0,0,0-1.352.357,2.069,2.069,0,0,1,2.248-2.1L42.215,32a2.07,2.07,0,0,1,.994,3.768,2.069,2.069,0,0,0-1.89-2.025Z" fill="#fee97d"/>
          </g>
          <g id="Group_1207547" data-name="Group 1207547">
            <path id="Path_1329094" data-name="Path 1329094" d="M44.178,44.507a2.047,2.047,0,0,1-.366.321,2.063,2.063,0,0,0-.605-1.426l-6.776-6.735a.5.5,0,0,1,.353-.856h1.472l5.81,5.81A2.106,2.106,0,0,1,44.178,44.507Z" fill="#fee97d"/>
          </g>
          <g id="Group_1207548" data-name="Group 1207548">
            <path id="Path_1329095" data-name="Path 1329095" d="M52.345,11.012a.8.8,0,0,0,.8-.8v-8.6A1.611,1.611,0,0,0,51.541,0H3.459A1.611,1.611,0,0,0,1.85,1.609V53.391A1.611,1.611,0,0,0,3.459,55H51.541a1.611,1.611,0,0,0,1.609-1.609V13.913a.8.8,0,1,0-1.61,0V53.39H3.46V8.024H51.54v2.184a.8.8,0,0,0,.8.8ZM3.46,6.414V1.61H51.54v4.8Z"/>
            <path id="Path_1329096" data-name="Path 1329096" d="M7.414,3.207a.8.8,0,1,0,.8.8A.8.8,0,0,0,7.414,3.207Z"/>
            <path id="Path_1329097" data-name="Path 1329097" d="M11.569,3.207a.8.8,0,1,0,.8.8A.8.8,0,0,0,11.569,3.207Z"/>
            <path id="Path_1329098" data-name="Path 1329098" d="M15.723,3.207a.8.8,0,1,0,.8.8A.8.8,0,0,0,15.723,3.207Z"/>
            <path id="Path_1329099" data-name="Path 1329099" d="M17.612,28.392a.973.973,0,0,0,.916.647h.007a.972.972,0,0,0,.914-.659c.011-.033,1.474-7.37,1.474-7.37a.8.8,0,0,0-1.579-.314l-.949,4.769L16.9,20.6a.8.8,0,0,0-1.558.077l-1.481,4.786-.946-4.782A.8.8,0,1,0,11.331,21s1.459,7.36,1.472,7.4a.973.973,0,0,0,.916.647h.007a.972.972,0,0,0,.914-.659l.007-.021,1.481-4.785L17.6,28.36l.011.032Z"/>
            <path id="Path_1329100" data-name="Path 1329100" d="M25.092,29.039H25.1a.972.972,0,0,0,.914-.659l.007-.021L27.5,23.574l1.474,4.786.011.032a.973.973,0,0,0,.916.647h.007a.972.972,0,0,0,.914-.659c.011-.033,1.474-7.37,1.474-7.37a.8.8,0,0,0-1.579-.314l-.949,4.769-1.5-4.862a.8.8,0,0,0-1.558.077L25.23,25.465l-.946-4.782A.8.8,0,1,0,22.7,21s1.459,7.36,1.472,7.4a.972.972,0,0,0,.916.647Z"/>
            <path id="Path_1329101" data-name="Path 1329101" d="M36.466,29.039h.007a.972.972,0,0,0,.914-.659l.007-.021,1.481-4.785,1.474,4.786.011.032a.973.973,0,0,0,.916.647h.007a.972.972,0,0,0,.914-.659c.011-.033,1.474-7.37,1.474-7.37A.8.8,0,0,0,42.09,20.7l-.949,4.769-1.5-4.862a.8.8,0,0,0-1.558.077L36.6,25.465l-.946-4.782A.8.8,0,1,0,34.079,21s1.459,7.36,1.472,7.4A.972.972,0,0,0,36.466,29.039Z"/>
            <path id="Path_1329102" data-name="Path 1329102" d="M49.11,31.572V17.5a2.087,2.087,0,0,0-2.085-2.085H7.975A2.087,2.087,0,0,0,5.89,17.5V31.572a2.087,2.087,0,0,0,2.085,2.085H13.35a.8.8,0,0,0,0-1.61H7.975a.476.476,0,0,1-.475-.475V17.5a.476.476,0,0,1,.475-.475h39.05a.476.476,0,0,1,.475.475V31.572a.476.476,0,0,1-.475.475H44.085a2.863,2.863,0,0,0-1.8-.851l-9.262-.805a2.873,2.873,0,0,0-2.858,1.656H17.075a.8.8,0,1,0,0,1.61H29.922l.792,9.11a2.875,2.875,0,0,0,5.729-.5l-.122-1.4,4.285,4.285a2.875,2.875,0,1,0,4.066-4.066L40.387,36.8l1.4.122a2.873,2.873,0,0,0,3.1-3.268h2.144a2.087,2.087,0,0,0,2.085-2.085Zm-5.814,2.6a1.266,1.266,0,0,1-1.37,1.151l-3.6-.313a.8.8,0,0,0-.639,1.371l5.847,5.847a1.266,1.266,0,0,1-1.79,1.79L35.9,38.169a.8.8,0,0,0-1.371.639l.313,3.6a1.266,1.266,0,0,1-2.156,1,1.249,1.249,0,0,1-.365-.784l-.805-9.262a1.266,1.266,0,0,1,1.37-1.371l9.262.805A1.267,1.267,0,0,1,43.3,34.171Z"/>
          </g>
        </g>
      </g>
    </g>
  </g>
</svg>
