<svg xmlns="http://www.w3.org/2000/svg" xmlns:xlink="http://www.w3.org/1999/xlink" width="98" height="97.999" viewBox="0 0 98 97.999">
  <defs>
    <clipPath id="clip-path">
      <rect id="Rectangle_412572" data-name="Rectangle 412572" width="57" height="55" transform="translate(1139.586 3878.606)" fill="#fff" stroke="#707070" stroke-width="1"/>
    </clipPath>
  </defs>
  <g id="Group_1206487" data-name="Group 1206487" transform="translate(-1119.086 -3857.106)">
    <g id="Group_1204751" data-name="Group 1204751" transform="translate(1119.086 3857.106)">
      <g id="Group_1204438" data-name="Group 1204438">
        <g id="Group_1204285" data-name="Group 1204285">
          <g id="Group_1204180" data-name="Group 1204180">
            <g id="Group_1204143" data-name="Group 1204143">
              <g id="Group_1188789" data-name="Group 1188789" transform="translate(0)">
                <path id="Path_1243039" data-name="Path 1243039" d="M41.05,0h0a41.05,41.05,0,0,1,0,82.1h0a41.05,41.05,0,0,1,0-82.1Z" transform="translate(7.951 7.949)" fill="#ffc63f"/>
                <rect id="Rectangle_400907" data-name="Rectangle 400907" width="88.438" height="88.437" rx="44.218" transform="translate(4.782 4.781)" fill="none"/>
                <g id="Group_1098742" data-name="Group 1098742" transform="translate(0)">
                  <g id="Rectangle_400898" data-name="Rectangle 400898" transform="translate(0)" fill="none" stroke="#fff" stroke-width="2" opacity="0.859">
                    <rect width="98" height="97.999" rx="48.999" stroke="none"/>
                    <rect x="1" y="1" width="96" height="95.999" rx="47.999" fill="none"/>
                  </g>
                  <g id="Rectangle_400907-2" data-name="Rectangle 400907" transform="translate(0)" fill="none" stroke="#0f1f33" stroke-linecap="round" stroke-width="2">
                    <rect width="98" height="97.999" rx="48.999" stroke="none"/>
                    <rect x="1" y="1" width="96" height="95.999" rx="47.999" fill="none"/>
                  </g>
                </g>
              </g>
            </g>
          </g>
        </g>
      </g>
    </g>
    <g id="Mask_Group_1099497" data-name="Mask Group 1099497" clip-path="url(#clip-path)">
      <g id="phone-call_4492602" transform="translate(1140.592 3878.606)">
        <g id="Colour">
          <path id="Path_1328907" data-name="Path 1328907" d="M44.132,49.19l-1.21,1.21L41.63,51.692l-.586.586c-3.1,3.1-12.371,3.711-27.207-11.134S-.394,17.035,2.7,13.938l.586-.586,1.292-1.292,1.21-1.21a2.633,2.633,0,0,1,3.72,0l6.79,6.8a2.605,2.605,0,0,1,0,3.711l-1.2,1.21-1.265,1.274-.027.027c-1.824,1.842-1.173,3.711,6.213,11.088S29.269,43,31.111,41.172l.027-.027,1.274-1.265,1.21-1.2a2.605,2.605,0,0,1,3.711,0l6.8,6.79a2.633,2.633,0,0,1,0,3.72Z" fill="#8be8d4"/>
          <path id="Path_1328908" data-name="Path 1328908" d="M54.065,3.665v20.16a2.749,2.749,0,0,1-2.749,2.749H38.487l-9.1,6.2a1.219,1.219,0,0,1-1.9-1.008v-5.2H23.825a2.749,2.749,0,0,1-2.749-2.749V3.665A2.749,2.749,0,0,1,23.825.916H51.316a2.749,2.749,0,0,1,2.749,2.749Z" fill="#4c97a8"/>
          <path id="Path_1328909" data-name="Path 1328909" d="M33.649,11.858l-1.677,1.888,1.677,1.888a4.77,4.77,0,0,1,1.173,3.189v2.254H27.491V18.822a4.77,4.77,0,0,1,1.173-3.189l1.677-1.888-1.677-1.888a4.77,4.77,0,0,1-1.173-3.189V6.415h7.331V8.669a4.77,4.77,0,0,1-1.173,3.189Z" fill="#e4f1ff"/>
        </g>
        <g id="icons">
          <path id="Path_1328910" data-name="Path 1328910" d="M37.981,38.029a3.574,3.574,0,0,0-5.012,0L30.5,40.5c-.541.544-.874.619-1.154.619-1.333,0-3.849-1.971-8.672-6.8s-6.8-7.338-6.8-8.672c0-.275.075-.611.623-1.155l2.46-2.474a3.6,3.6,0,0,0,0-5.014L10.157,10.2a3.574,3.574,0,0,0-5.013,0L2.058,13.293c-2.4,2.4-2.712,6.8-.838,11.773a.916.916,0,1,0,1.713-.647c-2.383-6.343-.28-9.127.422-9.83L3.94,14l9.22,9.22a3.4,3.4,0,0,0-1.129,2.418c0,1.972,1.849,4.49,7.339,9.97s8,7.34,9.971,7.34a3.407,3.407,0,0,0,2.418-1.128l9.22,9.22-.586.586c-1.615,1.615-4.715,1.962-8.3.93C26.991,51.087,20.9,46.918,14.486,40.5a57.907,57.907,0,0,1-9.9-12.53.916.916,0,1,0-1.606.883A59.705,59.705,0,0,0,13.19,41.792c6.728,6.733,12.921,10.949,18.4,12.528a15.612,15.612,0,0,0,4.327.669,7.909,7.909,0,0,0,5.773-2.065l3.084-3.084a3.61,3.61,0,0,0,0-5.015ZM6.443,11.5a1.729,1.729,0,0,1,2.418,0l6.794,6.794a1.717,1.717,0,0,1,0,2.421l-1.2,1.206L5.236,12.706ZM43.48,48.542l-1.2,1.2-9.217-9.217,1.21-1.205a1.725,1.725,0,0,1,2.417,0l6.794,6.794a1.741,1.741,0,0,1,0,2.424Z"/>
          <path id="Path_1328911" data-name="Path 1328911" d="M51.316,0H23.825A3.665,3.665,0,0,0,20.16,3.665v20.16a3.665,3.665,0,0,0,3.665,3.665h2.749V31.77a2.135,2.135,0,0,0,3.33,1.769l8.866-6.048H51.316a3.665,3.665,0,0,0,3.665-3.665V3.665A3.665,3.665,0,0,0,51.316,0Zm1.833,23.825a1.833,1.833,0,0,1-1.833,1.833H38.487a.916.916,0,0,0-.516.159l-9.094,6.2a.29.29,0,0,1-.312.015.285.285,0,0,1-.159-.261v-5.2a.916.916,0,0,0-.916-.916H23.825a1.833,1.833,0,0,1-1.833-1.833V3.665a1.833,1.833,0,0,1,1.833-1.833H51.316a1.833,1.833,0,0,1,1.833,1.833Z"/>
          <path id="Path_1328912" data-name="Path 1328912" d="M35.738,8.419V7.331h.916a.916.916,0,0,0,0-1.833h-11a.916.916,0,0,0,0,1.833h.916V8.419A4.892,4.892,0,0,0,28.016,11.9l1.845,1.845L28.016,15.59a4.892,4.892,0,0,0-1.441,3.482V20.16h-.916a.916.916,0,0,0,0,1.833h11a.916.916,0,0,0,0-1.833h-.916V19.072A4.892,4.892,0,0,0,34.3,15.59l-1.845-1.845L34.3,11.9a4.892,4.892,0,0,0,1.441-3.482ZM33.905,19.072V20.16h-5.5V19.072a3.073,3.073,0,0,1,.9-2.186l1.845-1.845L33,16.886a3.073,3.073,0,0,1,.9,2.186Zm0-10.654a3.073,3.073,0,0,1-.9,2.186L31.156,12.45l-1.845-1.845a3.073,3.073,0,0,1-.9-2.186V7.331h5.5Z"/>
          <path id="Path_1328913" data-name="Path 1328913" d="M50.4,5.5H40.32a.916.916,0,1,0,0,1.833H50.4a.916.916,0,0,0,0-1.833Z" fill="#373737"/>
          <path id="Path_1328914" data-name="Path 1328914" d="M50.4,9.164H40.32a.916.916,0,1,0,0,1.833H50.4a.916.916,0,0,0,0-1.833Z" fill="#373737"/>
          <path id="Path_1328915" data-name="Path 1328915" d="M50.4,12.829H45.818a.916.916,0,0,0,0,1.833H50.4a.916.916,0,0,0,0-1.833Z" fill="#373737"/>
          <path id="Path_1328916" data-name="Path 1328916" d="M40.32,14.662h1.833a.916.916,0,0,0,0-1.833H40.32a.916.916,0,1,0,0,1.833Z" fill="#373737"/>
          <path id="Path_1328917" data-name="Path 1328917" d="M50.4,16.495H40.32a.916.916,0,1,0,0,1.833H50.4a.916.916,0,0,0,0-1.833Z" fill="#373737"/>
          <path id="Path_1328918" data-name="Path 1328918" d="M46.735,20.16H40.32a.916.916,0,1,0,0,1.833h6.415a.916.916,0,1,0,0-1.833Z" fill="#373737"/>
        </g>
      </g>
    </g>
  </g>
</svg>
