<svg xmlns="http://www.w3.org/2000/svg" xmlns:xlink="http://www.w3.org/1999/xlink" width="98" height="97.999" viewBox="0 0 98 97.999">
  <defs>
    <clipPath id="clip-path">
      <rect id="Rectangle_412572" data-name="Rectangle 412572" width="57" height="55" transform="translate(1139.586 3878.606)" fill="#fff" stroke="#707070" stroke-width="1"/>
    </clipPath>
  </defs>
  <g id="Group_1207068" data-name="Group 1207068" transform="translate(-1119.086 -3857.106)">
    <g id="Group_1204751" data-name="Group 1204751" transform="translate(1119.086 3857.106)">
      <g id="Group_1204438" data-name="Group 1204438">
        <g id="Group_1204285" data-name="Group 1204285">
          <g id="Group_1204180" data-name="Group 1204180">
            <g id="Group_1204143" data-name="Group 1204143">
              <g id="Group_1188789" data-name="Group 1188789" transform="translate(0)">
                <path id="Path_1243039" data-name="Path 1243039" d="M41.05,0h0a41.05,41.05,0,0,1,0,82.1h0a41.05,41.05,0,0,1,0-82.1Z" transform="translate(7.951 7.949)" fill="#ffc63f"/>
                <rect id="Rectangle_400907" data-name="Rectangle 400907" width="88.438" height="88.437" rx="44.218" transform="translate(4.782 4.781)" fill="none"/>
                <g id="Group_1098742" data-name="Group 1098742" transform="translate(0)">
                  <g id="Rectangle_400898" data-name="Rectangle 400898" transform="translate(0)" fill="none" stroke="#fff" stroke-width="2" opacity="0.859">
                    <rect width="98" height="97.999" rx="48.999" stroke="none"/>
                    <rect x="1" y="1" width="96" height="95.999" rx="47.999" fill="none"/>
                  </g>
                  <g id="Rectangle_400907-2" data-name="Rectangle 400907" transform="translate(0)" fill="none" stroke="#0f1f33" stroke-linecap="round" stroke-width="2">
                    <rect width="98" height="97.999" rx="48.999" stroke="none"/>
                    <rect x="1" y="1" width="96" height="95.999" rx="47.999" fill="none"/>
                  </g>
                </g>
              </g>
            </g>
          </g>
        </g>
      </g>
    </g>
    <g id="Mask_Group_1099521" data-name="Mask Group 1099521" clip-path="url(#clip-path)">
      <g id="hashtag_9299714" transform="translate(1138.753 3876.772)">
        <path id="Path_1329248" data-name="Path 1329248" d="M45.375,55.917H13.292A2.292,2.292,0,0,1,11,53.625V5.042A2.292,2.292,0,0,1,13.292,2.75H45.375a2.292,2.292,0,0,1,2.292,2.292V53.625A2.292,2.292,0,0,1,45.375,55.917Z" fill="#2e4d5b"/>
        <path id="Path_1329249" data-name="Path 1329249" d="M11,6.417H47.667V52.25H11Z" fill="#73c2e6"/>
        <path id="Path_1329250" data-name="Path 1329250" d="M42.281,22.917h-25.9A1.719,1.719,0,0,1,14.667,21.2V11.8a1.719,1.719,0,0,1,1.719-1.719h25.9A1.719,1.719,0,0,1,44,11.8v9.4A1.719,1.719,0,0,1,42.281,22.917Z" fill="#e6bf73"/>
        <path id="Path_1329251" data-name="Path 1329251" d="M38.5,25.667l1.133,2.3,2.534.368-1.833,1.787.433,2.523L38.5,31.45l-2.266,1.191.433-2.523-1.833-1.787,2.534-.368Z" fill="#ffd480"/>
        <g id="Group_1207588" data-name="Group 1207588">
          <path id="Path_1329252" data-name="Path 1329252" d="M18.333,21.084a.917.917,0,0,1-.858-1.239l2.75-7.333a.917.917,0,0,1,1.717.644l-2.75,7.333a.917.917,0,0,1-.858.6Z" fill="#6c363d"/>
        </g>
        <g id="Group_1207589" data-name="Group 1207589">
          <path id="Path_1329253" data-name="Path 1329253" d="M22,21.084a.917.917,0,0,1-.858-1.239l2.75-7.333a.917.917,0,0,1,1.717.644l-2.75,7.333a.917.917,0,0,1-.858.6Z" fill="#6c363d"/>
        </g>
        <g id="Group_1207590" data-name="Group 1207590">
          <path id="Path_1329254" data-name="Path 1329254" d="M25.667,15.583H18.333a.917.917,0,0,1,0-1.833h7.333a.917.917,0,0,1,0,1.833Z" fill="#6c363d"/>
        </g>
        <g id="Group_1207591" data-name="Group 1207591">
          <path id="Path_1329255" data-name="Path 1329255" d="M24.75,19.25H17.417a.917.917,0,1,1,0-1.833H24.75a.917.917,0,1,1,0,1.833Z" fill="#6c363d"/>
        </g>
        <g id="Group_1207592" data-name="Group 1207592">
          <path id="Path_1329256" data-name="Path 1329256" d="M40.333,14.667H30.25a.917.917,0,0,1,0-1.833H40.333a.917.917,0,0,1,0,1.833Z" fill="#6c363d"/>
        </g>
        <g id="Group_1207593" data-name="Group 1207593">
          <path id="Path_1329257" data-name="Path 1329257" d="M40.333,17.417H28.417a.917.917,0,1,1,0-1.833H40.333a.917.917,0,0,1,0,1.833Z" fill="#6c363d"/>
        </g>
        <g id="Group_1207594" data-name="Group 1207594">
          <path id="Path_1329258" data-name="Path 1329258" d="M40.333,20.167H28.417a.917.917,0,1,1,0-1.833H40.333a.917.917,0,0,1,0,1.833Z" fill="#6c363d"/>
        </g>
        <path id="Path_1329259" data-name="Path 1329259" d="M42.281,48.583h-25.9a1.719,1.719,0,0,1-1.719-1.719v-9.4a1.719,1.719,0,0,1,1.719-1.719h25.9A1.719,1.719,0,0,1,44,37.469v9.4A1.719,1.719,0,0,1,42.281,48.583Z" fill="#e6bf73"/>
        <g id="Group_1207595" data-name="Group 1207595">
          <path id="Path_1329260" data-name="Path 1329260" d="M18.333,46.75a.917.917,0,0,1-.858-1.239l2.75-7.333a.917.917,0,0,1,1.717.644l-2.75,7.333A.917.917,0,0,1,18.333,46.75Z" fill="#6c363d"/>
        </g>
        <g id="Group_1207596" data-name="Group 1207596">
          <path id="Path_1329261" data-name="Path 1329261" d="M22,46.75a.917.917,0,0,1-.858-1.239l2.75-7.333a.917.917,0,0,1,1.717.644l-2.75,7.333A.917.917,0,0,1,22,46.75Z" fill="#6c363d"/>
        </g>
        <g id="Group_1207597" data-name="Group 1207597">
          <path id="Path_1329262" data-name="Path 1329262" d="M25.667,41.25H18.333a.917.917,0,1,1,0-1.833h7.333a.917.917,0,1,1,0,1.833Z" fill="#6c363d"/>
        </g>
        <g id="Group_1207598" data-name="Group 1207598">
          <path id="Path_1329263" data-name="Path 1329263" d="M24.75,44.917H17.417a.917.917,0,1,1,0-1.833H24.75a.917.917,0,1,1,0,1.833Z" fill="#6c363d"/>
        </g>
        <g id="Group_1207599" data-name="Group 1207599">
          <path id="Path_1329264" data-name="Path 1329264" d="M40.333,40.333H30.25a.917.917,0,0,1,0-1.833H40.333a.917.917,0,0,1,0,1.833Z" fill="#6c363d"/>
        </g>
        <g id="Group_1207600" data-name="Group 1207600">
          <path id="Path_1329265" data-name="Path 1329265" d="M40.333,43.083H28.417a.917.917,0,0,1,0-1.833H40.333a.917.917,0,0,1,0,1.833Z" fill="#6c363d"/>
        </g>
        <g id="Group_1207601" data-name="Group 1207601">
          <path id="Path_1329266" data-name="Path 1329266" d="M40.333,45.833H28.417a.917.917,0,0,1,0-1.833H40.333a.917.917,0,0,1,0,1.833Z" fill="#6c363d"/>
        </g>
        <path id="Path_1329267" data-name="Path 1329267" d="M23.827,27.124a1.963,1.963,0,0,0-2.707,0l-.677.653-.677-.653a1.963,1.963,0,0,0-2.707,0,1.8,1.8,0,0,0,0,2.611L20.444,33l3.383-3.264A1.8,1.8,0,0,0,23.827,27.124Z" fill="#e67383"/>
        <g id="Group_1207602" data-name="Group 1207602">
          <path id="Path_1329268" data-name="Path 1329268" d="M45.375,1.833H13.292a3.212,3.212,0,0,0-3.208,3.208V53.625a3.212,3.212,0,0,0,3.208,3.208H45.375a3.212,3.212,0,0,0,3.208-3.208V5.042A3.212,3.212,0,0,0,45.375,1.833Zm-33.458,5.5H46.75v44H11.917Zm1.375-3.667H45.375A1.377,1.377,0,0,1,46.75,5.042V5.5H11.917V5.042A1.377,1.377,0,0,1,13.292,3.667ZM45.375,55H13.292a1.377,1.377,0,0,1-1.375-1.375v-.458H46.75v.458A1.377,1.377,0,0,1,45.375,55Z"/>
          <path id="Path_1329269" data-name="Path 1329269" d="M42.281,9.167h-25.9A2.638,2.638,0,0,0,13.75,11.8v9.4a2.638,2.638,0,0,0,2.635,2.635h25.9A2.638,2.638,0,0,0,44.917,21.2V11.8A2.638,2.638,0,0,0,42.281,9.167Zm.8,12.031a.8.8,0,0,1-.8.8h-25.9a.8.8,0,0,1-.8-.8V11.8a.8.8,0,0,1,.8-.8h25.9a.8.8,0,0,1,.8.8Z"/>
          <path id="Path_1329270" data-name="Path 1329270" d="M43.038,28.047a.917.917,0,0,0-.74-.624l-2.057-.3-.92-1.864a.917.917,0,0,0-1.644,0l-.92,1.864-2.057.3a.917.917,0,0,0-.508,1.563l1.488,1.451-.351,2.048a.917.917,0,0,0,1.33.966l1.84-.967,1.84.967a.917.917,0,0,0,1.33-.966l-.351-2.048,1.488-1.451a.917.917,0,0,0,.232-.94Zm-3.345,1.414a.917.917,0,0,0-.264.811l.119.693-.622-.327a.917.917,0,0,0-.853,0l-.622.327.119-.693a.917.917,0,0,0-.264-.811l-.5-.491.7-.1a.917.917,0,0,0,.69-.5l.311-.63.311.63a.917.917,0,0,0,.69.5l.7.1Z"/>
          <path id="Path_1329271" data-name="Path 1329271" d="M25.667,13.75h-.282l.223-.595a.917.917,0,1,0-1.717-.644l-.464,1.238H21.719l.223-.595a.917.917,0,0,0-1.717-.644l-.464,1.238H18.333a.917.917,0,1,0,0,1.833h.74l-.687,1.833h-.969a.917.917,0,0,0,0,1.833H17.7l-.223.595a.917.917,0,1,0,1.717.644l.464-1.239h1.709l-.223.595a.917.917,0,1,0,1.717.644l.464-1.239H24.75a.917.917,0,1,0,0-1.833h-.74l.688-1.833h.969a.917.917,0,0,0,0-1.833Zm-3.614,3.667H20.344l.688-1.833H22.74Z"/>
          <path id="Path_1329272" data-name="Path 1329272" d="M40.333,12.833H30.25a.917.917,0,0,0,0,1.833H40.333a.917.917,0,0,0,0-1.833Z"/>
          <path id="Path_1329273" data-name="Path 1329273" d="M40.333,15.583H28.417a.917.917,0,1,0,0,1.833H40.333a.917.917,0,0,0,0-1.833Z"/>
          <path id="Path_1329274" data-name="Path 1329274" d="M40.333,18.333H28.417a.917.917,0,1,0,0,1.833H40.333a.917.917,0,0,0,0-1.833Z"/>
          <path id="Path_1329275" data-name="Path 1329275" d="M42.281,34.833h-25.9a2.638,2.638,0,0,0-2.635,2.635v9.4A2.638,2.638,0,0,0,16.385,49.5h25.9a2.638,2.638,0,0,0,2.635-2.635v-9.4A2.638,2.638,0,0,0,42.281,34.833Zm.8,12.031a.8.8,0,0,1-.8.8h-25.9a.8.8,0,0,1-.8-.8v-9.4a.8.8,0,0,1,.8-.8h25.9a.8.8,0,0,1,.8.8Z"/>
          <path id="Path_1329276" data-name="Path 1329276" d="M25.667,39.417h-.282l.223-.595a.917.917,0,1,0-1.717-.644l-.464,1.238H21.719l.223-.595a.917.917,0,1,0-1.717-.644l-.464,1.238H18.333a.917.917,0,1,0,0,1.833h.74l-.687,1.833h-.969a.917.917,0,1,0,0,1.833H17.7l-.223.595a.917.917,0,1,0,1.717.644l.464-1.239h1.709l-.223.595a.917.917,0,1,0,1.717.644l.464-1.239H24.75a.917.917,0,0,0,0-1.833h-.74L24.7,41.25h.969a.917.917,0,1,0,0-1.833Zm-3.614,3.667H20.344l.688-1.833H22.74Z"/>
          <path id="Path_1329277" data-name="Path 1329277" d="M40.333,38.5H30.25a.917.917,0,0,0,0,1.833H40.333a.917.917,0,0,0,0-1.833Z"/>
          <path id="Path_1329278" data-name="Path 1329278" d="M40.333,41.25H28.417a.917.917,0,0,0,0,1.833H40.333a.917.917,0,0,0,0-1.833Z"/>
          <path id="Path_1329279" data-name="Path 1329279" d="M40.333,44H28.417a.917.917,0,0,0,0,1.833H40.333a.917.917,0,0,0,0-1.833Z"/>
          <path id="Path_1329280" data-name="Path 1329280" d="M19.807,33.66a.917.917,0,0,0,1.273,0L24.463,30.4a2.717,2.717,0,0,0,0-3.931,2.89,2.89,0,0,0-3.979,0l-.04.039-.04-.039a2.89,2.89,0,0,0-3.979,0,2.718,2.718,0,0,0,0,3.931ZM17.7,27.784a1.041,1.041,0,0,1,1.434,0l.677.653a.917.917,0,0,0,1.273,0l.677-.653a1.041,1.041,0,0,1,1.434,0h0a.885.885,0,0,1,0,1.292l-2.747,2.65L17.7,29.076a.885.885,0,0,1,0-1.292Z"/>
        </g>
      </g>
    </g>
  </g>
</svg>
