<svg xmlns="http://www.w3.org/2000/svg" xmlns:xlink="http://www.w3.org/1999/xlink" width="98" height="97.999" viewBox="0 0 98 97.999">
  <defs>
    <clipPath id="clip-path">
      <rect id="Rectangle_412572" data-name="Rectangle 412572" width="57" height="55" transform="translate(1139.586 3878.606)" fill="#fff" stroke="#707070" stroke-width="1"/>
    </clipPath>
  </defs>
  <g id="Group_1204759" data-name="Group 1204759" transform="translate(-1119.086 -3857.106)">
    <g id="Group_1204751" data-name="Group 1204751" transform="translate(1119.086 3857.106)">
      <g id="Group_1204438" data-name="Group 1204438">
        <g id="Group_1204285" data-name="Group 1204285">
          <g id="Group_1204180" data-name="Group 1204180">
            <g id="Group_1204143" data-name="Group 1204143">
              <g id="Group_1188789" data-name="Group 1188789" transform="translate(0)">
                <path id="Path_1243039" data-name="Path 1243039" d="M41.05,0h0a41.05,41.05,0,0,1,0,82.1h0a41.05,41.05,0,0,1,0-82.1Z" transform="translate(7.951 7.949)" fill="#ffc63f"/>
                <rect id="Rectangle_400907" data-name="Rectangle 400907" width="88.438" height="88.437" rx="44.218" transform="translate(4.782 4.781)" fill="none"/>
                <g id="Group_1098742" data-name="Group 1098742" transform="translate(0)">
                  <g id="Rectangle_400898" data-name="Rectangle 400898" transform="translate(0)" fill="none" stroke="#fff" stroke-width="2" opacity="0.859">
                    <rect width="98" height="97.999" rx="48.999" stroke="none"/>
                    <rect x="1" y="1" width="96" height="95.999" rx="47.999" fill="none"/>
                  </g>
                  <g id="Rectangle_400907-2" data-name="Rectangle 400907" transform="translate(0)" fill="none" stroke="#0f1f33" stroke-linecap="round" stroke-width="2">
                    <rect width="98" height="97.999" rx="48.999" stroke="none"/>
                    <rect x="1" y="1" width="96" height="95.999" rx="47.999" fill="none"/>
                  </g>
                </g>
              </g>
            </g>
          </g>
        </g>
      </g>
    </g>
    <g id="Mask_Group_1099470" data-name="Mask Group 1099470" clip-path="url(#clip-path)">
      <g id="plan_5655869" transform="translate(1138.428 3876.447)">
        <path id="Path_1328423" data-name="Path 1328423" d="M29.928,46.64H21.878l.554-2.662h6.943Z" fill="#6d9aa4"/>
        <path id="Path_1328424" data-name="Path 1328424" d="M24.169,43.978l-.554,2.662H21.878l.554-2.662Z" fill="#5c8389"/>
        <g id="Group_1207410" data-name="Group 1207410">
          <path id="Path_1328425" data-name="Path 1328425" d="M25.368,29.858l-2.937,14.12-.554,2.662-.613,2.945-.257,1.236H17.5l4.489-21.573a11.38,11.38,0,0,0,1.257.351,11.494,11.494,0,0,0,2.118.258Z" fill="#9cdcea"/>
          <path id="Path_1328426" data-name="Path 1328426" d="M34.3,50.821H30.8l-.257-1.236-.613-2.945-.554-2.662-2.943-14.14a11.28,11.28,0,0,0,3.352-.728l4.261,20.475Z" fill="#9cdcea"/>
        </g>
        <path id="Path_1328427" data-name="Path 1328427" d="M25.7,6.913a11.475,11.475,0,0,0-.331,22.945c.353.01.712,0,1.064-.02a11.316,11.316,0,0,0,3.352-.728A11.474,11.474,0,0,0,25.7,6.913Zm3.231,18.1a7.371,7.371,0,1,1,4.142-6.624A7.326,7.326,0,0,1,28.931,25.013Z" fill="#bb9cea"/>
        <path id="Path_1328428" data-name="Path 1328428" d="M25.7,11.015a7.371,7.371,0,1,0,7.373,7.373A7.381,7.381,0,0,0,25.7,11.015Zm2.612,11.022a4.486,4.486,0,0,1-4.867.233h0a4.491,4.491,0,1,1,4.867-.232Z" fill="#9ceaac"/>
        <path id="Path_1328429" data-name="Path 1328429" d="M19.77,18.042a14.539,14.539,0,0,1,.893-5.034,7.36,7.36,0,0,0,.448,11.145,14.517,14.517,0,0,1-1.342-6.111Z" fill="#8ace95"/>
        <path id="Path_1328430" data-name="Path 1328430" d="M30.19,18.388a4.49,4.49,0,0,1-6.745,3.882h0a4.49,4.49,0,1,1,6.745-3.881Z" fill="#ea9cc5"/>
        <g id="Group_1207411" data-name="Group 1207411">
          <path id="Path_1328431" data-name="Path 1328431" d="M10.61,13.02,7.273,11.858l.019-3.378,3.337,1.162Z" fill="#cfea9c"/>
          <path id="Path_1328432" data-name="Path 1328432" d="M10.61,13.02,8.527,15.678,5.19,14.518l2.083-2.66Z" fill="#cfea9c"/>
          <path id="Path_1328433" data-name="Path 1328433" d="M3.937,10.7l.019-3.378L7.292,8.479l-.019,3.378Z" fill="#cfea9c"/>
          <path id="Path_1328434" data-name="Path 1328434" d="M5.19,14.518,1.854,13.357,3.937,10.7l3.337,1.161Z" fill="#cfea9c"/>
        </g>
        <path id="Path_1328435" data-name="Path 1328435" d="M54.171,32.879V44.123A4.409,4.409,0,0,0,47.667,48a4.413,4.413,0,0,0,1.023,2.823H36.718V28.277H49.568Z" fill="#eae09c"/>
        <path id="Path_1328436" data-name="Path 1328436" d="M54.171,32.88h-4.6v-4.6Z" fill="#a49d6d"/>
        <path id="Path_1328437" data-name="Path 1328437" d="M56.476,48a4.4,4.4,0,1,1-2.305-3.875A4.4,4.4,0,0,1,56.476,48Z" fill="#9ceaac"/>
        <path id="Path_1328438" data-name="Path 1328438" d="M53.172,52.265a4.405,4.405,0,1,1,0-8.533,4.406,4.406,0,0,0,0,8.533Z" fill="#8ace95"/>
        <g id="Group_1207413" data-name="Group 1207413">
          <path id="Path_1328439" data-name="Path 1328439" d="M25.8,29.861c-.145,0-.288,0-.432,0a11.34,11.34,0,0,1-1.9-.213,11.059,11.059,0,0,1-1.4-.371c-.027-.008-.053-.016-.079-.025A11.475,11.475,0,0,1,24.885,6.942a14.663,14.663,0,0,0-4.222,6.066,7.36,7.36,0,0,0,.448,11.145A14.667,14.667,0,0,0,25.8,29.861Z" fill="#a28ace"/>
          <g id="Group_1207412" data-name="Group 1207412">
            <path id="Path_1328440" data-name="Path 1328440" d="M19.7,49.585h1.57l-.257,1.236H17.5l4.489-21.573c.025.009.052.017.079.025a11.059,11.059,0,0,0,1.4.371L19.347,49.238s-.116.348.348.348Z" fill="#8ac4ce"/>
            <path id="Path_1328441" data-name="Path 1328441" d="M34.045,49.585h-3.5l.257,1.236h3.5Z" fill="#8ac4ce"/>
          </g>
        </g>
        <path id="Path_1328442" data-name="Path 1328442" d="M48.69,50.821H36.718V28.277h3.714V48.195s-.116.7.927.7h6.4a4.357,4.357,0,0,0,.931,1.931Z" fill="#cec48a"/>
        <g id="Group_1207414" data-name="Group 1207414">
          <path id="Path_1328443" data-name="Path 1328443" d="M40.546,35.723h1.045a.7.7,0,0,1,0,1.39H40.517a.7.7,0,0,1-.7-.715A.714.714,0,0,1,40.546,35.723Z" fill="#191113"/>
          <path id="Path_1328444" data-name="Path 1328444" d="M51.066,36.44a.715.715,0,0,1-.724.673h-4.58a.7.7,0,1,1,0-1.39h4.609A.7.7,0,0,1,51.066,36.44Z" fill="#191113"/>
          <path id="Path_1328445" data-name="Path 1328445" d="M51.066,40a.694.694,0,0,1-.7.7H40.517a.7.7,0,1,1,0-1.39h9.853a.7.7,0,0,1,.7.7Z" fill="#191113"/>
          <path id="Path_1328446" data-name="Path 1328446" d="M47.775,43.587a.7.7,0,0,1-.7.7H40.517a.7.7,0,0,1,0-1.39H47.08A.7.7,0,0,1,47.775,43.587Z" fill="#191113"/>
          <path id="Path_1328447" data-name="Path 1328447" d="M45.59,47.172a.7.7,0,0,1-.7.7H40.517a.7.7,0,0,1,0-1.39H44.9A.7.7,0,0,1,45.59,47.172Z" fill="#191113"/>
          <path id="Path_1328448" data-name="Path 1328448" d="M47.458,32.811a.7.7,0,0,1-.7.7H40.517a.7.7,0,1,1,0-1.39h6.246A.7.7,0,0,1,47.458,32.811Z" fill="#191113"/>
          <path id="Path_1328449" data-name="Path 1328449" d="M57.954,43.284a.693.693,0,0,0-.982,0l-1.2,1.2a5.11,5.11,0,0,0-.9-.755V32.88a.7.7,0,0,0-.2-.492l-4.6-4.6a.709.709,0,0,0-.491-.2H46.18v-9.23a.7.7,0,0,0-.7-.7H37.846A12.168,12.168,0,0,0,14.5,13.636l-3.188-1.11.015-2.881a.7.7,0,0,0-.467-.66L4.183,6.663a.693.693,0,0,0-.923.652l-.017,3.141L1.307,12.928a.693.693,0,0,0,.319,1.084L8.3,16.335a.7.7,0,0,0,.775-.228l1.777-2.268,3.176,1.105a12.126,12.126,0,0,0-.5,3.445,12.294,12.294,0,0,0,.125,1.747.7.7,0,0,0,.688.6h0a.7.7,0,0,0,.686-.8A10.774,10.774,0,0,1,15.34,15.4l2.567.893A8.068,8.068,0,0,0,25.7,26.455a7.96,7.96,0,0,0,3.536-.818,8.066,8.066,0,1,0-10.85-10.648l-2.573-.9A10.779,10.779,0,1,1,29.533,28.462a10.627,10.627,0,0,1-3.149.684c-.329.022-.662.029-1,.019a10.774,10.774,0,0,1-9.331-5.956.695.695,0,1,0-1.243.62,12.189,12.189,0,0,0,6.378,5.863L16.823,50.68a.693.693,0,0,0,.68.836h3.5a.694.694,0,0,0,.68-.553l.755-3.629h6.92l.755,3.629a.694.694,0,0,0,.68.553h3.5a.695.695,0,0,0,.68-.836l-4.4-21.147a12.175,12.175,0,0,0,7.267-10.486h6.941v8.535H36.717a.7.7,0,0,0-.7.7V50.821a.7.7,0,0,0,.7.7H48.38a5.1,5.1,0,0,0,8.208-5.883l1.366-1.367a.693.693,0,0,0,0-.982ZM4.645,8.3l1.949.678-.009,1.909L4.634,10.2Zm.3,5.4L3,13.02l1.177-1.5,1.949.678Zm3.337,1.162L6.337,14.18l1.177-1.5,1.949.678ZM9.92,12.043l-1.949-.678.009-1.909,1.949.678Zm9.3,4.711,1.418.492a5.173,5.173,0,0,0,2.107,5.4v.02a5.416,5.416,0,0,0,2.95.9,5.144,5.144,0,0,0,3.018-.971,5.184,5.184,0,1,0-7.59-6.659l-1.423-.5a6.677,6.677,0,1,1,8.92,8.94h0a6.677,6.677,0,0,1-5.516.153,6.679,6.679,0,0,1-3.885-7.789Zm6.628.834-3.389-1.179a3.8,3.8,0,1,1-.5,1.3L25.4,18.9a.695.695,0,1,0,.456-1.313Zm.05,13.118L28.52,43.284H23.285Zm-5.46,19.42H18.359l4.159-19.99a12.425,12.425,0,0,0,2.007.366Zm2.29-4.181L23,44.674h5.812l.264,1.271Zm10.714,4.181H31.364l-4.093-19.67a12.437,12.437,0,0,0,1.993-.431Zm16.816-20.17,2.229,2.229H50.263ZM37.414,50.126V28.973H48.873V32.88a.7.7,0,0,0,.7.7h3.908v9.52a5.376,5.376,0,0,0-1.4-.2,5.105,5.105,0,0,0-5.1,5.1,5.165,5.165,0,0,0,.465,2.128Zm14.658,1.583a3.713,3.713,0,1,1,2.713-6.239l-2.712,2.712L50.593,46.7a.7.7,0,0,0-.984.982l1.972,1.973a.7.7,0,0,0,.984,0l2.973-2.974a3.705,3.705,0,0,1-3.466,5.026Z" fill="#191113"/>
        </g>
      </g>
    </g>
  </g>
</svg>
