<svg xmlns="http://www.w3.org/2000/svg" width="66.345" height="66.344" viewBox="0 0 66.345 66.344">
  <g id="Group_1206303" data-name="Group 1206303" transform="translate(-1021.691 -3169)">
    <g id="Group_1200255" data-name="Group 1200255" transform="translate(1021.691 3169)">
      <g id="Group_1187152" data-name="Group 1187152">
        <g id="Group_1185946" data-name="Group 1185946">
          <g id="Group_1184280" data-name="Group 1184280">
            <g id="Group_1182168" data-name="Group 1182168">
              <g id="Group_1178877" data-name="Group 1178877">
                <g id="Group_1111311" data-name="Group 1111311">
                  <g id="Group_1098742" data-name="Group 1098742" transform="translate(0 0)">
                    <g id="Rectangle_400898" data-name="Rectangle 400898" transform="translate(0 0)" fill="#c3abf2" stroke="#8777a8" stroke-width="0.8" opacity="0.859">
                      <rect width="66.345" height="66.345" rx="33.172" stroke="none"/>
                      <rect x="0.4" y="0.4" width="65.545" height="65.545" rx="32.772" fill="none"/>
                    </g>
                    <g id="Rectangle_400907" data-name="Rectangle 400907" transform="translate(0 0)" fill="none" stroke="#8777a8" stroke-width="0.8">
                      <rect width="66.345" height="66.345" rx="33.172" stroke="none"/>
                      <rect x="0.4" y="0.4" width="65.545" height="65.545" rx="32.772" fill="none"/>
                    </g>
                  </g>
                </g>
              </g>
            </g>
          </g>
        </g>
      </g>
    </g>
    <g id="online-store_7303495" transform="translate(1035.596 3179.428)">
      <path id="Path_1327034" data-name="Path 1327034" d="M46.638,33.73V28.207a6.176,6.176,0,0,0,2.593-2.764,6.508,6.508,0,0,0,.012-5.59L46.638,14.33v-.887A5.447,5.447,0,0,0,41.194,8H22.724a5.447,5.447,0,0,0-5.443,5.443v.881l-2.611,5.5a6.564,6.564,0,0,0,.122,5.822,6.188,6.188,0,0,0,2.489,2.569V33.73a4.888,4.888,0,0,0,0,9.7v5a5.447,5.447,0,0,0,5.443,5.443h18.47a5.447,5.447,0,0,0,5.443-5.443v-5a4.888,4.888,0,0,0,0-9.7Zm-1.5-18.28,2.446,5.186a4.671,4.671,0,0,1-.012,4.018A4.232,4.232,0,0,1,44.736,27a4.712,4.712,0,0,1-1.174.141,4.886,4.886,0,0,1-4.881-4.881c0-.018-.006-.031-.006-.049v-.037l-.63-6.728ZM34.956,9.835l-.251.612H29.495l-.257-.612Zm-15.84,3.608a3.615,3.615,0,0,1,3.608-3.608h4.52l.8,1.89a.923.923,0,0,0,.844.557h6.434a.92.92,0,0,0,.85-.569l.746-1.835a.388.388,0,0,1,.012-.043h4.263A3.615,3.615,0,0,1,44.8,13.443v.171H19.116ZM36.84,22.287a4.887,4.887,0,0,1-9.773,0l.636-6.838h8.5ZM16.413,24.794a4.737,4.737,0,0,1-.086-4.189l2.452-5.156h7.082l-.63,6.728v.086a4.9,4.9,0,0,1-4.9,4.881,5.017,5.017,0,0,1-.807-.061,4.31,4.31,0,0,1-3.113-2.287Zm1.48,16.843a3.058,3.058,0,1,1,3.058-3.058A3.059,3.059,0,0,1,17.893,41.638ZM44.8,48.426a3.615,3.615,0,0,1-3.608,3.608H22.724a3.615,3.615,0,0,1-3.608-3.608V43.313a4.888,4.888,0,0,0,0-9.467V28.861a.739.739,0,0,0,.11.031,7.434,7.434,0,0,0,1.107.086,6.745,6.745,0,0,0,5.816-3.333,6.725,6.725,0,0,0,11.614,0,6.715,6.715,0,0,0,5.8,3.333,7,7,0,0,0,1.242-.122v4.991a4.888,4.888,0,0,0,0,9.467Zm1.223-6.789a3.058,3.058,0,1,1,3.058-3.058A3.059,3.059,0,0,1,46.026,41.638Z" transform="translate(-13 -8)"/>
      <circle id="Ellipse_12528" data-name="Ellipse 12528" cx="3.042" cy="3.042" r="3.042" transform="translate(30.257 27.714)" fill="#efef35"/>
      <circle id="Ellipse_12529" data-name="Ellipse 12529" cx="3.042" cy="3.042" r="3.042" transform="translate(1.579 27.714)" fill="#efef35"/>
      <g id="Group_1204472" data-name="Group 1204472" transform="translate(2.88 7.449)">
        <path id="Path_1327035" data-name="Path 1327035" d="M63.479,29.384a4.232,4.232,0,0,1-2.838,2.349,4.712,4.712,0,0,1-1.174.141,4.886,4.886,0,0,1-4.881-4.881c0-.018-.006-.031-.006-.049v-.037l-.63-6.728h7.094l2.446,5.186a4.671,4.671,0,0,1-.012,4.018Z" transform="translate(-31.786 -20.18)" fill="#ea3c1f"/>
        <path id="Path_1327036" data-name="Path 1327036" d="M45.773,27.018a4.887,4.887,0,0,1-9.773,0l.636-6.838h8.5Z" transform="translate(-24.814 -20.18)" fill="#ea3c1f"/>
        <path id="Path_1327037" data-name="Path 1327037" d="M27.691,20.18l-.63,6.728v.086a4.9,4.9,0,0,1-4.9,4.881,5.018,5.018,0,0,1-.807-.061,4.31,4.31,0,0,1-3.113-2.287,4.737,4.737,0,0,1-.086-4.189l2.452-5.156Z" transform="translate(-17.71 -20.18)" fill="#ea3c1f"/>
      </g>
      <path id="Path_1327038" data-name="Path 1327038" d="M45.268,11l-.251.612H39.807L39.55,11Z" transform="translate(-23.312 -9.165)" fill="#84e9f4"/>
      <path id="Path_1327039" data-name="Path 1327039" d="M48.687,14.608v.171H23v-.171A3.615,3.615,0,0,1,26.608,11h4.52l.8,1.89a.923.923,0,0,0,.844.557h6.434a.92.92,0,0,0,.85-.569l.746-1.835A.388.388,0,0,1,40.816,11h4.263a3.615,3.615,0,0,1,3.608,3.608Z" transform="translate(-16.884 -9.165)" fill="#84e9f4"/>
      <path id="Path_1327040" data-name="Path 1327040" d="M45.017,49.785a4.9,4.9,0,0,0,3.67,4.734v5.113a3.615,3.615,0,0,1-3.608,3.608H26.608A3.615,3.615,0,0,1,23,59.632V54.519a4.888,4.888,0,0,0,0-9.467V40.067a.739.739,0,0,0,.11.031,7.434,7.434,0,0,0,1.107.086,6.745,6.745,0,0,0,5.816-3.333,6.725,6.725,0,0,0,11.614,0,6.715,6.715,0,0,0,5.8,3.333,7,7,0,0,0,1.242-.122v4.991A4.9,4.9,0,0,0,45.017,49.785Z" transform="translate(-16.884 -19.206)" fill="#84e9f4"/>
      <path id="Path_1327041" data-name="Path 1327041" d="M21.917,31.835h3.058a.917.917,0,0,0,0-1.835H21.917a.917.917,0,0,0,0,1.835Z" transform="translate(-16.107 -16.545)"/>
      <path id="Path_1327042" data-name="Path 1327042" d="M40.917,31.835h3.058a.917.917,0,0,0,0-1.835H40.917a.917.917,0,1,0,0,1.835Z" transform="translate(-23.487 -16.545)"/>
      <path id="Path_1327043" data-name="Path 1327043" d="M59.917,30a.917.917,0,1,0,0,1.835h3.058a.917.917,0,0,0,0-1.835Z" transform="translate(-30.867 -16.545)"/>
      <path id="Path_1327044" data-name="Path 1327044" d="M44.658,48.673H43.172v-.612a4.281,4.281,0,0,0-8.562,0v.612H33.117A2.182,2.182,0,0,0,30.94,50.85V61.779a2.183,2.183,0,0,0,2.177,2.183H44.658a2.185,2.185,0,0,0,2.183-2.183V50.85A2.183,2.183,0,0,0,44.658,48.673Zm-8.214-.612a2.446,2.446,0,1,1,4.893,0v.612H36.444Zm8.562,13.718a.352.352,0,0,1-.349.349H33.117a.347.347,0,0,1-.342-.349V50.85a.342.342,0,0,1,.342-.342H44.658a.347.347,0,0,1,.349.342Z" transform="translate(-19.968 -21.897)"/>
      <path id="Path_1327045" data-name="Path 1327045" d="M46.172,55.122V66.052a.352.352,0,0,1-.349.349H34.282a.347.347,0,0,1-.342-.349V55.122a.342.342,0,0,1,.342-.342H45.823a.347.347,0,0,1,.349.342Z" transform="translate(-21.133 -26.17)" fill="#efef35"/>
      <path id="Path_1327046" data-name="Path 1327046" d="M38.141,60.281A2.141,2.141,0,1,0,36,58.141,2.143,2.143,0,0,0,38.141,60.281Zm0-2.446a.306.306,0,1,1-.306.306A.306.306,0,0,1,38.141,57.835Z" transform="translate(-21.933 -26.644)"/>
      <path id="Path_1327047" data-name="Path 1327047" d="M47.141,65a2.141,2.141,0,1,0,2.141,2.141A2.143,2.143,0,0,0,47.141,65Zm0,2.446a.306.306,0,1,1,.306-.306A.306.306,0,0,1,47.141,67.446Z" transform="translate(-25.429 -30.139)"/>
      <path id="Path_1327048" data-name="Path 1327048" d="M44.76,56.193a.916.916,0,0,0-1.287.16L37.13,64.506a.917.917,0,0,0,1.448,1.127l6.343-8.153a.917.917,0,0,0-.161-1.287Z" transform="translate(-22.297 -26.643)"/>
      <path id="Path_1327049" data-name="Path 1327049" d="M20.812,58.389a.917.917,0,0,0,0-1.3l-.787-.787.867-.867a.917.917,0,1,0-1.3-1.3l-1.516,1.516a.917.917,0,0,0,0,1.3l1.435,1.435a.917.917,0,0,0,1.3,0Z" transform="translate(-14.868 -25.817)"/>
      <path id="Path_1327050" data-name="Path 1327050" d="M66.277,54.141a.917.917,0,0,0-1.3,1.3l.867.867-.787.787a.917.917,0,0,0,1.3,1.3l1.435-1.435a.917.917,0,0,0,0-1.3Z" transform="translate(-33.085 -25.817)"/>
    </g>
  </g>
</svg>
