<svg xmlns="http://www.w3.org/2000/svg" xmlns:xlink="http://www.w3.org/1999/xlink" width="98" height="97.999" viewBox="0 0 98 97.999">
  <defs>
    <clipPath id="clip-path">
      <rect id="Rectangle_412572" data-name="Rectangle 412572" width="57" height="55" transform="translate(1139.586 3878.606)" fill="#fff" stroke="#707070" stroke-width="1"/>
    </clipPath>
  </defs>
  <g id="Group_1206436" data-name="Group 1206436" transform="translate(-1119.086 -3857.106)">
    <g id="Group_1204751" data-name="Group 1204751" transform="translate(1119.086 3857.106)">
      <g id="Group_1204438" data-name="Group 1204438">
        <g id="Group_1204285" data-name="Group 1204285">
          <g id="Group_1204180" data-name="Group 1204180">
            <g id="Group_1204143" data-name="Group 1204143">
              <g id="Group_1188789" data-name="Group 1188789" transform="translate(0)">
                <path id="Path_1243039" data-name="Path 1243039" d="M41.05,0h0a41.05,41.05,0,0,1,0,82.1h0a41.05,41.05,0,0,1,0-82.1Z" transform="translate(7.951 7.949)" fill="#ffc63f"/>
                <rect id="Rectangle_400907" data-name="Rectangle 400907" width="88.438" height="88.437" rx="44.218" transform="translate(4.782 4.781)" fill="none"/>
                <g id="Group_1098742" data-name="Group 1098742" transform="translate(0)">
                  <g id="Rectangle_400898" data-name="Rectangle 400898" transform="translate(0)" fill="none" stroke="#fff" stroke-width="2" opacity="0.859">
                    <rect width="98" height="97.999" rx="48.999" stroke="none"/>
                    <rect x="1" y="1" width="96" height="95.999" rx="47.999" fill="none"/>
                  </g>
                  <g id="Rectangle_400907-2" data-name="Rectangle 400907" transform="translate(0)" fill="none" stroke="#0f1f33" stroke-linecap="round" stroke-width="2">
                    <rect width="98" height="97.999" rx="48.999" stroke="none"/>
                    <rect x="1" y="1" width="96" height="95.999" rx="47.999" fill="none"/>
                  </g>
                </g>
              </g>
            </g>
          </g>
        </g>
      </g>
    </g>
    <g id="Mask_Group_1099476" data-name="Mask Group 1099476" clip-path="url(#clip-path)">
      <g id="customer_3505311" transform="translate(1139.699 3877.719)">
        <g id="Group_1207438" data-name="Group 1207438">
          <g id="Group_1207416" data-name="Group 1207416">
            <path id="Path_1328499" data-name="Path 1328499" d="M47.921,40.15l3.531,11.3H47.016L43.9,41.507a13.194,13.194,0,0,0,4.019-1.357Z" fill="#b27946"/>
          </g>
          <g id="Group_1207417" data-name="Group 1207417">
            <path id="Path_1328500" data-name="Path 1328500" d="M39.485,41.507l-3.114,9.944H31.935l3.531-11.3A13.194,13.194,0,0,0,39.485,41.507Z" fill="#b27946"/>
          </g>
          <g id="Group_1207418" data-name="Group 1207418">
            <path id="Path_1328501" data-name="Path 1328501" d="M43.9,41.507a13.189,13.189,0,0,1-4.418,0,13.194,13.194,0,0,1-4.019-1.357v-.009A13.306,13.306,0,0,1,29.5,23.065H33.71l1.366.86a7.982,7.982,0,1,0,12.57-.86h3.806a3.509,3.509,0,0,0,2.111-.7,13.31,13.31,0,0,1-5.642,17.777v.009A13.194,13.194,0,0,1,43.9,41.507Z" fill="#aab2bd"/>
          </g>
          <g id="Group_1207419" data-name="Group 1207419">
            <path id="Path_1328502" data-name="Path 1328502" d="M47.646,23.065a7.986,7.986,0,1,1-12.57.86l3.016,1.881a4.432,4.432,0,1,0,4.489-1.765v-.976Z" fill="#ccd1d9"/>
          </g>
          <g id="Group_1207420" data-name="Group 1207420">
            <path id="Path_1328503" data-name="Path 1328503" d="M42.581,24.04a4.445,4.445,0,1,1-4.489,1.765l2.377,1.481a1.345,1.345,0,0,0,.736.213,1.382,1.382,0,0,0,1.375-1.375Z" fill="#ff826e"/>
          </g>
          <g id="Group_1207421" data-name="Group 1207421">
            <path id="Path_1328504" data-name="Path 1328504" d="M51.452,1.774H17.742a3.547,3.547,0,0,0-3.548,3.548V23.065H33.71l1.366.86,3.016,1.881,2.377,1.481a1.345,1.345,0,0,0,.736.213,1.382,1.382,0,0,0,1.375-1.375v-3.06h8.871A3.557,3.557,0,0,0,55,19.516V5.323a3.547,3.547,0,0,0-3.548-3.548Z" fill="#e6e9ed"/>
          </g>
          <g id="Group_1207422" data-name="Group 1207422">
            <path id="Path_1328505" data-name="Path 1328505" d="M51.452,18.629v.887H40.806v-.887a6.1,6.1,0,0,0-.887-3.194,6.208,6.208,0,0,1,11.532,3.194Z" fill="#ff826e"/>
          </g>
          <g id="Group_1207423" data-name="Group 1207423">
            <path id="Path_1328506" data-name="Path 1328506" d="M29.274,15.435a6.1,6.1,0,0,0-.887,3.194v.887h-7.4a3.077,3.077,0,0,0-2.794-1.774H17.8a6.214,6.214,0,0,1,6.148-5.323,6.211,6.211,0,0,1,5.323,3.016Z" fill="#fcd770"/>
          </g>
          <g id="Group_1207424" data-name="Group 1207424">
            <path id="Path_1328507" data-name="Path 1328507" d="M21.468,40.629l-3.451,7.762-1.162-5.81,1.774-2.661Z" fill="#ff826e"/>
          </g>
          <g id="Group_1207425" data-name="Group 1207425">
            <path id="Path_1328508" data-name="Path 1328508" d="M11.532,39.919l1.774,2.661-1.162,5.81L8.694,40.629Z" fill="#ff826e"/>
          </g>
          <g id="Group_1207426" data-name="Group 1207426">
            <path id="Path_1328509" data-name="Path 1328509" d="M16.855,42.581l1.162,5.81L15.081,55l-2.936-6.609,1.162-5.81Z" fill="#ffeaa7"/>
          </g>
          <g id="Group_1207427" data-name="Group 1207427">
            <path id="Path_1328510" data-name="Path 1328510" d="M23.065,55H15.081l2.936-6.609,3.451-7.762,2.04.506a6.44,6.44,0,0,1,4.879,6.254V55Z" fill="#4fc1e9"/>
          </g>
          <g id="Group_1207428" data-name="Group 1207428">
            <path id="Path_1328511" data-name="Path 1328511" d="M7.1,55H1.774V47.389a6.44,6.44,0,0,1,4.879-6.254l2.04-.506,3.451,7.762L15.081,55Z" fill="#4fc1e9"/>
          </g>
          <g id="Group_1207429" data-name="Group 1207429">
            <path id="Path_1328512" data-name="Path 1328512" d="M21.29,26.613H18.159a16.743,16.743,0,0,1-7.514-1.774,3.205,3.205,0,0,0-1.774,2.874v.674H7.984a2.659,2.659,0,0,0-2.049.958L5.562,28.21a4.547,4.547,0,0,1-.24-1.455A4.627,4.627,0,0,1,6.671,23.49l.426-.426a5.331,5.331,0,0,1,5.323-5.323h5.775a3.077,3.077,0,0,1,2.794,1.774H21a3.1,3.1,0,0,1,.293,1.322,3.467,3.467,0,0,1-.027.435l.7.355a5.156,5.156,0,0,1,1.756,1.437h.009a5.2,5.2,0,0,1,.559,5.535l-.266.532a2.647,2.647,0,0,0-1.845-.745H21.29Z" fill="#b27946"/>
          </g>
          <g id="Group_1207430" data-name="Group 1207430">
            <path id="Path_1328513" data-name="Path 1328513" d="M40.806,18.629v.887H28.387v-.887a6.1,6.1,0,0,1,.887-3.194,6.207,6.207,0,0,1,9.714-1.2,6.249,6.249,0,0,1,1.819,4.391Z" fill="#5cd6b3"/>
          </g>
          <g id="Group_1207431" data-name="Group 1207431">
            <circle id="Ellipse_12888" data-name="Ellipse 12888" cx="3.548" cy="3.548" r="3.548" transform="translate(41.694 5.323)" fill="#f0d0b4"/>
          </g>
          <g id="Group_1207432" data-name="Group 1207432">
            <circle id="Ellipse_12889" data-name="Ellipse 12889" cx="3.548" cy="3.548" r="3.548" transform="translate(31.048 5.323)" fill="#f0d0b4"/>
          </g>
          <g id="Group_1207433" data-name="Group 1207433">
            <circle id="Ellipse_12890" data-name="Ellipse 12890" cx="3.548" cy="3.548" r="3.548" transform="translate(20.403 5.323)" fill="#f0d0b4"/>
          </g>
          <g id="Group_1207434" data-name="Group 1207434">
            <path id="Path_1328514" data-name="Path 1328514" d="M24.023,29.132a2.662,2.662,0,0,1-1.845,4.577H21.033a6.128,6.128,0,0,0,.257-1.774V28.387h.887A2.647,2.647,0,0,1,24.023,29.132Z" fill="#f0d0b4"/>
          </g>
          <g id="Group_1207435" data-name="Group 1207435">
            <path id="Path_1328515" data-name="Path 1328515" d="M12.34,37.506a6.2,6.2,0,0,0,5.482,0l.807,2.413-1.774,2.661H13.306l-1.774-2.661Z" fill="#f0d0b4"/>
          </g>
          <g id="Group_1207436" data-name="Group 1207436">
            <path id="Path_1328516" data-name="Path 1328516" d="M21.29,28.387v3.548a6.191,6.191,0,0,1-1.819,4.391A6.213,6.213,0,0,1,9.128,33.71a6.128,6.128,0,0,1-.257-1.774V27.713a3.205,3.205,0,0,1,1.774-2.874,16.743,16.743,0,0,0,7.514,1.774H21.29Z" fill="#f0d0b4"/>
          </g>
          <g id="Group_1207437" data-name="Group 1207437">
            <path id="Path_1328517" data-name="Path 1328517" d="M9.128,33.71H7.984a2.661,2.661,0,1,1,0-5.323h.887v3.548A6.128,6.128,0,0,0,9.128,33.71Z" fill="#f0d0b4"/>
          </g>
        </g>
        <path id="Path_1328518" data-name="Path 1328518" d="M55.887,5.323A4.441,4.441,0,0,0,51.452.887H17.742a4.441,4.441,0,0,0-4.435,4.435V16.855h-.887a6.217,6.217,0,0,0-6.2,5.831l-.173.174a5.5,5.5,0,0,0-1.331,5.632l.242.726a3.516,3.516,0,0,0-.524,1.831A3.552,3.552,0,0,0,7.984,34.6h.522a7.137,7.137,0,0,0,2.76,3.313l-.422,1.267-4.4,1.1A7.33,7.33,0,0,0,.887,47.39v8.5H29.274V52.339H55.887V50.565H52.1L48.973,40.548a14.184,14.184,0,0,0,6.914-12.161,14.037,14.037,0,0,0-1.256-5.79,4.413,4.413,0,0,0,1.256-3.081Zm-40.806,0a2.665,2.665,0,0,1,2.661-2.661h33.71a2.665,2.665,0,0,1,2.661,2.661V19.516a2.665,2.665,0,0,1-2.661,2.661H41.694v3.944a.507.507,0,0,1-.752.417l-6.977-4.361H24.126a6.1,6.1,0,0,0-1.762-1.342l-.2-.1c0-.114-.021-.223-.034-.334h30.2V18.629a7.1,7.1,0,0,0-4.165-6.455,4.436,4.436,0,1,0-5.855.007,7.146,7.146,0,0,0-2.4,1.773,7.113,7.113,0,0,0-2.394-1.78,4.435,4.435,0,1,0-5.863,0,7.125,7.125,0,0,0-2.394,1.78,7.146,7.146,0,0,0-2.4-1.773,4.435,4.435,0,1,0-5.85,0,7.138,7.138,0,0,0-3.94,4.678h-2ZM48.79,28.387a7.1,7.1,0,1,1-13.4-3.229l1.508.943a5.323,5.323,0,1,0,7.718-2.149h2.612A7.075,7.075,0,0,1,48.79,28.387Zm-5.323-2.266v-.8a3.56,3.56,0,1,1-5.052,1.731L40,28.043a2.266,2.266,0,0,0,3.467-1.921Zm-21.29,5.814V29.274a1.774,1.774,0,1,1,0,3.548h-.061A7.138,7.138,0,0,0,22.177,31.935ZM21.29,8.871a2.661,2.661,0,1,1,2.661,2.661A2.665,2.665,0,0,1,21.29,8.871Zm10.645,0A2.661,2.661,0,1,1,34.6,11.532,2.665,2.665,0,0,1,31.935,8.871Zm10.645,0a2.661,2.661,0,1,1,2.661,2.661A2.665,2.665,0,0,1,42.581,8.871Zm-1.628,6.62a5.272,5.272,0,0,1,4.289-2.185,5.328,5.328,0,0,1,5.323,5.323H41.694A7.047,7.047,0,0,0,40.953,15.491Zm-1.033,3.138H29.274a5.323,5.323,0,1,1,10.645,0Zm-12.419,0H21.507a3.98,3.98,0,0,0-2.6-1.7,5.354,5.354,0,0,1,5.044-3.62,5.272,5.272,0,0,1,4.289,2.185A7.047,7.047,0,0,0,27.5,18.629ZM7.984,32.823a1.774,1.774,0,1,1,0-3.548v2.661a7.138,7.138,0,0,0,.061.887ZM8,27.5H7.984a3.5,3.5,0,0,0-1.591.395A3.714,3.714,0,0,1,7.3,24.114l.682-.682v-.367a4.441,4.441,0,0,1,4.435-4.435H18.2a2.206,2.206,0,0,1,.7,4.3l-.546.182.561,1.683.546-.182a3.97,3.97,0,0,0,2.328-2.063,4.273,4.273,0,0,1,2.167,3.726,4.319,4.319,0,0,1-.3,1.558,3.524,3.524,0,0,0-1.476-.331V25.726H18.161a15.988,15.988,0,0,1-7.119-1.681l-.4-.2-.4.2A4.064,4.064,0,0,0,8,27.5Zm1.76,4.435V27.709a2.309,2.309,0,0,1,.935-1.863A17.783,17.783,0,0,0,18.161,27.5H20.4v4.435a5.323,5.323,0,1,1-10.645,0Zm2.606,10.831-.543,2.715L9.933,41.233l1.208-.3Zm1.67.7h2.094l.964,4.822-2.012,4.526L13.069,48.29Zm4.306,2.015L17.8,42.768l1.223-1.835,1.208.3Zm-3.259-6.451a7.08,7.08,0,0,0,2.2-.353l.37,1.11-1.27,1.9h-2.6l-1.27-1.905.37-1.11A7.055,7.055,0,0,0,15.081,39.032ZM2.661,47.39A5.556,5.556,0,0,1,6.871,42l1.316-.329,5.529,12.442H7.984v-4.74a4.407,4.407,0,0,0-1.3-3.137L5.95,45.5,4.7,46.756l.735.735a2.647,2.647,0,0,1,.779,1.882v4.74H2.661ZM27.5,54.113H23.952v-4.74a2.645,2.645,0,0,1,.779-1.882l.735-.735L24.212,45.5l-.735.735a4.407,4.407,0,0,0-1.3,3.137v4.74H16.446l5.53-12.442L23.292,42A5.556,5.556,0,0,1,27.5,47.39Zm.309-11.121a7.341,7.341,0,0,0-4.087-2.714l-4.4-1.1L18.9,37.91a7.126,7.126,0,0,0,2.76-3.313h.523a3.539,3.539,0,0,0,2.9-5.585l.009-.019a6.057,6.057,0,0,0,.177-5.041h2.952a14.152,14.152,0,0,0,6.2,16.6l-3.13,10.016H29.274V47.39a7.376,7.376,0,0,0-1.465-4.4Zm15.476-.507,2.525,8.079H37.577L40.1,42.486a13.389,13.389,0,0,0,3.183,0Zm-7.566,8.079H33.142l2.869-9.18a14.069,14.069,0,0,0,2.333.78Zm14.526,0H47.668l-2.625-8.4a14.1,14.1,0,0,0,2.333-.78Zm-8.552-9.758A12.389,12.389,0,0,1,30.107,23.952h3.349l.428.268a8.863,8.863,0,1,0,15.484-.268h2.083a4.412,4.412,0,0,0,1.69-.338,12.273,12.273,0,0,1,.971,4.773A12.433,12.433,0,0,1,41.694,40.806Z"/>
      </g>
    </g>
  </g>
</svg>
