<svg xmlns="http://www.w3.org/2000/svg" xmlns:xlink="http://www.w3.org/1999/xlink" width="98" height="97.999" viewBox="0 0 98 97.999">
  <defs>
    <clipPath id="clip-path">
      <rect id="Rectangle_412572" data-name="Rectangle 412572" width="57" height="55" transform="translate(1139.586 3878.606)" fill="#fff" stroke="#707070" stroke-width="1"/>
    </clipPath>
  </defs>
  <g id="Group_1207153" data-name="Group 1207153" transform="translate(-1119.086 -3857.106)">
    <g id="Group_1204751" data-name="Group 1204751" transform="translate(1119.086 3857.106)">
      <g id="Group_1204438" data-name="Group 1204438">
        <g id="Group_1204285" data-name="Group 1204285">
          <g id="Group_1204180" data-name="Group 1204180">
            <g id="Group_1204143" data-name="Group 1204143">
              <g id="Group_1188789" data-name="Group 1188789" transform="translate(0)">
                <path id="Path_1243039" data-name="Path 1243039" d="M41.05,0h0a41.05,41.05,0,0,1,0,82.1h0a41.05,41.05,0,0,1,0-82.1Z" transform="translate(7.951 7.949)" fill="#ffc63f"/>
                <rect id="Rectangle_400907" data-name="Rectangle 400907" width="88.438" height="88.437" rx="44.218" transform="translate(4.782 4.781)" fill="none"/>
                <g id="Group_1098742" data-name="Group 1098742" transform="translate(0)">
                  <g id="Rectangle_400898" data-name="Rectangle 400898" transform="translate(0)" fill="none" stroke="#fff" stroke-width="2" opacity="0.859">
                    <rect width="98" height="97.999" rx="48.999" stroke="none"/>
                    <rect x="1" y="1" width="96" height="95.999" rx="47.999" fill="none"/>
                  </g>
                  <g id="Rectangle_400907-2" data-name="Rectangle 400907" transform="translate(0)" fill="none" stroke="#0f1f33" stroke-linecap="round" stroke-width="2">
                    <rect width="98" height="97.999" rx="48.999" stroke="none"/>
                    <rect x="1" y="1" width="96" height="95.999" rx="47.999" fill="none"/>
                  </g>
                </g>
              </g>
            </g>
          </g>
        </g>
      </g>
    </g>
    <g id="Mask_Group_1099527" data-name="Mask Group 1099527" clip-path="url(#clip-path)">
      <g id="website_4199777" transform="translate(1139.233 3876.803)">
        <path id="Path_1329370" data-name="Path 1329370" d="M42.377,9.016h9.016a1.8,1.8,0,0,1,1.8,1.8V35.164H4.508V10.82a1.8,1.8,0,0,1,1.8-1.8Z" fill="#415e6f"/>
        <path id="Path_1329371" data-name="Path 1329371" d="M13.525,52.3H4.508a1.8,1.8,0,0,1-1.8-1.8v-2.7l1.8-12.623H53.2L55,47.787v2.7a1.8,1.8,0,0,1-1.8,1.8Z" fill="#898890"/>
        <path id="Path_1329372" data-name="Path 1329372" d="M9.016,12.623H48.689a.9.9,0,0,1,.9.9V35.164H8.115V13.525A.9.9,0,0,1,9.016,12.623Z" fill="#4dd4f7"/>
        <path id="Path_1329373" data-name="Path 1329373" d="M11.721,2.7H45.984V35.164H11.721Z" fill="#91d1f5"/>
        <path id="Path_1329374" data-name="Path 1329374" d="M23.6,20.151a3.607,3.607,0,1,0-3.924,0,6.311,6.311,0,0,0-4.35,6v3.607H27.951V26.148a6.311,6.311,0,0,0-4.35-6Z" fill="#ffddce"/>
        <path id="Path_1329375" data-name="Path 1329375" d="M11.721,2.7H45.984V9.918H11.721Z" fill="#006ca9"/>
        <path id="Path_1329376" data-name="Path 1329376" d="M2.7,47.787H55v2.7a1.8,1.8,0,0,1-1.8,1.8H4.508a1.8,1.8,0,0,1-1.8-1.8Z" fill="#415e6f"/>
        <path id="Path_1329377" data-name="Path 1329377" d="M25.246,44.631v5.861l-2.7,1.8V55.9H13.525V52.3l-1.8-2.7V42.828a1.352,1.352,0,1,1,2.7,0v-1.8a1.352,1.352,0,0,1,2.7,0v-1.8a1.352,1.352,0,0,1,2.7,0v.9a1.352,1.352,0,0,1,2.7,0v4.508a1.352,1.352,0,1,1,2.7,0Z" fill="#ffcbbe"/>
        <path id="Path_1329378" data-name="Path 1329378" d="M45.984,42.828V49.59l-1.8,2.7V55.9H35.164V52.3l-2.7-1.8V44.631a1.352,1.352,0,1,1,2.7,0V40.123a1.352,1.352,0,0,1,2.7,0v-.9a1.352,1.352,0,0,1,2.7,0v1.8a1.352,1.352,0,0,1,2.7,0v1.8a1.352,1.352,0,0,1,2.7,0Z" fill="#ffcbbe"/>
        <path id="Path_1329379" data-name="Path 1329379" d="M55.893,47.661,54.1,35.1V10.82a2.713,2.713,0,0,0-2.7-2.7H46.885V2.7a.9.9,0,0,0-.9-.9H11.721a.9.9,0,0,0-.9.9v5.41H6.311a2.713,2.713,0,0,0-2.7,2.7V35.1L1.812,47.661a.6.6,0,0,0-.009.126v2.7a2.713,2.713,0,0,0,2.7,2.7h8.115v2.7a.9.9,0,0,0,.9.9h9.016a.9.9,0,0,0,.9-.9V53.2h10.82v2.7a.9.9,0,0,0,.9.9H44.18a.9.9,0,0,0,.9-.9V53.2H53.2a2.713,2.713,0,0,0,2.7-2.7v-2.7a.594.594,0,0,0-.009-.126ZM46.885,9.918h4.508a.9.9,0,0,1,.9.9V34.262h-1.8V13.525a1.809,1.809,0,0,0-1.8-1.8h-1.8Zm0,3.607h1.8V34.262h-1.8ZM12.623,3.607H45.082v5.41H12.623Zm0,7.213H45.082V34.262H12.623Zm-7.213,0a.9.9,0,0,1,.9-.9H10.82v1.8h-1.8a1.809,1.809,0,0,0-1.8,1.8V34.262H5.41Zm5.41,2.7V34.262h-1.8V13.525ZM4.508,51.393a.9.9,0,0,1-.9-.9v-1.8H10.82v.9a.872.872,0,0,0,.153.5l.866,1.307ZM24.344,50l-2.3,1.542a.9.9,0,0,0-.406.748V55H14.426V52.3a.872.872,0,0,0-.153-.5l-1.65-2.48V42.828a.451.451,0,1,1,.9,0v2.254a.9.9,0,1,0,1.8,0V41.025a.451.451,0,1,1,.9,0V44.18a.9.9,0,0,0,1.8,0V39.221a.451.451,0,0,1,.9,0V44.18a.9.9,0,0,0,1.8,0V40.123a.451.451,0,1,1,.9,0v6.762a.9.9,0,0,0,1.8,0V44.631a.451.451,0,1,1,.9,0Zm1.172,1.389.225-.153a.9.9,0,0,0,.406-.748v-1.8h5.41v1.8a.9.9,0,0,0,.406.748l.225.153Zm6.041-6.762v2.254h-5.41V44.631a2.254,2.254,0,0,0-2.254-2.254,2.465,2.465,0,0,0-.451.045v-2.3a2.254,2.254,0,0,0-2.254-2.254,2.387,2.387,0,0,0-.8.144,2.254,2.254,0,0,0-4.12.811,2.12,2.12,0,0,0-.487-.054,2.254,2.254,0,0,0-2.218,1.857,2.12,2.12,0,0,0-.487-.054,2.254,2.254,0,0,0-2.254,2.254v4.057H3.742l1.551-10.82h47.12l1.551,10.82H46.885V42.828a2.254,2.254,0,0,0-2.254-2.254,2.121,2.121,0,0,0-.487.054,2.254,2.254,0,0,0-2.218-1.857,2.121,2.121,0,0,0-.487.054,2.254,2.254,0,0,0-4.12-.811,2.387,2.387,0,0,0-.8-.144,2.254,2.254,0,0,0-2.254,2.254v2.3a2.465,2.465,0,0,0-.451-.045A2.254,2.254,0,0,0,31.557,44.631ZM45.082,49.32l-1.65,2.48a.872.872,0,0,0-.153.5V55H36.066V52.3a.9.9,0,0,0-.406-.748L33.361,50V44.631a.451.451,0,1,1,.9,0v2.254a.9.9,0,0,0,1.8,0V40.123a.451.451,0,1,1,.9,0V44.18a.9.9,0,0,0,1.8,0V39.221a.451.451,0,0,1,.9,0V44.18a.9.9,0,0,0,1.8,0V41.025a.451.451,0,1,1,.9,0v4.057a.9.9,0,1,0,1.8,0V42.828a.451.451,0,1,1,.9,0ZM54.1,50.492a.9.9,0,0,1-.9.9h-7.33l.866-1.307a.872.872,0,0,0,.153-.5v-.9H54.1Z"/>
        <path id="Path_1329380" data-name="Path 1329380" d="M31.557,16.23h3.607v1.8H31.557Z"/>
        <path id="Path_1329381" data-name="Path 1329381" d="M31.557,19.836h6.311v1.8H31.557Z"/>
        <path id="Path_1329382" data-name="Path 1329382" d="M39.672,19.836h3.607v1.8H39.672Z"/>
        <path id="Path_1329383" data-name="Path 1329383" d="M31.557,23.443H43.279v1.8H31.557Z"/>
        <path id="Path_1329384" data-name="Path 1329384" d="M31.557,27.049h1.8v1.8h-1.8Z"/>
        <path id="Path_1329385" data-name="Path 1329385" d="M35.164,27.049h8.115v1.8H35.164Z"/>
        <path id="Path_1329386" data-name="Path 1329386" d="M25.21,19.881a4.508,4.508,0,1,0-7.141,0,7.189,7.189,0,0,0-3.643,6.266v3.607a.9.9,0,0,0,.9.9H27.951a.9.9,0,0,0,.9-.9V26.148a7.189,7.189,0,0,0-3.643-6.266Zm1.839,8.971H16.23v-2.7a5.4,5.4,0,0,1,3.724-5.139.9.9,0,0,0,.216-1.614,2.7,2.7,0,1,1,2.939,0,.9.9,0,0,0,.216,1.614,5.4,5.4,0,0,1,3.724,5.139Z"/>
        <path id="Path_1329387" data-name="Path 1329387" d="M14,5.41h1.517v1.8H14Z"/>
        <path id="Path_1329388" data-name="Path 1329388" d="M17.028,5.41h1.517v1.8H17.028Z"/>
        <path id="Path_1329389" data-name="Path 1329389" d="M20.061,5.41h1.517v1.8H20.061Z"/>
      </g>
    </g>
  </g>
</svg>
