<svg xmlns="http://www.w3.org/2000/svg" xmlns:xlink="http://www.w3.org/1999/xlink" width="98" height="97.999" viewBox="0 0 98 97.999">
  <defs>
    <clipPath id="clip-path">
      <rect id="Rectangle_412572" data-name="Rectangle 412572" width="57" height="55" transform="translate(1139.586 3878.606)" fill="#fff" stroke="#707070" stroke-width="1"/>
    </clipPath>
  </defs>
  <g id="Group_1207154" data-name="Group 1207154" transform="translate(-1119.086 -3857.106)">
    <g id="Group_1204751" data-name="Group 1204751" transform="translate(1119.086 3857.106)">
      <g id="Group_1204438" data-name="Group 1204438">
        <g id="Group_1204285" data-name="Group 1204285">
          <g id="Group_1204180" data-name="Group 1204180">
            <g id="Group_1204143" data-name="Group 1204143">
              <g id="Group_1188789" data-name="Group 1188789" transform="translate(0)">
                <path id="Path_1243039" data-name="Path 1243039" d="M41.05,0h0a41.05,41.05,0,0,1,0,82.1h0a41.05,41.05,0,0,1,0-82.1Z" transform="translate(7.951 7.949)" fill="#ffc63f"/>
                <rect id="Rectangle_400907" data-name="Rectangle 400907" width="88.438" height="88.437" rx="44.218" transform="translate(4.782 4.781)" fill="none"/>
                <g id="Group_1098742" data-name="Group 1098742" transform="translate(0)">
                  <g id="Rectangle_400898" data-name="Rectangle 400898" transform="translate(0)" fill="none" stroke="#fff" stroke-width="2" opacity="0.859">
                    <rect width="98" height="97.999" rx="48.999" stroke="none"/>
                    <rect x="1" y="1" width="96" height="95.999" rx="47.999" fill="none"/>
                  </g>
                  <g id="Rectangle_400907-2" data-name="Rectangle 400907" transform="translate(0)" fill="none" stroke="#0f1f33" stroke-linecap="round" stroke-width="2">
                    <rect width="98" height="97.999" rx="48.999" stroke="none"/>
                    <rect x="1" y="1" width="96" height="95.999" rx="47.999" fill="none"/>
                  </g>
                </g>
              </g>
            </g>
          </g>
        </g>
      </g>
    </g>
    <g id="Mask_Group_1099526" data-name="Mask Group 1099526" clip-path="url(#clip-path)">
      <g id="cloud-Home-Cam-Computer" transform="translate(1138.753 3876.772)">
        <path id="Path_1329347" data-name="Path 1329347" d="M55.917,47.667v.917a2.75,2.75,0,0,1-2.75,2.75H5.5a2.75,2.75,0,0,1-2.75-2.75v-.917Z" fill="#c6c5ca"/>
        <path id="Path_1329348" data-name="Path 1329348" d="M55.917,15.583V47.667H2.75V15.583a2.75,2.75,0,0,1,2.75-2.75H53.167A2.75,2.75,0,0,1,55.917,15.583Z" fill="#46f8ff"/>
        <path id="Path_1329349" data-name="Path 1329349" d="M55.917,15.583V47.667H51.333V15.583a2.75,2.75,0,0,0-2.75-2.75h4.583A2.75,2.75,0,0,1,55.917,15.583Z" fill="#00e7f0"/>
        <path id="Path_1329350" data-name="Path 1329350" d="M49.5,4.583V13.75a1.839,1.839,0,0,1-1.833,1.833H46.75L42.167,19.25V15.583h-5.5a1.839,1.839,0,0,1-1.833-1.833V4.583A1.839,1.839,0,0,1,36.667,2.75h11A1.839,1.839,0,0,1,49.5,4.583Z" fill="#bdfdff"/>
        <path id="Path_1329351" data-name="Path 1329351" d="M45.833,9.167h-.917v2.75h-5.5V9.167H38.5l3.667-2.75Z" fill="#a78966"/>
        <path id="Path_1329352" data-name="Path 1329352" d="M45.833,9.167h-.917v2.75h-2.75v-5.5Z" fill="#957856"/>
        <path id="Path_1329353" data-name="Path 1329353" d="M35.75,51.333l1.833,4.583h-16.5l1.833-4.583Z" fill="#898890"/>
        <path id="Path_1329354" data-name="Path 1329354" d="M55.917,47.667v.917a2.75,2.75,0,0,1-2.75,2.75H48.583a2.75,2.75,0,0,0,2.75-2.75v-.917Z" fill="#898890"/>
        <path id="Path_1329355" data-name="Path 1329355" d="M37.583,55.917H33l-1.833-4.583H35.75Z" fill="#57565c"/>
        <path id="Path_1329356" data-name="Path 1329356" d="M35.75,42.167H22.917a5.508,5.508,0,0,1,5.5-5.5H30.25A5.5,5.5,0,0,1,35.75,42.167Z" fill="#898890"/>
        <path id="Path_1329357" data-name="Path 1329357" d="M35.75,42.167H32.083A5.491,5.491,0,0,0,27.5,36.749a5.014,5.014,0,0,1,.917-.083H30.25A5.5,5.5,0,0,1,35.75,42.167Z" fill="#57565c"/>
        <circle id="Ellipse_12939" data-name="Ellipse 12939" cx="7.333" cy="7.333" r="7.333" transform="translate(22 22)" fill="#e0e0e2"/>
        <path id="Path_1329358" data-name="Path 1329358" d="M36.667,29.333a7.333,7.333,0,0,1-7.333,7.333,7.552,7.552,0,0,1-1.833-.229,7.338,7.338,0,0,0,0-14.208A7.553,7.553,0,0,1,29.333,22,7.333,7.333,0,0,1,36.667,29.333Z" fill="#acabb1"/>
        <circle id="Ellipse_12940" data-name="Ellipse 12940" cx="4.583" cy="4.583" r="4.583" transform="translate(24.75 27.5)" fill="#c6c5ca"/>
        <path id="Path_1329359" data-name="Path 1329359" d="M33.917,32.083a4.583,4.583,0,0,1-4.583,4.583,4.68,4.68,0,0,1-1.833-.376,4.593,4.593,0,0,0,0-8.415,4.68,4.68,0,0,1,1.833-.376A4.583,4.583,0,0,1,33.917,32.083Z" fill="#898890"/>
        <circle id="Ellipse_12941" data-name="Ellipse 12941" cx="0.917" cy="0.917" r="0.917" transform="translate(28.417 31.167)" fill="#bddbff"/>
        <path id="Path_1329360" data-name="Path 1329360" d="M26.583,11.917a2.541,2.541,0,0,1-.165.917,2.721,2.721,0,0,1-2.585,1.833H11.917a2.721,2.721,0,0,1-2.585-1.833,2.541,2.541,0,0,1-.165-.917,2.712,2.712,0,0,1,1.118-2.2,5.5,5.5,0,0,1,10.23-3.9A3.625,3.625,0,0,1,22,5.5a3.667,3.667,0,0,1,3.667,3.667,3.928,3.928,0,0,1-.064.66,2.727,2.727,0,0,1,.981,2.09Z" fill="#57a4ff"/>
        <path id="Path_1329361" data-name="Path 1329361" d="M26.583,11.917a2.541,2.541,0,0,1-.165.917,2.721,2.721,0,0,1-2.585,1.833H20.167a2.721,2.721,0,0,0,2.585-1.833,2.541,2.541,0,0,0,.165-.917,2.727,2.727,0,0,0-.981-2.09A3.928,3.928,0,0,0,22,9.167,3.667,3.667,0,0,0,18.333,5.5a3.625,3.625,0,0,0-1.485.321,5.513,5.513,0,0,0-3.1-2.75,5.317,5.317,0,0,1,1.833-.321,5.505,5.505,0,0,1,4.932,3.071A3.625,3.625,0,0,1,22,5.5a3.667,3.667,0,0,1,3.667,3.667,3.928,3.928,0,0,1-.064.66,2.727,2.727,0,0,1,.981,2.09Z" fill="#006df0"/>
        <path id="Path_1329362" data-name="Path 1329362" d="M45.833,2.75V15.583h1.833A1.833,1.833,0,0,0,49.5,13.75V4.583A1.833,1.833,0,0,0,47.667,2.75Z" fill="#00e7f0"/>
        <path id="Path_1329363" data-name="Path 1329363" d="M53.167,11.917a.917.917,0,1,0,0,1.833A1.839,1.839,0,0,1,55,15.583V46.75H3.667V15.583A1.839,1.839,0,0,1,5.5,13.75a.917.917,0,1,0,0-1.833,3.667,3.667,0,0,0-3.667,3.667v33A3.667,3.667,0,0,0,5.5,52.25H21.56l-1.329,3.328a.917.917,0,0,0,.852,1.256h16.5a.917.917,0,0,0,.853-1.256L37.107,52.25h16.06a3.667,3.667,0,0,0,3.667-3.667v-33A3.667,3.667,0,0,0,53.167,11.917ZM22.44,55l1.1-2.75H35.127l1.1,2.75Zm30.727-4.583H5.5a1.839,1.839,0,0,1-1.833-1.833H55A1.839,1.839,0,0,1,53.167,50.417Z"/>
        <path id="Path_1329364" data-name="Path 1329364" d="M15.583,20.167a.917.917,0,0,0,.917-.917V10.083a.917.917,0,0,0-1.565-.648L13.1,11.269a.917.917,0,1,0,1.3,1.3l.268-.269V19.25A.917.917,0,0,0,15.583,20.167Z"/>
        <path id="Path_1329365" data-name="Path 1329365" d="M19.25,9.167a.917.917,0,0,0-.917.917V19.25a.917.917,0,0,0,.566.847.9.9,0,0,0,.351.07A.917.917,0,0,0,19.9,19.9l1.833-1.833a.917.917,0,1,0-1.3-1.3l-.268.269V10.083A.917.917,0,0,0,19.25,9.167Z"/>
        <path id="Path_1329366" data-name="Path 1329366" d="M11.917,15.583a.917.917,0,0,0,0-1.833,1.827,1.827,0,0,1-1.084-3.3.917.917,0,0,0,.338-.98A4.579,4.579,0,0,1,19.69,6.227a.917.917,0,0,0,1.192.432A2.739,2.739,0,0,1,24.75,9.167a2.694,2.694,0,0,1-.052.5.917.917,0,0,0,.31.861,1.822,1.822,0,0,1-1.174,3.226h-.917a.917.917,0,0,0,0,1.833h.917a3.654,3.654,0,0,0,2.735-6.091,2.458,2.458,0,0,0,.015-.325A4.589,4.589,0,0,0,22,4.583a4.459,4.459,0,0,0-1.069.129A6.417,6.417,0,0,0,9.167,8.25a6.216,6.216,0,0,0,.105,1.137,3.613,3.613,0,0,0-1.022,2.53,3.667,3.667,0,0,0,3.667,3.667Z"/>
        <path id="Path_1329367" data-name="Path 1329367" d="M21.083,29.333a8.25,8.25,0,0,0,4.25,7.21A6.417,6.417,0,0,0,22,42.167a.917.917,0,0,0,.917.917H35.75a.917.917,0,0,0,.917-.917,6.417,6.417,0,0,0-3.333-5.624,8.25,8.25,0,1,0-12.25-7.21Zm4.583,2.75a3.667,3.667,0,1,1,3.667,3.667A3.667,3.667,0,0,1,25.667,32.083Zm9.075,9.167H23.925a4.591,4.591,0,0,1,4.492-3.667H30.25A4.591,4.591,0,0,1,34.742,41.25ZM29.333,22.917A6.4,6.4,0,0,1,34.8,32.675a5.5,5.5,0,1,0-10.934,0,6.4,6.4,0,0,1,5.467-9.759Z"/>
        <circle id="Ellipse_12942" data-name="Ellipse 12942" cx="1.833" cy="1.833" r="1.833" transform="translate(27.5 30.25)"/>
        <path id="Path_1329368" data-name="Path 1329368" d="M36.667,16.5H41.25v2.75a.917.917,0,0,0,1.49.716L47.072,16.5h.595a2.75,2.75,0,0,0,2.75-2.75V4.583a2.75,2.75,0,0,0-2.75-2.75h-11a2.75,2.75,0,0,0-2.75,2.75V13.75a2.75,2.75,0,0,0,2.75,2.75ZM35.75,4.583a.917.917,0,0,1,.917-.917h11a.917.917,0,0,1,.917.917V13.75a.917.917,0,0,1-.917.917H46.75a.917.917,0,0,0-.573.2l-3.094,2.475V15.583a.917.917,0,0,0-.917-.917h-5.5a.917.917,0,0,1-.917-.917Z"/>
        <path id="Path_1329369" data-name="Path 1329369" d="M38.5,10.083v1.833a.917.917,0,0,0,.917.917h5.5a.917.917,0,0,0,.917-.917V10.083a.917.917,0,0,0,.55-1.65l-3.667-2.75a.917.917,0,0,0-1.1,0L37.95,8.433a.917.917,0,0,0,.55,1.65Zm3.667-2.521,1.857,1.393A.941.941,0,0,0,44,9.167V11H40.333V9.167a.94.94,0,0,0-.024-.211Z"/>
      </g>
    </g>
  </g>
</svg>
