<svg xmlns="http://www.w3.org/2000/svg" xmlns:xlink="http://www.w3.org/1999/xlink" width="98" height="97.999" viewBox="0 0 98 97.999">
  <defs>
    <clipPath id="clip-path">
      <rect id="Rectangle_412572" data-name="Rectangle 412572" width="57" height="55" transform="translate(1139.586 3878.606)" fill="#fff" stroke="#707070" stroke-width="1"/>
    </clipPath>
  </defs>
  <g id="Group_1206944" data-name="Group 1206944" transform="translate(-1119.086 -3857.106)">
    <g id="Group_1204751" data-name="Group 1204751" transform="translate(1119.086 3857.106)">
      <g id="Group_1204438" data-name="Group 1204438">
        <g id="Group_1204285" data-name="Group 1204285">
          <g id="Group_1204180" data-name="Group 1204180">
            <g id="Group_1204143" data-name="Group 1204143">
              <g id="Group_1188789" data-name="Group 1188789" transform="translate(0)">
                <path id="Path_1243039" data-name="Path 1243039" d="M41.05,0h0a41.05,41.05,0,0,1,0,82.1h0a41.05,41.05,0,0,1,0-82.1Z" transform="translate(7.951 7.949)" fill="#ffc63f"/>
                <rect id="Rectangle_400907" data-name="Rectangle 400907" width="88.438" height="88.437" rx="44.218" transform="translate(4.782 4.781)" fill="none"/>
                <g id="Group_1098742" data-name="Group 1098742" transform="translate(0)">
                  <g id="Rectangle_400898" data-name="Rectangle 400898" transform="translate(0)" fill="none" stroke="#fff" stroke-width="2" opacity="0.859">
                    <rect width="98" height="97.999" rx="48.999" stroke="none"/>
                    <rect x="1" y="1" width="96" height="95.999" rx="47.999" fill="none"/>
                  </g>
                  <g id="Rectangle_400907-2" data-name="Rectangle 400907" transform="translate(0)" fill="none" stroke="#0f1f33" stroke-linecap="round" stroke-width="2">
                    <rect width="98" height="97.999" rx="48.999" stroke="none"/>
                    <rect x="1" y="1" width="96" height="95.999" rx="47.999" fill="none"/>
                  </g>
                </g>
              </g>
            </g>
          </g>
        </g>
      </g>
    </g>
    <g id="Mask_Group_1099505" data-name="Mask Group 1099505" clip-path="url(#clip-path)">
      <g id="planning_18378796" transform="translate(1139.321 3877.341)">
        <g id="Group_1207522" data-name="Group 1207522">
          <path id="Path_1328977" data-name="Path 1328977" d="M51.3,7.277a4.551,4.551,0,0,1,4.537,4.537V50.938A4.553,4.553,0,0,1,51.3,55.476H6.23a4.553,4.553,0,0,1-4.537-4.538V11.814A4.551,4.551,0,0,1,6.23,7.277Z" fill="#f4f6f8" fill-rule="evenodd"/>
          <path id="Path_1328978" data-name="Path 1328978" d="M1.692,17.334H55.839V11.814A4.551,4.551,0,0,0,51.3,7.277H6.23a4.551,4.551,0,0,0-4.537,4.537Z" fill="#4fc0e8" fill-rule="evenodd"/>
          <g id="Group_1207521" data-name="Group 1207521">
            <path id="Path_1328979" data-name="Path 1328979" d="M40.816,3.183a1.128,1.128,0,0,1,1.128-1.128H45.52a1.128,1.128,0,0,1,1.128,1.128v8.088A1.128,1.128,0,0,1,45.52,12.4H41.944a1.128,1.128,0,0,1-1.128-1.128V3.183Zm-24.1,0a1.128,1.128,0,0,0-1.128-1.128H12.01a1.128,1.128,0,0,0-1.128,1.128v8.088A1.128,1.128,0,0,0,12.01,12.4h3.576a1.128,1.128,0,0,0,1.128-1.128V3.183Zm9.133,0a1.128,1.128,0,0,1,1.128-1.128h3.58a1.128,1.128,0,0,1,1.128,1.128v8.088A1.128,1.128,0,0,1,30.555,12.4h-3.58a1.128,1.128,0,0,1-1.128-1.128V3.183Z" fill="#cad0d7" fill-rule="evenodd"/>
            <path id="Path_1328980" data-name="Path 1328980" d="M39.914,21.4H51.195V32.682H39.914Z" fill="#cad0d7" fill-rule="evenodd"/>
            <path id="Path_1328981" data-name="Path 1328981" d="M6.336,38.444H17.616V49.724H6.336Z" fill="#cad0d7" fill-rule="evenodd"/>
            <path id="Path_1328982" data-name="Path 1328982" d="M39.914,38.444H51.195V49.724H39.914Z" fill="#cad0d7" fill-rule="evenodd"/>
            <path id="Path_1328983" data-name="Path 1328983" d="M23.125,21.4H34.406V32.682H23.125Z" fill="#cad0d7" fill-rule="evenodd"/>
          </g>
          <path id="Path_1328984" data-name="Path 1328984" d="M48,27.391a.338.338,0,0,0,0-.568l-3.566-2.31a.338.338,0,0,0-.523.284v4.621a.338.338,0,0,0,.523.284Z" fill="#f76c82" fill-rule="evenodd"/>
          <path id="Path_1328985" data-name="Path 1328985" d="M14.506,44.368a.338.338,0,0,0,0-.568l-3.566-2.31a.338.338,0,0,0-.522.284v4.621a.338.338,0,0,0,.522.284l3.566-2.31Z" fill="#f76c82" fill-rule="evenodd"/>
          <path id="Path_1328986" data-name="Path 1328986" d="M6.336,21.4H17.616V32.682H6.336Z" fill="#cad0d7" fill-rule="evenodd"/>
          <path id="Path_1328987" data-name="Path 1328987" d="M6.336,32.682V29.106L9.6,25.242l3.035,3.594,2.343-2.593,2.639,2.92v3.518Z" fill="#c6ea94" fill-rule="evenodd"/>
          <path id="Path_1328988" data-name="Path 1328988" d="M23.125,38.444H34.406V49.724H23.125Z" fill="#cad0d7" fill-rule="evenodd"/>
          <path id="Path_1328989" data-name="Path 1328989" d="M23.125,49.724V46.149l3.264-3.864,3.035,3.594,2.343-2.593,2.639,2.92v3.518Z" fill="#c6ea94" fill-rule="evenodd"/>
        </g>
        <path id="Path_1328990" data-name="Path 1328990" d="M47.438,6.487H51.3a5.343,5.343,0,0,1,5.327,5.327V50.938A5.345,5.345,0,0,1,51.3,56.265H6.23A5.345,5.345,0,0,1,.9,50.938V11.814A5.343,5.343,0,0,1,6.23,6.487h3.863V2.055a.79.79,0,0,1,.79-.79h5.833a.79.79,0,0,1,.79.79V6.487h7.553V2.055a.79.79,0,0,1,.79-.79h5.836a.79.79,0,0,1,.79.79V6.487h7.553V2.055a.79.79,0,0,1,.79-.79h5.833a.79.79,0,0,1,.79.79ZM41.606,2.845V11.61h4.253V2.845Zm-14.968,0V11.61h4.257V2.845Zm-10.712,0H11.672V11.61h4.253ZM10.093,8.066H6.23a3.759,3.759,0,0,0-3.748,3.748v4.73H55.049v-4.73A3.759,3.759,0,0,0,51.3,8.066H47.438V12.4a.79.79,0,0,1-.79.79H40.816a.79.79,0,0,1-.79-.79V8.066H32.473V12.4a.79.79,0,0,1-.79.79H25.847a.79.79,0,0,1-.79-.79V8.066H17.5V12.4a.79.79,0,0,1-.79.79H10.882a.79.79,0,0,1-.79-.79ZM2.482,18.123V50.938A3.761,3.761,0,0,0,6.23,54.686H51.3a3.761,3.761,0,0,0,3.748-3.748V18.123ZM51.195,50.514H39.914a.79.79,0,0,1-.79-.79V38.444a.79.79,0,0,1,.79-.79H51.195a.79.79,0,0,1,.79.79V49.724A.79.79,0,0,1,51.195,50.514Zm-.79-1.579v-9.7H40.7v9.7Zm-6.279-1.968-2.909-2.909a.79.79,0,1,1,1.117-1.117l2.35,2.35L48.775,41.2a.79.79,0,1,1,1.117,1.117l-4.649,4.649a.79.79,0,0,1-1.117,0Zm7.069-13.5H39.914a.79.79,0,0,1-.79-.79V21.4a.79.79,0,0,1,.79-.79H51.195a.79.79,0,0,1,.79.79V32.682A.79.79,0,0,1,51.195,33.472Zm-.79-1.579v-9.7H40.7v9.7Zm-1.537-4.115L44.341,30.71a.8.8,0,0,1-1.234-.671V24.174a.8.8,0,0,1,1.234-.671l4.527,2.933a.8.8,0,0,1,0,1.341Zm-1.9-.671-2.258-1.463V28.57ZM17.616,50.514H6.336a.79.79,0,0,1-.79-.79V38.444a.79.79,0,0,1,.79-.79H17.616a.79.79,0,0,1,.79.79V49.724A.79.79,0,0,1,17.616,50.514Zm-.79-1.579v-9.7h-9.7v9.7Zm-1.449-4.18-4.527,2.933a.8.8,0,0,1-1.234-.671V41.151a.8.8,0,0,1,1.234-.671l4.527,2.933a.8.8,0,0,1,0,1.341Zm-1.9-.671-2.258-1.463v2.926ZM34.406,33.472H23.125a.79.79,0,0,1-.79-.79V21.4a.79.79,0,0,1,.79-.79H34.406a.79.79,0,0,1,.79.79V32.682A.79.79,0,0,1,34.406,33.472Zm-.79-1.579v-9.7h-9.7v9.7Zm-7.7-6.478a.79.79,0,1,1,0-1.579h5.69a.79.79,0,1,1,0,1.579Zm0,2.417a.79.79,0,1,1,0-1.579h5.69a.79.79,0,1,1,0,1.579Zm0,2.417a.79.79,0,1,1,0-1.579h5.69a.79.79,0,1,1,0,1.579Zm9.284,8.2V49.724a.8.8,0,0,1-.8.8H23.125a.8.8,0,0,1-.8-.8V38.444a.8.8,0,0,1,.8-.8H34.406A.8.8,0,0,1,35.2,38.444Zm-11.281,8v2.484h9.683V46.513l-1.84-2.036-1.75,1.937a.8.8,0,0,1-1.2-.02l-2.425-2.871Zm9.683-2.311V39.243H23.924v4.722l1.855-2.2a.8.8,0,0,1,1.221,0l2.445,2.9,1.729-1.914a.8.8,0,0,1,1.186,0Zm-2.583-2.789a.943.943,0,1,1-.943-.943A.944.944,0,0,1,31.023,41.341ZM18.415,21.4V32.682a.8.8,0,0,1-.8.8H6.336a.8.8,0,0,1-.8-.8V21.4a.8.8,0,0,1,.8-.8H17.616A.8.8,0,0,1,18.415,21.4Zm-1.6,5.686V22.2H7.135v4.722l1.855-2.2a.8.8,0,0,1,1.221,0l2.445,2.9,1.729-1.914a.8.8,0,0,1,1.186,0ZM14.234,24.3a.943.943,0,1,1-.943-.943A.944.944,0,0,1,14.234,24.3Zm-7.1,5.1v2.484h9.683V29.471l-1.84-2.036-1.75,1.937a.8.8,0,0,1-1.2-.02L9.6,26.48Z" fill-rule="evenodd"/>
      </g>
    </g>
  </g>
</svg>
