<svg xmlns="http://www.w3.org/2000/svg" xmlns:xlink="http://www.w3.org/1999/xlink" width="98" height="97.999" viewBox="0 0 98 97.999">
  <defs>
    <clipPath id="clip-path">
      <rect id="Rectangle_412572" data-name="Rectangle 412572" width="57" height="55" transform="translate(1139.586 3878.606)" fill="#fff" stroke="#707070" stroke-width="1"/>
    </clipPath>
  </defs>
  <g id="Group_1206448" data-name="Group 1206448" transform="translate(-1119.086 -3857.106)">
    <g id="Group_1204751" data-name="Group 1204751" transform="translate(1119.086 3857.106)">
      <g id="Group_1204438" data-name="Group 1204438">
        <g id="Group_1204285" data-name="Group 1204285">
          <g id="Group_1204180" data-name="Group 1204180">
            <g id="Group_1204143" data-name="Group 1204143">
              <g id="Group_1188789" data-name="Group 1188789" transform="translate(0)">
                <path id="Path_1243039" data-name="Path 1243039" d="M41.05,0h0a41.05,41.05,0,0,1,0,82.1h0a41.05,41.05,0,0,1,0-82.1Z" transform="translate(7.951 7.949)" fill="#ffc63f"/>
                <rect id="Rectangle_400907" data-name="Rectangle 400907" width="88.438" height="88.437" rx="44.218" transform="translate(4.782 4.781)" fill="none"/>
                <g id="Group_1098742" data-name="Group 1098742" transform="translate(0)">
                  <g id="Rectangle_400898" data-name="Rectangle 400898" transform="translate(0)" fill="none" stroke="#fff" stroke-width="2" opacity="0.859">
                    <rect width="98" height="97.999" rx="48.999" stroke="none"/>
                    <rect x="1" y="1" width="96" height="95.999" rx="47.999" fill="none"/>
                  </g>
                  <g id="Rectangle_400907-2" data-name="Rectangle 400907" transform="translate(0)" fill="none" stroke="#0f1f33" stroke-linecap="round" stroke-width="2">
                    <rect width="98" height="97.999" rx="48.999" stroke="none"/>
                    <rect x="1" y="1" width="96" height="95.999" rx="47.999" fill="none"/>
                  </g>
                </g>
              </g>
            </g>
          </g>
        </g>
      </g>
    </g>
    <g id="Mask_Group_1099485" data-name="Mask Group 1099485" clip-path="url(#clip-path)">
      <g id="Layer_2" data-name="Layer 2" transform="translate(1140.586 3878.606)">
        <g id="Layer_1" data-name="Layer 1">
          <g id="touch_screen" data-name="touch screen">
            <path id="Path_1328695" data-name="Path 1328695" d="M43.468,14.194h7.1a3.548,3.548,0,0,1,3.548,3.548V37.258a3.548,3.548,0,0,1-3.548,3.548H4.435A3.548,3.548,0,0,1,.887,37.258V17.742a3.548,3.548,0,0,1,3.548-3.548Z" fill="#8c95a4"/>
            <path id="Path_1328696" data-name="Path 1328696" d="M6.21,14.194H47.016V40.806H6.21Z" fill="#39c3fc"/>
            <path id="Path_1328697" data-name="Path 1328697" d="M6.21,38.145H47.016v2.661H6.21Z" fill="#148ce0"/>
            <circle id="Ellipse_12901" data-name="Ellipse 12901" cx="15.968" cy="15.968" r="15.968" transform="translate(11.532 0.887)" fill="#fcd770"/>
            <path id="Path_1328698" data-name="Path 1328698" d="M27.5.887a8.31,8.31,0,0,0-1.331.071,15.968,15.968,0,0,1,0,31.794,13.225,13.225,0,0,0,1.331.071A15.968,15.968,0,0,0,27.5.887Z" fill="#ffc729"/>
            <path id="Path_1328699" data-name="Path 1328699" d="M38.145,25.726A1.774,1.774,0,0,0,36.371,27.5V25.726a1.774,1.774,0,0,0-3.548,0V23.952a1.774,1.774,0,1,0-3.548,0V15.081a1.774,1.774,0,0,0-3.548,0V28.387H23.952a1.774,1.774,0,0,0-1.774,1.774V41.108a3.548,3.548,0,0,0,1.038,2.51l2.51,2.51v7.984H37.258V46.129l1.623-1.623A3.548,3.548,0,0,0,39.919,42V27.5a1.774,1.774,0,0,0-1.774-1.774Z" fill="#f9e0a6"/>
            <path id="Path_1328700" data-name="Path 1328700" d="M25.726,51.452H37.258v2.661H25.726Z" fill="#eabd8c"/>
            <path id="Path_1328701" data-name="Path 1328701" d="M37.258,55H25.726a.887.887,0,0,1-.887-.887v-7.62l-2.253-2.244a4.435,4.435,0,0,1-1.3-3.14V30.161A2.661,2.661,0,0,1,23.952,27.5h1.774a.887.887,0,1,1,0,1.774H23.952a.887.887,0,0,0-.887.887V41.108A2.661,2.661,0,0,0,23.845,43l2.51,2.5a.931.931,0,0,1,.257.63v7.1h9.758v-7.1a.931.931,0,0,1,.257-.63l1.623-1.615A2.661,2.661,0,0,0,39.032,42V27.5a.887.887,0,0,0-1.774,0v7.1a.887.887,0,0,1-1.774,0V27.5a2.661,2.661,0,1,1,5.323,0V42a4.435,4.435,0,0,1-1.3,3.14l-1.366,1.357v7.62a.887.887,0,0,1-.887.887Z"/>
            <path id="Path_1328702" data-name="Path 1328702" d="M25.726,38.145a.887.887,0,0,1-.887-.887V15.081a2.661,2.661,0,1,1,5.323,0V34.6a.887.887,0,0,1-1.774,0V15.081a.887.887,0,1,0-1.774,0V37.258A.887.887,0,0,1,25.726,38.145Z"/>
            <path id="Path_1328703" data-name="Path 1328703" d="M32.823,35.484a.887.887,0,0,1-.887-.887V23.952a.887.887,0,0,0-1.774,0V34.6a.887.887,0,0,1-1.774,0V23.952a2.661,2.661,0,1,1,5.323,0V34.6A.887.887,0,0,1,32.823,35.484Z"/>
            <path id="Path_1328704" data-name="Path 1328704" d="M36.371,35.484a.887.887,0,0,1-.887-.887V25.726a.887.887,0,0,0-1.774,0V34.6a.887.887,0,0,1-1.774,0V25.726a2.661,2.661,0,0,1,5.323,0V34.6A.887.887,0,0,1,36.371,35.484Z"/>
            <path id="Path_1328705" data-name="Path 1328705" d="M22.177,41.694H4.435A4.435,4.435,0,0,1,0,37.258V17.742a4.435,4.435,0,0,1,4.435-4.435h7.1a.887.887,0,0,1,0,1.774h-7.1a2.661,2.661,0,0,0-2.661,2.661V37.258a2.661,2.661,0,0,0,2.661,2.661H22.177a.887.887,0,0,1,0,1.774Z"/>
            <path id="Path_1328706" data-name="Path 1328706" d="M50.565,41.694H39.919a.887.887,0,0,1,0-1.774H50.565a2.661,2.661,0,0,0,2.661-2.661V17.742a2.661,2.661,0,0,0-2.661-2.661h-7.1a.887.887,0,1,1,0-1.774h7.1A4.435,4.435,0,0,1,55,17.742V37.258a4.435,4.435,0,0,1-4.435,4.435Z"/>
            <path id="Path_1328707" data-name="Path 1328707" d="M50.565,31.048a.887.887,0,0,1-.887-.887V24.839a.887.887,0,1,1,1.774,0v5.323A.887.887,0,0,1,50.565,31.048Z"/>
            <path id="Path_1328708" data-name="Path 1328708" d="M47.016,41.694a.887.887,0,0,1-.887-.887V14.194a.887.887,0,0,1,1.774,0V40.806A.887.887,0,0,1,47.016,41.694Z"/>
            <path id="Path_1328709" data-name="Path 1328709" d="M6.21,41.694a.887.887,0,0,1-.887-.887V14.194a.887.887,0,0,1,1.774,0V40.806A.887.887,0,0,1,6.21,41.694Z"/>
            <path id="Path_1328710" data-name="Path 1328710" d="M34.047,24.839a.807.807,0,0,1-.346-.071.887.887,0,0,1-.479-1.153,17.609,17.609,0,0,0,1.375-6.76c0-9.19-7.567-15.2-7.647-15.267a.888.888,0,0,1,1.091-1.4c.346.266,8.33,6.591,8.33,16.669a19.365,19.365,0,0,1-1.508,7.434.887.887,0,0,1-.816.55Z"/>
            <path id="Path_1328711" data-name="Path 1328711" d="M27.5,9.758c-8.33,0-11.24-3.744-11.355-3.9a.887.887,0,0,1,1.41-1.073c.053.062,2.608,3.2,9.944,3.2s9.918-3.167,9.944-3.2a.887.887,0,0,1,1.41,1.073C38.74,6.015,35.83,9.758,27.5,9.758Z"/>
            <path id="Path_1328712" data-name="Path 1328712" d="M16.855,29.274a.887.887,0,0,1-.71-1.419c.106-.133,2.581-3.344,9.519-3.841a.889.889,0,1,1,.124,1.774c-6.13.435-8.206,3.1-8.223,3.131a.887.887,0,0,1-.71.355Z"/>
            <path id="Path_1328713" data-name="Path 1328713" d="M23.428,29.274a.887.887,0,0,1-.719-.373,20.8,20.8,0,0,1-4.081-12.047c0-10.077,7.984-16.4,8.33-16.669a.888.888,0,0,1,1.091,1.4C27.97,1.65,20.4,7.665,20.4,16.855a18.78,18.78,0,0,0,3.752,11.018.887.887,0,0,1-.727,1.4Z"/>
            <path id="Path_1328714" data-name="Path 1328714" d="M27.5,14.194a.887.887,0,0,1-.887-.887V.887a.887.887,0,1,1,1.774,0V13.306A.887.887,0,0,1,27.5,14.194Z"/>
            <path id="Path_1328715" data-name="Path 1328715" d="M43.468,17.742H29.274a.887.887,0,0,1,0-1.774H43.468a.887.887,0,0,1,0,1.774Z"/>
            <path id="Path_1328716" data-name="Path 1328716" d="M25.726,17.742H11.532a.887.887,0,1,1,0-1.774H25.726a.887.887,0,1,1,0,1.774Z"/>
            <path id="Path_1328717" data-name="Path 1328717" d="M22.177,32.823a.887.887,0,0,1-.293-.053,16.855,16.855,0,1,1,18.727-5.323.887.887,0,0,1-1.384-1.109,15.081,15.081,0,1,0-16.757,4.71.9.9,0,1,1-.293,1.774Z"/>
          </g>
        </g>
      </g>
    </g>
  </g>
</svg>
