<svg xmlns="http://www.w3.org/2000/svg" xmlns:xlink="http://www.w3.org/1999/xlink" width="190" height="183.333" viewBox="0 0 190 183.333">
  <defs>
    <clipPath id="clip-path">
      <rect id="Rectangle_412572" data-name="Rectangle 412572" width="190" height="183.333" transform="translate(1139.586 3878.605)" fill="#fff" stroke="#707070" stroke-width="1"/>
    </clipPath>
  </defs>
  <g id="Mask_Group_1099539" data-name="Mask Group 1099539" transform="translate(-1139.586 -3878.605)" clip-path="url(#clip-path)">
    <g id="photo-camera_5744480" transform="translate(1142.921 3878.607)">
      <path id="Path_1329569" data-name="Path 1329569" d="M1.774,1.774H102.312V125.968H1.774Z" transform="translate(1.183 1.183)" fill="#6282c4"/>
      <path id="Path_1329570" data-name="Path 1329570" d="M1.774,1.774h88.71V96.4H1.774Z" transform="translate(1.183 1.183)" fill="#739bd8"/>
      <path id="Path_1329571" data-name="Path 1329571" d="M5.323,5.323H82.2v82.8H5.323Z" transform="translate(9.462 9.462)" fill="#e2e7f6"/>
      <path id="Path_1329572" data-name="Path 1329572" d="M70.376,21.491V5.323H5.323v28H58.548A11.828,11.828,0,0,0,70.376,21.491Z" transform="translate(9.462 9.462)" fill="#f2f2f2"/>
      <path id="Path_1329573" data-name="Path 1329573" d="M51.035,22.731a10.891,10.891,0,0,0-18.307,0L15.081,50.27v8.871H59.435V37.052Z" transform="translate(32.231 38.44)" fill="#4d8c28"/>
      <path id="Path_1329574" data-name="Path 1329574" d="M42.164,22.058a10.814,10.814,0,0,0-4.731-4.027,10.823,10.823,0,0,0-4.716,4.027L15.081,49.6v8.871H50.565V36.378Z" transform="translate(32.231 39.114)" fill="#5fa035"/>
      <path id="Path_1329575" data-name="Path 1329575" d="M32.122,17.742a10.864,10.864,0,0,0-9.167,4.988L5.323,50.269V59.14H62.638L41.277,22.73a10.87,10.87,0,0,0-9.155-4.988Z" transform="translate(9.462 38.441)" fill="#559b2d"/>
      <path id="Path_1329576" data-name="Path 1329576" d="M5.323,53.081H50.81L30.111,17.8a10.837,10.837,0,0,0-7.141,4.781L5.323,50.124Z" transform="translate(9.462 38.586)" fill="#65b234"/>
      <path id="Path_1329577" data-name="Path 1329577" d="M26.067,32.527A11.828,11.828,0,1,1,37.957,20.7a11.828,11.828,0,0,1-11.89,11.828Z" transform="translate(30.412 17.742)" fill="#f4a93c"/>
      <rect id="Rectangle_426353" data-name="Rectangle 426353" width="136.021" height="94.624" rx="3.548" transform="translate(44.355 85.753)" fill="#c8cded"/>
      <path id="Path_1329578" data-name="Path 1329578" d="M138.387,26.613H26.022A11.828,11.828,0,0,0,14.194,38.441v70.968H138.387Z" transform="translate(30.161 59.14)" fill="#d6dcfc"/>
      <path id="Path_1329579" data-name="Path 1329579" d="M17.742,30.161H94.624v70.968H17.742Z" transform="translate(38.441 67.419)" fill="#e2e6f9"/>
      <path id="Path_1329580" data-name="Path 1329580" d="M44.355,47.9H56.183V59.731H44.355Z" transform="translate(100.538 108.817)" fill="#6282c4"/>
      <path id="Path_1329581" data-name="Path 1329581" d="M47.9,47.9H59.731V59.731H47.9Z" transform="translate(108.817 108.817)" fill="#3b5892"/>
      <path id="Path_1329582" data-name="Path 1329582" d="M44.355,40.806H56.183V52.634H44.355Z" transform="translate(100.538 92.258)" fill="#6282c4"/>
      <path id="Path_1329583" data-name="Path 1329583" d="M53.226,46.72V40.806H44.355v8.871h5.914A2.957,2.957,0,0,0,53.226,46.72Z" transform="translate(100.538 92.258)" fill="#739bd8"/>
      <path id="Path_1329584" data-name="Path 1329584" d="M47.9,40.806H59.731V52.634H47.9Z" transform="translate(108.817 92.258)" fill="#3b5892"/>
      <path id="Path_1329585" data-name="Path 1329585" d="M56.774,46.72V40.806H47.9v8.871h5.914A2.957,2.957,0,0,0,56.774,46.72Z" transform="translate(108.817 92.258)" fill="#456eaf"/>
      <path id="Path_1329586" data-name="Path 1329586" d="M53.226,53.817V47.9H44.355v8.871h5.914A2.957,2.957,0,0,0,53.226,53.817Z" transform="translate(100.538 108.817)" fill="#739bd8"/>
      <path id="Path_1329587" data-name="Path 1329587" d="M56.774,53.817V47.9H47.9v8.871h5.914A2.957,2.957,0,0,0,56.774,53.817Z" transform="translate(108.817 108.817)" fill="#456eaf"/>
      <path id="Path_1329588" data-name="Path 1329588" d="M85.753,89.3V30.161H17.742v62.1H82.8A2.957,2.957,0,0,0,85.753,89.3Z" transform="translate(38.441 67.419)" fill="#f7fafd"/>
      <circle id="Ellipse_12961" data-name="Ellipse 12961" cx="11.828" cy="11.828" r="11.828" transform="translate(144.892 97.581)" fill="#3b5892"/>
      <path id="Path_1329589" data-name="Path 1329589" d="M56.183,30.161a11.81,11.81,0,0,0-9.7,18.57A11.81,11.81,0,0,0,62.928,32.287a11.76,11.76,0,0,0-6.745-2.126Z" transform="translate(100.538 67.419)" fill="#456eaf"/>
      <path id="Path_1329590" data-name="Path 1329590" d="M26.317,53.521H20.4V35.78a2.957,2.957,0,0,1,2.957-2.957H41.1v5.914H26.317Z" transform="translate(44.651 73.629)" fill="#3b5892"/>
      <path id="Path_1329591" data-name="Path 1329591" d="M49.677,63.28H31.935V57.366H46.72V42.581h5.914V60.323A2.957,2.957,0,0,1,49.677,63.28Z" transform="translate(71.559 96.398)" fill="#3b5892"/>
      <path id="Path_1329592" data-name="Path 1329592" d="M44.857,46.791a11.8,11.8,0,0,0,4.181,4.181L65.166,34.845a11.8,11.8,0,0,0-4.181-4.181Z" transform="translate(101.709 68.591)" fill="#739bd8"/>
      <path id="Path_1329593" data-name="Path 1329593" d="M67.124,34.892V28.978a5.914,5.914,0,0,0-5.914-5.914H49.382a5.914,5.914,0,0,0-5.914,5.914v5.914Z" transform="translate(98.468 50.86)" fill="#3b5892"/>
      <path id="Path_1329594" data-name="Path 1329594" d="M19.516,34.892,25.43,23.065H78.656L84.57,34.892Z" transform="translate(42.581 50.86)" fill="#3b5892"/>
      <g id="Group_1207672" data-name="Group 1207672" transform="translate(76.882 115.323)">
        <path id="Path_1329595" data-name="Path 1329595" d="M39.624,65.941A14.785,14.785,0,1,1,54.409,51.156,14.785,14.785,0,0,1,39.624,65.941Zm0-23.656a8.871,8.871,0,1,0,8.871,8.871A8.871,8.871,0,0,0,39.624,42.285Z" transform="translate(-21.882 -33.414)" fill="#4c6cb5"/>
        <path id="Path_1329596" data-name="Path 1329596" d="M23.952,39.919H35.78v5.914H23.952Z" transform="translate(-23.952 -25.134)" fill="#4c6cb5"/>
        <path id="Path_1329597" data-name="Path 1329597" d="M31.048,39.919H42.876v5.914H31.048Z" transform="translate(-7.392 -25.134)" fill="#4c6cb5"/>
        <path id="Path_1329598" data-name="Path 1329598" d="M28.387,42.581H34.3V54.409H28.387Z" transform="translate(-13.602 -18.925)" fill="#4c6cb5"/>
        <path id="Path_1329599" data-name="Path 1329599" d="M28.387,35.484H34.3V47.312H28.387Z" transform="translate(-13.602 -35.484)" fill="#4c6cb5"/>
      </g>
      <path id="Path_1329600" data-name="Path 1329600" d="M31.084,9.969A11.843,11.843,0,0,0,14.262,20.7a11.671,11.671,0,0,0,.855,4.341H25.17a5.914,5.914,0,0,0,5.914-5.914Z" transform="translate(30.321 17.741)" fill="#f6b940"/>
      <path id="Path_1329601" data-name="Path 1329601" d="M20.226,30.161H73.351A2.957,2.957,0,0,0,76.308,27.2v-4.14H23.774Z" transform="translate(44.237 50.86)" fill="#456eaf"/>
      <path id="Path_1329602" data-name="Path 1329602" d="M60.58,27.2v-4.14h-11.2a5.914,5.914,0,0,0-5.914,5.914v1.183H57.623A2.957,2.957,0,0,0,60.58,27.2Z" transform="translate(98.468 50.86)" fill="#456eaf"/>
      <path id="Path_1329603" data-name="Path 1329603" d="M26.022,32.527A11.828,11.828,0,1,0,14.194,20.7,11.828,11.828,0,0,0,26.022,32.527Zm0-17.742A5.914,5.914,0,1,1,20.108,20.7,5.914,5.914,0,0,1,26.022,14.785Z" transform="translate(30.161 17.742)"/>
      <path id="Path_1329604" data-name="Path 1329604" d="M169.435,83.683V80.726a8.871,8.871,0,0,0-8.871-8.871H148.737a8.871,8.871,0,0,0-8.871,8.871v2.957h-10l-5.08-10.193a2.957,2.957,0,0,0-2.661-1.635H107.339V3.844A2.957,2.957,0,0,0,104.382.887H3.844A2.957,2.957,0,0,0,.887,3.844V128.038a2.957,2.957,0,0,0,2.957,2.957H42.285v38.441A14.8,14.8,0,0,0,57.07,184.22H169.435a14.8,14.8,0,0,0,14.785-14.785V98.468A14.8,14.8,0,0,0,169.435,83.683ZM145.78,80.726a2.957,2.957,0,0,1,2.957-2.957h11.828a2.957,2.957,0,0,1,2.957,2.957v2.957H145.78Zm-22.526,2.957H67.768l2.957-5.914H120.3ZM89.6,65.5l-3.2-5.027a13.735,13.735,0,0,0-23.171,0l-4.678,7.351L53.87,60.47a13.735,13.735,0,0,0-23.171,0L18.629,79.44V18.629H89.6ZM68.218,63.649a7.812,7.812,0,0,1,13.188,0l5.234,8.206H68.9a2.957,2.957,0,0,0-2.646,1.635l-1.8,3.608-2.4-3.764ZM6.8,125.081V6.8h94.624V71.855H95.511V15.672a2.957,2.957,0,0,0-2.957-2.957H15.672a2.957,2.957,0,0,0-2.957,2.957v82.8a2.957,2.957,0,0,0,2.957,2.957H42.285v23.656Zm35.78-29.57H18.629V90.46L35.691,63.649a7.812,7.812,0,0,1,13.188,0L61.363,83.266l-.207.417H57.07A14.812,14.812,0,0,0,42.581,95.511Zm135.726,73.925a8.871,8.871,0,0,1-8.871,8.871H57.07a8.871,8.871,0,0,1-8.871-8.871V98.468A8.871,8.871,0,0,1,57.07,89.6H169.435a8.871,8.871,0,0,1,8.871,8.871Z" transform="translate(-0.887 -0.887)"/>
      <path id="Path_1329605" data-name="Path 1329605" d="M96.694,29.274H19.812a2.957,2.957,0,0,0-2.957,2.957V103.2a2.957,2.957,0,0,0,2.957,2.957H96.694A2.957,2.957,0,0,0,99.65,103.2V32.231A2.957,2.957,0,0,0,96.694,29.274Zm-2.957,70.968H22.769V35.188H93.737Z" transform="translate(36.371 65.349)"/>
      <path id="Path_1329606" data-name="Path 1329606" d="M58.253,29.274A14.785,14.785,0,1,0,73.038,44.059,14.785,14.785,0,0,0,58.253,29.274Zm0,5.914a8.726,8.726,0,0,1,3.8.887L50.269,47.859a8.726,8.726,0,0,1-.887-3.8A8.871,8.871,0,0,1,58.253,35.188Zm0,17.742a8.726,8.726,0,0,1-3.8-.887L66.237,40.259a8.726,8.726,0,0,1,.887,3.8A8.871,8.871,0,0,1,58.253,52.93Z" transform="translate(98.468 65.349)"/>
      <path id="Path_1329607" data-name="Path 1329607" d="M26.317,38.737H41.1V32.823H23.36A2.957,2.957,0,0,0,20.4,35.78V53.521h5.914Z" transform="translate(44.651 73.629)"/>
      <path id="Path_1329608" data-name="Path 1329608" d="M31.935,63.28H49.677a2.957,2.957,0,0,0,2.957-2.957V42.581H46.72V57.366H31.935Z" transform="translate(71.559 96.398)"/>
      <path id="Path_1329609" data-name="Path 1329609" d="M70.081,39.919H46.425a2.957,2.957,0,0,0-2.957,2.957V54.7a2.957,2.957,0,0,0,2.957,2.957H70.081A2.957,2.957,0,0,0,73.038,54.7V42.876A2.957,2.957,0,0,0,70.081,39.919Zm-20.7,5.914H55.3v5.914H49.382Zm17.742,5.914H61.21V45.833h5.914Z" transform="translate(98.468 90.188)"/>
      <path id="Path_1329610" data-name="Path 1329610" d="M70.081,47.016H46.425a2.957,2.957,0,0,0-2.957,2.957V61.8a2.957,2.957,0,0,0,2.957,2.957H70.081A2.957,2.957,0,0,0,73.038,61.8V49.973A2.957,2.957,0,0,0,70.081,47.016Zm-20.7,5.914H55.3v5.914H49.382Zm17.742,5.914H61.21V52.93h5.914Z" transform="translate(98.468 106.747)"/>
      <path id="Path_1329611" data-name="Path 1329611" d="M27.2,50.269H23.952v5.914H27.2A14.832,14.832,0,0,0,38.737,67.715v3.253h5.914V67.715A14.832,14.832,0,0,0,56.183,56.183h3.253V50.269H56.183A14.832,14.832,0,0,0,44.651,38.737V35.484H38.737v3.253A14.832,14.832,0,0,0,27.2,50.269Zm22.813,0h-2.41v5.914H50.02a8.871,8.871,0,0,1-5.37,5.37V59.14H38.737v2.413a8.871,8.871,0,0,1-5.37-5.37H35.78V50.269H33.367a8.871,8.871,0,0,1,5.37-5.37v2.413h5.914V44.9a8.871,8.871,0,0,1,5.37,5.37Z" transform="translate(52.93 79.839)"/>
    </g>
  </g>
</svg>
