<svg xmlns="http://www.w3.org/2000/svg" xmlns:xlink="http://www.w3.org/1999/xlink" width="98" height="97.999" viewBox="0 0 98 97.999">
  <defs>
    <clipPath id="clip-path">
      <rect id="Rectangle_412572" data-name="Rectangle 412572" width="57" height="55" transform="translate(1139.586 3878.606)" fill="#fff" stroke="#707070" stroke-width="1"/>
    </clipPath>
  </defs>
  <g id="Group_1207175" data-name="Group 1207175" transform="translate(-1119.086 -3857.106)">
    <g id="Group_1204751" data-name="Group 1204751" transform="translate(1119.086 3857.106)">
      <g id="Group_1204438" data-name="Group 1204438">
        <g id="Group_1204285" data-name="Group 1204285">
          <g id="Group_1204180" data-name="Group 1204180">
            <g id="Group_1204143" data-name="Group 1204143">
              <g id="Group_1188789" data-name="Group 1188789" transform="translate(0)">
                <path id="Path_1243039" data-name="Path 1243039" d="M41.05,0h0a41.05,41.05,0,0,1,0,82.1h0a41.05,41.05,0,0,1,0-82.1Z" transform="translate(7.951 7.949)" fill="#ffc63f"/>
                <rect id="Rectangle_400907" data-name="Rectangle 400907" width="88.438" height="88.437" rx="44.218" transform="translate(4.782 4.781)" fill="none"/>
                <g id="Group_1098742" data-name="Group 1098742" transform="translate(0)">
                  <g id="Rectangle_400898" data-name="Rectangle 400898" transform="translate(0)" fill="none" stroke="#fff" stroke-width="2" opacity="0.859">
                    <rect width="98" height="97.999" rx="48.999" stroke="none"/>
                    <rect x="1" y="1" width="96" height="95.999" rx="47.999" fill="none"/>
                  </g>
                  <g id="Rectangle_400907-2" data-name="Rectangle 400907" transform="translate(0)" fill="none" stroke="#0f1f33" stroke-linecap="round" stroke-width="2">
                    <rect width="98" height="97.999" rx="48.999" stroke="none"/>
                    <rect x="1" y="1" width="96" height="95.999" rx="47.999" fill="none"/>
                  </g>
                </g>
              </g>
            </g>
          </g>
        </g>
      </g>
    </g>
    <g id="Mask_Group_1099533" data-name="Mask Group 1099533" clip-path="url(#clip-path)">
      <g id="Layer_x0020_1" transform="translate(1140.491 3878.511)">
        <path id="Path_1329485" data-name="Path 1329485" d="M34.008,44.874a.937.937,0,0,1-.467-1.748l1.659-.959a.938.938,0,1,1,.935,1.626l-1.659.956A.926.926,0,0,1,34.008,44.874Zm20.243-7.162H.938A.938.938,0,0,1,0,36.774V21.8a.938.938,0,0,1,.938-.938H54.251a.938.938,0,0,1,.938.938V36.774A.938.938,0,0,1,54.251,37.712ZM1.876,35.836h51.44v-13.1H1.876ZM7.633,16.411C3.881,12.659,0,8.779,0,4.712A4.623,4.623,0,0,1,4.617.095,4.187,4.187,0,0,1,8.3,1.956,4.187,4.187,0,0,1,11.975.095a4.623,4.623,0,0,1,4.617,4.617c0,4.067-3.881,7.947-7.633,11.7A.942.942,0,0,1,7.633,16.411ZM4.617,1.968A2.745,2.745,0,0,0,1.876,4.712c0,3.08,3.156,6.435,6.42,9.711,3.263-3.276,6.42-6.631,6.42-9.711a2.745,2.745,0,0,0-2.741-2.744c-1.317,0-1.983.526-2.842,2.243a.938.938,0,0,1-1.674,0C6.6,2.493,5.934,1.968,4.617,1.968ZM26.91,16.39l-3.239-3.45H20.432a.936.936,0,0,1-.938-.935V1.03a.936.936,0,0,1,.938-.935H34.76a.935.935,0,0,1,.935.935V12.005a.935.935,0,0,1-.935.935H31.518l-3.239,3.45A.945.945,0,0,1,26.91,16.39Zm-5.543-5.323h2.71a.936.936,0,0,1,.684.3l2.833,3.016,2.836-3.016a.935.935,0,0,1,.681-.3h2.71v-9.1H21.368ZM54.251,13.2H50.814v.8a2.682,2.682,0,0,1-2.677,2.68H47.046a2.682,2.682,0,0,1-2.677-2.68v-.8H40.929a.935.935,0,0,1-.935-.935v-5.1a6.043,6.043,0,0,1,6.038-6.038h.623v-.1a.937.937,0,0,1,1.873,0v.1h.623a6.043,6.043,0,0,1,6.038,6.038v5.1A.936.936,0,0,1,54.251,13.2ZM41.867,11.33H53.316V7.165A4.172,4.172,0,0,0,49.152,3h-3.12a4.17,4.17,0,0,0-4.165,4.165ZM46.243,13.2v.8a.8.8,0,0,0,.8.8h1.091a.8.8,0,0,0,.8-.8v-.8ZM30.855,55.095H24.334a.935.935,0,0,1-.935-.935V51.287H21.077a.94.94,0,0,1-.767-1.479l6.521-9.228a.937.937,0,0,1,1.531,0l6.487,9.185a.938.938,0,0,1-.733,1.522H31.793V54.16A.938.938,0,0,1,30.855,55.095Zm-5.583-1.873h4.644V50.349a.936.936,0,0,1,.938-.935h1.451l-4.712-6.67-4.709,6.67h1.448a.936.936,0,0,1,.938.935ZM49.023,27.8H6.166a.938.938,0,0,1,0-1.876H49.023a.938.938,0,0,1,0,1.876Zm0,4.843H6.166a.938.938,0,1,1,0-1.876H49.023a.938.938,0,0,1,0,1.876ZM21.181,44.874a.926.926,0,0,1-.467-.125l-1.659-.956a.938.938,0,0,1,.938-1.626l1.659.959A.938.938,0,0,1,21.181,44.874Zm2.713-2.71a.939.939,0,0,1-.813-.468l-.959-1.659a.937.937,0,1,1,1.623-.938l.959,1.659A.938.938,0,0,1,23.894,42.164Zm7.4,0a.939.939,0,0,1-.813-1.406l.959-1.659a.937.937,0,1,1,1.623.938L32.111,41.7A.939.939,0,0,1,31.3,42.164Z" fill="#333" fill-rule="evenodd"/>
        <path id="Path_1329486" data-name="Path 1329486" d="M32.306,49.414l-4.712-6.67-4.709,6.67h1.448a.936.936,0,0,1,.938.935v2.872h4.644V50.349a.936.936,0,0,1,.938-.935Z" fill="#ff3131" fill-rule="evenodd"/>
        <path id="Path_1329487" data-name="Path 1329487" d="M1.876,35.836h51.44v-13.1H1.876Zm47.147-3.19H6.166a.938.938,0,1,1,0-1.876H49.023a.938.938,0,0,1,0,1.876Zm0-4.843H6.166a.938.938,0,0,1,0-1.876H49.023a.938.938,0,0,1,0,1.876Z" fill="#ffe4af" fill-rule="evenodd"/>
        <path id="Path_1329488" data-name="Path 1329488" d="M8.3,14.422c3.263-3.276,6.42-6.631,6.42-9.711a2.745,2.745,0,0,0-2.741-2.744c-1.317,0-1.983.526-2.842,2.243a.938.938,0,0,1-1.674,0C6.6,2.493,5.934,1.968,4.617,1.968A2.745,2.745,0,0,0,1.876,4.712C1.876,7.792,5.032,11.147,8.3,14.422Z" fill="#ff3131" fill-rule="evenodd"/>
        <path id="Path_1329489" data-name="Path 1329489" d="M21.368,1.968v9.1h2.71a.936.936,0,0,1,.684.3l2.833,3.016,2.836-3.016a.935.935,0,0,1,.681-.3h2.71v-9.1Z" fill="#7dd63e" fill-rule="evenodd"/>
        <path id="Path_1329490" data-name="Path 1329490" d="M46.032,3a4.17,4.17,0,0,0-4.165,4.165V11.33H53.316V7.165A4.172,4.172,0,0,0,49.152,3Z" fill="#ffa721" fill-rule="evenodd"/>
        <path id="Path_1329491" data-name="Path 1329491" d="M48.941,13.2h-2.7v.8a.8.8,0,0,0,.8.8h1.091a.8.8,0,0,0,.8-.8Z" fill="#ff3131" fill-rule="evenodd"/>
      </g>
    </g>
  </g>
</svg>
