<svg xmlns="http://www.w3.org/2000/svg" xmlns:xlink="http://www.w3.org/1999/xlink" width="98" height="97.999" viewBox="0 0 98 97.999">
  <defs>
    <clipPath id="clip-path">
      <rect id="Rectangle_412572" data-name="Rectangle 412572" width="57" height="55" transform="translate(1139.586 3878.606)" fill="#fff" stroke="#707070" stroke-width="1"/>
    </clipPath>
  </defs>
  <g id="Group_1206449" data-name="Group 1206449" transform="translate(-1119.086 -3857.106)">
    <g id="Group_1204751" data-name="Group 1204751" transform="translate(1119.086 3857.106)">
      <g id="Group_1204438" data-name="Group 1204438">
        <g id="Group_1204285" data-name="Group 1204285">
          <g id="Group_1204180" data-name="Group 1204180">
            <g id="Group_1204143" data-name="Group 1204143">
              <g id="Group_1188789" data-name="Group 1188789" transform="translate(0)">
                <path id="Path_1243039" data-name="Path 1243039" d="M41.05,0h0a41.05,41.05,0,0,1,0,82.1h0a41.05,41.05,0,0,1,0-82.1Z" transform="translate(7.951 7.949)" fill="#ffc63f"/>
                <rect id="Rectangle_400907" data-name="Rectangle 400907" width="88.438" height="88.437" rx="44.218" transform="translate(4.782 4.781)" fill="none"/>
                <g id="Group_1098742" data-name="Group 1098742" transform="translate(0)">
                  <g id="Rectangle_400898" data-name="Rectangle 400898" transform="translate(0)" fill="none" stroke="#fff" stroke-width="2" opacity="0.859">
                    <rect width="98" height="97.999" rx="48.999" stroke="none"/>
                    <rect x="1" y="1" width="96" height="95.999" rx="47.999" fill="none"/>
                  </g>
                  <g id="Rectangle_400907-2" data-name="Rectangle 400907" transform="translate(0)" fill="none" stroke="#0f1f33" stroke-linecap="round" stroke-width="2">
                    <rect width="98" height="97.999" rx="48.999" stroke="none"/>
                    <rect x="1" y="1" width="96" height="95.999" rx="47.999" fill="none"/>
                  </g>
                </g>
              </g>
            </g>
          </g>
        </g>
      </g>
    </g>
    <g id="Mask_Group_1099486" data-name="Mask Group 1099486" clip-path="url(#clip-path)">
      <g id="social_780563" transform="translate(1140.586 3878.606)">
        <circle id="Ellipse_12902" data-name="Ellipse 12902" cx="13.189" cy="13.189" r="13.189" transform="translate(14.509 13.777)" fill="#85c2ef"/>
        <path id="Path_1328718" data-name="Path 1328718" d="M17.562,26.966a13.19,13.19,0,0,1,11.663-13.1,13.189,13.189,0,1,0,0,26.2A13.19,13.19,0,0,1,17.562,26.966Z" fill="#69afeb"/>
        <circle id="Ellipse_12903" data-name="Ellipse 12903" cx="7.5" cy="7.5" r="7.5" transform="translate(39.154 38.652)" fill="#efefef"/>
        <path id="Path_1328719" data-name="Path 1328719" d="M41.3,46.152a7.5,7.5,0,0,1,6.425-7.422,7.5,7.5,0,1,0,0,14.844A7.5,7.5,0,0,1,41.3,46.152Z" fill="#e2e2e2"/>
        <circle id="Ellipse_12904" data-name="Ellipse 12904" cx="7.5" cy="7.5" r="7.5" transform="translate(39.154 0.806)" fill="#ff4b4b"/>
        <path id="Path_1328720" data-name="Path 1328720" d="M41.3,8.305A7.5,7.5,0,0,1,47.728.884a7.5,7.5,0,1,0,0,14.844A7.5,7.5,0,0,1,41.3,8.305Z" fill="#c83741"/>
        <circle id="Ellipse_12905" data-name="Ellipse 12905" cx="7.5" cy="7.5" r="7.5" transform="translate(0.851 0.806)" fill="#6edcf9"/>
        <path id="Path_1328721" data-name="Path 1328721" d="M3,8.305A7.5,7.5,0,0,1,9.424.884a7.5,7.5,0,1,0,0,14.844A7.5,7.5,0,0,1,3,8.305Z" fill="#85c2ef"/>
        <path id="Path_1328722" data-name="Path 1328722" d="M9.164,38.145A6.977,6.977,0,0,0,5.042,50.752V53.76a.433.433,0,0,0,.681.354l2.9-2.037a6.977,6.977,0,1,0,.541-13.932Z" fill="#8ce16e"/>
        <path id="Path_1328723" data-name="Path 1328723" d="M7.191,50.917a.9.9,0,0,0-.33-.691A6.982,6.982,0,0,1,9.377,38.15c-.071,0-.142-.005-.214-.005A6.977,6.977,0,0,0,5.042,50.752V53.76a.433.433,0,0,0,.681.354l1.467-1.031S7.191,50.917,7.191,50.917Z" fill="#7dc86e"/>
        <path id="Path_1328724" data-name="Path 1328724" d="M45.114,48.618a.218.218,0,0,1-.316-.2V43.881a.218.218,0,0,1,.316-.2l4.542,2.271a.218.218,0,0,1,0,.39Z" fill="#ff4b4b"/>
        <g id="Group_1207477" data-name="Group 1207477">
          <path id="Path_1328725" data-name="Path 1328725" d="M46.947,44.6l-1.833-.917a.218.218,0,0,0-.316.2v4.542a.218.218,0,0,0,.316.2l1.833-.917Z" fill="#c83741"/>
          <path id="Path_1328726" data-name="Path 1328726" d="M48.619,5.516a1.964,1.964,0,0,0-1.711,1h0a.31.31,0,0,1-.51,0h0a1.964,1.964,0,0,0-1.71-1c-2.637,0-3.075,4.237,1.628,6.689a.728.728,0,0,0,.674,0C51.7,9.75,51.249,5.516,48.619,5.516Z" fill="#c83741"/>
        </g>
        <path id="Path_1328727" data-name="Path 1328727" d="M44.871,7.484a1.966,1.966,0,0,1,.891-1.647,1.951,1.951,0,0,0-1.074-.321c-2.637,0-3.075,4.237,1.628,6.689a.729.729,0,0,0,.674,0c.19-.1.447-.243.737-.43C46.564,11.025,44.871,9.576,44.871,7.484Z" fill="#963737"/>
        <path id="Path_1328728" data-name="Path 1328728" d="M8.658,11.822l3.956-3.956a.436.436,0,0,0,.023-.592,5.667,5.667,0,0,0-8.574,0,.436.436,0,0,0,.023.592l3.956,3.956A.435.435,0,0,0,8.658,11.822Z" fill="#85c2ef"/>
        <g id="Group_1207478" data-name="Group 1207478">
          <path id="Path_1328729" data-name="Path 1328729" d="M5.7,5.969a5.688,5.688,0,0,0-1.639,1.3.436.436,0,0,0,.023.592l3.956,3.956a.435.435,0,0,0,.615,0L10.081,10.4C5.469,5.787,5.771,6.11,5.7,5.969Z" fill="#69afeb"/>
          <path id="Path_1328730" data-name="Path 1328730" d="M8.042,11.822a.435.435,0,0,0,.615,0L10.79,9.689A3.1,3.1,0,0,0,8.35,8.351,3.1,3.1,0,0,0,5.91,9.689Z" fill="#69afeb"/>
        </g>
        <path id="Path_1328731" data-name="Path 1328731" d="M9.085,11.395l1-1-2.03-2.03A3.188,3.188,0,0,0,5.91,9.689l2.133,2.133a.435.435,0,0,0,.547.056.428.428,0,0,0,.068-.056Z" fill="#5091d7"/>
        <g id="Group_1207479" data-name="Group 1207479">
          <path id="Path_1328732" data-name="Path 1328732" d="M11.736,46.073H6.587a.806.806,0,1,0,0,1.611h5.148a.806.806,0,0,0,0-1.611Z" fill="#020202"/>
          <path id="Path_1328733" data-name="Path 1328733" d="M11.736,42.991H6.587a.806.806,0,0,0,0,1.611h5.148a.806.806,0,0,0,0-1.611Z" fill="#020202"/>
          <path id="Path_1328734" data-name="Path 1328734" d="M43.991,43.882v4.542a1.022,1.022,0,0,0,1.482.916l4.542-2.271a1.024,1.024,0,0,0,0-1.832l-4.542-2.271A1.024,1.024,0,0,0,43.991,43.882Zm1.611.951,2.641,1.32L45.6,47.473Z" fill="#020202"/>
          <path id="Path_1328735" data-name="Path 1328735" d="M45.942,12.919a1.536,1.536,0,0,0,1.419,0c1.211-.631,4.028-2.424,4.028-5.435A2.774,2.774,0,0,0,46.651,5.53a2.775,2.775,0,0,0-1.965-.82C41.23,4.71,40.36,10.01,45.942,12.919Zm-.247-6.008a.806.806,0,0,0,.115.156,1.112,1.112,0,0,0,1.8-.156,1.159,1.159,0,0,1,2.169.572c0,2.155-2.346,3.576-3.126,3.988-.78-.412-3.126-1.833-3.126-3.988A1.161,1.161,0,0,1,45.695,6.912Z" fill="#020202"/>
          <path id="Path_1328736" data-name="Path 1328736" d="M3.452,6.746a1.245,1.245,0,0,0,.063,1.689C3.58,8.5,7.466,12.39,7.535,12.45a.666.666,0,0,0,.107.084l.017.013a1.242,1.242,0,0,0,1.565-.156l3.956-3.956a1.245,1.245,0,0,0,.063-1.689A6.475,6.475,0,0,0,3.452,6.746Zm4.9,4.244h0L7.029,9.67a2.06,2.06,0,0,1,1.319-.514,2.06,2.06,0,0,1,1.319.514ZM10.81,8.528a3.573,3.573,0,0,0-4.923,0l-.981-.981a4.862,4.862,0,0,1,6.885,0Z" fill="#020202"/>
          <path id="Path_1328737" data-name="Path 1328737" d="M48.555,38.069a.806.806,0,1,0-.368,1.569,6.694,6.694,0,1,1-3.357.074.806.806,0,1,0-.438-1.551A8.244,8.244,0,0,0,41.4,39.724L38.028,36.4A13.982,13.982,0,0,0,39.37,19.258a12.23,12.23,0,0,0-1.153-1.519l3.112-3.064a8.3,8.3,0,1,0-1.13-1.148L37.087,16.59a13.994,13.994,0,0,0-18.9.109L14.84,13.479a8.326,8.326,0,0,0,1.448-2.731.806.806,0,1,0-1.54-.473,6.7,6.7,0,1,1,.15-3.357.806.806,0,0,0,1.577-.332A8.306,8.306,0,1,0,8.348,16.611a8.227,8.227,0,0,0,5.372-1.974l3.35,3.223a13.991,13.991,0,0,0,.189,18.426l-3.041,2.926A7.78,7.78,0,1,0,4.235,51.147v2.614a1.237,1.237,0,0,0,1.95,1.013L8.853,52.9c.108,0,.21.007.309.007a7.777,7.777,0,0,0,6.166-12.526L18.4,37.426a14,14,0,0,0,18.476.1l3.385,3.332a8.3,8.3,0,1,0,8.3-2.793Zm-8.6-29.763A6.694,6.694,0,1,1,46.652,15,6.7,6.7,0,0,1,39.958,8.305ZM15.334,45.123a6.179,6.179,0,0,1-6.172,6.172c-.144,0-.3-.007-.479-.021a.8.8,0,0,0-.525.144L5.846,53.042v-2.29a.806.806,0,0,0-.329-.65,6.172,6.172,0,1,1,9.817-4.98Zm7.629-29.6a14.508,14.508,0,0,0-2.54,5.08,13.012,13.012,0,0,1-2.539-1.181A12.429,12.429,0,0,1,22.962,15.524Zm-5.979,5.236a14.794,14.794,0,0,0,3.048,1.407,23.281,23.281,0,0,0-.469,3.993H15.34A12.284,12.284,0,0,1,16.984,20.761Zm0,12.41a12.294,12.294,0,0,1-1.644-5.4h4.223a23.289,23.289,0,0,0,.469,3.993A14.8,14.8,0,0,0,16.984,33.171Zm.9,1.337a13.019,13.019,0,0,1,2.54-1.181,14.51,14.51,0,0,0,2.54,5.08A12.436,12.436,0,0,1,17.882,34.508Zm9.008,4.743c-2.518-.607-4.189-3.868-4.926-6.383a23.353,23.353,0,0,1,4.926-.663Zm0-8.658a24.957,24.957,0,0,0-5.309.715,21.724,21.724,0,0,1-.406-3.537h5.715v2.822Zm0-4.433H21.176a21.736,21.736,0,0,1,.406-3.537,24.972,24.972,0,0,0,5.309.715V26.16Zm0-4.434a23.352,23.352,0,0,1-4.926-.663c.729-2.488,2.392-5.772,4.926-6.383ZM38.409,33.171a14.791,14.791,0,0,0-3.048-1.407,23.28,23.28,0,0,0,.469-3.993h4.223A12.266,12.266,0,0,1,38.409,33.171Zm0-12.41a12.3,12.3,0,0,1,1.644,5.4H35.829a23.289,23.289,0,0,0-.469-3.993A14.782,14.782,0,0,0,38.409,20.76Zm-.9-1.337A13.016,13.016,0,0,1,34.97,20.6a14.509,14.509,0,0,0-2.54-5.08A12.45,12.45,0,0,1,37.51,19.424ZM28.5,14.681c2.548.617,4.186,3.858,4.926,6.383a23.353,23.353,0,0,1-4.926.663Zm0,8.658a24.957,24.957,0,0,0,5.309-.715,21.723,21.723,0,0,1,.406,3.537H28.5V23.338Zm0,4.433h5.715a21.735,21.735,0,0,1-.406,3.537,24.964,24.964,0,0,0-5.309-.715V27.772Zm0,11.479V32.205a23.352,23.352,0,0,1,4.926.663C32.689,35.391,31.048,38.634,28.5,39.251Zm3.928-.843a14.507,14.507,0,0,0,2.54-5.08,13.008,13.008,0,0,1,2.54,1.181A12.425,12.425,0,0,1,32.43,38.407Z" fill="#020202"/>
        </g>
      </g>
    </g>
  </g>
</svg>
