<svg xmlns="http://www.w3.org/2000/svg" xmlns:xlink="http://www.w3.org/1999/xlink" width="98" height="97.999" viewBox="0 0 98 97.999">
  <defs>
    <clipPath id="clip-path">
      <rect id="Rectangle_412572" data-name="Rectangle 412572" width="57" height="55" transform="translate(1139.586 3878.606)" fill="#fff" stroke="#707070" stroke-width="1"/>
    </clipPath>
  </defs>
  <g id="Group_1206452" data-name="Group 1206452" transform="translate(-1119.086 -3857.106)">
    <g id="Group_1204751" data-name="Group 1204751" transform="translate(1119.086 3857.106)">
      <g id="Group_1204438" data-name="Group 1204438">
        <g id="Group_1204285" data-name="Group 1204285">
          <g id="Group_1204180" data-name="Group 1204180">
            <g id="Group_1204143" data-name="Group 1204143">
              <g id="Group_1188789" data-name="Group 1188789" transform="translate(0)">
                <path id="Path_1243039" data-name="Path 1243039" d="M41.05,0h0a41.05,41.05,0,0,1,0,82.1h0a41.05,41.05,0,0,1,0-82.1Z" transform="translate(7.951 7.949)" fill="#ffc63f"/>
                <rect id="Rectangle_400907" data-name="Rectangle 400907" width="88.438" height="88.437" rx="44.218" transform="translate(4.782 4.781)" fill="none"/>
                <g id="Group_1098742" data-name="Group 1098742" transform="translate(0)">
                  <g id="Rectangle_400898" data-name="Rectangle 400898" transform="translate(0)" fill="none" stroke="#fff" stroke-width="2" opacity="0.859">
                    <rect width="98" height="97.999" rx="48.999" stroke="none"/>
                    <rect x="1" y="1" width="96" height="95.999" rx="47.999" fill="none"/>
                  </g>
                  <g id="Rectangle_400907-2" data-name="Rectangle 400907" transform="translate(0)" fill="none" stroke="#0f1f33" stroke-linecap="round" stroke-width="2">
                    <rect width="98" height="97.999" rx="48.999" stroke="none"/>
                    <rect x="1" y="1" width="96" height="95.999" rx="47.999" fill="none"/>
                  </g>
                </g>
              </g>
            </g>
          </g>
        </g>
      </g>
    </g>
    <g id="Mask_Group_1099481" data-name="Mask Group 1099481" clip-path="url(#clip-path)">
      <g id="employee_11152698" transform="translate(1137.674 3875.693)">
        <g id="Group_1207456" data-name="Group 1207456">
          <path id="Path_1328619" data-name="Path 1328619" d="M9.225,2.912H25.319a1.775,1.775,0,0,1,1.772,1.772V16.363a1.775,1.775,0,0,1-1.772,1.772H19.986L17.8,21.144a.627.627,0,0,1-1.014,0l-2.2-3.011H9.225a1.776,1.776,0,0,1-1.772-1.772V4.685A1.776,1.776,0,0,1,9.225,2.912Zm8.3,20.588a3.764,3.764,0,1,1-2.662,1.1,3.764,3.764,0,0,1,2.662-1.1Zm25.41.2a3.764,3.764,0,1,1-2.662,1.1,3.764,3.764,0,0,1,2.662-1.1ZM30.227,56.995a2.617,2.617,0,0,1-4.6-1.7v-7.73a2.107,2.107,0,0,1-2.95-1.927v-.671a2.086,2.086,0,0,1-.546-.157v7.73a2.615,2.615,0,0,1-4.6,1.7,2.617,2.617,0,0,1-4.6-1.7v-7.73a2.107,2.107,0,0,1-2.95-1.927V36.2a4.4,4.4,0,0,1,4.387-4.387H20.69a4.4,4.4,0,0,1,4.251,3.3,4.35,4.35,0,0,1,2.119-.549h6.335a4.352,4.352,0,0,1,2.17.577,4.405,4.405,0,0,1,4.2-3.13H46.1A4.4,4.4,0,0,1,50.487,36.4v6.688a2.1,2.1,0,0,1-2.95,1.927v7.73a2.615,2.615,0,0,1-4.6,1.7,2.617,2.617,0,0,1-4.6-1.7V45.013a2.086,2.086,0,0,1-.546.157v.469a2.1,2.1,0,0,1-2.95,1.927V55.3a2.615,2.615,0,0,1-4.6,1.7Zm0-30.74a3.764,3.764,0,1,0,2.662,1.1,3.764,3.764,0,0,0-2.662-1.1ZM35.506,4.375H51.6a1.776,1.776,0,0,1,1.772,1.772V17.826A1.776,1.776,0,0,1,51.6,19.6H43.972l-5.445,3.144a.628.628,0,0,1-.94-.544l0-2.6H35.506a1.776,1.776,0,0,1-1.772-1.772V6.148a1.775,1.775,0,0,1,1.772-1.772Z" fill-rule="evenodd"/>
          <path id="Path_1328620" data-name="Path 1328620" d="M25.319,4.172H9.225a.515.515,0,0,0-.512.512V16.363a.515.515,0,0,0,.512.512h5.68a.63.63,0,0,1,.543.31l1.84,2.525,1.869-2.574a.628.628,0,0,1,.509-.26h5.652a.515.515,0,0,0,.512-.512V4.685a.515.515,0,0,0-.512-.512Zm-2.952,8.7a.63.63,0,1,1,0,1.259H12.177a.63.63,0,0,1,0-1.259Zm0-2.795a.63.63,0,1,1,0,1.259H12.177a.63.63,0,0,1,0-1.259Zm-5.095-3a.63.63,0,1,1,0,1.259H12.177a.63.63,0,0,1,0-1.259Z" fill="#ffb229" fill-rule="evenodd"/>
          <path id="Path_1328621" data-name="Path 1328621" d="M38.458,15.593a.63.63,0,0,1,0-1.259h10.19a.63.63,0,0,1,0,1.259Zm0-2.795a.63.63,0,0,1,0-1.259h10.19a.63.63,0,0,1,0,1.259Zm0-3a.63.63,0,0,1,0-1.259h5.095a.63.63,0,0,1,0,1.259ZM51.6,5.635H35.506a.515.515,0,0,0-.512.512V17.826a.515.515,0,0,0,.512.512h2.709a.63.63,0,0,1,.63.63V21.11l4.6-2.656a.627.627,0,0,1,.365-.116H51.6a.515.515,0,0,0,.512-.512V6.148a.515.515,0,0,0-.512-.512Z" fill="#ffcf3c" fill-rule="evenodd"/>
        </g>
        <circle id="Ellipse_12894" data-name="Ellipse 12894" cx="2.505" cy="2.505" r="2.505" transform="translate(27.346 27.95) rotate(-9.208)" fill="#1594df"/>
        <path id="Path_1328622" data-name="Path 1328622" d="M22.673,43.674V38.95a4.369,4.369,0,0,1,1.139-2.942,3.139,3.139,0,0,0-3.122-2.94H14.355A3.138,3.138,0,0,0,11.228,36.2v6.688a.845.845,0,1,0,1.691,0V38.165a.63.63,0,0,1,1.259,0V52.541a1.357,1.357,0,1,0,2.715,0V46.53a.63.63,0,0,1,1.259,0v6.01a1.357,1.357,0,1,0,2.715,0V38.165a.63.63,0,0,1,1.259,0v4.719a.851.851,0,0,0,.547.79Z" fill="#689ff2" fill-rule="evenodd"/>
        <path id="Path_1328623" data-name="Path 1328623" d="M36.658,36.025a4.369,4.369,0,0,1,1.124,2.926v4.926a.85.85,0,0,0,.546-.79V38.367a.63.63,0,1,1,1.259,0V52.743a1.357,1.357,0,1,0,2.715,0V46.733a.63.63,0,0,1,1.259,0v6.011a1.357,1.357,0,1,0,2.715,0V38.367a.63.63,0,0,1,1.259,0v4.719a.845.845,0,1,0,1.691,0V36.4A3.138,3.138,0,0,0,46.1,33.271H39.765a3.14,3.14,0,0,0-3.107,2.754Z" fill="#689ff2" fill-rule="evenodd"/>
        <path id="Path_1328624" data-name="Path 1328624" d="M29.2,56.254a1.353,1.353,0,0,0,.4-.958v-6.01a.63.63,0,0,1,1.259,0V55.3a1.357,1.357,0,1,0,2.715,0V40.919a.63.63,0,0,1,1.259,0v4.719a.845.845,0,1,0,1.691,0V38.95a3.138,3.138,0,0,0-3.127-3.127H27.06a3.138,3.138,0,0,0-3.127,3.127v6.688a.845.845,0,1,0,1.691,0V40.919a.63.63,0,0,1,1.259,0V55.3a1.355,1.355,0,0,0,2.316.958Z" fill="#1594df" fill-rule="evenodd"/>
        <circle id="Ellipse_12895" data-name="Ellipse 12895" cx="2.505" cy="2.505" r="2.505" transform="translate(40.428 24.962)" fill="#689ff2"/>
        <path id="Path_1328625" data-name="Path 1328625" d="M19.294,25.493a2.5,2.5,0,1,0,0,3.543,2.5,2.5,0,0,0,0-3.543Z" fill="#689ff2" fill-rule="evenodd"/>
      </g>
    </g>
  </g>
</svg>
