<svg xmlns="http://www.w3.org/2000/svg" xmlns:xlink="http://www.w3.org/1999/xlink" width="98" height="97.999" viewBox="0 0 98 97.999">
  <defs>
    <clipPath id="clip-path">
      <rect id="Rectangle_412572" data-name="Rectangle 412572" width="57" height="55" transform="translate(1139.586 3878.606)" fill="#fff" stroke="#707070" stroke-width="1"/>
    </clipPath>
  </defs>
  <g id="Group_1206447" data-name="Group 1206447" transform="translate(-1119.086 -3857.106)">
    <g id="Group_1204751" data-name="Group 1204751" transform="translate(1119.086 3857.106)">
      <g id="Group_1204438" data-name="Group 1204438">
        <g id="Group_1204285" data-name="Group 1204285">
          <g id="Group_1204180" data-name="Group 1204180">
            <g id="Group_1204143" data-name="Group 1204143">
              <g id="Group_1188789" data-name="Group 1188789" transform="translate(0)">
                <path id="Path_1243039" data-name="Path 1243039" d="M41.05,0h0a41.05,41.05,0,0,1,0,82.1h0a41.05,41.05,0,0,1,0-82.1Z" transform="translate(7.951 7.949)" fill="#ffc63f"/>
                <rect id="Rectangle_400907" data-name="Rectangle 400907" width="88.438" height="88.437" rx="44.218" transform="translate(4.782 4.781)" fill="none"/>
                <g id="Group_1098742" data-name="Group 1098742" transform="translate(0)">
                  <g id="Rectangle_400898" data-name="Rectangle 400898" transform="translate(0)" fill="none" stroke="#fff" stroke-width="2" opacity="0.859">
                    <rect width="98" height="97.999" rx="48.999" stroke="none"/>
                    <rect x="1" y="1" width="96" height="95.999" rx="47.999" fill="none"/>
                  </g>
                  <g id="Rectangle_400907-2" data-name="Rectangle 400907" transform="translate(0)" fill="none" stroke="#0f1f33" stroke-linecap="round" stroke-width="2">
                    <rect width="98" height="97.999" rx="48.999" stroke="none"/>
                    <rect x="1" y="1" width="96" height="95.999" rx="47.999" fill="none"/>
                  </g>
                </g>
              </g>
            </g>
          </g>
        </g>
      </g>
    </g>
    <g id="Mask_Group_1099484" data-name="Mask Group 1099484" clip-path="url(#clip-path)">
      <g id="adult_3787951" transform="translate(1140.586 3878.606)">
        <g id="Group_1207475" data-name="Group 1207475">
          <g id="Group_1207472" data-name="Group 1207472">
            <path id="Path_1328672" data-name="Path 1328672" d="M40.173,35.451c-2.588-8.591-9.145-10.614-9.145-10.614h0a7.964,7.964,0,0,1-7.05,0h0s-6.558,2.023-9.145,10.614Z" fill="#eef2f5"/>
          </g>
          <path id="Path_1328673" data-name="Path 1328673" d="M15.518,33.517a20.084,20.084,0,0,0-.691,1.934H40.172a20.085,20.085,0,0,0-.691-1.934Z" fill="#deeaf3"/>
          <path id="Path_1328674" data-name="Path 1328674" d="M37.794,12.9c1.506-3.643.438-7.754-1.768-9.376a5.643,5.643,0,0,0-3.993-.966A6.543,6.543,0,0,0,27.5.859c-3.983,0-12.07,2.019-10.531,12.169" fill="#af665a"/>
          <path id="Path_1328675" data-name="Path 1328675" d="M35.462,12.906V17.7a7.962,7.962,0,1,1-15.924,0V12.906c4.824-.562,10.556-5.139,10.556-5.139s2.8,3.984,5.368,5.139Z" fill="#fdd4bb"/>
          <path id="Path_1328676" data-name="Path 1328676" d="M27.5,23.726a7.962,7.962,0,0,1-7.962-7.962V17.7a7.962,7.962,0,1,0,15.924,0V15.764A7.962,7.962,0,0,1,27.5,23.726Z" fill="#f7c4a8"/>
          <path id="Path_1328677" data-name="Path 1328677" d="M35.462,12.906a2.665,2.665,0,1,1,0,4.785Z" fill="#ebbaa1"/>
          <path id="Path_1328678" data-name="Path 1328678" d="M19.538,12.906a2.665,2.665,0,1,0,0,4.785Z" fill="#ebbaa1"/>
          <path id="Path_1328679" data-name="Path 1328679" d="M36.635,16.029a2.653,2.653,0,0,1-1.173-.272v1.934a2.665,2.665,0,0,0,3.656-3.359,2.665,2.665,0,0,1-2.483,1.7Z" fill="#e8a990"/>
          <path id="Path_1328680" data-name="Path 1328680" d="M15.882,14.332a2.665,2.665,0,0,0,3.656,3.359V15.757a2.665,2.665,0,0,1-3.656-1.426Z" fill="#e8a990"/>
          <path id="Path_1328681" data-name="Path 1328681" d="M27.5,25.66a7.926,7.926,0,0,1-3.525-.823h0l1.764,4.469h3.527l1.764-4.469h0a7.929,7.929,0,0,1-3.526.823Z" fill="#f68acc"/>
          <g id="Group_1207473" data-name="Group 1207473">
            <path id="Path_1328682" data-name="Path 1328682" d="M30.385,35.451l-1.122-6.144H25.736l-1.122,6.144Z" fill="#ffa6d4"/>
          </g>
          <path id="Path_1328683" data-name="Path 1328683" d="M24.968,33.517l-.353,1.934h5.771l-.353-1.934Z" fill="#f690d2"/>
          <g id="Group_1207474" data-name="Group 1207474">
            <path id="Path_1328684" data-name="Path 1328684" d="M46.546,54.141H8.336a3.223,3.223,0,0,1-3.223-3.223V38.674a3.223,3.223,0,0,1,3.223-3.223h38.21a3.223,3.223,0,0,1,3.223,3.223V50.918A3.223,3.223,0,0,1,46.546,54.141Z" fill="#ffdd91"/>
          </g>
          <path id="Path_1328685" data-name="Path 1328685" d="M46.546,52.207H8.336a3.223,3.223,0,0,1-3.223-3.223v1.934a3.223,3.223,0,0,0,3.223,3.223h38.21a3.223,3.223,0,0,0,3.223-3.223V48.984A3.223,3.223,0,0,1,46.546,52.207Z" fill="#f9cd80"/>
        </g>
        <g id="Group_1207476" data-name="Group 1207476">
          <path id="Path_1328686" data-name="Path 1328686" d="M31.093,16.9a.807.807,0,0,0,.807-.807V14.8a.807.807,0,0,0-1.615,0v1.292A.807.807,0,0,0,31.093,16.9Z"/>
          <path id="Path_1328687" data-name="Path 1328687" d="M24.025,16.9a.807.807,0,0,0,.807-.807V14.8a.807.807,0,1,0-1.615,0v1.292A.807.807,0,0,0,24.025,16.9Z"/>
          <path id="Path_1328688" data-name="Path 1328688" d="M24.749,20.307a2.937,2.937,0,0,0,2.81,1.59,2.937,2.937,0,0,0,2.81-1.59.809.809,0,1,0-1.484-.643h0a1.362,1.362,0,0,1-1.326.616,1.362,1.362,0,0,1-1.326-.616s0,0,0,0a.809.809,0,1,0-1.483.643Z"/>
          <path id="Path_1328689" data-name="Path 1328689" d="M12.422,50.194a.807.807,0,0,0,.807-.807v-8.9a.807.807,0,0,0-.807-.807h-1.9a.807.807,0,0,0,0,1.615h1.1v8.1a.807.807,0,0,0,.807.807Z"/>
          <path id="Path_1328690" data-name="Path 1328690" d="M14.861,46.811a3.382,3.382,0,1,0,5.414-2.7,2.684,2.684,0,1,0-4.065,0,3.379,3.379,0,0,0-1.349,2.7Zm3.382,1.768a1.768,1.768,0,1,1,1.768-1.768A1.769,1.769,0,0,1,18.243,48.579Zm-1.07-6.219a1.07,1.07,0,1,1,1.07,1.07A1.071,1.071,0,0,1,17.173,42.36Z"/>
          <path id="Path_1328691" data-name="Path 1328691" d="M41.758,50.157h.072a3.541,3.541,0,0,0,3.453-3.343,3.5,3.5,0,0,0-.965-2.617,3.546,3.546,0,0,0-2.56-1.1,6.052,6.052,0,0,0-.843.052l.337-2.033h2.661a.807.807,0,1,0,0-1.615H40.567a.807.807,0,0,0-.8.675l-.663,4a.808.808,0,0,0,1.165.85l.078-.037a2.885,2.885,0,0,1,1.407-.28,1.917,1.917,0,0,1,1.913,2.019,1.916,1.916,0,0,1-3.811.165,1.944,1.944,0,0,1-.019-.268.807.807,0,1,0-1.615,0,3.577,3.577,0,0,0,.034.491,3.531,3.531,0,0,0,3.5,3.039Z"/>
          <path id="Path_1328692" data-name="Path 1328692" d="M36.6,42.551a3.086,3.086,0,0,0-6.113-.6.807.807,0,0,0,1.584.311,1.471,1.471,0,1,1,1.443,1.757.807.807,0,1,0,0,1.615,1.471,1.471,0,1,1-1.457,1.677,1.489,1.489,0,0,1-.014-.206.807.807,0,1,0-1.615,0,3.083,3.083,0,0,0,3.085,3.085A3.084,3.084,0,0,0,35.6,44.83,3.077,3.077,0,0,0,36.6,42.551Z"/>
          <path id="Path_1328693" data-name="Path 1328693" d="M24.662,44.022a.807.807,0,0,0,0,1.615h2.6a.807.807,0,0,0,0-1.615Z"/>
          <path id="Path_1328694" data-name="Path 1328694" d="M46.642,34.659h-5.8a17.75,17.75,0,0,0-5.638-8.367,14.962,14.962,0,0,0-2.392-1.58,8.787,8.787,0,0,0,3.463-5.988,3.523,3.523,0,0,0,.433.027,3.475,3.475,0,0,0,2.144-6.211,10.156,10.156,0,0,0,.274-5.482.807.807,0,0,0-1.573.364,8.526,8.526,0,0,1-.179,4.44,3.473,3.473,0,0,0-1.811.129C33.3,10.772,30.844,7.3,30.818,7.264A.807.807,0,0,0,29.654,7.1c-.055.044-5.445,4.312-9.954,4.951a3.469,3.469,0,0,0-2.017-.174,9.128,9.128,0,0,1,1.842-7.04c2.041-2.373,5.488-3.219,8.034-3.219a5.733,5.733,0,0,1,3.958,1.45.815.815,0,0,0,.725.238,4.889,4.889,0,0,1,3.383.823,4.011,4.011,0,0,1,.729.7A.807.807,0,0,0,37.6,3.811a5.62,5.62,0,0,0-1.025-.986,6.425,6.425,0,0,0-4.208-1.16A7.558,7.558,0,0,0,27.559,0C26.149,0,21.317.273,18.3,3.781c-1.9,2.205-2.621,5.183-2.158,8.857a3.475,3.475,0,0,0,2.263,6.113,3.522,3.522,0,0,0,.433-.027A8.787,8.787,0,0,0,22.3,24.712a15.391,15.391,0,0,0-3.579,2.637A.807.807,0,1,0,19.853,28.5a13.5,13.5,0,0,1,3.719-2.615l1.384,3.506-.962,5.267H15.979a17.372,17.372,0,0,1,1.915-3.8.807.807,0,0,0-1.338-.9,19.2,19.2,0,0,0-2.283,4.7H8.358A4.041,4.041,0,0,0,4.321,38.7V50.964A4.041,4.041,0,0,0,8.358,55H36.223a.807.807,0,0,0,0-1.615H8.358a2.424,2.424,0,0,1-2.422-2.422V38.7a2.424,2.424,0,0,1,2.422-2.422H46.642A2.424,2.424,0,0,1,49.064,38.7V50.964a2.424,2.424,0,0,1-2.422,2.422H39.452a.807.807,0,1,0,0,1.615h7.191a4.041,4.041,0,0,0,4.036-4.036V38.7a4.041,4.041,0,0,0-4.036-4.036ZM28.776,28.5H26.341l-.908-2.3a8.772,8.772,0,0,0,4.251,0Zm9.8-13.229A1.855,1.855,0,0,1,36.343,17.1V13.45a1.855,1.855,0,0,1,2.231,1.824Zm-22.031,0a1.855,1.855,0,0,1,2.231-1.824V17.1a1.855,1.855,0,0,1-2.231-1.824Zm3.845,2.4V13.571A21.036,21.036,0,0,0,27.1,10.784c1.252-.747,2.276-1.463,2.9-1.921a18.449,18.449,0,0,0,4.733,4.51v4.306a7.17,7.17,0,0,1-14.341,0Zm5.247,16.981.829-4.542h2.188l.829,4.542Zm5.487,0-.962-5.267,1.384-3.508a15.061,15.061,0,0,1,7.593,8.775Z"/>
        </g>
      </g>
    </g>
  </g>
</svg>
