<svg xmlns="http://www.w3.org/2000/svg" xmlns:xlink="http://www.w3.org/1999/xlink" width="98" height="97.999" viewBox="0 0 98 97.999">
  <defs>
    <clipPath id="clip-path">
      <rect id="Rectangle_412572" data-name="Rectangle 412572" width="57" height="55" transform="translate(1139.586 3878.606)" fill="#fff" stroke="#707070" stroke-width="1"/>
    </clipPath>
  </defs>
  <g id="Group_1206943" data-name="Group 1206943" transform="translate(-1119.086 -3857.106)">
    <g id="Group_1204751" data-name="Group 1204751" transform="translate(1119.086 3857.106)">
      <g id="Group_1204438" data-name="Group 1204438">
        <g id="Group_1204285" data-name="Group 1204285">
          <g id="Group_1204180" data-name="Group 1204180">
            <g id="Group_1204143" data-name="Group 1204143">
              <g id="Group_1188789" data-name="Group 1188789" transform="translate(0)">
                <path id="Path_1243039" data-name="Path 1243039" d="M41.05,0h0a41.05,41.05,0,0,1,0,82.1h0a41.05,41.05,0,0,1,0-82.1Z" transform="translate(7.951 7.949)" fill="#ffc63f"/>
                <rect id="Rectangle_400907" data-name="Rectangle 400907" width="88.438" height="88.437" rx="44.218" transform="translate(4.782 4.781)" fill="none"/>
                <g id="Group_1098742" data-name="Group 1098742" transform="translate(0)">
                  <g id="Rectangle_400898" data-name="Rectangle 400898" transform="translate(0)" fill="none" stroke="#fff" stroke-width="2" opacity="0.859">
                    <rect width="98" height="97.999" rx="48.999" stroke="none"/>
                    <rect x="1" y="1" width="96" height="95.999" rx="47.999" fill="none"/>
                  </g>
                  <g id="Rectangle_400907-2" data-name="Rectangle 400907" transform="translate(0)" fill="none" stroke="#0f1f33" stroke-linecap="round" stroke-width="2">
                    <rect width="98" height="97.999" rx="48.999" stroke="none"/>
                    <rect x="1" y="1" width="96" height="95.999" rx="47.999" fill="none"/>
                  </g>
                </g>
              </g>
            </g>
          </g>
        </g>
      </g>
    </g>
    <g id="Mask_Group_1099506" data-name="Mask Group 1099506" clip-path="url(#clip-path)">
      <g id="digital-ecosystem_18715835" transform="translate(1140.385 3878.405)">
        <g id="Group_1207535" data-name="Group 1207535">
          <g id="Group_1207529" data-name="Group 1207529">
            <g id="Group_1207523" data-name="Group 1207523">
              <path id="Path_1328991" data-name="Path 1328991" d="M8.589,53.164A7.119,7.119,0,1,0,1.47,46.046,7.133,7.133,0,0,0,8.589,53.164Z" fill="#465759" fill-rule="evenodd"/>
              <path id="Path_1328992" data-name="Path 1328992" d="M13.659,41.049a7.119,7.119,0,1,1-10.9,9.083,7.119,7.119,0,0,0,10.9-9.083Z" fill="#3e4d4f" fill-rule="evenodd"/>
              <path id="Path_1328993" data-name="Path 1328993" d="M13.023,51.626a5.007,5.007,0,0,0-9.61,0,7.119,7.119,0,0,0,9.61,0Z" fill="#ffda2d" fill-rule="evenodd"/>
              <path id="Path_1328994" data-name="Path 1328994" d="M13.394,51.326a5,5,0,0,0-4.8-3.445q-.261,0-.516.026a5.125,5.125,0,0,1,4.489,4.047,7.138,7.138,0,0,0,.833-.628Z" fill="#ffc700" fill-rule="evenodd"/>
              <path id="Path_1328995" data-name="Path 1328995" d="M13.394,51.3a4.985,4.985,0,0,0-.507-1.152,7.119,7.119,0,0,1-9.022.9q-.043.123-.081.249a7.116,7.116,0,0,0,9.61,0Z" fill="#ffc700" fill-rule="evenodd"/>
              <path id="Path_1328996" data-name="Path 1328996" d="M13.394,51.3a4.985,4.985,0,0,0-.507-1.152h0a7.163,7.163,0,0,1-.694.615h0a4.907,4.907,0,0,1,.368,1.193,7.148,7.148,0,0,0,.814-.639l.019-.017Z" fill="#fdb800" fill-rule="evenodd"/>
              <path id="Path_1328997" data-name="Path 1328997" d="M8.451,48.228a2.707,2.707,0,1,0-2.707-2.707A2.712,2.712,0,0,0,8.451,48.228Z" fill="#ffd6bd" fill-rule="evenodd"/>
              <path id="Path_1328998" data-name="Path 1328998" d="M8.163,42.265a2.707,2.707,0,1,1-.354,5.39,2.707,2.707,0,0,0,0-5.367,2.733,2.733,0,0,1,.354-.023Z" fill="#f9c6aa" fill-rule="evenodd"/>
            </g>
            <g id="Group_1207524" data-name="Group 1207524">
              <path id="Path_1328999" data-name="Path 1328999" d="M27.48,37.7A10.071,10.071,0,1,0,17.409,27.631,10.091,10.091,0,0,0,27.48,37.7Z" fill="#64b5f6" fill-rule="evenodd"/>
              <path id="Path_1329000" data-name="Path 1329000" d="M34.041,19.991A10.071,10.071,0,1,1,20,34.38,10.071,10.071,0,0,0,34.042,19.991Z" fill="#42a5f5" fill-rule="evenodd"/>
            </g>
            <g id="Group_1207525" data-name="Group 1207525">
              <path id="Path_1329001" data-name="Path 1329001" d="M37.67,29.061C38.224,33.8,34.362,39.776,27.48,37.7,27.863,30.4,34.23,31.881,37.67,29.061Z" fill="#72d561" fill-rule="evenodd"/>
              <path id="Path_1329002" data-name="Path 1329002" d="M37.67,29.061C38.224,33.8,34.362,39.776,27.48,37.7c.015-.281.039-.548.071-.8,5.351.967,8.621-3.107,9.042-7.126a6.658,6.658,0,0,0,1.076-.711Z" fill="#42c345" fill-rule="evenodd"/>
              <path id="Path_1329003" data-name="Path 1329003" d="M17.291,29.061C16.737,33.8,20.6,39.776,27.48,37.7,27.1,30.4,20.731,31.881,17.291,29.061Z" fill="#72d561" fill-rule="evenodd"/>
              <path id="Path_1329004" data-name="Path 1329004" d="M17.291,29.061C16.737,33.8,20.6,39.776,27.48,37.7c-.015-.281-.039-.548-.071-.8-5.351.967-8.621-3.107-9.042-7.126a6.658,6.658,0,0,1-1.076-.711Z" fill="#42c345" fill-rule="evenodd"/>
            </g>
            <g id="Group_1207526" data-name="Group 1207526">
              <path id="Path_1329005" data-name="Path 1329005" d="M7.777,33.427a6.662,6.662,0,1,0-6.662-6.662,6.675,6.675,0,0,0,6.662,6.662Z" fill="#ffda2d" fill-rule="evenodd"/>
              <path id="Path_1329006" data-name="Path 1329006" d="M7.777,20.1A6.65,6.65,0,0,1,13,22.626a6.662,6.662,0,0,0-9.359,9.36A6.662,6.662,0,0,1,7.777,20.1Z" fill="#ffc700" fill-rule="evenodd"/>
              <path id="Path_1329007" data-name="Path 1329007" d="M7.768,21.408h.019a2.425,2.425,0,0,1,2.42,2.42V25.9a.866.866,0,0,1-.866.866H6.213a.866.866,0,0,1-.866-.866V23.829a2.425,2.425,0,0,1,2.42-2.42Zm.019,1.731H7.768a.693.693,0,0,0-.689.689v1.2h1.4v-1.2a.693.693,0,0,0-.689-.689Z" fill="#96a4af" fill-rule="evenodd"/>
              <path id="Path_1329008" data-name="Path 1329008" d="M6.093,24.765H9.462a.993.993,0,0,1,.978.759l.73,2.993c.3,1.231-1.053,2.3-2.339,2.3H6.725c-1.287,0-2.639-1.07-2.339-2.3l.73-2.993a.993.993,0,0,1,.978-.759Z" fill="#fc685b" fill-rule="evenodd"/>
              <path id="Path_1329009" data-name="Path 1329009" d="M6.093,24.765h.025l-.651,2.67c-.3,1.231,1.053,2.3,2.339,2.3H9.912a2.655,2.655,0,0,0,1.178-.288,2.527,2.527,0,0,1-2.26,1.371H6.725c-1.287,0-2.639-1.07-2.339-2.3l.73-2.993a.993.993,0,0,1,.978-.759Z" fill="#fb4737" fill-rule="evenodd"/>
            </g>
            <g id="Group_1207528" data-name="Group 1207528">
              <path id="Path_1329010" data-name="Path 1329010" d="M7.777,14.391A6.662,6.662,0,1,0,1.115,7.729a6.675,6.675,0,0,0,6.662,6.662Z" fill="#64b5f6" fill-rule="evenodd"/>
              <g id="Group_1207527" data-name="Group 1207527">
                <path id="Path_1329011" data-name="Path 1329011" d="M7.777,1.066A6.635,6.635,0,0,1,12.032,2.6a6.663,6.663,0,0,0-7.383,11.01A6.663,6.663,0,0,1,7.777,1.066Z" fill="#42a5f5" fill-rule="evenodd"/>
                <path id="Path_1329012" data-name="Path 1329012" d="M8.031,6.369a.862.862,0,1,1,.027-1.725l3.629.062a.862.862,0,0,1,.849.876l-.062,3.629a.862.862,0,1,1-1.725-.027L10.8,6.416,8.031,6.369Zm.715,4.574L5.98,10.9l.047-2.767A.862.862,0,1,0,4.3,8.1L4.241,11.73a.862.862,0,0,0,.849.876l3.629.062a.862.862,0,0,0,.027-1.725ZM8.394,7.6A1.063,1.063,0,1,0,9.439,8.685,1.063,1.063,0,0,0,8.394,7.6Z" fill="#42a5f5" fill-rule="evenodd"/>
              </g>
            </g>
          </g>
          <g id="Group_1207531" data-name="Group 1207531">
            <path id="Path_1329013" data-name="Path 1329013" d="M47.265,15.3a7.119,7.119,0,1,0-7.119-7.119A7.133,7.133,0,0,0,47.265,15.3Z" fill="#465759" fill-rule="evenodd"/>
            <path id="Path_1329014" data-name="Path 1329014" d="M47.265,1.066a7.1,7.1,0,0,1,5.426,2.511A7.119,7.119,0,0,0,43.305,14.1a7.119,7.119,0,0,1,3.96-13.035Z" fill="#3e4d4f" fill-rule="evenodd"/>
            <rect id="Rectangle_426332" data-name="Rectangle 426332" width="7.828" height="5.626" rx="0.423" transform="translate(43.351 5.372)" fill="#ffda2d"/>
            <g id="Group_1207530" data-name="Group 1207530">
              <path id="Path_1329015" data-name="Path 1329015" d="M43.773,5.372h.155v4.14a.424.424,0,0,0,.423.423h6.827v.641a.424.424,0,0,1-.423.423H43.773a.424.424,0,0,1-.423-.423V5.795a.424.424,0,0,1,.423-.423Z" fill="#ffc700" fill-rule="evenodd"/>
              <path id="Path_1329016" data-name="Path 1329016" d="M46.185,7.7l.209.172.824.68.047.039,2.188-1.811,1.58-1.308a.421.421,0,0,0-.277-.1H43.773a.42.42,0,0,0-.28.107L46.185,7.7Z" fill="#ffc700" fill-rule="evenodd"/>
              <path id="Path_1329017" data-name="Path 1329017" d="M46.185,7.7l.209.172.824.68.047.039.582-.482L47.83,8.1l-.209-.172L44.929,5.7a.421.421,0,0,1,.28-.107h5.679l.145-.12a.421.421,0,0,0-.277-.1H43.774a.42.42,0,0,0-.28.107L46.185,7.7Z" fill="#fdb800" fill-rule="evenodd"/>
            </g>
          </g>
          <g id="Group_1207533" data-name="Group 1207533">
            <g id="Group_1207532" data-name="Group 1207532">
              <path id="Path_1329018" data-name="Path 1329018" d="M47.45,34.75a7.119,7.119,0,1,0-7.119-7.119A7.133,7.133,0,0,0,47.45,34.75Z" fill="#ffda2d" fill-rule="evenodd"/>
              <path id="Path_1329019" data-name="Path 1329019" d="M47.45,20.513A7.087,7.087,0,0,1,51.81,22,7.12,7.12,0,0,0,44.6,34.155,7.12,7.12,0,0,1,47.45,20.513Z" fill="#ffc700" fill-rule="evenodd"/>
              <path id="Path_1329020" data-name="Path 1329020" d="M46.753,28.125h1.394l1.082,3.425H45.671Z" fill="#004960" fill-rule="evenodd"/>
              <path id="Path_1329021" data-name="Path 1329021" d="M46.753,28.125h1.082l-.979,3.1h2.271l.1.325H45.671Z" fill="#003d50" fill-rule="evenodd"/>
            </g>
            <rect id="Rectangle_426333" data-name="Rectangle 426333" width="7.246" height="5.079" rx="0.216" transform="translate(43.827 24.433)" fill="#64b5f6"/>
            <path id="Path_1329022" data-name="Path 1329022" d="M44.043,24.433h6.813a.217.217,0,0,1,.216.216v.866H45.125a.217.217,0,0,0-.216.216v3.781h-.866a.217.217,0,0,1-.216-.216V24.649a.217.217,0,0,1,.216-.216Z" fill="#42a5f5" fill-rule="evenodd"/>
          </g>
          <g id="Group_1207534" data-name="Group 1207534">
            <path id="Path_1329023" data-name="Path 1329023" d="M47.265,54.335a7.119,7.119,0,1,0-7.119-7.119A7.133,7.133,0,0,0,47.265,54.335Z" fill="#64b5f6" fill-rule="evenodd"/>
            <path id="Path_1329024" data-name="Path 1329024" d="M47.265,40.1a7.1,7.1,0,0,1,5.545,2.655A7.119,7.119,0,0,0,42.8,52.762,7.119,7.119,0,0,1,47.265,40.1Z" fill="#42a5f5" fill-rule="evenodd"/>
            <path id="Path_1329025" data-name="Path 1329025" d="M44.992,42.821h4.545a1.024,1.024,0,0,1,1.023,1.023v6.743a1.024,1.024,0,0,1-1.023,1.023H44.993a1.024,1.024,0,0,1-1.023-1.023V43.844a1.024,1.024,0,0,1,1.023-1.023Z" fill="#e6f8ff"/>
            <path id="Path_1329026" data-name="Path 1329026" d="M49.537,51.611H44.992a1.025,1.025,0,0,1-.851-.457H48a1.026,1.026,0,0,0,1.023-1.023V43.387a1.016,1.016,0,0,0-.172-.566h.685a1.026,1.026,0,0,1,1.023,1.023v6.744a1.026,1.026,0,0,1-1.023,1.023Z" fill="#cbf0ff" fill-rule="evenodd"/>
          </g>
        </g>
        <path id="Path_1329027" data-name="Path 1329027" d="M6.457,4.6a.867.867,0,0,1,.866-.851h.015l3.628.062a.867.867,0,0,1,.852.88l-.062,3.629a.866.866,0,0,1-.866.851h-.015a.865.865,0,0,1-.85-.881l.046-2.762L7.309,5.481a.866.866,0,0,1-.852-.88Zm1.06,3.033a.194.194,0,0,0-.06.138.2.2,0,0,0,.194.2.185.185,0,0,0,.14-.055.2.2,0,0,0,0-.279.2.2,0,0,0-.139-.061h0a.191.191,0,0,0-.137.057Zm.1,2.07h.034a1.919,1.919,0,1,0-.034,0ZM8,11.78H8.01a.866.866,0,0,0,.015-1.731L5.262,10l.046-2.764a.865.865,0,0,0-1.73-.029l-.062,3.629a.864.864,0,0,0,.851.88L8,11.78ZM5.252,29.329a.692.692,0,0,1-.166-.607l.729-2.993a.131.131,0,0,1,.137-.1H9.321a.13.13,0,0,1,.136.1l.73,2.993a.7.7,0,0,1-.166.607,1.8,1.8,0,0,1-1.332.624H6.583a1.791,1.791,0,0,1-1.331-.624Zm2.374-6.189h.019a.691.691,0,0,1,.689.689v.07h-1.4v-.07a.69.69,0,0,1,.688-.689ZM11.382,30.4a2.4,2.4,0,0,0,.487-2.086l-.729-2.993a1.854,1.854,0,0,0-1.073-1.267v-.223a2.423,2.423,0,0,0-2.421-2.421H7.626a2.423,2.423,0,0,0-2.42,2.421v.223a1.853,1.853,0,0,0-1.074,1.267L3.4,28.312A2.409,2.409,0,0,0,3.89,30.4a3.533,3.533,0,0,0,2.693,1.286H8.689A3.533,3.533,0,0,0,11.382,30.4ZM45.623,6.238h3l-1.5,1.235Zm-1.547,3.9h6.1V7.206l-2.5,2.056a.863.863,0,0,1-1.1,0l-2.5-2.056v2.927Zm-.443,1.731h6.984A1.29,1.29,0,0,0,51.9,10.576V5.794a1.289,1.289,0,0,0-1.288-1.288H43.632a1.289,1.289,0,0,0-1.288,1.288v4.781A1.29,1.29,0,0,0,43.632,11.864Zm4.805,37.653a.865.865,0,0,1-.866.866h-.9a.866.866,0,0,1,0-1.732h.9A.865.865,0,0,1,48.437,49.517Zm1.117,1.071V43.844a.159.159,0,0,0-.158-.157H44.852a.159.159,0,0,0-.158.157v6.745a.159.159,0,0,0,.158.157H49.4A.159.159,0,0,0,49.554,50.588ZM49.4,41.956H44.852a1.891,1.891,0,0,0-1.889,1.888v6.745a1.891,1.891,0,0,0,1.889,1.888H49.4a1.891,1.891,0,0,0,1.889-1.888V43.843A1.891,1.891,0,0,0,49.4,41.956ZM47.124,53.47a6.254,6.254,0,1,0-6.253-6.254A6.261,6.261,0,0,0,47.124,53.47ZM13.2,50.1a6.178,6.178,0,0,0-2.291-1.738,3.725,3.725,0,1,0-4.931,0A6.168,6.168,0,0,0,3.692,50.1a6.253,6.253,0,1,1,9.512,0ZM8.448,47.566a1.994,1.994,0,1,0-1.993-1.994A2,2,0,0,0,8.448,47.566ZM4.989,51.251a6.235,6.235,0,0,0,6.919,0,4.4,4.4,0,0,0-6.919,0ZM1.84,26.764a5.8,5.8,0,1,0,5.8-5.8,5.8,5.8,0,0,0-5.8,5.8Zm0-19.035a5.8,5.8,0,1,0,5.8-5.8,5.8,5.8,0,0,0-5.8,5.8ZM39.268,9.605a7.967,7.967,0,0,0,1.486,3.388l-6.321,6.32a10.914,10.914,0,0,0-14.187,0l-6.8-6.8a7.512,7.512,0,0,0,1.483-2.907Zm7.856-7.673a6.253,6.253,0,1,0,6.253,6.253,6.259,6.259,0,0,0-6.253-6.253ZM45.365,19.887V15.972a7.967,7.967,0,0,1-3.423-1.719l-6.284,6.285a10.885,10.885,0,0,1,2.585,6.228h1.13a8,8,0,0,1,5.992-6.879Zm8.2,7.745a6.253,6.253,0,1,1-6.253-6.254,6.259,6.259,0,0,1,6.253,6.254Zm-31.356-6.07h-1.78a9.257,9.257,0,0,1,2.849-2.188A11.227,11.227,0,0,0,22.206,21.562Zm12.047,0h-1.78A11.258,11.258,0,0,0,31.4,19.374,9.263,9.263,0,0,1,34.253,21.562Zm-.8,5.2a18.53,18.53,0,0,0-.467-3.472h2.466A9.143,9.143,0,0,1,36.5,26.766H33.458ZM28.205,28.5h3.518a17.317,17.317,0,0,1-.239,2.19,8.082,8.082,0,0,0-3.278,2.1V28.5Zm-5.01,2.19a17.1,17.1,0,0,1-.24-2.19h3.519v4.286a8.087,8.087,0,0,0-3.279-2.1Zm-1.844-.627a13.349,13.349,0,0,1-3.15-1.306c-.011-.085-.018-.172-.026-.257h3.047q.034.792.129,1.563Zm5.123-6.767v3.472H22.956a16.481,16.481,0,0,1,.518-3.472Zm0-4.667a4.917,4.917,0,0,0-2.094,2.284q-.164.313-.31.651h2.4V18.626ZM31.2,23.293a16.473,16.473,0,0,1,.519,3.472H28.205V23.293Zm-3-1.732h2.4c-.1-.225-.2-.442-.31-.651a4.929,4.929,0,0,0-2.093-2.284ZM36.5,28.5c-.008.085-.016.172-.026.257a13.356,13.356,0,0,1-3.15,1.306q.1-.771.128-1.563H36.5Zm-17.282-5.2h2.468a18.45,18.45,0,0,0-.467,3.472H18.175A9.158,9.158,0,0,1,19.222,23.293Zm-1.23,7.334A7.783,7.783,0,0,0,20.6,35.822a6.442,6.442,0,0,0,5.817,1.229c-.447-3.7-2.8-4.452-5.5-5.315a19.349,19.349,0,0,1-2.919-1.109ZM34.08,35.822a7.78,7.78,0,0,0,2.607-5.195,19.36,19.36,0,0,1-2.919,1.109c-2.7.863-5.058,1.615-5.5,5.315a6.439,6.439,0,0,0,5.816-1.229ZM12.2,13.713a7.485,7.485,0,0,1-2.883,1.352v4.362a7.541,7.541,0,0,1,5.851,7.337v0h1.272a10.89,10.89,0,0,1,2.585-6.229ZM14.961,28.5A7.551,7.551,0,0,1,9.313,34.1v4.007A7.951,7.951,0,0,1,13.7,40.042l4.386-4.387a9.585,9.585,0,0,1-1.8-6.695.86.86,0,0,1,.152-.4c0-.023,0-.045-.006-.068H14.961Zm-.083,12.82,4.374-4.374c.078.07.156.14.236.207a7.885,7.885,0,0,0,5.152,1.836,10.139,10.139,0,0,0,2.7-.384,10.138,10.138,0,0,0,2.7.384,7.885,7.885,0,0,0,5.153-1.836c.08-.067.158-.137.236-.207l5.387,5.388a7.958,7.958,0,0,0-1.521,3.326H16.422a7.94,7.94,0,0,0-1.545-4.34Zm30.487-1.888a7.952,7.952,0,0,0-3.348,1.656l-5.429-5.429a9.585,9.585,0,0,0,1.8-6.695.861.861,0,0,0-.153-.4c0-.023,0-.045.007-.068h1.13a8,8,0,0,0,5.992,6.878v4.054Zm1.759-.2H47.1V35.61c.071,0,.142.006.213.006a7.985,7.985,0,0,0,0-15.969c-.071,0-.142,0-.213.006V16.169h.028a7.985,7.985,0,1,0-7.977-8.3H15.161c0-.048,0-.1,0-.145a7.528,7.528,0,1,0-7.582,7.526v3.983a7.527,7.527,0,0,0,0,15.054v3.817a7.984,7.984,0,1,0,8.735,9.28H39.143a7.983,7.983,0,1,0,7.98-8.157ZM44.552,25.3h5.514v3.347H44.552Zm3.355,5.385-.1-.306h-1l-.1.306ZM42.82,29.3V24.649A1.083,1.083,0,0,1,43.9,23.567h6.813A1.083,1.083,0,0,1,51.8,24.649V29.3a1.083,1.083,0,0,1-1.082,1.082h-1.09l.288.911a.866.866,0,0,1-.826,1.126H45.53a.865.865,0,0,1-.826-1.126l.288-.911H43.9A1.083,1.083,0,0,1,42.82,29.3Z" fill-rule="evenodd"/>
      </g>
    </g>
  </g>
</svg>
