<svg xmlns="http://www.w3.org/2000/svg" xmlns:xlink="http://www.w3.org/1999/xlink" width="98" height="97.999" viewBox="0 0 98 97.999">
  <defs>
    <clipPath id="clip-path">
      <rect id="Rectangle_412572" data-name="Rectangle 412572" width="57" height="55" transform="translate(1139.586 3878.606)" fill="#fff" stroke="#707070" stroke-width="1"/>
    </clipPath>
  </defs>
  <g id="Group_1207171" data-name="Group 1207171" transform="translate(-1119.086 -3857.106)">
    <g id="Group_1204751" data-name="Group 1204751" transform="translate(1119.086 3857.106)">
      <g id="Group_1204438" data-name="Group 1204438">
        <g id="Group_1204285" data-name="Group 1204285">
          <g id="Group_1204180" data-name="Group 1204180">
            <g id="Group_1204143" data-name="Group 1204143">
              <g id="Group_1188789" data-name="Group 1188789" transform="translate(0)">
                <path id="Path_1243039" data-name="Path 1243039" d="M41.05,0h0a41.05,41.05,0,0,1,0,82.1h0a41.05,41.05,0,0,1,0-82.1Z" transform="translate(7.951 7.949)" fill="#ffc63f"/>
                <rect id="Rectangle_400907" data-name="Rectangle 400907" width="88.438" height="88.437" rx="44.218" transform="translate(4.782 4.781)" fill="none"/>
                <g id="Group_1098742" data-name="Group 1098742" transform="translate(0)">
                  <g id="Rectangle_400898" data-name="Rectangle 400898" transform="translate(0)" fill="none" stroke="#fff" stroke-width="2" opacity="0.859">
                    <rect width="98" height="97.999" rx="48.999" stroke="none"/>
                    <rect x="1" y="1" width="96" height="95.999" rx="47.999" fill="none"/>
                  </g>
                  <g id="Rectangle_400907-2" data-name="Rectangle 400907" transform="translate(0)" fill="none" stroke="#0f1f33" stroke-linecap="round" stroke-width="2">
                    <rect width="98" height="97.999" rx="48.999" stroke="none"/>
                    <rect x="1" y="1" width="96" height="95.999" rx="47.999" fill="none"/>
                  </g>
                </g>
              </g>
            </g>
          </g>
        </g>
      </g>
    </g>
    <g id="Mask_Group_1099531" data-name="Mask Group 1099531" clip-path="url(#clip-path)">
      <g id="online-payment_3690632" transform="translate(1140.139 3878.607)">
        <g id="_20-Online_Purchase">
          <path id="Path_1329445" data-name="Path 1329445" d="M55,39.285v3.492a1.751,1.751,0,0,1-1.746,1.746H2.619A1.751,1.751,0,0,1,.873,42.777V39.285H22.7V41.9H33.174V39.285Z" fill="#d6e5ee"/>
          <path id="Path_1329446" data-name="Path 1329446" d="M53.253,42.777H2.619A1.751,1.751,0,0,1,.873,41.031v1.746a1.751,1.751,0,0,0,1.746,1.746H53.253A1.751,1.751,0,0,0,55,42.777V41.031A1.751,1.751,0,0,1,53.253,42.777Z" fill="#a5c2da"/>
          <path id="Path_1329447" data-name="Path 1329447" d="M53.253,4.365v34.92H2.619V4.365ZM49.761,35.793V7.857H6.111V35.793Z" fill="#f7fcff"/>
          <path id="Path_1329448" data-name="Path 1329448" d="M6.111,7.857h43.65V35.793H6.111Z" fill="#23d1d0"/>
          <path id="Path_1329449" data-name="Path 1329449" d="M47.142,7.857h2.619V35.793H47.142Z" fill="#309bc0"/>
          <path id="Path_1329450" data-name="Path 1329450" d="M6.111,7.857H8.73V35.793H6.111Z" fill="#309bc0"/>
          <path id="Path_1329451" data-name="Path 1329451" d="M22.7,39.285H33.174V41.9H22.7Z" fill="#a5c2da"/>
          <path id="Path_1329452" data-name="Path 1329452" d="M20.952,32.3H15.714l2.619-2.619Z" fill="#a37669"/>
          <path id="Path_1329453" data-name="Path 1329453" d="M18.333,7.857V29.682L15.714,32.3V7.857Z" fill="#7f5144"/>
          <path id="Path_1329454" data-name="Path 1329454" d="M20.952,7.857V32.3l-2.619-2.619V7.857Z" fill="#966857"/>
          <path id="Path_1329455" data-name="Path 1329455" d="M20.952,7.857H40.158V32.3H20.952Z" fill="#a37669"/>
          <path id="Path_1329456" data-name="Path 1329456" d="M44.523,51.507h6.984V55H44.523Z" fill="#309bc0"/>
          <path id="Path_1329457" data-name="Path 1329457" d="M52.38,48.015v3.492H43.65V48.015h8.73Z" fill="#23d1d0"/>
          <path id="Path_1329458" data-name="Path 1329458" d="M48.888,43.65v4.365H45.4V42.777A6.918,6.918,0,0,0,48.888,43.65Z" fill="#faa68e"/>
          <path id="Path_1329459" data-name="Path 1329459" d="M50.634,26.19v8.73a1.751,1.751,0,0,1-1.746,1.746V26.19Z" fill="#faa68e"/>
          <path id="Path_1329460" data-name="Path 1329460" d="M51.507,45.4v2.619H48.888V43.65a6.918,6.918,0,0,1-3.492-.873,5.636,5.636,0,0,1-2.357-3.492,6.521,6.521,0,0,1-.262-1.746l-3.492-3.492L41.9,31.428l5.238,5.238h1.746a1.751,1.751,0,0,0,1.746-1.746V26.19L55,29.682Z" fill="#ffcdbe"/>
          <path id="Path_1329461" data-name="Path 1329461" d="M38.412,18.333V39.285H36.666a1.751,1.751,0,0,1-1.746-1.746V20.079a1.751,1.751,0,0,1,1.746-1.746Z" fill="#63697b"/>
          <path id="Path_1329462" data-name="Path 1329462" d="M48.888,26.19V36.666H47.142L41.9,31.428l-2.619,2.619,3.492,3.492a5.482,5.482,0,0,0,.262,1.659l-.262.087H38.412V18.333h8.73a1.751,1.751,0,0,1,1.746,1.746Z" fill="#fec076"/>
          <path id="Path_1329463" data-name="Path 1329463" d="M40.594,35.356a1.9,1.9,0,0,0,0,2.619L41.9,39.285h.873l.262-.087a5.482,5.482,0,0,1-.262-1.659Z" fill="#fa984c"/>
          <path id="Path_1329464" data-name="Path 1329464" d="M43.65,43.65H2.619a.825.825,0,0,1-.873-.873V40.158H21.825V41.9a.825.825,0,0,0,.873.873H33.174V41.031h-9.6v-.873h9.6V38.412H3.492V5.238H18.333V3.492H2.619a.825.825,0,0,0-.873.873V38.412H.873A.825.825,0,0,0,0,39.285v3.492A2.572,2.572,0,0,0,2.619,45.4H43.65Z"/>
          <path id="Path_1329465" data-name="Path 1329465" d="M52.38,25.317h1.746V4.365a.825.825,0,0,0-.873-.873H37.539V5.238H52.38Z"/>
          <path id="Path_1329466" data-name="Path 1329466" d="M13.968,8.73V6.984H6.111a.825.825,0,0,0-.873.873V35.793a.825.825,0,0,0,.873.873H33.174V34.92H6.984V8.73Z"/>
          <path id="Path_1329467" data-name="Path 1329467" d="M50.634,16.587V7.857a.825.825,0,0,0-.873-.873H41.9V8.73h6.984v7.857Z"/>
          <path id="Path_1329468" data-name="Path 1329468" d="M15.714,6.984a.825.825,0,0,0-.873.873V32.3a.825.825,0,0,0,.873.873h17.46V31.428H21.825V8.73h2.619v2.619H26.19V8.73h8.73v2.619h1.746V8.73h2.619v7.857h1.746V7.857a.825.825,0,0,0-.873-.873H36.666V6.111A6.073,6.073,0,0,0,30.555,0a5.5,5.5,0,0,0-2.619.611,6.05,6.05,0,0,0-8.119,2.881,5.5,5.5,0,0,0-.611,2.619v.873ZM19.206,8.73h.873V30.206l-.873-.873Zm-2.619,0h.873v20.6l-.873.873Zm1.222,22.7.524-.524.524.524ZM27.936,2.619a4.185,4.185,0,0,1,1.746,3.492v.873H26.19V6.111A4.3,4.3,0,0,1,27.936,2.619ZM34.92,6.111v.873H31.428V6.111a6.081,6.081,0,0,0-1.746-4.278,4.362,4.362,0,0,1,5.151,3.4A2.97,2.97,0,0,1,34.92,6.111Zm-13.968,0a4.323,4.323,0,0,1,4.365-4.365,2.97,2.97,0,0,1,.873.087,6.081,6.081,0,0,0-1.746,4.278v.873H20.952Z"/>
          <path id="Path_1329469" data-name="Path 1329469" d="M55.872,29.856a.83.83,0,0,0-.349-.873l-4.365-3.492a1.241,1.241,0,0,0-.524-.175h-.873V20.079a2.572,2.572,0,0,0-2.619-2.619H36.666a2.572,2.572,0,0,0-2.619,2.619v17.46a2.572,2.572,0,0,0,2.619,2.619h5.762a6.866,6.866,0,0,0,2.1,3.055v3.928H43.65a.825.825,0,0,0-.873.873v3.492a.825.825,0,0,0,.873.873V55H45.4V52.38h5.238V55H52.38V52.38a.825.825,0,0,0,.873-.873V48.015a.825.825,0,0,0-.873-.873V45.483Zm-7.857-9.778V35.793h-.524l-4.976-4.976a.844.844,0,0,0-1.222,0l-2.008,2.008V19.206h7.857a.825.825,0,0,1,.873.873ZM35.793,37.539V20.079a.825.825,0,0,1,.873-.873h.873V38.412h-.873A.825.825,0,0,1,35.793,37.539Zm3.492.873V35.269L41.9,37.888a1.107,1.107,0,0,0,.087.524Zm5.238,10.476h6.984v1.746H44.523Zm6.111-3.667v1.921H46.269V44.086a9.143,9.143,0,0,0,2.619.436V42.777c-5.063,0-5.238-4.714-5.238-5.238a.793.793,0,0,0-.262-.611l-2.881-2.881,1.4-1.4,4.627,4.627a.793.793,0,0,0,.611.262h1.746a.825.825,0,0,0,.873-.873v-9.6h.524l3.667,2.968Z"/>
          <path id="Path_1329470" data-name="Path 1329470" d="M27.936,19.206H32.3v1.746H27.936Z"/>
          <path id="Path_1329471" data-name="Path 1329471" d="M30.114,15.188h1.746v3.666H30.114Z" transform="translate(-2.96 26.9) rotate(-45)"/>
          <path id="Path_1329472" data-name="Path 1329472" d="M29.154,22.258H32.82V24H29.154Z" transform="translate(-7.281 28.69) rotate(-45)"/>
        </g>
        <path id="Path_1329473" data-name="Path 1329473" d="M44.348,20.777h1.746v4.976H44.348Z"/>
      </g>
    </g>
  </g>
</svg>
