<svg xmlns="http://www.w3.org/2000/svg" xmlns:xlink="http://www.w3.org/1999/xlink" width="98" height="97.999" viewBox="0 0 98 97.999">
  <defs>
    <clipPath id="clip-path">
      <rect id="Rectangle_412572" data-name="Rectangle 412572" width="57" height="55" transform="translate(1139.586 3878.606)" fill="#fff" stroke="#707070" stroke-width="1"/>
    </clipPath>
  </defs>
  <g id="Group_1206461" data-name="Group 1206461" transform="translate(-1119.086 -3857.106)">
    <g id="Group_1204751" data-name="Group 1204751" transform="translate(1119.086 3857.106)">
      <g id="Group_1204438" data-name="Group 1204438">
        <g id="Group_1204285" data-name="Group 1204285">
          <g id="Group_1204180" data-name="Group 1204180">
            <g id="Group_1204143" data-name="Group 1204143">
              <g id="Group_1188789" data-name="Group 1188789" transform="translate(0)">
                <path id="Path_1243039" data-name="Path 1243039" d="M41.05,0h0a41.05,41.05,0,0,1,0,82.1h0a41.05,41.05,0,0,1,0-82.1Z" transform="translate(7.951 7.949)" fill="#ffc63f"/>
                <rect id="Rectangle_400907" data-name="Rectangle 400907" width="88.438" height="88.437" rx="44.218" transform="translate(4.782 4.781)" fill="none"/>
                <g id="Group_1098742" data-name="Group 1098742" transform="translate(0)">
                  <g id="Rectangle_400898" data-name="Rectangle 400898" transform="translate(0)" fill="none" stroke="#fff" stroke-width="2" opacity="0.859">
                    <rect width="98" height="97.999" rx="48.999" stroke="none"/>
                    <rect x="1" y="1" width="96" height="95.999" rx="47.999" fill="none"/>
                  </g>
                  <g id="Rectangle_400907-2" data-name="Rectangle 400907" transform="translate(0)" fill="none" stroke="#0f1f33" stroke-linecap="round" stroke-width="2">
                    <rect width="98" height="97.999" rx="48.999" stroke="none"/>
                    <rect x="1" y="1" width="96" height="95.999" rx="47.999" fill="none"/>
                  </g>
                </g>
              </g>
            </g>
          </g>
        </g>
      </g>
    </g>
    <g id="Mask_Group_1099487" data-name="Mask Group 1099487" clip-path="url(#clip-path)">
      <g id="regulation_3732703" transform="translate(1139.699 3877.719)">
        <g id="Group_1207492" data-name="Group 1207492">
          <g id="Group_1207480" data-name="Group 1207480">
            <path id="Path_1328738" data-name="Path 1328738" d="M47.9,1.774H3.548A1.779,1.779,0,0,0,1.774,3.548V40.806a1.779,1.779,0,0,0,1.774,1.774H49.677V3.548A1.779,1.779,0,0,0,47.9,1.774Z" fill="#e6e9ed"/>
          </g>
          <g id="Group_1207481" data-name="Group 1207481">
            <path id="Path_1328739" data-name="Path 1328739" d="M55,14.194v3.548H44.355V14.194a5.331,5.331,0,0,1,5.323-5.323A5.327,5.327,0,0,1,55,14.194Z" fill="#aab2bd"/>
          </g>
          <g id="Group_1207482" data-name="Group 1207482">
            <path id="Path_1328740" data-name="Path 1328740" d="M49.677,46.129l1.774-1.774L55,46.129,50.964,54.21a1.443,1.443,0,0,1-2.573,0l-4.036-8.081L47.9,44.355Z" fill="#aab2bd"/>
          </g>
          <g id="Group_1207483" data-name="Group 1207483">
            <path id="Path_1328741" data-name="Path 1328741" d="M55,17.742V21.29H44.355V17.742Z" fill="#ffeaa7"/>
          </g>
          <g id="Group_1207484" data-name="Group 1207484">
            <path id="Path_1328742" data-name="Path 1328742" d="M55,21.29V46.129l-3.548-1.774V21.29Z" fill="#b4dd7f"/>
          </g>
          <g id="Group_1207485" data-name="Group 1207485">
            <path id="Path_1328743" data-name="Path 1328743" d="M47.9,21.29V44.355l-3.548,1.774V21.29Z" fill="#b4dd7f"/>
          </g>
          <g id="Group_1207486" data-name="Group 1207486">
            <path id="Path_1328744" data-name="Path 1328744" d="M51.452,21.29V44.355l-1.774,1.774L47.9,44.355V21.29Z" fill="#ff826e"/>
          </g>
          <g id="Group_1207487" data-name="Group 1207487">
            <path id="Path_1328745" data-name="Path 1328745" d="M5.323,5.323H30.161v7.1H5.323Z" fill="#fcd770"/>
          </g>
          <g id="Group_1207488" data-name="Group 1207488">
            <circle id="Ellipse_12906" data-name="Ellipse 12906" cx="1.774" cy="1.774" r="1.774" transform="translate(31.935 35.484)" fill="#ff826e"/>
          </g>
          <g id="Group_1207489" data-name="Group 1207489">
            <circle id="Ellipse_12907" data-name="Ellipse 12907" cx="1.774" cy="1.774" r="1.774" transform="translate(31.935 28.387)" fill="#ff826e"/>
          </g>
          <g id="Group_1207490" data-name="Group 1207490">
            <circle id="Ellipse_12908" data-name="Ellipse 12908" cx="1.774" cy="1.774" r="1.774" transform="translate(31.935 21.29)" fill="#ff826e"/>
          </g>
          <g id="Group_1207491" data-name="Group 1207491">
            <circle id="Ellipse_12909" data-name="Ellipse 12909" cx="11.532" cy="11.532" r="11.532" transform="translate(5.323 15.968)" fill="#ff826e"/>
          </g>
        </g>
        <g id="Group_1207493" data-name="Group 1207493">
          <path id="Path_1328746" data-name="Path 1328746" d="M50.565,8.055V3.548A2.665,2.665,0,0,0,47.9.887H3.548A2.665,2.665,0,0,0,.887,3.548V40.806a2.665,2.665,0,0,0,2.661,2.661H43.468v2.871L47.6,54.6a2.323,2.323,0,0,0,4.155,0l4.132-8.265V14.194A6.214,6.214,0,0,0,50.565,8.055Zm1.774,35.752V22.177h1.774V44.694Zm-7.1-25.178h8.871V20.4H45.242Zm0,3.548h1.774V43.807l-1.774.887Zm3.548,0h1.774v21.81l-.887.887-.887-.887Zm5.323-7.984v2.661H45.242V14.194a4.435,4.435,0,0,1,8.871,0ZM3.548,41.694a.888.888,0,0,1-.887-.887V3.548a.888.888,0,0,1,.887-.887H47.9a.888.888,0,0,1,.887.887V8.055a6.214,6.214,0,0,0-5.323,6.139v27.5ZM50.168,53.81a.568.568,0,0,1-.98,0l-3.642-7.284,2.183-1.091,1.948,1.949,1.949-1.949,2.183,1.091Z"/>
          <path id="Path_1328747" data-name="Path 1328747" d="M31.048,4.435H4.435v8.871H31.048Zm-1.774,7.1H6.21V6.21H29.274Z"/>
          <path id="Path_1328748" data-name="Path 1328748" d="M18.629,7.984H20.4V9.758H18.629Z"/>
          <path id="Path_1328749" data-name="Path 1328749" d="M7.984,7.984H9.758V9.758H7.984Z"/>
          <path id="Path_1328750" data-name="Path 1328750" d="M11.532,7.984h1.774V9.758H11.532Z"/>
          <path id="Path_1328751" data-name="Path 1328751" d="M22.177,7.984h1.774V9.758H22.177Z"/>
          <path id="Path_1328752" data-name="Path 1328752" d="M25.726,7.984H27.5V9.758H25.726Z"/>
          <path id="Path_1328753" data-name="Path 1328753" d="M15.081,7.984h1.774V9.758H15.081Z"/>
          <path id="Path_1328754" data-name="Path 1328754" d="M16.855,15.081A12.419,12.419,0,1,0,29.274,27.5,12.433,12.433,0,0,0,16.855,15.081ZM15.968,38.1a10.574,10.574,0,0,1-5.482-2.091,13.425,13.425,0,0,1,5.482-1.384Zm1.774-3.475a13.439,13.439,0,0,1,5.482,1.384A10.574,10.574,0,0,1,17.742,38.1Zm0-17.725a10.574,10.574,0,0,1,5.482,2.091,13.425,13.425,0,0,1-5.482,1.384Zm-1.774,3.475a13.439,13.439,0,0,1-5.482-1.384A10.574,10.574,0,0,1,15.968,16.9Zm1.774,1.774a14.55,14.55,0,0,0,6.876-1.909A10.6,10.6,0,0,1,27.485,27.2a42.312,42.312,0,0,0-9.743-1.455Zm-8.65-1.91a14.54,14.54,0,0,0,6.876,1.909V25.74a42.37,42.37,0,0,0-9.743,1.455,10.593,10.593,0,0,1,2.867-6.956ZM6.329,29.012a41.158,41.158,0,0,1,9.638-1.5v5.336A14.55,14.55,0,0,0,9.092,34.76a10.6,10.6,0,0,1-2.762-5.748Zm18.288,5.749a14.54,14.54,0,0,0-6.876-1.909V27.516a41.11,41.11,0,0,1,9.638,1.5A10.6,10.6,0,0,1,24.618,34.761Z"/>
          <path id="Path_1328755" data-name="Path 1328755" d="M33.71,34.6a2.661,2.661,0,1,0,2.661,2.661A2.665,2.665,0,0,0,33.71,34.6Zm0,3.548a.887.887,0,1,1,.887-.887A.888.888,0,0,1,33.71,38.145Z"/>
          <path id="Path_1328756" data-name="Path 1328756" d="M33.71,27.5a2.661,2.661,0,1,0,2.661,2.661A2.665,2.665,0,0,0,33.71,27.5Zm0,3.548a.887.887,0,1,1,.887-.887A.888.888,0,0,1,33.71,31.048Z"/>
          <path id="Path_1328757" data-name="Path 1328757" d="M33.71,20.4a2.661,2.661,0,1,0,2.661,2.661A2.665,2.665,0,0,0,33.71,20.4Zm0,3.548a.887.887,0,1,1,.887-.887A.888.888,0,0,1,33.71,23.952Z"/>
          <path id="Path_1328758" data-name="Path 1328758" d="M38.145,34.6h3.548v1.774H38.145Z"/>
          <path id="Path_1328759" data-name="Path 1328759" d="M38.145,38.145h3.548v1.774H38.145Z"/>
          <path id="Path_1328760" data-name="Path 1328760" d="M38.145,27.5h3.548v1.774H38.145Z"/>
          <path id="Path_1328761" data-name="Path 1328761" d="M38.145,31.048h3.548v1.774H38.145Z"/>
          <path id="Path_1328762" data-name="Path 1328762" d="M38.145,20.4h3.548v1.774H38.145Z"/>
          <path id="Path_1328763" data-name="Path 1328763" d="M38.145,23.952h3.548v1.774H38.145Z"/>
          <path id="Path_1328764" data-name="Path 1328764" d="M32.823,4.435H34.6V6.21H32.823Z"/>
          <path id="Path_1328765" data-name="Path 1328765" d="M36.371,4.435H47.016V6.21H36.371Z"/>
          <path id="Path_1328766" data-name="Path 1328766" d="M32.823,7.984h8.871V9.758H32.823Z"/>
          <path id="Path_1328767" data-name="Path 1328767" d="M32.823,11.532h8.871v1.774H32.823Z"/>
          <path id="Path_1328768" data-name="Path 1328768" d="M32.823,15.081h8.871v1.774H32.823Z"/>
        </g>
      </g>
    </g>
  </g>
</svg>
