<svg xmlns="http://www.w3.org/2000/svg" xmlns:xlink="http://www.w3.org/1999/xlink" width="98" height="97.999" viewBox="0 0 98 97.999">
  <defs>
    <clipPath id="clip-path">
      <rect id="Rectangle_412572" data-name="Rectangle 412572" width="57" height="55" transform="translate(1139.586 3878.606)" fill="#fff" stroke="#707070" stroke-width="1"/>
    </clipPath>
  </defs>
  <g id="Group_1206958" data-name="Group 1206958" transform="translate(-1119.086 -3857.106)">
    <g id="Group_1204751" data-name="Group 1204751" transform="translate(1119.086 3857.106)">
      <g id="Group_1204438" data-name="Group 1204438">
        <g id="Group_1204285" data-name="Group 1204285">
          <g id="Group_1204180" data-name="Group 1204180">
            <g id="Group_1204143" data-name="Group 1204143">
              <g id="Group_1188789" data-name="Group 1188789" transform="translate(0)">
                <path id="Path_1243039" data-name="Path 1243039" d="M41.05,0h0a41.05,41.05,0,0,1,0,82.1h0a41.05,41.05,0,0,1,0-82.1Z" transform="translate(7.951 7.949)" fill="#ffc63f"/>
                <rect id="Rectangle_400907" data-name="Rectangle 400907" width="88.438" height="88.437" rx="44.218" transform="translate(4.782 4.781)" fill="none"/>
                <g id="Group_1098742" data-name="Group 1098742" transform="translate(0)">
                  <g id="Rectangle_400898" data-name="Rectangle 400898" transform="translate(0)" fill="none" stroke="#fff" stroke-width="2" opacity="0.859">
                    <rect width="98" height="97.999" rx="48.999" stroke="none"/>
                    <rect x="1" y="1" width="96" height="95.999" rx="47.999" fill="none"/>
                  </g>
                  <g id="Rectangle_400907-2" data-name="Rectangle 400907" transform="translate(0)" fill="none" stroke="#0f1f33" stroke-linecap="round" stroke-width="2">
                    <rect width="98" height="97.999" rx="48.999" stroke="none"/>
                    <rect x="1" y="1" width="96" height="95.999" rx="47.999" fill="none"/>
                  </g>
                </g>
              </g>
            </g>
          </g>
        </g>
      </g>
    </g>
    <g id="Mask_Group_1099510" data-name="Mask Group 1099510" clip-path="url(#clip-path)">
      <g id="whatsapp_4406208" transform="translate(1140.586 3878.606)">
        <g id="Group_1207536" data-name="Group 1207536">
          <path id="Path_1329055" data-name="Path 1329055" d="M26.813.822A26.459,26.459,0,0,0,5.081,40.93L.926,51.8A1.764,1.764,0,0,0,3.2,54.074L14.07,49.919A26.458,26.458,0,1,0,26.813.822Z" fill="#eceaec"/>
          <path id="Path_1329056" data-name="Path 1329056" d="M7.865,46A.882.882,0,0,0,9,47.135L12.494,45.8a4.413,4.413,0,0,1,3.857.345,21.968,21.968,0,0,0,12.9,3.115A22.213,22.213,0,0,0,49.772,28.037,22.05,22.05,0,0,0,26.963,5.229,22.211,22.211,0,0,0,5.741,25.751a21.989,21.989,0,0,0,3.07,12.825A4.5,4.5,0,0,1,9.2,42.505Z" fill="#77cc7d"/>
          <path id="Path_1329057" data-name="Path 1329057" d="M16.007,43.122a6.774,6.774,0,0,1,1.736.773A19.3,19.3,0,0,0,29.071,46.62,19.543,19.543,0,0,0,47.128,27.946,19.4,19.4,0,0,0,27.055,7.873,19.4,19.4,0,0,0,11.08,37.215a7.2,7.2,0,0,1,.981,4.723.884.884,0,0,0,.982,1A7.333,7.333,0,0,1,16.007,43.122Z" fill="#4fd119"/>
          <path id="Path_1329058" data-name="Path 1329058" d="M43.3,45.2A23.4,23.4,0,0,1,29.365,51.02a23.721,23.721,0,0,1-13.927-3.365,2.643,2.643,0,0,0-2.313-.208L5.946,50.192a.882.882,0,0,1-1.139-1.139l2.745-7.179a2.644,2.644,0,0,0-.206-2.311v0A23.741,23.741,0,0,1,3.981,25.634,23.4,23.4,0,0,1,9.8,11.7,2.743,2.743,0,0,0,9.7,7.976,26.36,26.36,0,0,0,5.081,40.93L.926,51.8A1.764,1.764,0,0,0,3.2,54.074L14.07,49.919A26.361,26.361,0,0,0,47.024,45.3,2.745,2.745,0,0,0,43.3,45.2Z" fill="#dbd8db"/>
        </g>
        <g id="Group_1207537" data-name="Group 1207537">
          <path id="Path_1329059" data-name="Path 1329059" d="M53.028,17.063A27.267,27.267,0,1,0,4.189,41.007L.174,51.509a2.54,2.54,0,0,0,.583,2.735,2.541,2.541,0,0,0,1.8.757,2.6,2.6,0,0,0,.93-.174l10.5-4.015A27.273,27.273,0,0,0,53.028,17.063Zm.346,11.1a25.653,25.653,0,0,1-38.887,21.07.806.806,0,0,0-.7-.063L2.916,53.321a.958.958,0,0,1-1.237-1.237L5.833,41.218a.806.806,0,0,0-.063-.7A25.7,25.7,0,0,1,26.841,1.627q.454-.015.906-.015A25.631,25.631,0,0,1,53.373,28.159Z"/>
          <path id="Path_1329060" data-name="Path 1329060" d="M35.156,20.779A6.465,6.465,0,0,0,28.7,14.322H21.564a.806.806,0,0,0-.806.806V39.69a.806.806,0,0,0,.806.806h0c.066,0,6.589-.029,8.377-.029a7.416,7.416,0,0,0,2.469-14.41,6.453,6.453,0,0,0,2.743-5.277ZM28.7,15.933a4.846,4.846,0,1,1,0,9.692l-6.329.007v-9.7H28.7Zm7.052,17.116a5.812,5.812,0,0,1-5.806,5.806c-1.411,0-5.759.018-7.575.026V27.258c.893,0,7.575-.015,7.575-.015A5.812,5.812,0,0,1,35.751,33.049Z"/>
          <path id="Path_1329061" data-name="Path 1329061" d="M27.737,4.41A22.8,22.8,0,0,0,12.443,10.3a.806.806,0,1,0,1.079,1.2A21.229,21.229,0,0,1,43.506,41.477a.806.806,0,1,0,1.2,1.079A22.84,22.84,0,0,0,27.737,4.41Z"/>
          <path id="Path_1329062" data-name="Path 1329062" d="M41.032,43.812A20.989,20.989,0,0,1,27.737,48.5a21.2,21.2,0,0,1-10.97-3.048,5.215,5.215,0,0,0-4.561-.409l-3.651,1.4,1.4-3.651a5.183,5.183,0,0,0-.408-4.56A21.2,21.2,0,0,1,6.5,27.263a20.988,20.988,0,0,1,4.693-13.295.806.806,0,1,0-1.255-1.01A22.827,22.827,0,0,0,8.165,39.066a3.581,3.581,0,0,1,.282,3.151l-2.04,5.335a.806.806,0,0,0,1.04,1.04l5.335-2.04a3.6,3.6,0,0,1,3.151.282,22.827,22.827,0,0,0,26.109-1.768.806.806,0,0,0-1.011-1.255Z"/>
        </g>
      </g>
    </g>
  </g>
</svg>
