<svg xmlns="http://www.w3.org/2000/svg" xmlns:xlink="http://www.w3.org/1999/xlink" width="189.428" height="182.781" viewBox="0 0 189.428 182.781">
  <defs>
    <clipPath id="clip-path">
      <rect id="Rectangle_412572" data-name="Rectangle 412572" width="189.428" height="182.781" transform="translate(1139.586 3878.606)" fill="#fff" stroke="#707070" stroke-width="1"/>
    </clipPath>
  </defs>
  <g id="Mask_Group_1099536" data-name="Mask Group 1099536" transform="translate(-1139.586 -3878.606)" clip-path="url(#clip-path)">
    <g id="logo-design_3940070" transform="translate(1150.816 3878.606)">
      <g id="Group_1207651" data-name="Group 1207651" transform="translate(2.678 2.677)">
        <g id="Group_1207647" data-name="Group 1207647">
          <g id="Group_1207628" data-name="Group 1207628" transform="translate(144.957)">
            <path id="Path_1329511" data-name="Path 1329511" d="M61.417,16.49H47.874A1.071,1.071,0,0,1,46.8,15.419V1.877A1.071,1.071,0,0,1,47.874.806H61.417a1.071,1.071,0,0,1,1.071,1.071V15.419A1.071,1.071,0,0,1,61.417,16.49Z" transform="translate(-46.803 -0.806)" fill="#a2c7f8"/>
          </g>
          <g id="Group_1207629" data-name="Group 1207629" transform="translate(76.392)">
            <path id="Path_1329512" data-name="Path 1329512" d="M40.785,16.49H27.243a1.071,1.071,0,0,1-1.071-1.071V1.877A1.071,1.071,0,0,1,27.243.806H40.785a1.071,1.071,0,0,1,1.071,1.071V15.419A1.071,1.071,0,0,1,40.785,16.49Z" transform="translate(-26.172 -0.806)" fill="#a2c7f8"/>
          </g>
          <g id="Group_1207630" data-name="Group 1207630" transform="translate(76.392)">
            <path id="Path_1329513" data-name="Path 1329513" d="M33.637,15.419V1.877A1.071,1.071,0,0,1,34.708.806H27.243a1.071,1.071,0,0,0-1.071,1.071V15.419a1.071,1.071,0,0,0,1.071,1.071h7.465A1.071,1.071,0,0,1,33.637,15.419Z" transform="translate(-26.172 -0.806)" fill="#8db3df"/>
          </g>
          <g id="Group_1207631" data-name="Group 1207631" transform="translate(144.957)">
            <path id="Path_1329514" data-name="Path 1329514" d="M54.269,15.419V1.877A1.071,1.071,0,0,1,55.34.806H47.874A1.071,1.071,0,0,0,46.8,1.877V15.419a1.071,1.071,0,0,0,1.071,1.071H55.34A1.071,1.071,0,0,1,54.269,15.419Z" transform="translate(-46.803 -0.806)" fill="#8db3df"/>
          </g>
          <g id="Group_1207632" data-name="Group 1207632" transform="translate(144.957 80.871)">
            <path id="Path_1329515" data-name="Path 1329515" d="M61.417,40.824H47.874A1.071,1.071,0,0,1,46.8,39.753V26.211a1.071,1.071,0,0,1,1.071-1.071H61.417a1.071,1.071,0,0,1,1.071,1.071V39.753A1.071,1.071,0,0,1,61.417,40.824Z" transform="translate(-46.803 -25.14)" fill="#a2c7f8"/>
          </g>
          <g id="Group_1207633" data-name="Group 1207633" transform="translate(144.957 80.871)">
            <path id="Path_1329516" data-name="Path 1329516" d="M54.269,39.753V26.211A1.071,1.071,0,0,1,55.34,25.14H47.874A1.071,1.071,0,0,0,46.8,26.211V39.753a1.071,1.071,0,0,0,1.071,1.071H55.34A1.071,1.071,0,0,1,54.269,39.753Z" transform="translate(-46.803 -25.14)" fill="#8db3df"/>
          </g>
          <g id="Group_1207636" data-name="Group 1207636" transform="translate(144.957 161.742)">
            <g id="Group_1207634" data-name="Group 1207634" transform="translate(0 0)">
              <path id="Path_1329517" data-name="Path 1329517" d="M61.417,65.159H47.874A1.071,1.071,0,0,1,46.8,64.088V50.546a1.071,1.071,0,0,1,1.071-1.071H61.417a1.071,1.071,0,0,1,1.071,1.071V64.088A1.071,1.071,0,0,1,61.417,65.159Z" transform="translate(-46.803 -49.475)" fill="#a2c7f8"/>
            </g>
            <g id="Group_1207635" data-name="Group 1207635" transform="translate(0 0)">
              <path id="Path_1329518" data-name="Path 1329518" d="M54.269,64.088V50.546a1.071,1.071,0,0,1,1.071-1.071H47.874A1.071,1.071,0,0,0,46.8,50.546V64.088a1.071,1.071,0,0,0,1.071,1.071H55.34A1.071,1.071,0,0,1,54.269,64.088Z" transform="translate(-46.803 -49.475)" fill="#8db3df"/>
            </g>
          </g>
          <g id="Group_1207639" data-name="Group 1207639" transform="translate(76.392 161.742)">
            <g id="Group_1207637" data-name="Group 1207637" transform="translate(0 0)">
              <path id="Path_1329519" data-name="Path 1329519" d="M40.785,65.159H27.243a1.071,1.071,0,0,1-1.071-1.071V50.546a1.071,1.071,0,0,1,1.071-1.071H40.785a1.071,1.071,0,0,1,1.071,1.071V64.088A1.071,1.071,0,0,1,40.785,65.159Z" transform="translate(-26.172 -49.475)" fill="#a2c7f8"/>
            </g>
            <g id="Group_1207638" data-name="Group 1207638" transform="translate(0 0)">
              <path id="Path_1329520" data-name="Path 1329520" d="M33.637,64.088V50.546a1.071,1.071,0,0,1,1.071-1.071H27.243a1.071,1.071,0,0,0-1.071,1.071V64.088a1.071,1.071,0,0,0,1.071,1.071h7.465A1.071,1.071,0,0,1,33.637,64.088Z" transform="translate(-26.172 -49.475)" fill="#8db3df"/>
            </g>
          </g>
          <g id="Group_1207646" data-name="Group 1207646">
            <g id="Group_1207640" data-name="Group 1207640">
              <path id="Path_1329521" data-name="Path 1329521" d="M17.8,16.49H4.256a1.071,1.071,0,0,1-1.071-1.071V1.877A1.071,1.071,0,0,1,4.256.806H17.8a1.071,1.071,0,0,1,1.071,1.071V15.419A1.071,1.071,0,0,1,17.8,16.49Z" transform="translate(-3.185 -0.806)" fill="#a2c7f8"/>
            </g>
            <g id="Group_1207641" data-name="Group 1207641">
              <path id="Path_1329522" data-name="Path 1329522" d="M10.65,15.419V1.877A1.071,1.071,0,0,1,11.721.806H4.256A1.071,1.071,0,0,0,3.185,1.877V15.419A1.071,1.071,0,0,0,4.256,16.49h7.465A1.071,1.071,0,0,1,10.65,15.419Z" transform="translate(-3.185 -0.806)" fill="#8db3df"/>
            </g>
            <g id="Group_1207642" data-name="Group 1207642" transform="translate(0 161.742)">
              <path id="Path_1329523" data-name="Path 1329523" d="M17.8,65.159H4.256a1.071,1.071,0,0,1-1.071-1.071V50.546a1.071,1.071,0,0,1,1.071-1.071H17.8a1.071,1.071,0,0,1,1.071,1.071V64.088A1.071,1.071,0,0,1,17.8,65.159Z" transform="translate(-3.185 -49.475)" fill="#a2c7f8"/>
            </g>
            <g id="Group_1207643" data-name="Group 1207643" transform="translate(0 161.742)">
              <path id="Path_1329524" data-name="Path 1329524" d="M10.65,64.088V50.546a1.071,1.071,0,0,1,1.071-1.071H4.256a1.071,1.071,0,0,0-1.071,1.071V64.088a1.071,1.071,0,0,0,1.071,1.071h7.465A1.071,1.071,0,0,1,10.65,64.088Z" transform="translate(-3.185 -49.475)" fill="#8db3df"/>
            </g>
            <g id="Group_1207644" data-name="Group 1207644" transform="translate(0 80.871)">
              <path id="Path_1329525" data-name="Path 1329525" d="M17.8,40.824H4.256a1.071,1.071,0,0,1-1.071-1.071V26.211A1.071,1.071,0,0,1,4.256,25.14H17.8a1.071,1.071,0,0,1,1.071,1.071V39.753A1.071,1.071,0,0,1,17.8,40.824Z" transform="translate(-3.185 -25.14)" fill="#a2c7f8"/>
            </g>
            <g id="Group_1207645" data-name="Group 1207645" transform="translate(0 80.871)">
              <path id="Path_1329526" data-name="Path 1329526" d="M10.65,39.753V26.211a1.071,1.071,0,0,1,1.071-1.071H4.256a1.071,1.071,0,0,0-1.071,1.071V39.753a1.071,1.071,0,0,0,1.071,1.071h7.465A1.071,1.071,0,0,1,10.65,39.753Z" transform="translate(-3.185 -25.14)" fill="#8db3df"/>
            </g>
          </g>
        </g>
        <path id="Path_1329527" data-name="Path 1329527" d="M83.659,84.535V93.2H47.715V24.842H56.38V8.8H17.869V18.52H46.626V33.852H37.961v69.071H74.619V94.259H89.951v20.122h9.755V84.535Z" transform="translate(30.931 17.758)" fill="#fac600"/>
        <g id="Group_1207648" data-name="Group 1207648" transform="translate(39.402 35.921)">
          <path id="Path_1329528" data-name="Path 1329528" d="M80.831,87.353v8.665H44.887V27.661h8.665V11.614H15.041V27.661h8.665V117.2H96.878V87.353Z" transform="translate(-15.041 -11.614)" fill="#0593fc"/>
        </g>
        <g id="Group_1207650" data-name="Group 1207650" transform="translate(39.403 35.921)">
          <g id="Group_1207649" data-name="Group 1207649">
            <path id="Path_1329529" data-name="Path 1329529" d="M34.857,105.461V21.992a1.785,1.785,0,0,0-1.785-1.785h-5.1a1.785,1.785,0,0,1-1.785-1.785V11.614H15.041V27.661h8.665V117.2H96.878v-9.953H36.642A1.785,1.785,0,0,1,34.857,105.461Z" transform="translate(-15.041 -11.614)" fill="#0182fc"/>
          </g>
        </g>
      </g>
      <g id="Group_1207652" data-name="Group 1207652" transform="translate(113.682 29.874)">
        <path id="Path_1329530" data-name="Path 1329530" d="M36.6,10.332l9.322,61.124a1.164,1.164,0,0,0,2.158.407l12.329-21.3a1.164,1.164,0,0,1,1.006-.581l24.612-.027a1.164,1.164,0,0,0,.726-2.072L38.478,9.248A1.164,1.164,0,0,0,36.6,10.332Z" transform="translate(-36.587 -8.989)" fill="#c4e2ff"/>
      </g>
      <g id="Group_1207653" data-name="Group 1207653" transform="translate(113.682 29.875)">
        <path id="Path_1329531" data-name="Path 1329531" d="M48.82,17.524,38.478,9.248A1.164,1.164,0,0,0,36.6,10.332l9.322,61.124a1.164,1.164,0,0,0,2.158.407L55.225,59.52Z" transform="translate(-36.587 -8.99)" fill="#b3dafe"/>
      </g>
      <g id="Group_1207654" data-name="Group 1207654" transform="translate(0 0)">
        <path id="Path_1329532" data-name="Path 1329532" d="M108.147,83.729H92.1a2.678,2.678,0,0,0-2.677,2.677v5.988H58.834v-63h5.988A2.678,2.678,0,0,0,67.5,26.714V10.667A2.678,2.678,0,0,0,64.822,7.99H26.311a2.678,2.678,0,0,0-2.677,2.677v6.69h-6.72a2.678,2.678,0,0,0-2.677,2.677V36.081a2.678,2.678,0,0,0,2.677,2.677H22.9V125.62a2.678,2.678,0,0,0,2.677,2.677H98.749a2.678,2.678,0,0,0,2.677-2.677v-6.69h6.72a2.678,2.678,0,0,0,2.677-2.677v-8.44a2.677,2.677,0,1,0-5.355,0v5.762h-4.043v-17.8A2.678,2.678,0,0,0,98.749,93.1H94.778V89.084h10.691v6.234a2.677,2.677,0,1,0,5.355,0V86.406A2.677,2.677,0,0,0,108.147,83.729ZM28.988,13.345H62.144V24.037H58.1v-4a2.678,2.678,0,0,0-2.677-2.677H28.988Zm67.084,109.6H28.256V36.081A2.678,2.678,0,0,0,25.578,33.4H19.591V22.712H52.747V33.4H46.759a2.678,2.678,0,0,0-2.677,2.677V58.548a2.677,2.677,0,1,0,5.355,0V38.759h4.043V95.071a2.678,2.678,0,0,0,2.677,2.677H80.026v4.012H49.437V71.042a2.677,2.677,0,0,0-5.355,0v33.4a2.678,2.678,0,0,0,2.677,2.677H82.7a2.678,2.678,0,0,0,2.677-2.677V98.451H96.072Z" transform="translate(25.167 18.563)"/>
        <path id="Path_1329533" data-name="Path 1329533" d="M165.5,73.518a3.841,3.841,0,0,0,2.4-6.84l-7.32-5.858V21.039h4.047a3.753,3.753,0,0,0,3.748-3.748V3.748A3.753,3.753,0,0,0,164.627,0H151.085a3.753,3.753,0,0,0-3.748,3.748V5.2H99.81V3.748A3.753,3.753,0,0,0,96.062,0H82.519a3.753,3.753,0,0,0-3.748,3.748V5.2H23.419V3.748A3.753,3.753,0,0,0,19.67,0H6.128A3.753,3.753,0,0,0,2.379,3.748V17.291a3.753,3.753,0,0,0,3.748,3.748h4.048V80.871H6.128a3.753,3.753,0,0,0-3.748,3.748V98.162a3.753,3.753,0,0,0,3.748,3.748h4.048v59.832H6.128a3.753,3.753,0,0,0-3.748,3.748v13.542a3.753,3.753,0,0,0,3.748,3.748H19.67a3.753,3.753,0,0,0,3.748-3.748v-1.452H78.771v1.452a3.753,3.753,0,0,0,3.748,3.748H96.062a3.753,3.753,0,0,0,3.748-3.748v-1.452h47.526v1.452a3.753,3.753,0,0,0,3.748,3.748h13.542a3.753,3.753,0,0,0,3.748-3.748V165.49a3.753,3.753,0,0,0-3.748-3.748H160.58V101.91h4.047a3.753,3.753,0,0,0,3.748-3.748V84.619a3.753,3.753,0,0,0-3.748-3.748H160.58V73.523ZM152.691,5.355h10.329V15.684H152.691Zm-68.565,0h10.33V15.684H84.126Zm-76.392,0h10.33V15.684H7.734Zm0,80.871h10.33v10.33H7.734Zm10.33,91.2H7.734V167.1h10.33Zm76.392,0H84.126V167.1h10.33Zm68.565,0H152.691V167.1h10.329Zm0-80.871H152.691V86.226h10.329Zm-7.8-15.684h-4.14a3.753,3.753,0,0,0-3.748,3.748V98.162a3.753,3.753,0,0,0,3.748,3.748h4.14v59.832h-4.14a3.753,3.753,0,0,0-3.748,3.748v6.736H99.81v-6.736a3.753,3.753,0,0,0-3.748-3.748H82.519a3.753,3.753,0,0,0-3.748,3.748v6.736H23.419v-6.736a3.753,3.753,0,0,0-3.748-3.748H15.53V101.91h4.14a3.753,3.753,0,0,0,3.748-3.748V84.619a3.753,3.753,0,0,0-3.748-3.748H15.53V21.039h4.14a3.753,3.753,0,0,0,3.748-3.748V10.555H78.771v6.736a3.753,3.753,0,0,0,3.748,3.748H96.062a3.753,3.753,0,0,0,3.748-3.748V10.555h47.526v6.736a3.753,3.753,0,0,0,3.748,3.748h4.14V56.534l-8.124-6.5a2.677,2.677,0,0,0-3.346,4.181l17.437,13.955-20.305.022a3.853,3.853,0,0,0-3.32,1.917L127.4,87.68l-8.088-53.034L134,46.4a2.677,2.677,0,0,0,3.346-4.181L119.626,28.043a3.841,3.841,0,0,0-6.2,3.578l9.321,61.123a3.8,3.8,0,0,0,3.084,3.2,3.956,3.956,0,0,0,.736.069,3.791,3.791,0,0,0,3.3-1.92l11.892-20.546,13.461-.015v7.342Z" transform="translate(-2.379 0)"/>
      </g>
    </g>
  </g>
</svg>
