<svg xmlns="http://www.w3.org/2000/svg" xmlns:xlink="http://www.w3.org/1999/xlink" width="98" height="97.999" viewBox="0 0 98 97.999">
  <defs>
    <clipPath id="clip-path">
      <rect id="Rectangle_412572" data-name="Rectangle 412572" width="57" height="55" transform="translate(1139.586 3878.606)" fill="#fff" stroke="#707070" stroke-width="1"/>
    </clipPath>
  </defs>
  <g id="Group_1207052" data-name="Group 1207052" transform="translate(-1119.086 -3857.106)">
    <g id="Group_1204751" data-name="Group 1204751" transform="translate(1119.086 3857.106)">
      <g id="Group_1204438" data-name="Group 1204438">
        <g id="Group_1204285" data-name="Group 1204285">
          <g id="Group_1204180" data-name="Group 1204180">
            <g id="Group_1204143" data-name="Group 1204143">
              <g id="Group_1188789" data-name="Group 1188789" transform="translate(0)">
                <path id="Path_1243039" data-name="Path 1243039" d="M41.05,0h0a41.05,41.05,0,0,1,0,82.1h0a41.05,41.05,0,0,1,0-82.1Z" transform="translate(7.951 7.949)" fill="#ffc63f"/>
                <rect id="Rectangle_400907" data-name="Rectangle 400907" width="88.438" height="88.437" rx="44.218" transform="translate(4.782 4.781)" fill="none"/>
                <g id="Group_1098742" data-name="Group 1098742" transform="translate(0)">
                  <g id="Rectangle_400898" data-name="Rectangle 400898" transform="translate(0)" fill="none" stroke="#fff" stroke-width="2" opacity="0.859">
                    <rect width="98" height="97.999" rx="48.999" stroke="none"/>
                    <rect x="1" y="1" width="96" height="95.999" rx="47.999" fill="none"/>
                  </g>
                  <g id="Rectangle_400907-2" data-name="Rectangle 400907" transform="translate(0)" fill="none" stroke="#0f1f33" stroke-linecap="round" stroke-width="2">
                    <rect width="98" height="97.999" rx="48.999" stroke="none"/>
                    <rect x="1" y="1" width="96" height="95.999" rx="47.999" fill="none"/>
                  </g>
                </g>
              </g>
            </g>
          </g>
        </g>
      </g>
    </g>
    <g id="Mask_Group_1099515" data-name="Mask Group 1099515" clip-path="url(#clip-path)">
      <g id="promotion_3734242" transform="translate(1140.586 3878.606)">
        <g id="Layer_3" data-name="Layer 3">
          <path id="Path_1329133" data-name="Path 1329133" d="M50.7.859H36.953A3.437,3.437,0,0,0,33.515,4.3V16.328a3.437,3.437,0,0,0,3.437,3.437h2.578v4.3l4.3-4.3H50.7a3.437,3.437,0,0,0,3.437-3.437V4.3A3.437,3.437,0,0,0,50.7.859Z" fill="#fbf198"/>
          <path id="Path_1329134" data-name="Path 1329134" d="M39.531.859H36.953A3.437,3.437,0,0,0,33.515,4.3V16.328a3.437,3.437,0,0,0,3.437,3.437h2.578v4.3l4.3-4.3H50.7a3.437,3.437,0,0,0,3.437-3.437H46.406a6.875,6.875,0,0,1-6.875-6.875Z" fill="#fccf81"/>
          <path id="Path_1329135" data-name="Path 1329135" d="M25.1,13.269l-12.212,6.5H4.3A3.437,3.437,0,0,0,.859,23.2V31.8A3.437,3.437,0,0,0,4.3,35.234H12.89l12.212,6.5a3.443,3.443,0,0,0,4.976-3.171V16.44A3.443,3.443,0,0,0,25.1,13.269Z" fill="#fbf198"/>
          <path id="Path_1329136" data-name="Path 1329136" d="M25.1,35.714l-12.212-6.5H4.3A3.437,3.437,0,0,1,.859,25.781V31.8A3.437,3.437,0,0,0,4.3,35.234H12.89l12.212,6.5a3.443,3.443,0,0,0,4.976-3.171V32.544a3.443,3.443,0,0,1-4.976,3.17Z" fill="#fccf81"/>
          <circle id="Ellipse_12921" data-name="Ellipse 12921" cx="1.719" cy="1.719" r="1.719" transform="translate(37.812 5.156)" fill="#ff8999"/>
          <circle id="Ellipse_12922" data-name="Ellipse 12922" cx="1.719" cy="1.719" r="1.719" transform="translate(46.406 12.031)" fill="#ff8999"/>
          <path id="Path_1329137" data-name="Path 1329137" d="M35.234,27.5a5.137,5.137,0,0,1-5.156,5.156V22.344A5.156,5.156,0,0,1,35.234,27.5Z" fill="#fbf198"/>
          <path id="Path_1329138" data-name="Path 1329138" d="M35.234,27.5a5.137,5.137,0,0,1-5.156,5.156V22.344A5.156,5.156,0,0,1,35.234,27.5Z" fill="#ff8999"/>
          <path id="Path_1329139" data-name="Path 1329139" d="M41.593,38.053l3.79-.541.034-.009a1.9,1.9,0,0,1,1.616.524l5.5,5.5-6.127,6.127V42.925a1.9,1.9,0,0,0-.773-1.512l-3.094-2.32A2.182,2.182,0,0,0,40.107,39a2.18,2.18,0,0,1,1.487-.945Z" fill="#78cbed"/>
          <path id="Path_1329140" data-name="Path 1329140" d="M53.6,44.593a1.99,1.99,0,0,1-.095,2.819L49.13,51.785a1.994,1.994,0,0,1-2.724.172v-2.3l6.127-6.127Z" fill="#fbf198"/>
          <path id="Path_1329141" data-name="Path 1329141" d="M46.406,51.957v.249a2,2,0,0,1-2.062,1.934H38.156a2,2,0,0,1-2.062-1.934V50.7H46.406Z" fill="#fbf198"/>
          <path id="Path_1329142" data-name="Path 1329142" d="M46.406,49.654V50.7H36.093V42.925a1.9,1.9,0,0,1,.773-1.512l.7-.524,2.389-1.8A1.4,1.4,0,0,1,40.107,39a2.182,2.182,0,0,1,2.432.095l3.094,2.32a1.9,1.9,0,0,1,.773,1.512Z" fill="#93ecdd"/>
          <path id="Path_1329143" data-name="Path 1329143" d="M39.531,52.207V50.7H36.093v1.5a2,2,0,0,0,2.062,1.934h3.437a2,2,0,0,1-2.062-1.934Z" fill="#fccf81"/>
          <path id="Path_1329144" data-name="Path 1329144" d="M40.3,41.413l.7-.524,1.959-1.474-.43-.322A2.182,2.182,0,0,0,40.107,39a1.4,1.4,0,0,0-.146.095l-2.389,1.8-.7.524a1.9,1.9,0,0,0-.773,1.512V50.7h3.437V42.925A1.9,1.9,0,0,1,40.3,41.413Z" fill="#65cfcb"/>
          <path id="Path_1329145" data-name="Path 1329145" d="M11.172,35.234v7.734a5.156,5.156,0,0,1-5.156,5.156A1.724,1.724,0,0,1,4.3,46.406V35.234Z" fill="#eee"/>
          <path id="Path_1329146" data-name="Path 1329146" d="M11.172,37.812V35.234H4.3V46.406a1.719,1.719,0,0,0,1.708,1.719,5.179,5.179,0,0,0,.87-.077V42.109a4.3,4.3,0,0,1,4.3-4.3Z" fill="#dbd6d0"/>
          <path id="Path_1329147" data-name="Path 1329147" d="M12.89,19.765V35.234H4.3A3.437,3.437,0,0,1,.859,31.8V23.2A3.437,3.437,0,0,1,4.3,19.765Z" fill="#ff8999"/>
          <path id="Path_1329148" data-name="Path 1329148" d="M.859,25.781V31.8A3.437,3.437,0,0,0,4.3,35.234H12.89V29.218H4.3A3.437,3.437,0,0,1,.859,25.781Z" fill="#f2637f"/>
        </g>
        <g id="Layer_1" data-name="Layer 1">
          <path id="Path_1329149" data-name="Path 1329149" d="M36.093,27.5a6.021,6.021,0,0,0-5.156-5.947V16.44A4.345,4.345,0,0,0,24.7,12.51l-12.212,6.5a.859.859,0,0,0-.455.759V31.8a.859.859,0,0,0,1.719,0V20.281L25.5,14.032a2.617,2.617,0,0,1,3.723,2.408V38.56a2.61,2.61,0,0,1-3.712,2.412l-12.212-6.5a.954.954,0,0,0-.4-.1H4.3A2.578,2.578,0,0,1,1.719,31.8V23.2A2.578,2.578,0,0,1,4.3,20.625H9.453a.859.859,0,1,0,0-1.719H4.3A4.3,4.3,0,0,0,0,23.2V31.8a4.3,4.3,0,0,0,3.437,4.211v10.4a2.586,2.586,0,0,0,2.578,2.578,6.022,6.022,0,0,0,6.016-6.016V36.093h.645l12.031,6.4a4.344,4.344,0,0,0,6.23-3.934V33.447A6.021,6.021,0,0,0,36.093,27.5ZM10.312,42.968a4.3,4.3,0,0,1-4.3,4.3.859.859,0,0,1-.859-.859V36.093h5.156ZM30.937,31.711V23.289a4.3,4.3,0,0,1,0,8.422Z"/>
          <path id="Path_1329150" data-name="Path 1329150" d="M50.7,0H36.953a4.3,4.3,0,0,0-4.3,4.3V16.328a4.3,4.3,0,0,0,4.3,4.3h1.719v3.437a.877.877,0,0,0,.859.859.859.859,0,0,0,.607-.252l4.045-4.045H50.7a4.3,4.3,0,0,0,4.3-4.3V4.3A4.3,4.3,0,0,0,50.7,0Zm2.578,16.328A2.578,2.578,0,0,1,50.7,18.906H43.828a.891.891,0,0,0-.608.253L40.39,21.988V19.765a.859.859,0,0,0-.859-.859H36.953a2.578,2.578,0,0,1-2.578-2.578V4.3a2.578,2.578,0,0,1,2.578-2.578H50.7A2.578,2.578,0,0,1,53.281,4.3Z"/>
          <path id="Path_1329151" data-name="Path 1329151" d="M49.591,4.549a.859.859,0,0,0-1.215,0L38.064,14.861a.859.859,0,0,0,0,1.215.872.872,0,0,0,1.215,0L49.591,5.764a.859.859,0,0,0,0-1.215Z"/>
          <path id="Path_1329152" data-name="Path 1329152" d="M48.125,11.172A2.578,2.578,0,1,0,50.7,13.75a2.578,2.578,0,0,0-2.578-2.578Zm0,3.437a.859.859,0,1,1,.859-.859A.859.859,0,0,1,48.125,14.609Z"/>
          <path id="Path_1329153" data-name="Path 1329153" d="M42.109,6.875a2.578,2.578,0,1,0-2.578,2.578A2.578,2.578,0,0,0,42.109,6.875Zm-3.437,0a.859.859,0,1,1,.859.859A.859.859,0,0,1,38.671,6.875Z"/>
          <path id="Path_1329154" data-name="Path 1329154" d="M47.643,37.417a2.728,2.728,0,0,0-1.667-.782,5.15,5.15,0,0,0-9.883,2.037,5.044,5.044,0,0,0,.387,1.959l-.129.095a2.724,2.724,0,0,0-1.117,2.2v9.281A2.867,2.867,0,0,0,38.156,55h6.187a2.922,2.922,0,0,0,2.716-1.779,2.645,2.645,0,0,0,.584.06,2.966,2.966,0,0,0,2.1-.885l4.366-4.374A2.976,2.976,0,0,0,55,45.916a2.716,2.716,0,0,0-.791-1.934Zm3.672,6.113-4.05,4.05V42.925a2.724,2.724,0,0,0-1.117-2.2L43.4,38.663l2.1-.3a1.064,1.064,0,0,1,.928.275ZM37.4,42.092a5.145,5.145,0,0,0,2.827,1.633.875.875,0,0,0,1.014-.67.859.859,0,0,0-.67-1.014,3.448,3.448,0,0,1-1.8-.988l1.7-1.272a1.294,1.294,0,0,1,.773-.249,1.317,1.317,0,0,1,.773.249l3.094,2.32a1.031,1.031,0,0,1,.43.825v6.918H36.953V42.925A1.031,1.031,0,0,1,37.4,42.092Zm.412-3.42a3.437,3.437,0,0,1,6.334-1.848l-1.813.258a5.145,5.145,0,0,0-1.547.327,8.285,8.285,0,0,0-1.255.919l-1.607,1.212a3.25,3.25,0,0,1-.112-.868Zm7.734,13.535a1.146,1.146,0,0,1-1.2,1.074H38.156a1.146,1.146,0,0,1-1.2-1.074v-.645h8.594ZM52.894,46.8,48.52,51.184a1.2,1.2,0,0,1-1.255.3V50.01l5.268-5.263L53,45.2a1.144,1.144,0,0,1-.1,1.6Z"/>
        </g>
      </g>
    </g>
  </g>
</svg>
