<svg xmlns="http://www.w3.org/2000/svg" xmlns:xlink="http://www.w3.org/1999/xlink" width="98" height="97.998" viewBox="0 0 98 97.998">
  <defs>
    <clipPath id="clip-path">
      <rect id="Rectangle_412572" data-name="Rectangle 412572" width="57" height="55" transform="translate(1139.586 3878.605)" fill="#fff" stroke="#707070" stroke-width="1"/>
    </clipPath>
  </defs>
  <g id="Group_1206120" data-name="Group 1206120" transform="translate(-1119.086 -3857.106)">
    <g id="Group_1204751" data-name="Group 1204751" transform="translate(1119.086 3857.106)">
      <g id="Group_1204438" data-name="Group 1204438">
        <g id="Group_1204285" data-name="Group 1204285">
          <g id="Group_1204180" data-name="Group 1204180">
            <g id="Group_1204143" data-name="Group 1204143">
              <g id="Group_1188789" data-name="Group 1188789" transform="translate(0)">
                <path id="Path_1243039" data-name="Path 1243039" d="M41.05,0h0a41.05,41.05,0,0,1,0,82.1h0a41.05,41.05,0,0,1,0-82.1Z" transform="translate(7.951 7.949)" fill="#ffc63f"/>
                <rect id="Rectangle_400907" data-name="Rectangle 400907" width="88.438" height="88.437" rx="44.218" transform="translate(4.782 4.781)" fill="none"/>
                <g id="Group_1098742" data-name="Group 1098742" transform="translate(0)">
                  <g id="Rectangle_400898" data-name="Rectangle 400898" transform="translate(0)" fill="none" stroke="#fff" stroke-width="2" opacity="0.859">
                    <rect width="98" height="97.999" rx="48.999" stroke="none"/>
                    <rect x="1" y="1" width="96" height="95.999" rx="47.999" fill="none"/>
                  </g>
                  <g id="Rectangle_400907-2" data-name="Rectangle 400907" transform="translate(0)" fill="none" stroke="#0f1f33" stroke-linecap="round" stroke-width="2">
                    <rect width="98" height="97.999" rx="48.999" stroke="none"/>
                    <rect x="1" y="1" width="96" height="95.999" rx="47.999" fill="none"/>
                  </g>
                </g>
              </g>
            </g>
          </g>
        </g>
      </g>
    </g>
    <g id="Mask_Group_1099514" data-name="Mask Group 1099514" clip-path="url(#clip-path)">
      <g id="contact_2593659" transform="translate(1140.586 3878.605)">
        <g id="Group_1207566" data-name="Group 1207566">
          <g id="Group_1207550" data-name="Group 1207550">
            <path id="Path_1329106" data-name="Path 1329106" d="M13.556.806H47.88A1.32,1.32,0,0,1,49.2,2.121V48.535A1.32,1.32,0,0,1,47.88,49.85H13.556a1.32,1.32,0,0,1-1.319-1.315V2.121A1.32,1.32,0,0,1,13.556.806Z" fill="#f8f6f6" fill-rule="evenodd"/>
          </g>
          <g id="Group_1207551" data-name="Group 1207551">
            <path id="Path_1329107" data-name="Path 1329107" d="M46.375,2.121V48.535a1.32,1.32,0,0,1-1.319,1.315H47.88A1.32,1.32,0,0,0,49.2,48.535V2.121A1.32,1.32,0,0,0,47.88.806H45.056a1.32,1.32,0,0,1,1.319,1.315Z" fill="#e2e2e2" fill-rule="evenodd"/>
          </g>
          <g id="Group_1207552" data-name="Group 1207552">
            <path id="Path_1329108" data-name="Path 1329108" d="M19.7,14.29h10.8a.307.307,0,0,1,.305.308V25.386a.309.309,0,0,1-.305.308H19.7a.309.309,0,0,1-.305-.308V14.6A.307.307,0,0,1,19.7,14.29Z" fill="#31a7fb" fill-rule="evenodd"/>
          </g>
          <g id="Group_1207553" data-name="Group 1207553">
            <path id="Path_1329109" data-name="Path 1329109" d="M29.233,14.6V25.386a.309.309,0,0,1-.308.308h1.581a.309.309,0,0,0,.305-.308V14.6a.307.307,0,0,0-.305-.308H28.924a.307.307,0,0,1,.308.308Z" fill="#1785f8" fill-rule="evenodd"/>
          </g>
          <g id="Group_1207554" data-name="Group 1207554">
            <path id="Path_1329110" data-name="Path 1329110" d="M25.105,21.772a4.369,4.369,0,0,1,4.351,3.922h-8.7a4.369,4.369,0,0,1,4.35-3.922Z" fill="#bcea73" fill-rule="evenodd"/>
          </g>
          <g id="Group_1207555" data-name="Group 1207555">
            <path id="Path_1329111" data-name="Path 1329111" d="M25.105,22.19a2.821,2.821,0,1,0-2.824-2.821A2.826,2.826,0,0,0,25.105,22.19Z" fill="#ffe5c1" fill-rule="evenodd"/>
          </g>
          <g id="Group_1207556" data-name="Group 1207556">
            <path id="Path_1329112" data-name="Path 1329112" d="M25.74,19.371V19.4a2.823,2.823,0,0,1-1.414,2.446,3.055,3.055,0,0,1-.284.14,2.832,2.832,0,0,0,2.241-.049h0a2.823,2.823,0,0,0,1.642-2.565c0-.067,0-.131-.006-.2a2.83,2.83,0,0,0-3.944-2.391,2.818,2.818,0,0,1,1.762,2.592Z" fill="#fed1a3" fill-rule="evenodd"/>
          </g>
          <g id="Group_1207557" data-name="Group 1207557">
            <path id="Path_1329113" data-name="Path 1329113" d="M24.9,22.183a4.376,4.376,0,0,1,2.5,3.51h2.058a4.279,4.279,0,0,0-.156-.8c-.021-.07-.043-.137-.067-.207a4.38,4.38,0,0,0-2.949-2.757,2.809,2.809,0,0,1-1.178.256C25.035,22.19,24.968,22.186,24.9,22.183Z" fill="#99d53b" fill-rule="evenodd"/>
          </g>
          <g id="Group_1207558" data-name="Group 1207558">
            <path id="Path_1329114" data-name="Path 1329114" d="M19.848,30.476h10.8a.306.306,0,0,1,.305.3V41.569a.307.307,0,0,1-.305.308h-10.8a.307.307,0,0,1-.308-.308V30.781a.307.307,0,0,1,.308-.305Z" fill="#31a7fb" fill-rule="evenodd"/>
          </g>
          <g id="Group_1207559" data-name="Group 1207559">
            <path id="Path_1329115" data-name="Path 1329115" d="M29.373,30.781V41.569a.307.307,0,0,1-.305.308h1.578a.307.307,0,0,0,.305-.308V30.781a.306.306,0,0,0-.305-.3H29.068A.306.306,0,0,1,29.373,30.781Z" fill="#1785f8" fill-rule="evenodd"/>
          </g>
          <g id="Group_1207560" data-name="Group 1207560">
            <path id="Path_1329116" data-name="Path 1329116" d="M25.245,37.955A4.371,4.371,0,0,1,29.6,41.877h-8.7a4.376,4.376,0,0,1,4.35-3.922Z" fill="#bcea73" fill-rule="evenodd"/>
          </g>
          <g id="Group_1207561" data-name="Group 1207561">
            <path id="Path_1329117" data-name="Path 1329117" d="M25.245,38.373a2.821,2.821,0,1,0-2.824-2.821,2.829,2.829,0,0,0,2.824,2.821Z" fill="#ffe5c1" fill-rule="evenodd"/>
          </g>
          <g id="Group_1207562" data-name="Group 1207562">
            <path id="Path_1329118" data-name="Path 1329118" d="M25.883,35.558v.021a2.822,2.822,0,0,1-1.417,2.446,3.078,3.078,0,0,1-.284.143,2.864,2.864,0,0,0,1.062.2,2.82,2.82,0,0,0,2.827-2.821c0-.067,0-.131-.009-.2a2.827,2.827,0,0,0-3.941-2.394,2.828,2.828,0,0,1,1.761,2.6Z" fill="#fed1a3" fill-rule="evenodd"/>
          </g>
          <g id="Group_1207563" data-name="Group 1207563">
            <path id="Path_1329119" data-name="Path 1329119" d="M25.041,38.367a4.37,4.37,0,0,1,2.5,3.51H29.6a4.28,4.28,0,0,0-.156-.8c-.021-.07-.043-.137-.067-.207a4.382,4.382,0,0,0-2.946-2.757,2.834,2.834,0,0,1-1.182.256C25.178,38.373,25.108,38.373,25.041,38.367Z" fill="#99d53b" fill-rule="evenodd"/>
          </g>
          <g id="Group_1207564" data-name="Group 1207564">
            <path id="Path_1329120" data-name="Path 1329120" d="M9.993,47.141a20.456,20.456,0,0,0,7.639,6.24,10.072,10.072,0,0,0,6.262.528,7.432,7.432,0,0,0,3.16-1.809c2.128-2.2.162-3.395-1.713-4.642-2.207-1.562-3.175-1.745-4.717-.723-.608.72-2.861-.092-4.631-1.9a15.111,15.111,0,0,1-1.978-2.525c-1.316-2.129-1.493-4.416-.6-4.77,1.465-1.116,1.557-2.056.614-4.514-.7-1.995-1.432-4.169-4.189-2.879a7.226,7.226,0,0,0-2.714,2.373,8.8,8.8,0,0,0-1.246,5.871,19.247,19.247,0,0,0,4.112,8.747Z" fill="#9c9c9c" fill-rule="evenodd"/>
          </g>
          <g id="Group_1207565" data-name="Group 1207565">
            <path id="Path_1329121" data-name="Path 1329121" d="M12.472,33.8c.54,1.406-.44,1.711-.919,2.425-.885,1.311-1.328,3.578,1.368,7.939.913,1.476,5.453,6.057,8.17,4.511,1.618-1.162,2.354-.1,3.056.387,1.807,1.2,2.58,2.034,1.743,3.956a6.091,6.091,0,0,0,1.163-.921c2.128-2.2.162-3.395-1.713-4.642-2.207-1.562-3.175-1.745-4.717-.723-.608.72-2.861-.092-4.631-1.9a15.111,15.111,0,0,1-1.978-2.525c-1.316-2.129-1.493-4.416-.6-4.77,1.465-1.116,1.557-2.056.614-4.514-.7-1.995-1.432-4.169-4.189-2.879a6.849,6.849,0,0,0-2.015,1.507,5.567,5.567,0,0,1,.641-.357c2.757-1.29,3.307.506,4.006,2.5Z" fill="#838383" fill-rule="evenodd"/>
          </g>
        </g>
        <g id="Group_1207567" data-name="Group 1207567">
          <path id="Path_1329122" data-name="Path 1329122" d="M18.593,14.6V25.385A1.113,1.113,0,0,0,19.7,26.5h10.8a1.113,1.113,0,0,0,1.111-1.114V14.6a1.113,1.113,0,0,0-1.111-1.114H19.7A1.113,1.113,0,0,0,18.593,14.6Zm3.173,10.29a3.6,3.6,0,0,1,2.133-2.1,3.623,3.623,0,0,0,2.412,0,3.6,3.6,0,0,1,2.133,2.1Zm3.339-3.5a2.016,2.016,0,1,1,2.018-2.016A2.019,2.019,0,0,1,25.1,21.383ZM30,15.1V24.47a5.239,5.239,0,0,0-2.167-2.72,3.63,3.63,0,1,0-5.467,0A5.239,5.239,0,0,0,20.2,24.47V15.1Z"/>
          <path id="Path_1329123" data-name="Path 1329123" d="M19.847,42.682h10.8a1.114,1.114,0,0,0,1.111-1.114V30.781a1.112,1.112,0,0,0-1.111-1.111h-10.8a1.114,1.114,0,0,0-1.114,1.111V41.569A1.115,1.115,0,0,0,19.847,42.682Zm2.06-1.611a3.6,3.6,0,0,1,2.131-2.1,3.626,3.626,0,0,0,2.414,0,3.594,3.594,0,0,1,2.131,2.1H21.907Zm3.338-3.5a2.016,2.016,0,1,1,2.021-2.016A2.019,2.019,0,0,1,25.245,37.567Zm4.9-6.285v9.371a5.238,5.238,0,0,0-2.164-2.72,3.631,3.631,0,1,0-5.469,0,5.248,5.248,0,0,0-2.167,2.724V31.281h9.8Z"/>
          <path id="Path_1329124" data-name="Path 1329124" d="M43.758,19.184H34.779a.806.806,0,0,0,0,1.611h8.979a.806.806,0,0,0,0-1.611Z"/>
          <path id="Path_1329125" data-name="Path 1329125" d="M34.779,15.6a.806.806,0,1,0,0,1.611h5.392a.806.806,0,0,0,0-1.611Z"/>
          <path id="Path_1329126" data-name="Path 1329126" d="M43.758,22.768H34.779a.806.806,0,0,0,0,1.611h8.979a.806.806,0,0,0,0-1.611Z"/>
          <path id="Path_1329127" data-name="Path 1329127" d="M43.758,34.818H34.779a.806.806,0,0,0,0,1.611h8.979a.806.806,0,1,0,0-1.611Z"/>
          <path id="Path_1329128" data-name="Path 1329128" d="M34.779,32.849h5.392a.806.806,0,1,0,0-1.611H34.779a.806.806,0,0,0,0,1.611Z"/>
          <path id="Path_1329129" data-name="Path 1329129" d="M43.758,38.4H34.779a.806.806,0,1,0,0,1.611h8.979a.806.806,0,0,0,0-1.611Z"/>
          <path id="Path_1329130" data-name="Path 1329130" d="M49.2,24.215A.806.806,0,0,0,50,23.409V2.12A2.125,2.125,0,0,0,47.88,0H13.555A2.125,2.125,0,0,0,11.43,2.12V28.96a4.251,4.251,0,0,0-1.932.46,8.072,8.072,0,0,0-3.04,2.651A9.611,9.611,0,0,0,5.082,38.5a18.29,18.29,0,0,0,2.573,6.7.806.806,0,1,0,1.377-.838,16.664,16.664,0,0,1-2.354-6.082,8.057,8.057,0,0,1,1.114-5.307,6.465,6.465,0,0,1,2.389-2.1,2.009,2.009,0,0,1,1.563-.233c.7.294,1.127,1.516,1.505,2.595l.019.054.008.022c.888,2.314.67,2.794-.281,3.532a1.625,1.625,0,0,0-.8.99c-.4,1.193.059,3.161,1.133,4.9A15.932,15.932,0,0,0,15.416,45.4a7.264,7.264,0,0,0,4.492,2.4l.093,0a1.668,1.668,0,0,0,1.14-.442c1.026-.667,1.618-.739,3.733.758l.019.013.17.113c.952.632,2.031,1.348,2.1,2a1.965,1.965,0,0,1-.693,1.3,6.664,6.664,0,0,1-2.8,1.593,9.349,9.349,0,0,1-5.729-.493A19.225,19.225,0,0,1,11.2,47.357a.806.806,0,0,0-1.233,1.037,20.876,20.876,0,0,0,7.352,5.729A11.6,11.6,0,0,0,21.69,55a9.006,9.006,0,0,0,2.421-.316,8.267,8.267,0,0,0,3.521-2.024,3.7,3.7,0,0,0,1.126-2.005H47.88A2.125,2.125,0,0,0,50,48.535v-21.4a.806.806,0,1,0-1.611,0v21.4a.512.512,0,0,1-.513.509H28.412A7.841,7.841,0,0,0,25.954,46.9l-.159-.106c-2.2-1.557-3.607-2.062-5.617-.73a.8.8,0,0,0-.139.117c-.373.118-1.975-.38-3.471-1.905A14.3,14.3,0,0,1,14.7,41.889c-1.087-1.758-1.154-3.3-.946-3.615a.807.807,0,0,0,.15-.09c1.949-1.485,1.839-2.936.882-5.432l-.015-.043a6.989,6.989,0,0,0-1.728-3.136V2.12a.512.512,0,0,1,.513-.509H47.879a.512.512,0,0,1,.513.509V23.409A.806.806,0,0,0,49.2,24.215Z"/>
          <path id="Path_1329131" data-name="Path 1329131" d="M44.173,6.6a.806.806,0,0,0-.806-.806H20.427a.806.806,0,0,0,0,1.611h22.94A.806.806,0,0,0,44.173,6.6Z"/>
          <path id="Path_1329132" data-name="Path 1329132" d="M38.482,10.129a.806.806,0,0,0-.806-.806H24.237a.806.806,0,0,0,0,1.611H37.677A.806.806,0,0,0,38.482,10.129Z"/>
        </g>
      </g>
    </g>
  </g>
</svg>
