<svg xmlns="http://www.w3.org/2000/svg" xmlns:xlink="http://www.w3.org/1999/xlink" width="98" height="97.998" viewBox="0 0 98 97.998">
  <defs>
    <clipPath id="clip-path">
      <rect id="Rectangle_412572" data-name="Rectangle 412572" width="57" height="55" transform="translate(1139.586 3878.605)" fill="#fff" stroke="#707070" stroke-width="1"/>
    </clipPath>
  </defs>
  <g id="Group_1206121" data-name="Group 1206121" transform="translate(-1119.086 -3857.106)">
    <g id="Group_1204751" data-name="Group 1204751" transform="translate(1119.086 3857.106)">
      <g id="Group_1204438" data-name="Group 1204438">
        <g id="Group_1204285" data-name="Group 1204285">
          <g id="Group_1204180" data-name="Group 1204180">
            <g id="Group_1204143" data-name="Group 1204143">
              <g id="Group_1188789" data-name="Group 1188789" transform="translate(0)">
                <path id="Path_1243039" data-name="Path 1243039" d="M41.05,0h0a41.05,41.05,0,0,1,0,82.1h0a41.05,41.05,0,0,1,0-82.1Z" transform="translate(7.951 7.949)" fill="#ffc63f"/>
                <rect id="Rectangle_400907" data-name="Rectangle 400907" width="88.438" height="88.437" rx="44.218" transform="translate(4.782 4.781)" fill="none"/>
                <g id="Group_1098742" data-name="Group 1098742" transform="translate(0)">
                  <g id="Rectangle_400898" data-name="Rectangle 400898" transform="translate(0)" fill="none" stroke="#fff" stroke-width="2" opacity="0.859">
                    <rect width="98" height="97.999" rx="48.999" stroke="none"/>
                    <rect x="1" y="1" width="96" height="95.999" rx="47.999" fill="none"/>
                  </g>
                  <g id="Rectangle_400907-2" data-name="Rectangle 400907" transform="translate(0)" fill="none" stroke="#0f1f33" stroke-linecap="round" stroke-width="2">
                    <rect width="98" height="97.999" rx="48.999" stroke="none"/>
                    <rect x="1" y="1" width="96" height="95.999" rx="47.999" fill="none"/>
                  </g>
                </g>
              </g>
            </g>
          </g>
        </g>
      </g>
    </g>
    <g id="Mask_Group_1099513" data-name="Mask Group 1099513" clip-path="url(#clip-path)">
      <g id="earth_1878450" transform="translate(1139.699 3877.719)">
        <circle id="Ellipse_12920" data-name="Ellipse 12920" cx="17.742" cy="17.742" r="17.742" transform="translate(19.516 1.774)" fill="#69d6f4"/>
        <path id="Path_1329103" data-name="Path 1329103" d="M27.527,34.348a9.91,9.91,0,0,1,.86,4.072,10,10,0,0,1-2.936,7.1l-.55.55-6,6a9.982,9.982,0,0,1-3.256,2.173A10.091,10.091,0,0,1,11.807,55a10.036,10.036,0,0,1-7.1-17.13l6.547-6.547a9.983,9.983,0,0,1,3.256-2.173,10.091,10.091,0,0,1,3.841-.763,9.043,9.043,0,0,1,1.1.062L18.9,29a10.042,10.042,0,0,0-2.12,3.123,6.477,6.477,0,0,0-3.016,1.712L7.221,40.381a6.486,6.486,0,0,0,9.173,9.173l4.7-4.7,1.845-1.845a6.67,6.67,0,0,0,.727-.86,6.427,6.427,0,0,0,1.171-3.726,6.494,6.494,0,0,0-4.152-6.05,6.671,6.671,0,0,1,.727-.86l1.845-1.845a10.122,10.122,0,0,1,3.708,3.61Z" fill="#ffeaa7"/>
        <path id="Path_1329104" data-name="Path 1329104" d="M38.917,28.387a6.479,6.479,0,0,0-10.077-4.16,6.233,6.233,0,0,0-.878.736l-3.424,3.424L23.26,29.665,21.415,31.51a6.67,6.67,0,0,0-.727.86A6.427,6.427,0,0,0,19.516,36.1a6.494,6.494,0,0,0,4.152,6.05,6.671,6.671,0,0,1-.727.86L21.1,44.852a10.122,10.122,0,0,1-3.708-3.61A9.955,9.955,0,0,1,15.968,36.1,10,10,0,0,1,18.9,29l.55-.55,1.632-1.632,4.365-4.365a9.982,9.982,0,0,1,3.256-2.173,10.091,10.091,0,0,1,3.841-.763,10.053,10.053,0,0,1,9.962,8.871l.071,1.162a10.038,10.038,0,0,1-2.936,7.1l-.515.515L33.1,43.193a9.982,9.982,0,0,1-3.256,2.173A10.091,10.091,0,0,1,26,46.129a9.043,9.043,0,0,1-1.1-.062l.55-.55a10.042,10.042,0,0,0,2.12-3.123,6.477,6.477,0,0,0,3.016-1.712L34.26,37.01h.009l1.153-1.162,1.712-1.712a6.434,6.434,0,0,0,1.9-4.586,5.553,5.553,0,0,0-.115-1.162Z" fill="#fcd770"/>
        <path id="Path_1329105" data-name="Path 1329105" d="M55.887,19.516a18.629,18.629,0,1,0-35.852,7.1l-.928.928A10.84,10.84,0,0,0,10.627,30.7L4.086,37.24A10.923,10.923,0,0,0,19.534,52.688l5.713-5.713c.254.017.507.041.757.041a10.851,10.851,0,0,0,7.724-3.2l5.826-5.826A18.556,18.556,0,0,0,55.887,19.516ZM38.493,20.4h6.729A21.718,21.718,0,0,1,43.8,27.5h-.53A10.936,10.936,0,0,0,38.493,20.4ZM20.448,18.629a16.737,16.737,0,0,1,1.971-7.1H28.81a23.763,23.763,0,0,0-1.291,7.1Zm8.865,0a21.622,21.622,0,0,1,1.427-7.1H43.783a21.7,21.7,0,0,1,1.42,7.1ZM37.26,2.849A19.594,19.594,0,0,1,42.99,9.758H31.535A19.753,19.753,0,0,1,37.26,2.849Zm16.808,15.78H47a23.763,23.763,0,0,0-1.291-7.1H52.1a16.737,16.737,0,0,1,1.971,7.1ZM47,20.4h7.075A16.824,16.824,0,0,1,52.1,27.5H45.692A23.708,23.708,0,0,0,47,20.4Zm3.98-10.645H45a21.533,21.533,0,0,0-4.861-6.832A16.858,16.858,0,0,1,50.975,9.758Zm-16.6-6.832a21.52,21.52,0,0,0-4.862,6.832H23.541A16.858,16.858,0,0,1,34.379,2.926ZM20.449,20.4h6.129a11,11,0,0,0-1.758,1.425l-3.4,3.4a16.725,16.725,0,0,1-.966-4.829Zm-2.17,31.03A9.149,9.149,0,1,1,5.341,38.495l6.541-6.541a9.085,9.085,0,0,1,5.561-2.636A10.874,10.874,0,0,0,16.149,31.4a7.348,7.348,0,0,0-3.012,1.809L6.6,39.75A7.374,7.374,0,1,0,17.024,50.179l6.541-6.541a7.321,7.321,0,0,0,2.16-5.214A7.429,7.429,0,0,0,22.1,32.08L23.375,30.8A9.125,9.125,0,0,1,24.82,44.893Zm-2.93-17.726A10.857,10.857,0,0,0,19.7,44.994l-3.93,3.931A5.6,5.6,0,0,1,7.85,41l6.541-6.541a5.552,5.552,0,0,1,.958-.756Zm5.681-.191a5.638,5.638,0,0,1,2.921,4.907A5.58,5.58,0,0,1,23.324,41,5.639,5.639,0,0,1,20.4,36.093a5.58,5.58,0,0,1,.627-2.577Zm17.115-3.964a5.558,5.558,0,0,1-1.64,3.96l-1.1,1.1a20.184,20.184,0,0,1-3.9-5.339H38.13C38.135,29.367,38.145,29.459,38.145,29.552ZM30.721,27.5a20.571,20.571,0,0,1-.876-2.855A5.6,5.6,0,0,1,37.751,27.5Zm-2.4-1.643q.23.853.509,1.643H26.675ZM24.9,29.274h4.642a22.012,22.012,0,0,0,4.606,6.593l-.168.168a16.619,16.619,0,0,1-5.805-2.328,10.925,10.925,0,0,0-3.523-4.185Zm7.6,8.246-2.534,2.534A5.636,5.636,0,0,1,29,40.81a11.007,11.007,0,0,0,.27-2.387,10.871,10.871,0,0,0-.25-2.207A18.368,18.368,0,0,0,32.5,37.521Zm-.024,5.041A9.085,9.085,0,0,1,26.912,45.2a10.83,10.83,0,0,0,1.294-2.081,7.349,7.349,0,0,0,3.012-1.809l6.541-6.541A7.374,7.374,0,1,0,27.331,24.338l-6.541,6.541a7.321,7.321,0,0,0-2.16,5.214,7.429,7.429,0,0,0,3.63,6.343L20.98,43.715a9.124,9.124,0,0,1-1.445-14.092l6.541-6.541A9.149,9.149,0,1,1,39.014,36.021Zm9.008-6.739a10.832,10.832,0,0,0,1.987-6.27c0-.094-.012-.185-.014-.278h7.554A16.738,16.738,0,0,1,41.481,35.823Z"/>
      </g>
    </g>
  </g>
</svg>
